<?xml version="1.0" encoding="UTF-8"?>
<svg width="1512" height="574" viewBox="0 0 1512 574" fill="none" xmlns="http://www.w3.org/2000/svg">
<path d="m678.21 1.115-300.38 571.9" stroke="#343839" stroke-linecap="round" stroke-linejoin="round" stroke-width=".55747"/>
<path d="m445.26 1.1152-445.26 212.21" stroke="#343839" stroke-linecap="round" stroke-linejoin="round" stroke-width=".55747"/>
<path d="m367.6 1.1152-367.6 140.17" stroke="#343839" stroke-linecap="round" stroke-linejoin="round" stroke-width=".55747"/>
<path d="m289.96 1.115-289.96 92.143" stroke="#343839" stroke-linecap="round" stroke-linejoin="round" stroke-width=".55747"/>
<path d="m522.91 1.1152-522.91 332.25" stroke="#343839" stroke-linecap="round" stroke-linejoin="round" stroke-width=".55747"/>
<path d="m212.3 1.115-212.3 57.83" stroke="#343839" stroke-linecap="round" stroke-linejoin="round" stroke-width=".55747"/>
<path d="M56.996 1.11499L0 13.192" stroke="#343839" stroke-linecap="round" stroke-linejoin="round" stroke-width=".55747"/>
<path d="M134.65 1.11499L0 33.2074" stroke="#343839" stroke-linecap="round" stroke-linejoin="round" stroke-width=".55747"/>
<path d="m1299.4 1.115 212.57 57.935" stroke="#343839" stroke-linecap="round" stroke-linejoin="round" stroke-width=".55747"/>
<path d="m755.87 1.115-0.52 571.9" stroke="#343839" stroke-linecap="round" stroke-linejoin="round" stroke-width=".55747"/>
<path d="m1377.1 1.115 134.91 32.168" stroke="#343839" stroke-linecap="round" stroke-linejoin="round" stroke-width=".55747"/>
<path d="m1454.7 1.115 57.27 12.137" stroke="#343839" stroke-linecap="round" stroke-linejoin="round" stroke-width=".55747"/>
<path d="m1221.8 1.115 290.22 92.284" stroke="#343839" stroke-linecap="round" stroke-linejoin="round" stroke-width=".55747"/>
<path d="m1144.1 1.115 367.88 140.37" stroke="#343839" stroke-linecap="round" stroke-linejoin="round" stroke-width=".55747"/>
<path d="m988.82 1.115 523.18 332.8" stroke="#343839" stroke-linecap="round" stroke-linejoin="round" stroke-width=".55747"/>
<path d="m1066.5 1.115 445.52 212.52" stroke="#343839" stroke-linecap="round" stroke-linejoin="round" stroke-width=".55747"/>
<path d="m833.52 1.115 299.35 571.9" stroke="#343839" stroke-linecap="round" stroke-linejoin="round" stroke-width=".55747"/>
<path d="m600.56 1.115-600.24 571.9" stroke="#343839" stroke-linecap="round" stroke-linejoin="round" stroke-width=".55747"/>
<path d="m911.17 1.115 599.21 571.9" stroke="#343839" stroke-linecap="round" stroke-linejoin="round" stroke-width=".55747"/>
<path d="m1512 79.164h-1512" stroke="#343839" stroke-linecap="round" stroke-linejoin="round" stroke-width=".55747"/>
<path d="m1512 26.824h-1512" stroke="#343839" stroke-linecap="round" stroke-linejoin="round" stroke-width=".55747"/>
<path d="m1512 37.495h-1512" stroke="#343839" stroke-linecap="round" stroke-linejoin="round" stroke-width=".55747"/>
<path d="m1512 49.565h-1512" stroke="#343839" stroke-linecap="round" stroke-linejoin="round" stroke-width=".55747"/>
<path d="m1512 8.7976h-1512" stroke="#343839" stroke-linecap="round" stroke-linejoin="round" stroke-width=".55747"/>
<path d="m1512 17.319h-1512" stroke="#343839" stroke-linecap="round" stroke-linejoin="round" stroke-width=".55747"/>
<path d="m1512 421.62h-1512" stroke="#343839" stroke-linecap="round" stroke-linejoin="round" stroke-width=".55747"/>
<path d="m1512 97.575h-1512" stroke="#343839" stroke-linecap="round" stroke-linejoin="round" stroke-width=".55747"/>
<path d="m1512 63.33h-1512" stroke="#343839" stroke-linecap="round" stroke-linejoin="round" stroke-width=".55747"/>
<path d="m1512 1.1149h-1512" stroke="#343839" stroke-linecap="round" stroke-linejoin="round" stroke-width=".55747"/>
<path d="m1512 119.25h-1512" stroke="#343839" stroke-linecap="round" stroke-linejoin="round" stroke-width=".55747"/>
<path d="m1512 145.14h-1512" stroke="#343839" stroke-linecap="round" stroke-linejoin="round" stroke-width=".55747"/>
<path d="m1512 331.12h-1512" stroke="#343839" stroke-linecap="round" stroke-linejoin="round" stroke-width=".55747"/>
<path d="m1512 176.61h-1512" stroke="#343839" stroke-linecap="round" stroke-linejoin="round" stroke-width=".55747"/>
<path d="m1512 215.68h-1512" stroke="#343839" stroke-linecap="round" stroke-linejoin="round" stroke-width=".55747"/>
<path d="m1512 265.48h-1512" stroke="#343839" stroke-linecap="round" stroke-linejoin="round" stroke-width=".55747"/>
</svg>
