<svg width="1512" height="574" viewBox="0 0 1512 574" fill="none" xmlns="http://www.w3.org/2000/svg">
<path d="M678.213 1.11499L377.834 573.019" stroke="#343839" stroke-width="0.55747" stroke-linecap="round" stroke-linejoin="round"/>
<path d="M445.258 1.11523L0.00170898 213.326" stroke="#343839" stroke-width="0.55747" stroke-linecap="round" stroke-linejoin="round"/>
<path d="M367.604 1.11523L0.00170898 141.29" stroke="#343839" stroke-width="0.55747" stroke-linecap="round" stroke-linejoin="round"/>
<path d="M289.958 1.11499L0.00012207 93.258" stroke="#343839" stroke-width="0.55747" stroke-linecap="round" stroke-linejoin="round"/>
<path d="M522.913 1.11523L0.000610352 333.363" stroke="#343839" stroke-width="0.55747" stroke-linecap="round" stroke-linejoin="round"/>
<path d="M212.304 1.11499L0.00012207 58.9447" stroke="#343839" stroke-width="0.55747" stroke-linecap="round" stroke-linejoin="round"/>
<path d="M56.996 1.11499L0 13.192" stroke="#343839" stroke-width="0.55747" stroke-linecap="round" stroke-linejoin="round"/>
<path d="M134.65 1.11499L0 33.2074" stroke="#343839" stroke-width="0.55747" stroke-linecap="round" stroke-linejoin="round"/>
<path d="M1299.43 1.11499L1512 59.0495" stroke="#343839" stroke-width="0.55747" stroke-linecap="round" stroke-linejoin="round"/>
<path d="M755.867 1.11499L755.347 573.019" stroke="#343839" stroke-width="0.55747" stroke-linecap="round" stroke-linejoin="round"/>
<path d="M1377.09 1.11499L1512 33.2832" stroke="#343839" stroke-width="0.55747" stroke-linecap="round" stroke-linejoin="round"/>
<path d="M1454.73 1.11499L1512 13.2522" stroke="#343839" stroke-width="0.55747" stroke-linecap="round" stroke-linejoin="round"/>
<path d="M1221.78 1.11499L1512 93.3985" stroke="#343839" stroke-width="0.55747" stroke-linecap="round" stroke-linejoin="round"/>
<path d="M1144.12 1.11499L1512 141.484" stroke="#343839" stroke-width="0.55747" stroke-linecap="round" stroke-linejoin="round"/>
<path d="M988.822 1.11499L1512 333.915" stroke="#343839" stroke-width="0.55747" stroke-linecap="round" stroke-linejoin="round"/>
<path d="M1066.48 1.11499L1512 213.638" stroke="#343839" stroke-width="0.55747" stroke-linecap="round" stroke-linejoin="round"/>
<path d="M833.521 1.11499L1132.87 573.019" stroke="#343839" stroke-width="0.55747" stroke-linecap="round" stroke-linejoin="round"/>
<path d="M600.559 1.11499L0.322449 573.019" stroke="#343839" stroke-width="0.55747" stroke-linecap="round" stroke-linejoin="round"/>
<path d="M911.168 1.11499L1510.38 573.019" stroke="#343839" stroke-width="0.55747" stroke-linecap="round" stroke-linejoin="round"/>
<path d="M1512 79.164H0.00189209" stroke="#343839" stroke-width="0.55747" stroke-linecap="round" stroke-linejoin="round"/>
<path d="M1512 26.8239H0.00189209" stroke="#343839" stroke-width="0.55747" stroke-linecap="round" stroke-linejoin="round"/>
<path d="M1512 37.4953H0.00189209" stroke="#343839" stroke-width="0.55747" stroke-linecap="round" stroke-linejoin="round"/>
<path d="M1512 49.5648H0.00189209" stroke="#343839" stroke-width="0.55747" stroke-linecap="round" stroke-linejoin="round"/>
<path d="M1512 8.79756H0.00189209" stroke="#343839" stroke-width="0.55747" stroke-linecap="round" stroke-linejoin="round"/>
<path d="M1512 17.3187H0.00189209" stroke="#343839" stroke-width="0.55747" stroke-linecap="round" stroke-linejoin="round"/>
<path d="M1512 421.622H0.00189209" stroke="#343839" stroke-width="0.55747" stroke-linecap="round" stroke-linejoin="round"/>
<path d="M1512 97.5747H0.00189209" stroke="#343839" stroke-width="0.55747" stroke-linecap="round" stroke-linejoin="round"/>
<path d="M1512 63.3305H0.00189209" stroke="#343839" stroke-width="0.55747" stroke-linecap="round" stroke-linejoin="round"/>
<path d="M1512 1.11494H0.00164795" stroke="#343839" stroke-width="0.55747" stroke-linecap="round" stroke-linejoin="round"/>
<path d="M1512 119.246H0.00189209" stroke="#343839" stroke-width="0.55747" stroke-linecap="round" stroke-linejoin="round"/>
<path d="M1512 145.137H0.00189209" stroke="#343839" stroke-width="0.55747" stroke-linecap="round" stroke-linejoin="round"/>
<path d="M1512 331.121H0.00189209" stroke="#343839" stroke-width="0.55747" stroke-linecap="round" stroke-linejoin="round"/>
<path d="M1512 176.608H0.00189209" stroke="#343839" stroke-width="0.55747" stroke-linecap="round" stroke-linejoin="round"/>
<path d="M1512 215.678H0.00189209" stroke="#343839" stroke-width="0.55747" stroke-linecap="round" stroke-linejoin="round"/>
<path d="M1512 265.475H0.00189209" stroke="#343839" stroke-width="0.55747" stroke-linecap="round" stroke-linejoin="round"/>
</svg>
