<?xml version="1.0" encoding="utf-8" ?>
<svg xmlns="http://www.w3.org/2000/svg" xmlns:xlink="http://www.w3.org/1999/xlink" width="788" height="592">
	<path fill="#223451" transform="scale(1.15612 1.15612)" d="M258.584 55.8998C264.531 55.5349 270.701 55.8917 276.671 55.8916L361.001 55.8866C384.733 55.8885 384.487 50.397 399.846 65.9931L415.069 81.6627C420.04 86.811 426.11 91.9541 430.257 97.7687C431.395 105.567 430.245 114.367 430.247 122.281L430.254 213.18C430.336 234.62 433.574 235.329 409.743 235.275L295.719 235.25L295.719 272.327L408.331 272.303C429.143 272.246 429.282 271.874 429.29 294.935L429.286 389.228L452.295 389.252C505.605 389.277 495.153 363.029 505.854 357.301C509.949 355.109 514.637 355.854 516.652 360.292C522.35 372.84 496.458 395.568 486.274 400.294C474.718 405.362 463.266 405.175 450.902 405.164L429.286 405.153C429.705 427.628 420.504 421.646 400.086 421.627C400.123 430.917 403.862 448.275 390.359 448.546C380.269 448.749 370.139 448.535 360.044 448.529L278.231 448.539C264.187 448.638 251.595 450.625 251.551 432.125L251.574 300.241C251.558 274.007 253.071 272.121 279.725 272.327L279.725 235.25C256.762 235.017 251.531 238.111 251.567 212.261L251.592 111.177C248.86 110.745 226.453 110.556 222.915 110.88C188.677 114.011 192.789 153.985 178.648 146.399C175.705 144.82 174.516 142.104 173.602 139.074C183.711 96.4776 214.281 94.6994 251.592 94.7628C251.611 84.2711 247.002 59.1898 258.584 55.8998ZM267.268 433.071L384.218 433.071L384.218 295.369C384.225 292.88 384.281 290.38 384.218 287.892L267.268 287.892L267.268 301.706C266.821 305.887 267.234 310.546 267.243 314.785L267.268 433.071ZM267.268 219.71L277.109 219.71C277.785 214.222 277.149 208.364 277.124 202.828L277.111 110.438C277.117 101.069 277.642 91.5847 277.109 82.24C281.698 82.7416 286.293 82.2862 290.891 82.2796L363.723 82.2439C366.646 82.266 375.224 83.9995 377.272 82.24L377.272 71.4359L267.268 71.4359L267.268 219.71ZM392.732 81.0371C392.561 95.6179 391.275 95.9533 406.314 94.7628C403.383 92.3452 394.335 81.6202 392.732 81.0371ZM413.326 287.892L400.086 287.892L400.086 406.053L413.326 406.053C413.785 401.932 413.397 397.474 413.366 393.302L413.326 287.892Z"/>
	<path fill="white" transform="scale(1.15612 1.15612)" d="M277.109 82.24C281.698 82.7416 286.293 82.2862 290.891 82.2796L363.723 82.2439C366.646 82.266 375.224 83.9995 377.272 82.24C376.938 113.563 388.666 110.828 414.974 111.177L414.974 219.71L277.109 219.71C277.785 214.222 277.149 208.364 277.124 202.828L277.111 110.438C277.117 101.069 277.642 91.5847 277.109 82.24Z"/>
	<path fill="#223451" transform="scale(1.15612 1.15612)" d="M291.455 178.454C294.132 177.725 307.297 178.467 311.287 178.468L383.03 178.501C387.478 178.514 393.345 176.645 397.438 178.983C403.743 182.584 401.787 192.223 395.027 193.771L304.508 193.794C299.739 193.807 291.853 195.039 287.685 192.16C281.254 187.718 284.151 179.42 291.455 178.454Z"/>
	<path fill="#223451" transform="scale(1.15612 1.15612)" d="M291.455 150.773L361.437 150.783C368.592 150.796 391.318 149.095 396.857 151.669C403.848 154.918 401.946 164.638 395.027 166.479C389.893 166.741 384.635 166.502 379.486 166.494L312.697 166.493C307.929 166.493 292.752 167.65 288.875 165.552C282.178 161.927 284.163 152.41 291.455 150.773Z"/>
	<path fill="#223451" transform="scale(1.15612 1.15612)" d="M293.282 123.159L333.147 123.164C339.152 123.162 345.631 122.574 351.572 123.178C362.539 124.292 361.697 138.307 351.739 139.074L311.836 139.035C305.021 139.039 286.337 142.326 284.69 132.496C283.7 126.59 288.045 123.74 293.282 123.159Z"/>
	<path fill="#223451" transform="scale(1.15612 1.15612)" d="M291.455 95.5513L330.388 95.5735C337.491 95.5523 344.787 95.1382 351.862 95.5618C361.861 96.1603 363.335 107.481 353.804 111.177C350.442 111.491 346.852 111.216 343.469 111.197L305.157 111.187C299.697 111.211 286.504 112.833 284.808 105.522C283.733 100.886 287.176 96.6743 291.455 95.5513Z"/>
	<path fill="white" transform="scale(1.15612 1.15612)" d="M384.218 300.889C384.084 299.48 383.493 296.527 384.218 295.369L384.218 433.071L267.268 433.071L267.243 314.785C267.234 310.546 266.821 305.887 267.268 301.706C275.002 300.597 282.755 300.873 290.548 300.879L362.315 300.887C369.643 300.878 376.886 300.575 384.218 300.889ZM332.104 337.883C327.211 337.978 322.312 337.91 317.418 337.883C317.518 336.628 318.339 333.572 316.483 333.489C308.107 336.832 303.994 341.558 300.048 349.547L305.999 349.547C306.002 354.543 306.082 359.554 305.999 364.548C304.036 364.506 302 364.356 300.048 364.548C302.866 373.052 308.912 379.432 317.418 382.284C317.697 380.007 317.573 377.77 317.418 375.488L332.104 375.488C331.982 377.295 331.284 380.688 332.104 382.284C341.029 378.883 345.686 373.513 349.517 364.991L349.715 364.548C347.214 364.391 344.777 364.443 342.277 364.548L342.277 349.547C344.775 349.702 347.218 349.74 349.715 349.547C346.111 341.015 341.011 335.789 332.104 333.489C332.106 334.951 332.143 336.422 332.104 337.883Z"/>
	<path fill="#223451" transform="scale(1.15612 1.15612)" d="M317.418 307.976L332.104 307.976L332.104 317.662C348.785 320.106 361.268 333.272 364.84 349.547L372.649 349.547L372.649 364.548L364.84 364.548C360.611 381.211 349.754 394.195 332.104 397.504C332.146 399.959 332.629 402.421 332.513 404.871L332.104 405.153L317.418 405.153L317.418 397.504C301.164 394.723 286.368 381.35 284.478 364.548L276.56 364.548L276.56 349.547L284.478 349.547C287.567 333.015 301.073 320.876 317.418 317.662L317.418 307.976ZM332.104 337.883C327.211 337.978 322.312 337.91 317.418 337.883C317.518 336.628 318.339 333.572 316.483 333.489C308.107 336.832 303.994 341.558 300.048 349.547L305.999 349.547C306.002 354.543 306.082 359.554 305.999 364.548C304.036 364.506 302 364.356 300.048 364.548C302.866 373.052 308.912 379.432 317.418 382.284C317.697 380.007 317.573 377.77 317.418 375.488L332.104 375.488C331.982 377.295 331.284 380.688 332.104 382.284C341.029 378.883 345.686 373.513 349.517 364.991L349.715 364.548C347.214 364.391 344.777 364.443 342.277 364.548L342.277 349.547C344.775 349.702 347.218 349.74 349.715 349.547C346.111 341.015 341.011 335.789 332.104 333.489C332.106 334.951 332.143 336.422 332.104 337.883Z"/>
	<path fill="#223451" transform="scale(1.15612 1.15612)" d="M532.276 162.842L578.638 162.828C608.629 162.832 614.853 158.523 614.74 193.164L614.786 321.263C614.764 344.864 599.836 342.81 581.846 342.801L543.719 342.78L497.745 342.8C482.528 342.832 462.953 346.525 462.208 324.963C461.832 314.077 462.173 303.077 462.174 292.179L462.153 190.785C462.1 163.63 458.229 162.815 488.924 162.822C503.336 162.825 517.876 163.288 532.276 162.842Z"/>
	<path fill="white" transform="scale(1.15612 1.15612)" d="M477.556 178.454L599.641 178.454C600.66 180.456 600.421 186.373 599.641 188.435C600.612 190.961 599.74 310.489 599.615 318.377C599.42 330.771 595.664 327.256 583.211 327.162L477.556 327.126L477.556 189.372L477.556 178.454Z"/>
	<path fill="white" transform="scale(1.15612 1.15612)" d="M477.556 178.454L599.641 178.454C600.66 180.456 600.421 186.373 599.641 188.435L599.482 189.061C592.367 190.792 551.367 189.373 542.369 189.373L477.556 189.372L477.556 178.454Z"/>
	<path fill="#223451" transform="scale(1.15612 1.15612)" d="M498.213 285.715L547.843 285.711C554.296 285.713 575.555 284.196 580.688 286.658C588.117 290.223 585.197 299.922 578.16 301.706C575.592 302.144 572.552 301.756 569.916 301.73L519.472 301.713C513.7 301.712 499.466 303.191 494.586 300.271C487.628 296.108 491.078 287.201 498.213 285.715Z"/>
	<path fill="#223451" transform="scale(1.15612 1.15612)" d="M498.213 258.378C514.873 258.057 531.615 258.383 548.284 258.365L566.62 258.351C571.082 258.348 578.545 257.23 582.245 260.347C588.115 265.293 583.993 273.655 577.019 274.056C573.75 274.317 570.276 274.07 566.983 274.069L514.439 274.058C510.252 274.06 498.524 275.229 494.956 273.321C487.749 269.467 491.096 259.776 498.213 258.378Z"/>
	<path fill="#223451" transform="scale(1.15612 1.15612)" d="M497.188 231.312C501.286 231.023 505.572 231.285 509.695 231.296L563.246 231.317C567.657 231.316 572.179 231.042 576.572 231.255C586.349 231.729 588.002 244.478 578.16 247C575.535 247.346 572.529 247.056 569.861 247.046L552.564 246.995C542.014 246.976 503.623 248.752 495.945 246.425C487.601 243.896 490.425 234.285 497.188 231.312Z"/>
	<path fill="#223451" transform="scale(1.15612 1.15612)" d="M497.188 203.689C513.164 203.225 529.29 203.683 545.279 203.687L565.655 203.682C571.042 203.674 583.422 202.112 584.848 209.449C585.698 213.828 582.675 218.968 578.16 219.71L530.222 219.713C523.041 219.717 501.461 220.689 495.606 218.626C487.98 215.939 490.193 206.633 497.188 203.689Z"/>
	<path fill="#223451" transform="scale(1.15612 1.15612)" d="M80.0974 162.842C84.5571 162.384 89.5718 162.826 94.0887 162.828L157.182 162.823C187.371 162.771 179.969 164.435 202.98 187.685C206.711 191.454 220.004 203.098 221.706 206.926C222.671 209.098 222.578 313.496 222.201 323.175C221.846 332.31 216.859 338.529 208.195 341.856C200.343 343.823 191.315 342.783 183.279 342.787L107.198 342.789C70.2282 342.772 66.7558 344.691 66.7573 303.137L66.7615 203.583C66.76 189.668 61.4422 164.392 80.0974 162.842ZM93.5933 327.126C93.9472 321.963 93.6273 316.765 93.5988 311.595L93.5933 191.466L139.939 191.469C149.697 191.471 158.394 191.762 168.002 192.03C168.609 191.537 168.67 190.156 168.834 189.372L168.834 178.454L82.2688 178.454L82.2681 317.648C82.2752 329.249 82.5873 326.582 93.5933 327.126Z"/>
	<path fill="white" transform="scale(1.15612 1.15612)" d="M168.834 189.372C168.821 199.246 165.175 214.229 178.117 217.214C183.8 218.525 199.477 217.714 206.123 217.689L206.135 315.337C206.137 319.237 206.345 323.24 206.123 327.126L93.5933 327.126C93.9472 321.963 93.6273 316.765 93.5988 311.595L93.5933 191.466L139.939 191.469C149.697 191.471 158.394 191.762 168.002 192.03C168.609 191.537 168.67 190.156 168.834 189.372Z"/>
	<path fill="#223451" transform="scale(1.15612 1.15612)" d="M108.844 285.715C130.309 285.976 163.725 283.499 184.008 286.203C194.509 287.604 194.157 300.646 184.5 301.706C179.857 301.915 175.107 301.723 170.455 301.718L120.61 301.727C115.923 301.736 108.281 302.899 104.022 300.473C96.38 296.122 102.071 286.908 108.844 285.715Z"/>
	<path fill="#223451" transform="scale(1.15612 1.15612)" d="M162.421 258.378C167.876 258.38 180.373 257.582 184.934 258.43C193.458 260.015 194.392 271.717 185.743 273.42C179.225 274.704 171.728 274.07 165.081 274.072L130.955 274.056C124.899 274.047 112.409 274.82 107.106 273.653C101.322 272.379 97.519 265.441 102.429 260.694C107.338 255.949 119.266 258.363 125.403 258.399L162.421 258.378Z"/>
	<path fill="#223451" transform="scale(1.15612 1.15612)" d="M107.399 231.312C119.43 231.068 138.429 230.277 150.208 231.359C159.929 232.251 159.702 245.036 150.789 247L125.855 246.988C119.727 247.037 103.669 249.793 100.995 242.125C99.1621 236.871 102.533 232.793 107.399 231.312Z"/>
	<path fill="white" transform="scale(1.15612 1.15612)" d="M184.5 191.466C187.501 193.703 192.212 199.178 195.2 202.043L184.5 202.043L184.5 191.466Z"/>
	<path fill="#223451" transform="scale(1.15612 1.15612)" d="M473.545 66.2797C476.034 66.1302 478.604 66.4824 480.471 68.2915C488.573 76.1423 473.729 86.4167 468.71 91.2125C474.693 90.9542 481.211 90.8352 487.152 91.4314C522.102 94.9383 538.21 150.901 518.036 146.975C510.874 145.582 510.583 128.21 504.19 119.182C494.987 106.34 485.352 106.551 470.424 106.653C475.019 111.984 487.376 119.16 479.447 126.991C477.459 128.954 473.114 130.41 470.502 128.78C465.25 125.503 452.21 110.547 446.738 104.763C443.736 101.591 443.501 99.8471 443.604 95.5513C447.544 89.936 470.176 67.8758 473.545 66.2797Z"/>
	<path fill="#223451" transform="scale(1.15612 1.15612)" d="M164.784 359.279C174.692 358.168 174.828 364.807 178.962 371.784C185.153 382.235 194.38 390.643 204.289 397.504C204.252 393.027 203.328 385.901 205.749 381.974C209.823 375.364 219.176 379.068 220.274 386.715C220.916 391.189 221.071 413.811 220.463 418.248C219.718 423.682 216.99 426.148 211.461 426.586L190.782 426.618C186.831 426.621 182.504 426.933 178.598 426.338C172.767 425.45 169.739 417.803 174.079 413.419C177.77 409.691 189.954 411.006 195.2 411.042C192.038 407.779 188.022 405.118 184.536 402.184C177.718 396.447 149.268 367.209 164.784 359.279Z"/>
</svg>
