<?xml version="1.0" encoding="utf-8" ?>
<svg xmlns="http://www.w3.org/2000/svg" xmlns:xlink="http://www.w3.org/1999/xlink" width="1024" height="1024">
	<path fill="transparent" d="M0 0L1024 0L1024 1024L0 1024L0 0Z"/>
	<path fill="#3C5DE9" d="M428.7 97.4495C428.864 97.4497 429.029 97.4479 429.193 97.4499C431.292 97.4753 433.216 97.7845 434.598 99.6032C435.397 100.655 435.375 101.853 435.069 103.076C433.975 107.447 366.674 155.255 358.738 160.246C367.881 166.319 431.372 212.199 434.103 216.156C434.803 217.169 434.819 218.352 434.416 219.502C433.635 221.727 431.143 222.899 429.122 223.68C426.034 222.255 350.852 167.801 347.144 163.871C346.238 162.911 345.406 160.963 345.771 159.615C346.218 157.964 350.203 154.9 351.586 153.792C356.255 150.052 361.285 146.709 366.079 143.124Q383.791 129.633 401.871 116.64C410.628 110.303 419.364 102.854 428.7 97.4495Z"/>
	<path fill="#3C5DE9" d="M531.832 68.0197C533.493 68.2321 535.265 68.4929 536.552 69.6757C537.616 70.6535 537.889 71.8429 537.902 73.2378C537.97 80.445 528.495 103.366 525.837 111.414L494.42 206.744C492.096 213.996 477.868 261.649 475.111 264.236L473.875 264.02C471.306 263.108 468.713 262.253 466.133 261.372C479.444 217.217 494.397 173.389 508.888 129.599C513.468 115.756 517.822 101.852 522.508 88.0397C524.394 82.4843 525.983 76.3004 528.473 71.0058C529.191 69.4795 530.412 68.7982 531.832 68.0197Z"/>
	<path fill="#3C5DE9" d="M580.513 97.4698C581.535 97.4589 582.393 97.4563 583.387 97.7515C585.751 98.4537 654.249 149.085 662.347 155.615C663.694 156.702 665.004 157.765 665.803 159.334C665.312 161.582 662.85 163.566 661.169 165.031C652.176 172.869 641.844 179.643 632.234 186.759L584.581 222.316C583.296 223.044 582.248 223.636 580.712 223.663C579.426 223.686 577.597 222.85 576.738 221.901C575.864 220.934 575.354 219.891 575.494 218.56C575.686 216.738 576.966 215.407 578.247 214.232C583.253 209.644 589.465 206.166 594.855 202.005C613.386 187.698 632.36 173.991 650.785 159.554C634.262 148.834 618.464 136.352 602.573 124.699C595.244 119.324 582.376 111.647 576.781 105.014C576.522 104.112 576.304 103.375 576.517 102.424C577.013 100.211 578.817 98.783 580.513 97.4698Z"/>
	<path fill="#3C5DE9" d="M801.665 400.512C807.986 401.995 814.605 405.963 820.479 408.802Q839.562 417.945 858.338 427.704Q909.506 453.741 959.737 481.544C971.574 487.969 983.708 493.812 995.392 500.521C988.774 504.63 981.315 507.811 974.381 511.385L938.417 530.179C902.512 548.652 866.614 567.509 830.124 584.779C824.723 587.3 819.167 589.412 813.615 591.57C821.114 585.732 829.858 581.232 838.091 576.494Q857.989 564.952 878.094 553.775L941.828 517.857C952.38 512.011 962.857 505.96 973.65 500.569Q907.226 463.24 841.695 424.363Q829.803 417.332 817.805 410.484C812.549 407.471 806.157 404.539 801.665 400.512Z"/>
	<path fill="#3C5DE9" d="M224.806 398.573L225.176 398.982C220.976 403.931 174.525 429.736 165.371 435.018Q128.72 456.429 91.6552 477.116C77.4685 485.136 63.3799 493.6 48.7705 500.826C64.3123 508.017 79.1009 517.316 94.1189 525.544Q127.75 543.822 160.854 563.037C171.493 569.203 187.255 577.359 195.969 585.462C191.337 583.71 186.818 581.021 182.374 578.814Q120.606 548.715 59.5054 517.285C52.6694 513.685 45.8778 509.951 38.9792 506.478C35.5151 504.734 31.6188 503.475 28.495 501.161L28.7849 500.327C32.6249 497.224 37.9993 495.117 42.3879 492.804L71.2953 477.464C106.957 458.191 142.422 438.627 178.683 420.49C193.85 412.904 209.018 404.781 224.806 398.573Z"/>
	<path fill="#3C5DE9" d="M935.934 69.9483C937.077 70.1267 938.261 70.4004 939.194 71.1382C940.246 71.9698 940.533 73.4114 940.544 74.6795C940.561 76.6589 940.021 78.6831 939.401 80.5492C937.654 85.8022 935.309 90.8994 933.406 96.1084C925.607 117.465 917.387 138.613 909.361 159.881C905.889 169.08 893.63 205.171 889.169 211.499C887.025 214.54 883.609 217.283 880.94 219.91L865.8 234.953L808.732 292.457L666.362 435.973C635.795 466.586 604.301 496.428 574.759 528.03C579.188 534.019 584.901 539.174 590.164 544.433L614.252 568.445C625.229 579.381 635.905 590.62 646.905 601.525C664.807 619.272 682.994 636.689 700.658 654.681Q706.651 648.79 712.465 642.723C726.242 655.314 740.579 667.117 754.552 679.462Q782.663 704.16 810.039 729.67C826.268 744.493 842.56 759.205 858.379 774.472C873.008 788.592 888.286 802.687 901.742 817.924C917.608 835.892 931.554 856.883 929.886 881.87C928.522 902.317 917.456 921.289 902.196 934.6C887.645 947.294 870.632 953.541 851.295 952.079C835.474 950.884 822.491 944 810.03 934.538C801.282 927.895 793.617 919.609 786.023 911.697Q771.336 896.441 757.042 880.816Q726.163 847.544 696.01 813.613C678.148 793.109 661.147 771.804 643.726 750.922C640.149 746.634 636.238 742.652 632.658 738.388C630.616 735.957 628.688 732.942 629.082 729.621C629.584 725.383 632.921 722.926 635.97 720.415C628.846 711.644 620.541 704.1 612.422 696.282Q600.127 684.403 588.058 672.294C561.574 645.868 535.78 618.763 509.188 592.447C501.731 602.045 491.658 610.517 483.087 619.189L428.286 674.589C430.71 676.72 432.909 679.073 434.125 682.115C435.498 685.548 435.315 689.064 433.799 692.414C431.24 698.066 424.742 704.337 418.972 706.564L418.683 707.202C415.685 713.737 410.672 721.176 403.391 723.235C402.012 723.625 398.893 723.746 397.851 724.591C396.302 725.847 395.548 729.409 394.181 731.118C391.645 734.287 388.139 737.031 385.314 739.986C381.432 744.046 370.473 757.922 366.08 759.345C365.906 759.402 365.727 759.441 365.552 759.493C362.753 760.326 359.733 760.051 356.84 759.981C349.801 754.134 342.637 746.884 336.638 739.947C335.5 741.012 334.284 742.008 333.059 742.972C330.229 745.197 326.731 746.906 323.039 746.342C317.037 745.425 312.818 739.134 309.531 734.565C300.267 744.364 290.152 753.361 280.83 763.117L246.276 798.699C236.766 808.526 227.536 818.492 217.382 827.669L217.797 828.038C218.008 828.229 218.215 828.425 218.428 828.614C219.022 829.142 219.664 829.634 220.152 830.269C221.207 831.641 221.755 833.643 221.555 835.36C220.885 841.132 212.647 844.885 209.354 849.188C206.712 852.641 204.885 857.303 202.743 861.124C195.515 874.017 186.963 885.244 174.948 894.063Q172.201 896.061 169.348 897.905Q166.496 899.75 163.547 901.435Q160.597 903.12 157.56 904.641Q154.523 906.163 151.407 907.515Q148.291 908.867 145.105 910.047Q141.92 911.227 138.675 912.23Q135.429 913.233 132.134 914.057Q128.839 914.881 125.503 915.523C121.423 916.294 116.859 917.196 112.715 916.448C109.053 915.787 107.554 914.431 105.516 911.414C104.328 888.624 114.332 864.984 126.368 846.151C133.791 834.77 145.331 824.647 156.742 817.41C161.243 814.555 167.397 812.731 171.181 809.038C173.082 807.182 174.602 804.866 176.341 802.853C178.057 800.867 180.467 799.256 183.178 799.246C186.526 799.233 189.785 802.954 192.076 805.049C200.623 797.388 208.42 788.435 216.487 780.243L265.741 730.44C272.031 724.05 277.934 717.18 284.618 711.2C282.292 708.971 279.905 706.758 277.712 704.399C274.841 701.313 271.889 697.369 272.212 692.915C272.522 688.661 275.408 686.288 278.441 683.756C273.424 678.585 267.288 673.574 262.95 667.856C261.041 665.341 260.254 662.371 260.715 659.219C261.502 653.834 292.828 625.415 298.815 621.156Q298.638 618.738 298.54 616.316C302.801 609.485 317.498 595.322 324.031 589.907C326.999 587.447 331.269 584.918 335.294 585.417C340.025 586.003 343.101 590.497 345.909 593.879C374.609 567.65 400.388 538.195 428.753 511.583C405.324 486.353 380.081 462.767 355.756 438.416L313.916 396.673C289.718 372.205 274.61 354.58 243.057 338.593C228.811 331.375 213.459 325.172 198.205 320.455C179.336 314.619 161.095 311.13 143.769 301.027C119.734 287.012 102.898 262.694 95.9911 235.874C90.6938 215.306 91.2397 191.653 98.1151 171.508C99.0815 168.676 99.8667 165.229 101.482 162.71C102.339 161.374 103.12 160.841 104.637 160.474C108.715 161.712 171.387 232.578 179.17 240.941Q187.376 240.782 195.582 240.911C203.609 224.161 211.2 206.594 220.543 190.551C214.296 183.123 207.483 176.042 200.948 168.857C190.498 157.366 180.101 145.81 169.505 134.454C163.952 128.502 158.014 122.785 152.684 116.643C151.994 115.848 151.357 115.036 151.243 113.953C151.167 113.235 151.567 112.8 152.051 112.307C155.6 108.692 177.674 105.395 182.737 104.897Q189.733 104.27 196.751 104.569C226.227 105.776 256.224 119.066 275.842 141.272Q278.106 143.869 280.219 146.592Q282.332 149.314 284.287 152.151Q286.241 154.989 288.031 157.934Q289.821 160.878 291.441 163.92Q293.06 166.961 294.504 170.09Q295.948 173.219 297.212 176.425Q298.475 179.63 299.555 182.903Q300.634 186.175 301.525 189.504C304.56 200.885 306.604 212.359 310.286 223.587Q312.917 231.802 316.052 239.839Q319.188 247.875 322.815 255.701Q326.443 263.527 330.549 271.114Q334.655 278.7 339.224 286.017C354.431 310.087 371.864 325.338 391.56 345.372C407.174 361.254 422.73 377.248 438.58 392.891C456.902 410.973 475.618 428.869 493.005 447.854L725.788 213.928L780.715 158.274Q790.06 148.697 799.581 139.295C803.153 135.759 806.71 131.816 810.752 128.827C817.098 124.133 826.007 121.26 833.219 117.924L876.992 97.6192C896.657 88.5998 915.87 78.0218 935.934 69.9483Z"/>
	<path fill="#0c1439" d="M287.507 691.264C289.99 692.488 322.416 725.292 328.438 730.597L324.067 735.586L323.264 735.631C310.743 721.583 296.01 709.431 283.852 695.119L287.507 691.264Z"/>
	<path fill="#0c1439" d="M925.08 86.9274L925.502 86.9617L925.79 87.464L911.521 124.542C907.972 121.287 904.59 117.816 901.146 114.448C897.469 110.716 893.821 106.987 889.895 103.512C901.716 98.1455 913.499 92.8034 925.08 86.9274Z"/>
	<path fill="#0c1439" d="M292.527 718.931C295.374 721.476 298.01 724.26 300.684 726.985C294.385 733.727 287.709 740.123 281.259 746.722C257.235 771.3 232.565 795.529 209.36 820.874C206.374 818.718 203.575 815.387 200.95 812.767C208.514 805.777 215.352 798.034 222.418 790.551C230.354 782.146 238.574 773.901 246.713 765.685L278.034 734.377C282.933 729.39 288.286 724.495 292.527 718.931Z"/>
	<path fill="#0c1439" d="M332.317 594.77C335.075 596.449 337.933 600.058 340.319 602.328C349.435 610.999 358.408 619.737 367.294 628.647C386.715 648.123 407.132 667.074 425.548 687.483C423.116 690.239 420.463 692.812 417.876 695.423C416.2 695.021 336.548 613.387 325.212 603.15C327.709 600.485 329.986 597.583 332.317 594.77Z"/>
	<path fill="#0c1439" d="M169.25 831.96L171.26 831.87C173.056 832.782 174.293 836.379 175.71 838.008C179.052 841.849 183.35 844.889 186.798 848.727C186.42 849.993 186.034 851.264 185.555 852.496C176.918 874.689 147.672 890.246 126.848 899.024C130.93 892.482 134.251 885.456 138.187 878.819C144.955 867.406 153.243 858.299 162.9 849.332C164.071 848.216 165.224 847.251 165.915 845.755L165.458 845.013C163.623 844.437 162.248 844.928 160.618 845.793C156.997 847.715 153.775 850.749 150.815 853.537Q149.486 854.808 148.199 856.12Q146.912 857.433 145.667 858.787Q144.423 860.141 143.223 861.534Q142.024 862.927 140.869 864.358Q139.715 865.789 138.608 867.257Q137.5 868.725 136.441 870.227Q135.381 871.73 134.371 873.266Q133.36 874.802 132.4 876.37Q131.44 877.938 130.531 879.536Q129.621 881.134 128.764 882.76Q127.907 884.387 127.103 886.041Q126.299 887.694 125.548 889.372Q124.798 891.051 124.102 892.753Q123.406 894.455 122.766 896.178Q122.125 897.901 121.541 899.645Q120.956 901.388 120.428 903.149C120.687 897.157 121.924 891.067 123.799 885.379Q124.144 884.308 124.515 883.247Q124.886 882.185 125.283 881.133Q125.681 880.081 126.103 879.038Q126.526 877.996 126.975 876.965Q127.423 875.933 127.897 874.913Q128.37 873.893 128.869 872.885Q129.367 871.876 129.89 870.881Q130.414 869.885 130.961 868.902Q131.508 867.92 132.08 866.951Q132.651 865.982 133.246 865.028Q133.841 864.074 134.46 863.134Q135.078 862.195 135.719 861.271Q136.361 860.346 137.024 859.438Q137.688 858.531 138.374 857.639Q139.06 856.748 139.767 855.873Q140.475 854.999 141.204 854.143Q141.933 853.286 142.682 852.447Q143.432 851.609 144.202 850.789Q144.972 849.969 145.762 849.169Q146.552 848.368 147.362 847.587Q148.171 846.806 148.999 846.046Q149.828 845.285 150.675 844.545Q151.521 843.804 152.386 843.085Q153.251 842.366 154.133 841.668Q155.015 840.97 155.914 840.295Q156.813 839.619 157.729 838.965Q158.644 838.312 159.575 837.681Q160.506 837.05 161.453 836.442Q162.399 835.834 163.36 835.25Q164.321 834.666 165.296 834.105Q166.271 833.545 167.26 833.008Q168.249 832.472 169.25 831.96Z"/>
	<path fill="#0c1439" d="M301.853 631.829C303.839 633.389 305.737 635.865 307.531 637.705Q313.165 643.548 319.06 649.126C343.104 672.099 366.331 695.994 389.823 719.526C387.766 722.75 383.406 729.892 380.086 731.424C370.922 720.378 359.853 710.356 349.589 700.317L307.804 659.413C302.666 654.48 296.902 646.997 290.816 643.475Q296.268 637.589 301.853 631.829Z"/>
	<path fill="#0c1439" d="M284.347 649.341C291.254 655.653 297.396 663.004 304.018 669.641Q328.672 694.702 354.097 718.981C360.497 725.153 366.706 732.713 373.898 737.913L361.915 749.779C355.337 742.37 347.779 735.518 340.75 728.516Q318.85 706.765 296.641 685.329C288.292 677.299 279.695 669.511 271.57 661.253Q278.013 655.356 284.347 649.341Z"/>
	<path fill="#0c1439" d="M317.449 609.894C320.92 612.577 324.125 616.138 327.316 619.172C338.794 630.084 349.598 641.698 360.766 652.926L388.686 680.745C396.132 688.116 404.124 695.301 410.287 703.815C407.815 707.301 403.65 712.656 399.915 714.676L305.715 620.976C309.668 617.331 313.54 613.587 317.449 609.894Z"/>
	<path fill="#0c1439" d="M879.105 108.026C880.903 108.382 904.201 132.036 907.675 135.38C902.779 145.393 899.344 156.73 895.461 167.185C891.501 177.848 886.925 188.408 883.521 199.256C877.507 193.175 871.136 187.408 864.885 181.571C849.613 166.29 834.35 150.443 818.206 136.082C827.111 133.279 835.903 128.746 844.327 124.741L879.105 108.026Z"/>
	<path fill="#0c1439" d="M551.428 550.302C553.919 550.988 557.646 555.511 559.519 557.313C577.454 574.557 594.851 592.446 612.554 609.94L633.379 630.659C636.999 634.261 641.022 637.78 644.293 641.699C646.426 644.253 647.513 648.269 647.095 651.572C646.695 654.723 645.019 657.343 642.528 659.273C637.92 662.844 632.595 663.421 627.027 662.605C624.188 661.528 621.339 660.795 618.908 658.882C609.814 651.724 599.998 640.034 591.59 631.444C580.095 619.702 568.343 608.225 556.758 596.574C548.057 587.824 539.563 578.794 530.56 570.357C537.98 564.318 544.623 557.021 551.428 550.302Z"/>
	<path fill="#0c1439" d="M567.295 534.825C571.198 537.378 575.171 542.854 578.43 546.284Q587.779 556.15 597.433 565.717L656.211 624.221C668.742 636.577 681.116 649.294 694.287 660.966C677.945 678.7 660.232 695.248 643.56 712.69C610.8 681.971 579.564 649.263 548.25 617.063C537.802 606.544 526.343 596.402 516.764 585.1C519.278 582.9 521.516 580.668 523.697 578.138C532.616 586.506 541.117 595.428 549.771 604.075Q579.128 633.178 608.001 662.762C614.792 669.601 622.245 673.135 632.008 672.996C639.251 672.892 646.424 670.288 651.443 664.938C655.518 660.595 656.817 654.274 656.42 648.461C656.142 644.383 655.186 640.1 652.807 636.706C646.752 628.067 637.33 620.607 629.927 613.035C617.015 599.829 603.782 586.965 590.689 573.94C580.354 563.657 570.138 552.915 559.184 543.287L567.295 534.825Z"/>
	<path fill="#0c1439" d="M287.768 293.582C288.846 293.521 289.927 293.464 291.007 293.476C294.76 293.517 297.501 294.377 300.412 296.754C308.012 302.96 314.833 311.232 321.718 318.255Q341.74 338.33 361.503 358.659Q415.932 413.995 470.985 468.711L454.321 485.92L450.273 490.078C445.845 485.136 440.894 480.601 436.191 475.919L409.17 448.936L329.094 368.246C321.089 360.246 279.416 321.302 277.299 314.643C275.867 310.138 275.534 305.604 277.74 301.285C279.946 296.965 283.382 295.058 287.768 293.582Z"/>
	<path fill="#0c1439" d="M297.634 215.311C298.885 217.137 306.698 242.62 308.493 247.354C315.571 266.028 326.323 285.692 337.825 301.948C350.569 319.961 370.213 338.338 385.989 353.996L451.142 419.436C462.641 430.95 474.934 441.852 485.782 453.991L478.008 461.849C467.246 450.368 455.732 439.468 444.616 428.314L374.971 358.122C364.856 347.809 354.496 337.7 344.556 327.22Q333.025 314.845 321.004 302.945C315.696 297.597 310.425 292.034 304.454 287.411C300.903 284.661 295.754 283.181 291.294 283.046C284.895 282.853 278.733 285.467 274.159 289.898Q273.693 290.347 273.25 290.818Q272.807 291.29 272.389 291.784Q271.971 292.278 271.578 292.792Q271.185 293.306 270.819 293.84Q270.453 294.374 270.115 294.925Q269.777 295.477 269.467 296.045Q269.157 296.613 268.876 297.196Q268.596 297.779 268.345 298.376Q268.095 298.972 267.875 299.581Q267.655 300.189 267.466 300.808Q267.277 301.427 267.12 302.055Q266.964 302.683 266.839 303.318Q266.714 303.952 266.621 304.593Q266.529 305.233 266.469 305.878Q266.41 306.522 266.383 307.168Q266.356 307.815 266.362 308.462C266.518 320.808 274.407 327.856 282.561 335.882L295.685 348.92C325.363 378.247 354.382 408.29 383.793 437.888C403.393 457.613 423.962 476.587 442.506 497.326C440.307 499.248 438.335 501.412 436.318 503.523Q390.278 458.774 345.268 412.991C317.842 385.514 291.553 355.862 258.159 335.437C240.678 324.745 221.111 317.95 201.747 311.613C207.794 306.427 213.263 300.5 218.955 294.924L254.725 259.37Q267.771 246.568 280.682 233.63C286.56 227.736 292.633 221.99 297.634 215.311Z"/>
	<path fill="#0c1439" d="M186.491 114.706C206.879 112.119 229.772 119.551 246.842 130.313C276.036 148.718 287.718 171.621 295.184 204.314C261.562 239.893 225.843 273.587 191.648 308.634C159.946 298.955 138.303 292.268 118.625 263.186L118.403 262.843C100.53 234.882 99.5266 208.01 106.573 176.651C122.795 192.7 137.817 210.014 153.074 226.969C158.765 233.293 168.282 245.879 174.827 250.143C180.819 250.731 195.394 251.407 200.742 249.666C202.144 248.415 203.092 246.935 204.004 245.307C208.262 237.707 211.606 229.409 215.545 221.612C220.987 210.841 226.953 200.274 231.961 189.291C227.508 183.336 222.16 177.862 217.21 172.306C205.977 159.699 194.478 147.434 183.042 135.02C177.68 129.2 171.853 123.4 167.104 117.072C173.498 115.875 180.023 115.338 186.491 114.706Z"/>
	<path fill="#0c1439" d="M713.064 655.789C716.088 657.049 724.721 666.426 727.899 669.177Q766.382 702.514 803.893 736.942C811.352 743.837 818.478 751.088 825.935 757.984C842.887 773.661 859.708 789.357 875.985 805.744C884.221 814.035 892.47 822.266 899.976 831.236C912.415 846.102 921.691 862.134 919.774 882.207C918.08 899.952 908.81 916.076 895.143 927.357C881.652 938.492 865.735 943.571 848.382 941.848C836.819 940.282 826.768 935.045 817.529 928.104C802.319 916.678 785.315 896.833 772.145 882.787Q730.451 838.972 691.175 792.976L656.941 751.893C651.165 744.956 645.537 737.815 639.394 731.202C663.572 705.725 689.011 681.4 713.064 655.789Z"/>
	<path fill="#3C5DE9" d="M739.419 772.059C739.905 772.044 740.483 772.185 740.967 772.256C741.952 773.127 741.934 773.063 742.073 774.368C741.599 775.413 741.055 776.241 740.089 776.905C736.941 779.072 722.342 784.992 717.737 787.113C717.146 787.029 716.758 786.787 716.233 786.516C715.763 785.067 715.677 784.782 715.988 783.305C719.631 778.658 733.584 773.656 739.419 772.059Z"/>
	<path fill="#3C5DE9" d="M784.867 749.452C786.142 749.622 787.073 750.292 788.18 750.915C788.323 751.618 788.6 752.086 788.242 752.758C785.667 757.592 761.541 766.752 755.619 769.067C754.806 769.157 754.7 769.029 753.974 768.728C753.118 767.615 752.685 767.158 752.655 765.692C753.865 763.271 780.661 751.45 784.867 749.452Z"/>
	<path fill="#3C5DE9" d="M739.074 702.416C740.021 702.407 740.188 702.526 740.987 702.967C741.762 704.336 742.077 704.536 741.848 706.14C740.843 707.422 739.745 708.136 738.327 708.927C733.215 711.782 727.432 713.777 722.157 716.396C712.802 721.04 703.372 725.474 693.934 729.94C687.669 732.906 681.408 736.165 674.907 738.573C674.191 738.485 673.725 738.21 673.084 737.897C672.232 736.643 672.004 736.479 672.011 734.988C674.328 731.635 730.798 706.302 739.074 702.416Z"/>
	<path fill="#3C5DE9" d="M762.568 726.411L764.24 726.419C765.299 727.188 765.468 727.331 765.985 728.523C765.887 728.99 765.861 729.285 765.58 729.719C764.703 731.074 762.636 732.1 761.222 732.82C751.726 737.653 741.576 741.67 731.864 746.091C720.074 751.456 708.419 757.338 696.311 761.947L694.934 761.622C693.805 760.592 693.573 760.518 693.262 759.048C693.596 758.177 693.853 757.883 694.628 757.321C700.176 753.304 708.01 750.6 714.271 747.763L762.568 726.411Z"/>
	<path fill="#3C5DE9" d="M807.693 770.903C808.471 771.009 808.913 771.196 809.506 771.76C810.527 772.73 810.88 773.675 810.917 775.011C805.944 780.252 750.827 804.448 740.681 809.09C740.022 809.322 739.459 809.353 738.767 809.415L737.837 808.634C737.397 807.173 737.207 806.869 737.617 805.426C738.693 804.326 739.748 803.571 741.106 802.841C744.133 801.214 747.479 800.25 750.515 798.662C769.217 788.88 788.653 780.044 807.693 770.903Z"/>
	<path fill="#3C5DE9" d="M840.846 826.618C849.979 826.058 858.991 827.844 866.673 833.014C875.36 838.861 881.773 848.086 883.781 858.393C885.761 868.55 883.546 878.698 877.661 887.19C871.287 896.389 861.939 902.146 851.012 904.199C841.281 905.499 832.447 903.956 824.273 898.424C815.445 892.449 808.761 883.541 806.833 872.933C804.996 862.822 807.507 851.365 813.38 842.944C820.05 833.377 829.628 828.678 840.846 826.618Z"/>
	<path fill="#0c1439" d="M840.962 836.615C847.579 835.861 853.798 837.122 859.567 840.435C866.622 844.487 871.483 850.9 873.498 858.767C875.362 866.046 873.808 874.044 869.99 880.456C865.593 887.838 858.684 892.3 850.485 894.409C843.015 895.085 836.532 894.556 829.966 890.531C823.252 886.415 818.679 879.975 816.932 872.29C815.208 864.708 816.749 856.236 820.915 849.69C825.524 842.45 832.771 838.426 840.962 836.615Z"/>
	<path fill="#0c1439" d="M809.928 143.78C813.943 145.985 822.895 155.758 826.678 159.393Q842.613 174.633 858.301 190.128C864.425 196.19 870.822 202.143 876.323 208.782C857.155 227.166 838.945 246.617 820.208 265.44L716.702 369.126L420.255 667.31C417.826 664.598 415.269 662.034 412.687 659.467C431.655 642.603 448.919 623.649 466.726 605.577L557.822 514.013L762.17 308.668C795.604 274.904 830.018 241.953 862.829 207.588L858.242 203.089C843.716 216.177 830.552 230.979 816.771 244.861L722.568 340.08L420.506 642.74C416.378 646.768 412.017 650.74 408.605 655.408C394.428 641.705 380.641 627.568 366.511 613.812C384.144 596.681 401.111 578.937 418.433 561.501L502.618 477.295L667.44 312.578L761.926 217.436Q779.605 199.443 797.505 181.669C803.914 175.231 810.035 168.388 816.811 162.339C815.309 160.55 813.606 158.916 811.97 157.25Q748.573 222.036 684.089 285.741L477.243 493.34L396.989 573.846C385.568 585.438 373.33 596.583 362.806 608.994Q358.338 605.191 354.018 601.22C372.32 584.11 389.823 566.012 407.472 548.228L460.088 495.587L608.601 346.556L741.775 213.027L786.045 168.159C794.012 160.079 802.422 152.288 809.928 143.78Z"/>
</svg>
