<?xml version="1.0" encoding="utf-8" ?>
<svg xmlns="http://www.w3.org/2000/svg" xmlns:xlink="http://www.w3.org/1999/xlink" width="802" height="602">
	<path fill="#223451" transform="scale(1.17578 1.17578)" d="M202.755 61.8885C203.21 61.8453 203.07 61.8478 203.477 61.8449L468.772 61.8745C480.827 61.8857 492.542 62.3211 496.565 76.6353C498.639 84.017 497.671 106.682 497.656 115.709L597.36 115.672C619.643 115.536 615.029 119.51 615.029 139.21L615.07 371.423C615.144 392.498 613.196 390.235 593.825 390.204L497.656 390.187L497.656 412.134C497.653 426.585 497.979 441.751 479.662 443.001L211.022 443.044C179.037 443.008 185.119 412.217 185.168 390.187L85.3448 390.219C62.2099 390.263 66.6755 385.426 66.7084 364.58L66.747 135.884C66.7359 127.141 63.424 117.211 75.2327 116.046C85.0576 115.077 95.4337 115.695 105.322 115.693L158.534 115.703C167.376 115.707 176.345 116.093 185.168 115.709L185.165 93.7796C185.166 79.2313 184.967 64.832 202.755 61.8885Z"/>
	<path fill="white" transform="scale(1.17578 1.17578)" d="M532.182 287.999L557.502 287.999C559.181 289.023 566.123 296.203 566.79 297.862L565.077 298.115L532.182 298.115C533.409 295.601 530.889 290.161 532.182 287.999Z"/>
	<path fill="white" transform="scale(1.17578 1.17578)" d="M523.848 311.979C540.652 312.366 557.554 311.983 574.368 311.979C574.485 312.267 575.137 346.622 574.368 348.114C557.541 348.369 540.679 348.128 523.848 348.114C524.205 347.375 524.364 315.951 523.848 311.979Z"/>
	<path fill="#223451" transform="scale(1.17578 1.17578)" d="M536.484 323.544C543.495 322.941 565.725 321.33 566.691 328.714C567.298 333.354 565.908 337.129 560.844 337.679C557.632 338.19 539.567 337.968 536.486 337.189C529.065 335.311 530.611 326.249 536.484 323.544Z"/>
	<path fill="#D2E3FC" transform="scale(1.17578 1.17578)" d="M497.656 130.607L600.377 130.607C600.854 131.859 600.374 165.191 600.373 169.243L600.381 362.116C600.391 365.984 601.718 371.227 600.377 374.876C566.159 374.868 531.863 375.387 497.656 374.876L497.656 294.258C501.435 298.616 505.429 302.92 508.893 307.53C509.04 319.331 508.88 331.149 508.906 342.952C508.953 363.835 506.853 362.883 530.533 362.873L557.502 362.84C564.878 362.84 584.963 365.974 588.307 358.487C589.319 356.222 589.207 302.254 588.169 300.027C586.547 296.545 568.288 275.168 565.199 274.108C561.522 272.847 523.628 272.487 519.623 274.6C513.209 277.983 518.882 287.739 516.696 293.039C515.689 288.968 506.667 280.137 502.099 278.3L497.656 278.3L497.656 261.155L554.791 261.121C562.195 261.095 584.599 265.194 584.427 252.914C584.311 244.611 573.418 245.921 567.887 245.95L497.656 245.99L497.656 228.907C502.011 228.127 514.369 228.379 512.432 220.647C514.24 212.875 502.163 213.156 497.656 213.426L497.656 196.957C501.873 196.476 507.441 197.449 510.642 194.102C519.968 184.351 504.891 181.527 497.656 181.613L497.656 163.501L498.557 163.587C507.298 164.416 518.755 160.254 510.47 151.597C507.376 148.365 501.775 149.042 497.656 148.949L497.656 130.607Z"/>
	<path fill="#223451" transform="scale(1.17578 1.17578)" d="M532.182 181.613C535.007 181.36 537.981 181.555 540.824 181.569L557.287 181.64C563.049 181.655 576.036 179.803 580.952 182.681C587.552 186.546 583.764 195.975 577.089 196.957C565.62 194.959 539.341 199.976 529.605 195.128C522.72 191.7 525.829 183.45 532.182 181.613Z"/>
	<path fill="#223451" transform="scale(1.17578 1.17578)" d="M569.575 213.426C572.849 213.301 576.064 213.243 579.337 213.426C584.214 215.507 586.328 222.135 582.228 226.137C577.909 230.352 546.417 228.921 539.556 228.907C534.823 228.041 517.985 225.821 527.804 215.953C531.84 211.897 538.523 213.416 543.617 213.426L569.575 213.426Z"/>
	<path fill="#223451" transform="scale(1.17578 1.17578)" d="M548.92 148.949L567.89 148.896C591.861 148.802 585.189 162.612 578.316 163.85C574.922 164.461 565.175 163.488 560.844 163.501C553.446 163.471 538.05 164.585 531.498 163.714C525.59 162.928 523.735 155.584 527.878 151.45C531.711 147.624 543.737 148.923 548.92 148.949Z"/>
	<path fill="#D2E3FC" transform="scale(1.17578 1.17578)" d="M82.1886 130.607L172.156 130.622C176.482 130.649 180.849 130.871 185.168 130.607L185.168 148.127L113.908 148.1C108.163 148.082 99.2152 146.719 99.1432 155.292C99.0372 167.903 122.873 163.515 131.622 163.507L185.168 163.501L185.168 181.613C157.926 181.615 130.65 181.297 103.412 181.613C103.35 181.659 103.288 181.703 103.227 181.749L102.923 181.982C99.1161 184.866 97.4608 190.773 101.256 194.475C105.968 199.072 126.263 196.969 132.777 196.97L185.168 196.957L185.168 213.426L131.841 213.419C126.435 213.419 104.775 211.693 101.251 215.114C98.2688 218.008 98.3291 224.004 101.264 226.897C104.496 230.082 111.331 228.941 115.413 228.905L185.168 228.907L185.168 245.99L115.027 245.968C111.831 245.968 108.504 245.775 105.333 246.142C98.8027 246.898 96.9665 254.75 101.342 259.343C105.062 263.247 122.175 261.17 127.708 261.155L185.168 261.155L185.168 278.3L113.379 278.323C109.873 278.303 104.514 277.3 101.522 279.624C97.1089 283.053 98.3826 292.127 104.046 293.448C110.336 294.914 117.78 294.243 124.233 294.247L166.257 294.28C172.544 294.277 178.9 293.536 185.168 294.258L185.168 311.979L131.556 311.971C123.446 311.972 113.125 311.336 105.31 312.205C96.777 313.153 96.4455 325.979 105.184 327.236C108.225 327.673 111.544 327.423 114.618 327.408L185.168 327.375L185.168 374.876L82.1886 374.876L82.1886 130.607Z"/>
	<path fill="white" transform="scale(1.17578 1.17578)" d="M204.528 76.6377L443.356 76.6375C451.9 76.6356 476.901 73.9803 482.259 79.7913C482.572 83.1201 482.31 86.5356 482.291 89.8799L482.26 370.426C482.26 379.386 485.033 425.952 479.662 427.774L238.057 427.783C228.053 427.783 217.76 428.324 207.794 427.668C195.571 426.864 200.494 391.057 200.495 381.613L200.49 79.7913C201.669 78.3472 202.609 77.069 204.528 76.6377Z"/>
	<path fill="#223451" transform="scale(1.17578 1.17578)" d="M259.528 103.209C289.956 101.877 273.894 117.578 272.168 117.955C268.664 118.722 264.6 118.258 261.012 118.236L243.595 118.201C239.107 118.176 230.8 119.489 227.133 116.456C224.064 113.919 224.193 107.905 226.954 105.208C230.404 101.838 237.77 103.143 242.093 103.17L259.528 103.209Z"/>
	<path fill="#223451" transform="scale(1.17578 1.17578)" d="M232.71 128.911L321.666 128.93C326.338 128.893 334.669 127.465 338.631 130.601C344.039 134.882 340.631 143.391 334.148 143.842L243.507 143.819C238.704 143.824 231.659 145.06 227.501 142.041C221.119 137.407 226.503 129.738 232.71 128.911Z"/>
	<path fill="#223451" transform="scale(1.17578 1.17578)" d="M295.809 103.209C305.34 102.925 314.968 103.197 324.506 103.198L429.586 103.237C435.274 103.247 451.05 101.695 455.74 104.392C462.123 108.064 459.136 116.73 452.778 118.201L317.66 118.216C312.737 118.217 297.737 119.426 293.699 117.358C286.634 113.74 289.144 105.198 295.809 103.209Z"/>
	<path fill="#223451" transform="scale(1.17578 1.17578)" d="M230.118 294.258L292.444 294.256C297.946 294.256 328.567 292.857 331.877 295.301C335.118 297.693 335.489 299.896 335.662 303.757C336.222 316.253 336.755 390.711 334.973 396.251C334.119 398.908 332.117 400.228 329.747 401.37C326.67 401.651 323.405 401.4 320.305 401.396L260.4 401.374C254.625 401.382 233.647 402.169 229.117 400.683C221.795 398.283 224.402 384.653 224.41 378.592L224.408 313.012C224.385 305.891 221.867 297.477 230.118 294.258Z"/>
	<path fill="#91A8CC" transform="scale(1.17578 1.17578)" d="M239.69 309.241L320.539 309.241L320.539 386.129L239.69 386.129L239.69 309.241Z"/>
	<path fill="#223451" transform="scale(1.17578 1.17578)" d="M353.012 294.258L415.642 294.264C427.338 294.261 439.283 293.677 450.943 294.294C462.566 294.909 458.941 313.211 458.92 322.106L458.904 381.414C458.9 388.292 461.288 398.706 452.778 401.37L383.958 401.352C370.857 401.363 347.789 407.409 347.1 391.708C345.924 364.941 346.081 330.586 347.058 303.767C347.238 298.833 348.127 296.249 353.012 294.258Z"/>
	<path fill="white" transform="scale(1.17578 1.17578)" d="M362.117 309.241L443.685 309.241L443.655 362.171C443.651 370.038 444.312 378.313 443.685 386.129L362.117 386.129C361.727 360.526 362.116 334.851 362.117 309.241Z"/>
	<path fill="#223451" transform="scale(1.17578 1.17578)" d="M320.539 170.698C341.412 169.983 335.785 177.597 335.786 197.783L335.794 260.038C335.79 277.995 338.692 280.423 318.211 280.377L239.69 280.36C228.582 280.436 224.561 280.051 224.427 267.968C224.209 248.431 224.433 228.869 224.437 209.329L224.394 189.471C224.356 171.032 223.975 170.628 241.108 170.669L320.539 170.698Z"/>
	<path fill="white" transform="scale(1.17578 1.17578)" d="M267.308 185.668C285.04 185.67 302.811 185.389 320.539 185.668L320.539 265.392L293.546 265.392L239.69 265.392L239.69 185.668L267.308 185.668Z"/>
	<path fill="#223451" transform="scale(1.17578 1.17578)" d="M280.372 214.638C284.148 210.684 291.157 202.17 296.592 201.562C300.811 201.09 304.399 204.954 304.511 209.062C304.632 213.525 294.471 221.463 291.33 224.927C296.732 230.772 312.392 241.576 298.386 247.969C290.912 248.439 284.668 240.724 280.372 235.39C276.415 238.596 268.451 248.456 263.687 248.501C259.545 248.539 256.173 244.184 256.294 240.249C256.428 235.926 265.921 228.042 269.091 224.927C264.093 219.312 247.004 208.086 261.794 201.808C269.866 201.283 274.777 209.901 280.372 214.638Z"/>
	<path fill="#223451" transform="scale(1.17578 1.17578)" d="M353.012 170.698L414.972 170.713C423.281 170.71 455.66 166.984 458.481 175.296C459.65 178.739 458.916 196.105 458.916 200.758L458.896 251.784C458.877 261.135 462.672 277.082 452.778 280.36C449.124 280.765 445.177 280.391 441.483 280.383L377.578 280.371C370.519 280.384 363.383 280.618 356.335 280.367C343.618 279.912 347.028 269.407 347.027 259.415L347.024 231.165C347.023 213.786 346.538 196.251 347.102 178.889C347.252 174.245 348.393 172.325 353.012 170.698Z"/>
	<path fill="#91A8CC" transform="scale(1.17578 1.17578)" d="M362.117 185.668L443.685 185.668C443.306 192.378 443.668 199.316 443.673 206.055L443.659 246.695C443.654 252.025 444.402 260.487 443.685 265.392L362.117 265.392L362.117 185.668Z"/>
</svg>
