<?xml version="1.0" encoding="utf-8" ?>
<svg xmlns="http://www.w3.org/2000/svg" xmlns:xlink="http://www.w3.org/1999/xlink" width="802" height="602">
	<path fill="#1C3553" transform="scale(1.17578 1.17578)" d="M241.81 71.5458L473.435 71.5663C480.446 71.5727 487.673 71.0088 494.644 71.3952C517.155 72.643 515.456 93.8673 515.414 109.516L515.406 138.143C515.406 149.555 516.164 247.618 515.416 249.649C539.811 249.134 562.961 254.846 582.013 271.097C645.496 325.244 610.226 426.596 530.541 432.596C505.71 434.466 485.997 426.489 467.41 410.489C455.684 412.104 441.534 421.266 430.5 412.509C416.14 401.114 428.513 384.064 437.101 373.447C437.297 373.187 437.109 370.943 437.101 370.466L422.87 370.466L353.894 370.466L353.924 399.049C353.937 431.24 348.483 432.269 320.309 432.255L100.63 432.26C84.6227 432.32 68.1403 432.919 67.1063 411.563C66.5535 400.147 67.0902 388.48 67.0761 377.031C67.0261 336.507 65.9074 317.826 107.926 305.496L123.976 300.675C139.577 295.941 154.915 290.636 170.702 286.495C171.423 280.786 171.662 274.977 172.067 269.237C162.185 260.251 155.073 250.284 150.591 237.621C137.296 229.781 130.163 200.428 142.034 188.444L142.028 174.304C142.059 159.044 144.819 145.428 156.275 134.141C173.613 117.059 190.79 119.902 212.854 119.943C215.215 91.4717 203.386 71.287 241.81 71.5458ZM155.912 195.928C153.761 197.445 152.06 198.741 150.591 200.947C150.119 206.252 150.685 211.581 151.991 216.741C153.295 222.189 155.932 224.706 161.197 226.715C168.09 252.613 195.572 280.022 223.765 266.827C240.836 258.838 249.682 243.655 255.913 226.715C265 224.002 266.389 216.854 267.097 208.115C267.254 202.357 266.559 199.476 261.659 195.928C263.331 182.485 262.75 154.711 253.07 145.827C241.623 132.02 226.979 133.74 210.998 133.721C202.999 133.712 189.976 132.821 182.539 134.502C151.418 141.537 155.854 172.258 155.912 195.928ZM243.612 298.928C234.063 303.433 214.647 322.145 206.185 319.1C203.493 318.132 178.845 301.461 175.844 298.928C161.157 303.079 146.698 308.298 132.113 312.813L109.765 319.77C86.3236 327.141 81.0417 334.785 81.05 361.16L81.0479 401.914C81.0412 405.855 80.8482 409.866 81.0707 413.797C82.9379 416.089 84.6272 417.64 87.6732 417.854L87.6847 379.96C87.6567 362.944 84.8348 344.064 101.651 333.481C118.951 322.593 151.455 319.564 171.634 310.801L172.067 310.61C195.868 322.955 199.667 339.164 226.753 321.713C232.057 318.295 241.474 311.433 247.237 309.37C257.408 311.733 267.457 315.562 277.534 318.398L300.439 324.6C310.518 327.271 320.871 329.424 328.814 336.644C330.902 338.543 333.437 341.958 335.908 343.152C334.218 340.589 331.121 338.168 328.949 335.923C330.003 335.691 331.056 335.19 332.064 334.801C333.778 336.887 335.11 339.536 336.426 341.891L336.7 341.759C331.672 325.863 316.091 320.978 301.937 316.756C286.468 312.142 258.358 300.962 243.612 298.928ZM185.461 279.042C185.658 282.163 183.866 287.499 186.488 289.63C188.642 289.069 227.834 288.99 230.585 289.63L233.853 287.561C233.553 284.619 233.54 281.997 233.853 279.042C212.255 283.909 211.269 289.359 185.461 279.042Z"/>
	<path fill="#C2DDFF" transform="scale(1.17578 1.17578)" d="M186.488 289.63C188.642 289.069 227.834 288.99 230.585 289.63C224.106 295.262 216.471 299.694 209.394 304.527C203.523 300.245 192.801 292.46 186.488 289.63Z"/>
	<path fill="#C2DDFF" transform="scale(1.17578 1.17578)" d="M155.912 195.928C155.854 172.258 151.418 141.537 182.539 134.502C189.976 132.821 202.999 133.712 210.998 133.721C226.979 133.74 241.623 132.02 253.07 145.827C262.75 154.711 263.331 182.485 261.659 195.928C266.559 199.476 267.254 202.357 267.097 208.115C266.389 216.854 265 224.002 255.913 226.715C249.682 243.655 240.836 258.838 223.765 266.827C195.572 280.022 168.09 252.613 161.197 226.715C155.932 224.706 153.295 222.189 151.991 216.741C150.685 211.581 150.119 206.252 150.591 200.947C152.06 198.741 153.761 197.445 155.912 195.928ZM155.912 195.928C153.761 197.445 152.06 198.741 150.591 200.947C150.119 206.252 150.685 211.581 151.991 216.741L152.777 216.281C154.206 214.048 153.807 210.847 155.191 208.542C156.735 205.97 159.779 204.639 161.149 201.911C168.531 187.209 152.507 161.914 180.571 144.904C190.776 138.719 237.268 139.764 246.796 144.487C248.409 145.287 250.066 146.637 251.807 147.054C250.943 144.84 241.945 142.115 239.811 141.718C224.334 138.837 205.382 143.131 190.505 140.987L190.662 141.213L191.156 140.859L190.382 140.43C194.873 134.041 203.844 138.504 208.911 134.547C209.896 133.777 214.014 133.777 215.427 133.726C233.399 133.072 239.808 134.198 252.393 145.938L253.07 145.827C241.623 132.02 226.979 133.74 210.998 133.721C202.999 133.712 189.976 132.821 182.539 134.502C151.418 141.537 155.854 172.258 155.912 195.928Z"/>
	<path fill="white" transform="scale(1.17578 1.17578)" d="M261.659 195.928C266.559 199.476 267.254 202.357 267.097 208.115C265.18 206.769 262.996 205.505 261.659 203.54C261.187 200.982 260.436 198.377 261.659 195.928Z"/>
	<path fill="#C2DDFF" transform="scale(1.17578 1.17578)" d="M454.223 375.495C427.241 321.037 470.581 256.769 532.381 264.273C552.793 266.752 571.964 277.949 584.59 294.088C586.912 297.057 595.555 309.839 595.135 313.205C599.372 317.903 601.108 339.402 600.808 345.28C598.639 387.829 561.417 420.285 519.113 417.977C496.407 416.738 487.433 408.467 471.71 395.359C463.634 396.036 455.983 398.031 448.304 400.534C424.549 409.296 451.353 379.294 454.223 375.495Z"/>
	<path fill="white" transform="scale(1.17578 1.17578)" d="M454.223 375.495C427.241 321.037 470.581 256.769 532.381 264.273C552.793 266.752 571.964 277.949 584.59 294.088C586.912 297.057 595.555 309.839 595.135 313.205L595.015 313.481C590.622 304.601 589.069 300.19 581.949 291.941C572.026 280.446 560.769 273.277 546.532 268.183C537.403 264.917 518.526 261.288 509.791 266.476C508.602 267.182 507.555 266.082 506.322 266.041C503 265.931 492.489 270.628 489.089 272.413C461.505 286.895 444.153 314.58 447.293 345.858C447.701 349.926 450.674 363.737 454.484 363.984C455.494 361.266 452.988 347.405 454.263 343.319L454.086 342.988C452.272 343.455 450.569 347.539 449.714 349.11L448.747 348.825C445.875 342.951 453.746 342.493 454.171 341.833L454.319 342.069L453.906 342.583L454.314 342.313C456.494 329.85 456.483 324.028 462.533 312.273C474.62 288.785 498.806 272.707 525.658 273.259C546.425 273.685 562.022 279.406 577.393 293.742C580.57 296.706 591.882 310.542 593.441 314.803L593.192 315.468C584.133 298.269 567.858 283.23 549.274 277.428C489.852 258.877 439.839 314.514 457.965 370.534C458.777 373.045 462.16 378.4 461.553 380.876C460.4 385.576 450.448 393.583 448.304 400.534C424.549 409.296 451.353 379.294 454.223 375.495Z"/>
	<path fill="white" transform="scale(1.17578 1.17578)" d="M566.968 350.822C577.573 348.246 577.573 366.443 567.881 367.952C557.623 369.549 546.736 368.592 536.385 368.706L506.733 368.828C502.772 368.827 488.718 370.021 485.607 367.501C483.786 366.025 480.875 358.388 483.322 356.44C485.386 359.571 487.186 359.94 490.778 360.094C498.495 360.424 559.641 360.671 563.067 359.593C566.254 358.589 567.946 353.787 566.968 350.822Z"/>
	<path fill="white" transform="scale(1.17578 1.17578)" d="M566.968 318.901L567.675 318.163C578.125 317.95 577.379 334.249 567.564 335.773C561.901 336.652 549.323 335.927 543.01 335.926C534.931 335.924 489.48 338.078 485.14 333.485C482.942 331.158 481.805 326.652 483.322 323.657C487.144 328.772 493.528 327.138 499.213 327.133L548.715 327.12C553.533 327.125 558.405 327.383 563.214 327.118C565.933 325.742 568.122 321.897 566.968 318.901Z"/>
	<path fill="#1C3553" transform="scale(1.17578 1.17578)" d="M483.322 356.44C479.467 344.051 494.351 346.215 502.042 346.209L548.423 346.216C552.276 346.221 566.242 344.775 566.968 350.822C567.946 353.787 566.254 358.589 563.067 359.593C559.641 360.671 498.495 360.424 490.778 360.094C487.186 359.94 485.386 359.571 483.322 356.44Z"/>
	<path fill="#1C3553" transform="scale(1.17578 1.17578)" d="M483.322 323.657C479.368 311.223 494.357 313.21 501.773 313.202L546.101 313.195C550.684 313.198 567.474 311.007 566.968 318.901C568.122 321.897 565.933 325.742 563.214 327.118C558.405 327.383 553.533 327.125 548.715 327.12L499.213 327.133C493.528 327.138 487.144 328.772 483.322 323.657Z"/>
	<path fill="#C2DDFF" transform="scale(1.17578 1.17578)" d="M247.237 309.37C257.408 311.733 267.457 315.562 277.534 318.398L300.439 324.6C310.518 327.271 320.871 329.424 328.814 336.644C330.902 338.543 333.437 341.958 335.908 343.152C334.218 340.589 331.121 338.168 328.949 335.923C330.003 335.691 331.056 335.19 332.064 334.801C333.778 336.887 335.11 339.536 336.426 341.891L336.7 341.759C340.777 347.777 339.648 362.045 339.656 369.018L339.675 393.998C339.676 398.384 341.573 414.712 337.725 417.258C335.977 418.415 306.62 417.858 302.436 417.854L302.456 387.443C302.461 382.591 303.106 376.571 302.105 371.853C300.437 363.985 289.77 364.692 288.72 372.401C288.03 377.471 288.465 383.031 288.466 388.165L288.485 417.854L130.58 417.854L130.603 386.937C130.607 382.315 131.126 377.158 130.495 372.607C129.483 365.312 117.547 364.821 116.331 372.176C115.483 377.308 115.983 383.114 115.986 388.324L116 417.854C106.56 417.865 97.1118 417.965 87.6732 417.854L87.6847 379.96C87.6567 362.944 84.8348 344.064 101.651 333.481C118.951 322.593 151.455 319.564 171.634 310.801L172.067 310.61C195.868 322.955 199.667 339.164 226.753 321.713C232.057 318.295 241.474 311.433 247.237 309.37Z"/>
	<path fill="white" transform="scale(1.17578 1.17578)" d="M230.585 85.3093L465.939 85.3091C475.22 85.3075 484.778 84.774 494.021 85.3048C504.282 85.8941 501.419 101.853 501.421 109.011L501.425 213.789C501.423 226.512 501.017 239.352 501.419 252.062C470 261.986 446.684 280.677 436.194 313.346C434.481 318.682 433.615 324.239 432.242 329.669C432.36 340.693 432.156 347.597 433.764 358.793L353.894 358.793C354.57 339.578 345.216 321.839 328.783 311.695C313.746 302.414 267.355 291.591 248.19 284.652C247.355 279.442 246.748 274.506 247.237 269.237C249.271 264.985 252.975 262.341 255.679 258.62C260.435 252.075 263.69 244.914 267.097 237.621C282.39 228.481 286.342 202.184 275.32 188.444L275.333 172.775C275.261 143.062 257.526 119.706 226.458 119.943C226.444 112.372 223.059 87.4615 230.585 85.3093Z"/>
	<path fill="#1C3553" transform="scale(1.17578 1.17578)" d="M314.496 136.443L328.949 136.443L328.949 150.28L314.496 150.28L314.496 136.443Z"/>
	<path fill="#1C3553" transform="scale(1.17578 1.17578)" d="M314.496 177.442L328.949 177.442C328.888 182.005 328.885 186.56 328.949 191.123L314.496 191.123L314.496 177.442Z"/>
	<path fill="#1C3553" transform="scale(1.17578 1.17578)" d="M314.496 259.305L328.949 259.305L328.949 272.962L314.496 272.962L314.496 259.305Z"/>
	<path fill="#1C3553" transform="scale(1.17578 1.17578)" d="M314.496 218.243L328.949 218.243L328.949 232.037L314.496 232.037L314.496 218.243Z"/>
	<path fill="#1C3553" transform="scale(1.17578 1.17578)" d="M355.385 259.305C360.224 259.285 378.659 258.338 381.844 260.305C387.48 263.785 384.612 271.888 378.689 272.962C372.858 272.964 356.229 273.997 352.001 271.603C345.309 267.814 349.112 260.339 355.385 259.305Z"/>
	<path fill="#1C3553" transform="scale(1.17578 1.17578)" d="M355.385 177.442C364.984 177.364 453.056 176.792 456.359 177.991C462.93 180.377 461.353 188.967 454.939 191.123L367.858 191.132C363.842 191.131 359.73 191.299 355.725 191.032C345.996 190.382 346.342 179.487 355.385 177.442Z"/>
	<path fill="#1C3553" transform="scale(1.17578 1.17578)" d="M357.083 218.243L420.408 218.23C426.345 218.223 454.101 216.589 457.915 219.316C463.4 223.237 460.648 231.534 454.223 232.037L365.914 232.076C360.975 232.09 349.25 233.435 348.766 226.092C348.392 220.42 352.235 218.502 357.083 218.243Z"/>
	<path fill="#1C3553" transform="scale(1.17578 1.17578)" d="M353.224 136.443C360.913 136.185 368.699 136.433 376.399 136.432L444.081 136.432C447.996 136.432 452.531 135.96 456.349 136.779C462.091 138.011 462.61 146.714 454.939 150.28L377.169 150.252C371.807 150.228 358.262 151.108 353.825 149.952C346.528 148.05 347.03 139.251 353.224 136.443Z"/>
</svg>
