<?xml version="1.0" encoding="utf-8" ?>
<svg xmlns="http://www.w3.org/2000/svg" xmlns:xlink="http://www.w3.org/1999/xlink" width="1024" height="1024">
	<path fill="transparent" d="M0 0L1024 0L1024 1024L0 1024L0 0Z"/>
	<path fill="#FFFEFF" d="M762.875 344.261C768.57 345.112 775.309 348.901 780.455 351.394L777.028 354.373C775.405 355.727 773.828 357.162 771.999 358.233C771.344 357.038 771.603 355.548 771.068 354.515C769.162 350.828 764.89 348.25 762.875 344.261Z"/>
	<path fill="#FFFEFF" d="M789.011 92.4883C789.293 92.5107 789.577 92.5198 789.858 92.5556C793.646 93.0376 798.016 94.9118 800.412 97.9899C801.695 99.637 802.451 101.75 802.193 103.851C802.065 104.889 802.116 105.091 801.28 105.769L800.21 104.964C797.081 102.715 793.895 100.522 790.463 98.7557C788.299 97.6419 786.041 96.8402 784.019 95.4655L784.128 94.6782C785.665 93.5313 787.196 93.0642 789.011 92.4883Z"/>
	<path fill="#FFFEFF" d="M831.311 935.559C845.389 941.112 856.043 944.019 870.932 946.642C871.805 947.577 871.492 948.01 871.484 949.243C862.737 948.638 853.789 946.586 845.429 944.001C841.757 942.865 832.533 940.674 830.731 937.263L831.311 935.559Z"/>
	<path fill="#3C5DE9" d="M297.599 932.75C302.063 932.617 307.227 931.937 311.272 934.134L311.449 935.479C309.805 936.6 307.668 936.916 305.717 937.086C300.194 937.568 294.253 937.091 288.68 937.084L253.529 937.046C250.137 937.09 242.337 938.123 239.704 935.83C239.55 934.699 239.567 934.749 240.21 933.799C241.536 933.113 242.628 932.86 244.118 932.741C249.016 932.352 254.298 932.881 259.254 932.867L297.599 932.75Z"/>
	<path fill="#3C5DE9" d="M486.017 112.991L531.153 112.913C538.012 112.906 546.244 112.014 552.913 113.299C553.832 114.671 553.53 116.356 553.484 117.938Q533.278 117.536 513.069 117.506C504.195 117.487 495.114 117.862 486.272 117.258C485.679 116.36 485.997 114.133 486.017 112.991Z"/>
	<path fill="#3C5DE9" d="M474.001 70.6929L521.344 70.5764C529.62 70.5696 538.41 69.9552 546.629 70.8121C547.468 72.209 547.121 73.8995 547.031 75.4638L496.543 75.4726C490.407 75.4703 480.256 76.3792 474.508 75.1072C473.655 73.8142 473.954 72.179 474.001 70.6929Z"/>
	<path fill="#FFFEFF" d="M747.009 440.142C747.476 440.376 747.915 440.728 748.346 441.025C750.497 455.87 751.871 471.047 753.162 485.995Q755.3 510.214 756.706 534.487C757.072 540.657 758.121 547.834 757.416 553.969C757.275 555.195 756.729 555.86 755.955 556.781L755.038 556.979C754.761 556.604 754.619 556.466 754.476 555.962C753.339 551.963 753.559 535.827 753.255 530.634Q751.496 500.177 748.585 469.809C748.146 465.215 745.225 444.102 746.366 441.222C746.555 440.746 746.703 440.593 747.009 440.142Z"/>
	<path fill="#FFFEFF" d="M791.916 352.318C792.044 352.37 792.182 352.402 792.3 352.474C797.493 355.627 805.339 370.13 807.71 375.849C805.614 379.311 802.821 383.768 799.526 386.166L782.282 361.013C785.688 358.42 788.776 355.232 791.916 352.318Z"/>
	<path fill="#3C5DE9" d="M862.644 387.04L919.201 386.831C929.616 386.816 940.181 386.436 950.584 386.875C952.437 386.953 953.284 386.859 954.554 388.249C954.804 389.599 954.277 390.479 953.73 391.667C933.035 392.112 912.251 391.768 891.55 391.717C883.648 391.697 870.39 392.613 863.19 391.344C862.366 390.075 862.621 388.496 862.644 387.04Z"/>
	<path fill="#FFFEFF" d="M556.331 916.855C559.377 917.843 565.301 928.861 567.831 932.232C576.331 943.562 585.357 953.364 596.059 962.662C593.586 962.107 591.18 961.293 588.763 960.536C573.889 955.255 557.511 936.004 548.763 923.106L556.331 916.855Z"/>
	<path fill="#3C5DE9" d="M882.613 406.023C894.441 405.837 974.553 405.296 978.208 406.739C978.969 408.268 978.793 409.008 978.719 410.689C974.467 411.421 969.679 411.028 965.361 411.031L940.312 411.031L902.154 410.925C896.013 410.865 889.106 411.305 883.062 410.22C882.211 409.047 882.553 407.404 882.613 406.023Z"/>
	<path fill="#FFFEFF" d="M897.443 235.005C904.339 236.897 930.495 245.956 935.072 249.723C934.969 250.837 934.431 251.441 933.595 252.18C928.669 256.532 921.482 259.784 915.896 263.44C909.337 267.735 857.52 303.501 854.072 303.361C853.386 302.302 853.529 302.454 853.591 301.308C863.158 294.695 873.314 288.57 883.052 282.145C898.842 271.728 914.389 261.099 930.454 251.093C925.7 248.812 920.545 247.095 915.626 245.18C909.659 242.407 903.113 240.354 896.93 238.091C890.828 241.766 885.054 246.503 879.145 250.545C855.08 267.006 831.789 284.981 806.777 299.953L806.794 300.456L806.788 299.942L806.088 300.307L805.93 298.702C806.352 297.744 806.668 297.241 807.525 296.593C809.356 295.21 812.123 294.834 814.175 293.749C818.096 291.676 821.888 288.739 825.554 286.239C837.408 278.158 848.882 269.57 860.626 261.338C872.957 252.694 885.655 244.382 897.443 235.005Z"/>
	<path fill="#3C5DE9" d="M220.025 913.141C246.537 912.838 273.077 913.059 299.592 913.062C308.009 913.064 327.339 912.128 334.402 913.472C335.212 914.969 334.912 916.288 334.873 917.971Q293.617 918.319 252.36 918.129C244.647 918.105 227.061 918.957 220.489 917.723C219.674 916.47 219.998 914.588 220.025 913.141Z"/>
	<path fill="#3C5DE9" d="M453.043 90.9896C480.504 90.6042 508.015 90.8705 535.48 90.9054L559.345 90.9429C563.615 90.9481 568.232 90.5666 572.438 91.2637C573.304 92.69 572.902 94.3928 572.773 95.9848L493.382 95.8916L468.26 95.9255C463.461 95.9317 458.406 96.2535 453.65 95.7111C452.72 94.325 453.012 92.5916 453.043 90.9896Z"/>
	<path fill="#FFFEFF" d="M551.468 981.588C550.8 981.117 550.123 980.703 549.422 980.284C541.079 975.29 478.87 933.751 477.503 928.302C477.74 924.964 480.227 922.996 482.427 920.731C484.924 925.093 487.662 928.6 491.28 932.096C498.011 938.598 505.818 943.873 513.48 949.199C529.441 960.293 546.076 970.353 562.136 981.251C558.774 981.733 554.816 982.243 551.468 981.588Z"/>
	<path fill="#FFFEFF" d="M746.429 332.37C746.679 332.354 746.93 332.309 747.18 332.322C751.194 332.528 759.753 349.303 762.175 352.813C764.253 355.826 766.541 358.393 769.16 360.94C765.438 363.798 761.255 366.145 757.264 368.61C753.997 370.583 750.723 372.477 747.34 374.245C744.874 362.457 740.88 348.849 739.694 337.08C741.794 335.19 744.017 333.816 746.429 332.37Z"/>
	<path fill="#FFFEFF" d="M799.192 108.134C799.379 108.189 799.568 108.241 799.753 108.301C803.938 109.654 807.049 113.7 808.996 117.461C815.859 130.713 813.84 145.181 809.458 158.812L804.014 156.97Q795.99 154.186 787.771 152.043C796.058 137.031 800.868 125.388 799.192 108.134Z"/>
	<path fill="#FFFEFF" d="M918.927 957.303L919.647 963.611C910.414 969.678 889.508 978.2 878.773 981.082C875.564 981.126 872.359 982.349 869.07 982.408C853.963 982.677 838.762 982.084 823.639 982.069C814.999 982.061 776.856 983.089 771.028 981.428C771.177 980.702 771.225 979.243 771.865 978.837C774.693 977.042 783.85 978.598 787.289 978.586C826.179 978.457 885.63 978.731 918.927 957.303Z"/>
	<path fill="#FFFEFF" d="M800.089 287.619C802.779 287.363 806.669 287.184 808.97 288.818C809.762 289.38 809.484 289.09 809.707 290.2C807.715 293.392 801.97 294.255 798.822 296.153C794.42 298.808 790.179 302.042 785.87 304.891L786.064 304.672C785.677 305.263 785.422 305.63 785.333 306.351C785.313 306.509 785.314 306.67 785.304 306.83L784.786 306.812L784.364 306.243L784.498 306.814C785.179 307.028 785.786 307.13 786.503 307.126C790.634 307.104 795.081 304.686 797.937 301.777C798.952 300.743 800.015 299.569 801.18 298.709C802.165 297.981 802.789 297.937 803.949 298.113L804.164 298.8C801.778 305.995 769.876 331.821 761.717 337.022Q762.439 337.22 763.166 337.397C770.452 339.175 780.848 342.743 788.18 340.516C790.548 339.797 792.94 338.08 795.062 336.805C800.399 333.581 805.583 330.385 811.485 328.279C803.476 334.687 793.918 339.15 785.574 345.159C777.113 343.693 767.64 342.555 759.597 339.657C757.769 336.905 756.285 334.183 754.893 331.188C754.258 331.256 753.617 331.327 752.979 331.356C751.439 331.426 750.514 331.154 749.378 330.131C751.623 328.744 755.113 328.932 757.639 329.201C771.641 322.008 764.596 314.225 771.013 303.859C772.112 302.083 773.617 300.602 775.308 299.388C778.236 297.287 781.832 296.189 785.018 294.524C788.263 292.828 791.31 290.574 794.675 289.139C796.398 288.404 798.263 288.009 800.089 287.619Z"/>
	<path fill="#FFFEFF" d="M702.592 108.98C704.171 109.005 705.598 109.094 707.064 109.747C708.511 110.392 708.896 111.216 709.384 112.653C708.989 113.887 708.784 114.38 707.649 115.168C706.032 116.289 703.397 115.616 701.566 115.383C700.787 118.021 699.947 123.343 697.234 124.522C695.104 125.448 692.991 124.384 690.999 123.622C689.825 125.554 688.393 128.637 686.173 129.528C685.117 129.952 684.361 129.696 683.386 129.285C683.267 129.235 682.438 128.862 682.291 128.823C680.87 128.449 680.684 128.823 679.532 129.606C678.829 131.096 678.926 131.845 679.334 133.419C679.614 134.496 679.949 135.41 679.682 136.53C679.044 139.203 676.236 139.332 674.329 140.772C673.106 141.696 672.443 143.357 672.273 144.841C672.063 146.664 672.629 147.547 673.786 148.889C674.026 149.169 674.667 149.882 674.895 150.188C676.439 152.265 675.951 154.316 675.578 156.699C677.174 157.232 678.222 157.615 679.429 158.808C679.862 159.768 680.135 160.484 680.015 161.538C679.472 166.326 675.16 165.452 672.473 167.885C671.873 168.429 672.094 168.34 672.105 169.299C673.835 172.688 677.805 175.184 680.827 177.318C677.633 179.871 675.82 182.316 675.341 186.479C674.028 197.902 685.966 216.161 692.543 224.821C697.422 231.246 703.082 237.145 707.486 243.918C712.98 252.367 716.459 261.588 722.556 269.656C721.929 271.66 721.232 273.525 720.326 275.42L719.556 275.636C717.245 271.496 714.732 267.377 712.974 262.966C713.632 262.477 713.962 262.008 714.445 261.356C715.036 255.063 687.045 227.973 681.587 222.103C677.134 217.314 672.684 212.321 668.772 207.081C664.442 201.282 660.851 194.78 658.747 187.842C663.313 184.622 667.987 181.781 672.83 179.009C669.432 175.57 665.826 172.635 665.407 167.531C667.161 164.542 665.786 161.842 666.358 158.666C667.467 156.877 669.282 156.062 671.053 155.028C669.116 152.999 667.56 151.249 666.415 148.656C663.012 140.95 668.586 140.093 671.472 134.208C672.514 132.083 672.273 129.399 673.218 127.189C675.845 121.044 680.807 124.188 684.763 122.553C688.656 114.603 690.609 120.191 694.476 117.063C698.148 114.092 697.012 111.544 702.592 108.98Z"/>
	<path fill="#FFFEFF" d="M879.865 293.004C880.178 293.273 879.991 293.062 880.115 293.812C873.369 304.315 866.873 314.64 858.179 323.706C853.821 328.25 848.813 332.123 844.399 336.613C840.026 341.061 836.277 346.156 831.43 350.118C828.589 352.44 825.172 354.105 822.014 355.947C817.058 358.837 813.229 361.814 809.191 365.894C805.749 360.971 802.389 355.985 798.514 351.389C805.61 347.052 807.546 344.479 810.351 336.54Q812.173 333.255 814.658 330.438C819.412 325.099 825.538 320.884 830.93 316.202C835.961 311.833 840.735 306.925 846.076 302.944C847.245 302.072 848.452 301.044 849.954 300.955C851.552 303.127 850.62 306.265 850.261 308.778C847.558 312.638 843.742 315.952 839.905 318.645C838.226 319.823 836.196 320.914 834.748 322.338C833.98 323.092 833.907 323.571 833.65 324.579C834.4 325.266 834.032 325.161 834.745 325.251C853.702 327.641 866.199 303.178 879.429 293.32C879.573 293.212 879.72 293.109 879.865 293.004Z"/>
	<path fill="#3C5DE9" d="M878.773 981.082C878.945 981.111 879.115 981.142 879.287 981.168C888.114 982.532 932.92 979.85 936.24 982.428C936.155 983.785 936.342 984.626 935.494 985.737C931.009 986.47 925.989 986.002 921.425 985.967Q910.597 985.888 899.769 985.931L806.893 985.918L691.824 985.418Q606.768 986.401 521.713 985.378C510.1 985.219 397.227 985.731 394.191 984.617C393.951 983.238 393.84 983.107 394.464 981.877C395.643 981.135 396.591 980.897 397.988 980.823C401.395 980.643 404.915 981.044 408.346 981.031L437.18 980.894L522.643 981.04C532.204 981.142 541.926 981.986 551.468 981.588C554.816 982.243 558.774 981.733 562.136 981.251C564.976 982.725 571.351 982.134 574.541 981.772C580.625 982.993 619.366 982.66 626.44 981.903C631.802 981.019 637.817 981.468 643.271 981.451L670.518 981.23L732.585 980.988C745.347 980.974 758.303 980.52 771.028 981.428C776.856 983.089 814.999 982.061 823.639 982.069C838.762 982.084 853.963 982.677 869.07 982.408C872.359 982.349 875.564 981.126 878.773 981.082Z"/>
	<path fill="#3C5DE9" d="M436.954 439.042L437.754 439.132C437.868 439.409 438.078 439.663 438.096 439.961C438.119 440.341 421.102 508.038 419.712 512.501Q408.763 500.265 397.586 488.237C388.985 478.557 380.72 468.612 372.224 458.843C393.774 452.143 415.518 446.119 436.954 439.042Z"/>
	<path fill="#FFFEFF" d="M821.414 942.501C825.963 943.516 830.43 945.233 834.967 946.395C847.215 949.533 860.913 952.062 873.566 952.177C885.042 952.281 901.437 947.473 911.603 949.55C912.31 949.694 913.304 949.924 913.905 950.349C914.959 951.095 915.004 951.364 915.186 952.544C913.538 954.52 910.831 955.765 908.57 956.939C894.638 964.17 879.236 967.028 863.893 969.467C844.001 972.651 824.223 973.273 804.117 973.703C793.751 973.924 783.177 974.552 772.861 973.38C772.957 967.536 773.101 953.251 774.99 948.248C776.153 945.169 789.946 949.302 792.865 949.671C803.78 951.05 811.85 947.14 821.414 942.501Z"/>
	<path fill="#FFFEFF" d="M895.484 242.366C900.395 242.397 914.589 249.319 919.935 251.53C914.877 256.251 908.056 259.633 902.333 263.614Q885.458 275.576 868.24 287.039C862.933 290.594 857.53 294.679 851.825 297.557C850.17 298.391 847.375 298.083 845.546 298.079C837.021 304.941 828.364 312.924 819.232 318.884C810.919 324.309 801.412 328.528 792.776 333.53C784.659 337.865 779.49 336.393 770.769 335.518C776.388 329.474 783.107 324.158 789.354 318.755C803.602 306.432 818.53 295.691 833.843 284.739C843.501 277.832 853.07 270.733 862.913 264.092C873.729 256.794 884.973 250.106 895.484 242.366Z"/>
	<path fill="#FFFEFF" d="M753.032 92.2074C756.998 91.7421 761.259 91.9544 765.229 92.2735C768.559 92.5412 780.923 93.4618 782.91 95.8099L782.142 97.3786C782.184 97.6244 782.132 97.9071 782.268 98.116C782.609 98.6395 789.23 101.6 790.499 102.358C792.287 103.426 793.798 104.822 795.318 106.231Q795.612 107.819 795.817 109.421C797.58 123.661 791.494 139.397 782.816 150.493C777.119 148.478 771.457 146.49 765.942 144.005C752.476 138.042 738.953 131.935 726.794 123.505C722.342 120.418 718.672 116.354 714.18 113.322C714.017 113.212 713.851 113.106 713.687 112.998C726.148 99.973 734.635 93.8128 753.032 92.2074Z"/>
	<path fill="#3C5DE9" d="M379.339 493.3C379.914 493.316 380.682 493.291 381.249 493.458C382.881 493.936 384.723 495.241 385.484 496.795C386.076 498.005 385.937 499.215 385.413 500.412C383.26 505.326 366.888 517.791 362.323 521.543C313.608 561.585 256.062 595.039 199.006 621.655C177.784 631.554 155.947 640.201 134.455 649.488C132.427 649.216 130.501 647.984 129.196 646.424C128.239 645.281 127.468 643.731 127.839 642.2C128.681 638.731 138.964 635.552 142.25 634.201C208.276 607.056 267.693 576.874 325.943 535.225Q343.92 522.222 361.233 508.348C367.32 503.405 373.024 497.949 379.339 493.3Z"/>
	<path fill="#FFFEFF" d="M486.349 917.839C492.029 908.512 498.029 901.35 508.497 897.445C515.795 911.983 529.386 918.387 543.544 924.944C548.131 931.922 553.176 938.194 558.726 944.425C569.945 957.02 580.222 965.291 597.139 968.707C600.026 969.29 603.03 969.911 605.974 970.075C611.846 970.402 619.968 968.112 623.771 973.859C625.239 976.077 625.767 979.344 626.44 981.903C619.366 982.66 580.625 982.993 574.541 981.772C556.564 971.897 539.79 959.682 522.873 948.132C513.87 941.986 503.972 936.298 495.77 929.095C491.909 925.705 488.998 922.227 486.349 917.839Z"/>
	<path fill="#FFFEFF" d="M784.921 180.921C781.91 176.498 779.579 171.772 776.795 167.225C773.575 161.966 770.242 155.72 768.104 149.933L768.423 149.539C769.438 150.114 770.151 150.592 770.765 151.611C773.401 155.985 775.415 160.86 777.859 165.361C782.075 173.125 787.066 180.3 792.449 187.292C796.001 191.644 799.763 195.885 804.095 199.482C814.267 207.925 826.4 210.6 839.413 209.256C841.495 209.042 844.525 208.691 845.907 206.961L845.483 206.068C840.611 203.73 833.473 205.444 828.076 204.795C814.697 203.188 804.85 195.349 796.761 185.05C790.009 176.777 779.154 161.861 775.289 152.233C785.301 154.794 800.768 158.791 809.433 163.949C815.132 167.342 845.406 200.716 849 206.461C849.216 206.806 849.453 207.302 849.628 207.648C849.191 209.135 848.726 209.921 847.288 210.627C844.996 211.75 841.915 212.052 839.398 212.373C829.814 213.592 821.588 212.894 812.571 209.272C803.66 205.692 796.629 199.011 791.817 190.739C787.961 195.206 780.282 201.865 778.741 207.47C777.715 211.198 777.728 215.122 776.966 218.896C776.511 221.147 775.388 224.081 772.74 224.363C770.15 224.64 766.866 222.081 764.796 224.064C763.358 225.442 762.401 226.854 761.384 228.549C760.901 229.354 760.214 230.513 759.253 230.777C756.439 231.551 751.069 229.839 748.317 228.931C749.618 230.659 751.876 232.926 751.372 235.273C750.897 237.479 747.9 239.244 746.184 240.45C738.44 240.971 732.521 239.628 726.51 234.324C719.775 228.382 713.6 217.959 713.154 208.905C712.99 205.56 714.232 197.164 712.344 194.799L711.489 194.579C709.87 195.585 709.274 197.486 708.837 199.264C706.535 208.632 709.015 216.799 713.632 224.875C710.814 227.301 708.013 229.73 705.302 232.277C701.951 228.714 698.825 225.016 696.032 220.994C691.534 214.52 680.115 195.352 680.54 187.591C680.602 186.455 680.918 185.725 681.457 184.742C682.437 184.06 682.904 183.598 684.189 183.869C685.559 184.157 686.728 185.525 687.268 186.765C688.272 189.069 687.53 190.945 686.778 193.187C692.11 195.432 696.883 196.848 702.553 194.584C706.031 193.195 709.033 190.748 711.672 188.135C713.862 190.456 715.827 192.572 719.228 192.586C721.996 192.598 724.594 191.367 726.526 189.414C727.691 188.236 728.844 186.743 728.871 185.02C728.885 184.114 728.123 183.387 727.621 182.667C725.502 185.331 723.515 188.428 720.146 189.531C718.831 189.373 718.212 189.191 717.312 188.158C713.108 183.334 711.687 166.251 712.584 159.802C712.881 157.665 713.783 155.785 715.611 154.55C718.424 152.649 722.492 152.693 725.658 153.517C729.762 154.586 733.601 157.396 735.631 161.152C736.784 163.285 737.215 165.589 736.486 167.937C735.348 171.601 732.948 172.994 729.923 174.987C729.061 176.848 727.599 179.224 728.442 181.299C728.74 182.033 729.359 182.27 729.979 182.705C732.185 180.935 735.824 176.419 738.828 176.522C742.643 176.653 747.837 180.792 751.845 181.826C752.062 181.882 752.276 181.948 752.493 182C754.216 182.405 780.15 181.072 784.921 180.921Z"/>
	<path fill="#0c1439" d="M724.38 160.434C725.86 161.415 726.919 162.404 727.394 164.203C727.904 166.133 727.495 168.074 726.465 169.756C724.855 172.386 723.108 173.047 720.209 173.725C718.825 173.147 717.253 172.488 716.499 171.104C715.844 169.902 715.856 168.524 716.348 167.275C717.713 163.808 721.194 161.904 724.38 160.434Z"/>
	<path fill="#FFFEFF" d="M721.961 164.68L722.797 165.048C723.441 165.915 723.943 166.37 723.768 167.541C723.535 169.096 722.29 170.007 721.159 170.923C720.256 170.294 719.764 169.937 719.288 168.933C719.621 167.083 720.785 166.096 721.961 164.68Z"/>
	<path fill="#FFFEFF" d="M582.889 534.165C595.192 541.972 607.928 548.85 620.617 555.982C608.114 553.691 596.553 548.689 586.034 541.612C585.773 564.085 589.984 585.256 597.872 606.22C600.158 612.296 604.765 618.293 605.431 624.803C605.965 630.029 605.112 635.548 605.057 640.809C604.938 652.053 604.256 703.176 607.262 710.739C611.096 709.126 623.612 692.309 626.438 688.193C629.108 684.304 631.362 680.088 634.093 676.258C634.956 675.047 635.244 674.633 636.721 674.37C637.988 674.816 638.199 674.863 639.025 675.903C639 679.112 636.268 682.429 634.573 685.005Q626.775 696.925 617.236 707.503C610.685 714.685 603.225 721.592 597.54 729.493L597.127 730.074C597.605 735.531 598.747 740.89 599.784 746.262C603.74 749.619 608.716 752.2 613.689 753.65C616.852 754.573 621.155 755.05 623.809 757.007C624.39 758.229 624.491 758.26 624.183 759.56L623.286 760.08C615.06 760.288 604.689 755.485 598.319 750.5C574.656 771.141 560.765 800.403 546.945 827.997C540.997 839.874 534.428 852.222 530.049 864.758C536.852 860.939 560.253 843.135 565.821 843.336C566.628 843.366 566.633 843.689 567.098 844.257C567.016 844.794 566.994 845.169 566.733 845.685C565.01 849.089 528.401 872.394 524.282 873.702C524.187 873.876 524.095 874.052 523.997 874.225L523.499 875.083C521.483 878.608 518.648 881.675 516.055 884.791C527.767 897.316 543.135 905.08 559.556 909.385C566.988 897.822 573.951 885.97 581.349 874.388Q599.078 846.206 619.75 820.106C627.509 810.329 636.192 801.084 644.757 792.006C650.26 786.174 656.826 780.436 661.002 773.568C667.017 763.675 669.995 750.929 673.879 739.979C685.546 707.08 695.492 673.54 705.609 640.139C710.124 625.234 715.347 610.486 719.608 595.515C720.501 592.379 721.025 587.782 723.619 585.613C724.689 584.718 726.194 583.822 727.619 583.915C728.633 586.403 699.933 675.153 697.523 684.222C702.556 692.226 708.83 699.784 714.499 707.367C723.26 719.085 731.766 731.127 741.55 742.025C749.135 732.693 757.153 723.828 764.44 714.222C766.264 711.818 768.129 709.397 769.736 706.843C771.128 704.63 772.179 702.202 773.852 700.176C775.097 698.668 776.271 697.56 778.144 696.953L778.725 697.297C781.088 705.565 753.906 735.398 747.773 742.271C744.537 745.899 739.383 750.33 737.32 754.702C737.405 758.092 742.864 763.826 744.859 766.966C754.711 762.678 764.616 757.358 773.518 751.358C777.276 748.824 782.396 743.765 786.143 742.092C787.7 741.398 788.884 741.383 790.448 742.001L790.752 742.98C788.188 751.745 764.076 763.5 755.291 767.366C752.928 768.406 742.357 771.422 741.406 772.769C739.157 775.956 740.645 785.206 740.942 789.065C743.709 825.037 753.634 857.512 764.446 891.699C769.22 906.793 775.205 922.373 777.84 937.98C781.09 937.956 784.376 937.61 787.619 937.38C799.831 935.682 810.964 932.89 822.278 927.905C818.655 915.971 817.039 903.166 815.232 890.854C809.897 854.489 806.574 817.054 807.12 780.273L807.645 741.413C807.84 730.807 808.817 719.491 807.027 708.998C805.464 699.836 801.629 690.789 798.486 682.06C784.745 643.894 767.993 605.859 749.5 569.776C750.836 568.051 752.37 566.46 753.833 564.84C758.527 576.212 764.048 587.273 769.097 598.492Q786.553 636.348 801.311 675.335C805.303 686.167 810.042 697.425 812.003 708.818C813.747 718.952 813.172 729.7 813.008 739.953L812.295 779.353C811.726 819.247 815.016 860.451 821.522 899.807C823.188 909.887 824.639 920.062 827.621 929.854C825.525 931.205 823.402 932.634 821.147 933.703C813.107 937.513 783.693 945.202 775.338 942.267C771.022 934.271 768.695 920.44 765.816 911.224C751.758 866.213 734.214 820.403 736.568 772.463C737.617 770.847 738.909 769.39 740.135 767.906C737.897 764.602 732.469 760.477 732.247 756.459C732.028 752.482 736.327 748.566 738.674 745.784C721.791 729.738 710.954 708.08 695.337 690.982C692.861 697.819 690.867 704.896 688.611 711.814Q683.097 728.408 677.402 744.941C673.683 755.774 669.85 766.735 664.534 776.91C661.227 783.243 649.247 794.365 643.932 800.203Q630.124 815.252 617.319 831.164C605.988 845.251 595.635 860.484 586.083 875.814C578.098 888.63 570.507 902.003 561.58 914.189C556.658 913.978 551.906 912.978 547.26 911.357C538.141 908.176 514.764 895.592 511.076 886.56C510.917 886.17 510.485 884.87 510.537 884.508C510.864 882.235 519.792 873.465 521.428 869.834C535.304 839.033 568.185 766.149 594.684 747.547C593.848 740.963 592.991 734.391 592.465 727.773C595.255 723.432 599.009 719.743 602.619 716.088C600.545 695.702 600.263 675.31 600.301 654.839C600.317 645.779 601.642 634.835 600.359 626.009C599.393 619.366 594.746 612.849 592.367 606.532Q590.181 600.777 588.431 594.875Q586.682 588.972 585.378 582.956Q584.074 576.939 583.223 570.842Q582.372 564.745 581.979 558.601C581.385 550.257 581.161 542.399 582.889 534.165Z"/>
	<path fill="#3C5DE9" d="M88.7476 510.443C90.2792 510.438 91.8054 510.338 93.0024 511.476C94.7686 513.156 95.143 516.376 95.2524 518.678C95.6857 527.795 95.2137 537.08 95.2472 546.217L95.0953 621.029L95.4952 853.857L155.995 853.84L155.964 687.608L196.007 687.552L196.454 853.994L247.445 853.902L247.019 641.732Q267.269 641.928 287.52 641.903C286.731 668.994 287.4 696.289 287.462 723.395L287.711 853.94L337.579 853.908L337.478 776.875L337.511 588.465Q357.748 588.3 377.985 588.422L378.107 853.946L443.941 853.966L443.768 863.681L95.56 863.527L95.5093 893.975L85.86 893.995C84.9781 884.077 85.4962 873.902 85.1205 863.934C80.6792 863.93 47.6148 864.42 45.6595 862.734C44.3412 861.598 43.6954 859.503 43.6891 857.804C43.6842 856.499 44.0682 855.631 44.9552 854.685C49.6972 852.781 77.5249 853.898 84.9888 853.896C84.5598 825.722 85.0056 797.478 84.9857 769.295L84.9394 592.056C84.9437 582.07 84.0925 517.105 85.213 513.734C85.7582 512.094 87.3638 511.314 88.7476 510.443Z"/>
	<path fill="#FFFEFF" d="M652.616 187.785C652.736 187.832 652.869 187.853 652.976 187.924C653.001 187.941 653.898 188.724 653.928 188.775C654.754 190.179 655.218 192.615 655.81 194.194C657.766 199.418 660.116 205.093 663.491 209.581C671.791 220.614 706.439 253.27 709.023 261.801L708.211 262.533C708.151 262.998 708.087 263.224 708.22 263.732C708.983 266.658 711.292 270.126 712.579 272.948Q716.473 281.442 719.391 290.319Q726.636 311.652 732.287 333.462Q737.939 355.272 741.965 377.439C734.287 380.98 726.524 385.078 718.346 387.316C714.777 371.327 712.25 355.068 708.873 339.031Q705.704 323.559 701.376 308.371Q697.049 293.182 691.587 278.364C690.095 274.32 688.584 267.915 685.552 264.928C684.464 263.857 682.874 262.777 681.289 262.92C680.508 262.991 680.5 263.34 680.081 263.916C679.971 265.032 680.033 266.024 680.418 267.082C681.389 269.745 683.255 272.121 684.34 274.778C686.812 280.826 688.787 287.306 690.864 293.506C695.724 308.011 700.094 322.91 702.917 337.959C698.664 334.367 693.83 331.351 689.689 327.678C685.244 323.735 673.811 310.282 669.296 309.099C668.399 308.864 668.375 309.089 667.612 309.5C667.301 310.219 667.016 310.559 667.129 311.373C667.989 317.582 697.888 341.458 704.447 346.076C706.24 354.149 707.502 362.372 709.11 370.488C710.336 376.671 711.956 382.809 712.792 389.059C709.964 393.836 698.89 413.801 699.411 418.228C700.368 419.251 700.525 419.167 701.932 419.388C702.421 419.209 702.987 419.171 703.399 418.853C706.586 416.397 712.27 396.61 717.45 392.559L717.943 393.052C717.843 399.503 713.483 406.463 711.898 412.744C711.131 415.784 710.383 418.936 712.046 421.779L713.099 422.025C713.676 421.711 713.744 421.705 714.312 421.228C717.095 418.891 723.321 396.827 723.593 392.403L777.55 363.669C782.946 372.911 789.995 380.936 795.082 390.483C793.956 392.933 792.766 395.419 791.283 397.676C776.35 420.402 736.941 442.681 710.419 447.898C698.409 450.26 688.353 449.209 678.115 442.3C672.371 429.78 665.943 417.318 659.2 405.308C653.447 395.062 647.755 384.919 642.31 374.5C639.07 368.3 635.609 362.503 633.629 355.723C629.209 340.588 626.019 310.718 629.152 295.45C630.576 288.509 633.557 281.825 636.983 275.655C641.236 267.994 649.97 253.941 659.169 251.418C661.635 250.741 666.505 249.923 668.021 247.786C668.464 247.161 668.278 247.243 668.1 246.387C667.453 245.73 666.867 245.137 665.999 244.762C663.04 243.484 658.684 245.271 655.978 246.566C641.363 253.562 630.392 273.14 625.241 287.745C618.802 306.003 622.973 344.718 630.053 362.619C634.908 374.894 642.393 386.57 648.103 398.534C641.096 413.528 633.795 428.048 624.538 441.814C618.616 450.622 612.522 459.384 605.624 467.459C603.21 470.284 595.733 477.773 594.609 480.855C594.114 482.213 594.423 482.572 594.99 483.789C596.254 484.502 596.511 484.523 597.97 484.506C604.099 481.694 628.783 445.649 633.425 438.479C640.301 427.668 646.699 416.141 651.725 404.345C656.883 412.521 661.146 421.568 665.532 430.187C668.331 435.688 670.893 442.193 675.187 446.7C682.954 454.852 694.01 454.88 704.425 454.996C699.648 473.209 694.172 492.27 684.89 508.775C682.406 513.191 679.531 517.387 676.936 521.739C675.389 524.335 674.105 527.087 672.359 529.562C669.457 533.676 665.693 537.489 663.142 541.805C662.171 543.448 661.771 544.202 661.843 546.089C662.621 547.295 662.839 547.475 664.106 548.155C665.193 547.96 665.682 547.89 666.536 547.115C669.784 544.169 672.693 539.203 675.212 535.546C689.051 515.454 699.332 494.495 705.87 470.942C707.407 465.407 709.141 459.94 709.59 454.19C720.226 452.048 729.976 448.31 739.925 444.116C743.424 465.391 744.522 487.526 745.894 509.026C746.999 526.346 748.508 543.788 748.499 561.146C747.583 562.859 746.558 564.623 745.303 566.109C737.117 575.801 722.712 580.527 710.453 581.395C682.176 583.399 635.312 557.761 610.529 543.625C601.383 538.408 591.127 533.183 583.213 526.199C577.604 521.25 574.594 514.848 574.247 507.382C573.932 500.634 575.231 493.312 575.922 486.585Q578.051 467.334 579.714 448.038Q581.634 423.942 583.184 399.819C583.828 389.478 584.157 379.067 585.238 368.762C587.259 349.497 591.088 330.438 594.632 311.408C597.07 298.325 598.926 284.791 603.646 272.294C606.953 263.537 611.667 255.169 618.19 248.397C627.2 239.043 639.574 232.412 652.729 232.25C664.892 232.101 673.332 237.754 681.341 246.414C699.354 265.889 706.644 291.609 714.3 316.35C715.274 319.498 717.775 330.127 719.165 332.406C719.457 332.884 720.271 333.473 720.695 333.883L721.575 333.854L720.997 334.079L721.962 334.505C722.882 334.418 723.158 334.646 723.707 333.677C726.427 328.874 710.377 285.702 707.396 278.863C699.128 259.895 686.715 236.373 666.281 228.489C655.644 224.385 643.349 226.757 633.23 231.334C614.938 239.607 604.439 253.773 597.553 272.148C594.158 264.858 591.297 258.684 592.807 250.354C596.57 229.587 607.276 219.062 623.893 207.365C627.463 212.955 633.3 223.992 639.94 225.879C641.364 225.533 641.367 225.503 642.275 224.346C642.553 221.296 634.846 214.246 632.917 211.276C631.329 208.83 630.366 206.312 629.442 203.575C632.24 201.143 635.147 199.244 638.314 197.331C642.982 207.531 651.077 218.618 659.913 225.609L663.662 223.172C660.945 219.376 657.46 216.018 654.487 212.401C649.985 206.924 645.941 200.643 642.555 194.416L652.616 187.785Z"/>
	<path fill="#0c1439" d="M688.004 466.476C688.771 466.45 689.745 466.336 690.492 466.488C691.758 466.746 691.982 467.039 692.666 468.018C693.088 474.469 665.439 526.147 660.141 535.129C658.369 534.849 657.189 534.389 655.969 533.015C655.111 528.926 660.937 521.986 663.063 518.339C669.783 506.807 675.519 493.919 681.036 481.745C683.297 476.757 685.022 471.063 688.004 466.476Z"/>
	<path fill="#3C5DE9" d="M277.204 56.7154Q279.387 56.6293 281.571 56.5959Q283.755 56.5626 285.94 56.5821Q288.124 56.6015 290.308 56.6738Q292.491 56.7461 294.672 56.8712Q296.853 56.9962 299.03 57.174Q301.208 57.3517 303.38 57.5821Q305.552 57.8124 307.718 58.0952Q309.885 58.3781 312.043 58.7132Q314.202 59.0482 316.352 59.4354Q318.502 59.8226 320.642 60.2617Q322.782 60.7008 324.911 61.1914Q327.039 61.6821 329.155 62.2241Q331.272 62.7661 333.374 63.3591Q335.477 63.9521 337.564 64.5958Q339.652 65.2395 341.723 65.9334Q343.795 66.6274 345.849 67.3712Q347.903 68.1151 349.938 68.9083Q351.974 69.7016 353.989 70.5439Q356.005 71.3862 357.999 72.2769Q359.994 73.1677 361.967 74.1064Q363.939 75.0451 365.889 76.0313Q367.838 77.0174 369.763 78.0504Q371.688 79.0834 373.587 80.1626Q375.486 81.2418 377.359 82.3667Q379.232 83.4915 381.077 84.6613Q382.922 85.831 384.738 87.0451Q386.554 88.2591 388.34 89.5167Q390.126 90.7743 391.882 92.0748Q393.637 93.3752 395.36 94.7177Q397.084 96.0602 398.774 97.4439Q400.465 98.8277 402.121 100.252Q403.777 101.676 405.399 103.14Q407.096 104.67 408.756 106.24Q410.415 107.81 412.037 109.42Q413.658 111.031 415.24 112.679Q416.821 114.328 418.363 116.015Q419.904 117.701 421.404 119.425Q422.905 121.148 424.363 122.907Q425.821 124.666 427.236 126.46Q428.651 128.254 430.022 130.082Q431.393 131.909 432.72 133.77Q434.047 135.63 435.328 137.522Q436.609 139.413 437.844 141.336Q439.079 143.258 440.268 145.209Q441.456 147.161 442.597 149.141Q443.737 151.12 444.83 153.127Q445.922 155.134 446.966 157.166Q448.01 159.199 449.004 161.256Q449.998 163.313 450.942 165.394Q451.886 167.475 452.78 169.578Q453.673 171.681 454.516 173.805Q455.358 175.928 456.149 178.072Q456.939 180.216 457.678 182.378Q458.417 184.54 459.103 186.719Q459.789 188.899 460.422 191.094Q461.055 193.289 461.635 195.5Q462.215 197.71 462.742 199.933Q463.268 202.156 463.74 204.392Q464.213 206.627 464.631 208.874Q465.049 211.12 465.413 213.376Q465.776 215.631 466.085 217.895Q466.394 220.159 466.648 222.43Q466.903 224.7 467.102 226.977Q467.301 229.253 467.445 231.533C470.346 281.189 453.552 327.314 420.494 364.272C393.545 394.402 353.9 415.803 314.107 422.625C306.195 423.982 298.186 424.329 290.185 424.788C290.054 424.803 289.924 424.823 289.793 424.833C242.547 428.217 194.518 408.734 159.819 377.335C126.413 347.106 102.707 298.38 100.455 253.312C97.8847 201.861 111.91 155.367 146.809 116.833C180.932 79.1556 226.713 59.1734 277.204 56.7154Z"/>
	<path fill="#0c1439" d="M286.282 69.4147C306.037 69.9457 324.445 72.9688 343.059 79.8468C341.443 85.0636 338.634 91.5137 338.397 96.9284C338.326 98.5516 338.536 99.6447 339.657 100.892C340.42 101.114 340.686 101.416 341.43 100.975C345.225 98.7268 347.68 86.2722 348.957 82.0351C367.922 89.554 383.232 100.489 398.775 113.457C395.084 118.859 390.707 123.856 386.576 128.927C387.824 130.183 389.224 131.198 390.639 132.256C395.08 127.525 399.118 122.43 403.229 117.414C417.666 132.667 431.016 149.652 439.02 169.273C433.052 172.248 425.714 174.32 420.262 178.073L422.765 183.233C429.162 180.812 435.37 177.849 441.601 175.03C449.673 193.66 453.678 213.051 454.685 233.259C447.797 233.899 440.818 234.107 433.909 234.502L433.982 240.639Q444.54 240.185 455.09 239.568C455.039 261.507 451.775 282.655 443.99 303.212C440.38 301.748 426.512 294.58 423.748 295.479C422.894 296.716 422.548 297.498 422.22 298.965C424.535 302.71 436.203 306.608 440.613 308.498C432.858 328.652 421.679 344.44 407.2 360.195C402.516 356.077 398.668 350.15 393.682 346.571C392.734 345.891 392.101 345.761 390.962 346.099C389.762 346.456 388.763 347.486 388.276 348.588C388.804 351.546 399.72 361.69 402.493 364.719C385.977 379.862 371.931 388.786 352.037 398.876C349.821 392.066 347.326 384.834 344.047 378.469L339.254 380.472C341.346 387.482 343.704 394.338 346.159 401.229C328.938 406.972 312.558 411.308 294.38 412.574Q290.871 412.992 287.378 413.522C287.397 406.842 288.536 397.878 284.755 392.083L283.054 392.172C279.371 397.285 280.223 406.938 280.008 413.044C259.889 412.209 242.107 408.263 223.102 401.708C224.842 396.051 228.887 387.573 228.453 381.766C227.23 380.521 225.332 380.323 223.687 379.943C220.834 386.192 218.567 392.79 216.359 399.291C196.879 390.07 181.258 379.565 165.561 364.849C169.962 359.733 174.475 354.677 178.59 349.326C177.272 348.16 175.826 347.142 174.418 346.088C169.529 350.49 165.167 355.356 160.716 360.193C145.488 344.931 134.197 326.74 126.087 306.837C129.874 305.706 141.511 302.125 143.73 299.004C144.252 298.27 144.068 297.75 143.812 296.894C143.44 295.656 142.898 295.026 141.778 294.479C135.834 295.578 129.329 299.007 123.552 301.124C116.627 281.275 112.736 261.839 112.29 240.818C118.625 240.809 126.182 242.129 132.331 240.911C133.391 240.702 133.348 240.679 133.951 239.804C134.134 238.4 134.37 237.428 133.614 236.137C130.433 233.558 117.073 234.604 112.427 234.469C113.543 213.451 118.101 194.379 125.046 174.617C128.862 175.784 141.533 182.178 144.604 181.039C144.898 180.545 145.062 180.31 145.271 179.732C145.736 178.446 145.609 177.595 145.131 176.373C141.761 173.535 132.228 170.905 127.758 169.16C136.314 149.932 148.241 134.083 162.665 118.961C166.703 123.126 172.117 130.29 177.403 132.58C178.825 133.196 180.052 133.389 181.541 132.847L182.011 131.541C181.128 126.749 171.44 118.221 167.754 114.252C182.043 100.54 198.12 91.6037 215.749 83.0231C218.639 89.4333 221.669 95.7902 225.231 101.858L229.936 98.4908C227.121 92.4481 224.071 86.5743 220.927 80.6986C240.006 74.5072 256.65 71.2399 276.793 69.7239C277.868 69.6239 278.157 69.5912 279.198 69.996C281.14 73.8642 279.956 85.514 279.904 90.3029C281.928 90.4289 284.006 90.2617 286.034 90.1943Q286.089 79.8036 286.282 69.4147Z"/>
	<path fill="#3C5DE9" d="M233.86 147.216C239.248 147.232 244.455 148.085 249.454 150.137Q250.316 150.492 251.158 150.889Q252.001 151.287 252.823 151.726Q253.645 152.165 254.444 152.644Q255.243 153.123 256.018 153.642Q256.792 154.16 257.539 154.717Q258.287 155.273 259.005 155.867Q259.724 156.46 260.412 157.088Q261.1 157.716 261.757 158.378Q262.413 159.039 263.035 159.733Q263.657 160.427 264.244 161.15Q264.831 161.874 265.381 162.626Q265.931 163.378 266.443 164.157Q266.955 164.935 267.428 165.738Q267.9 166.542 268.332 167.367Q268.764 168.193 269.154 169.039Q269.544 169.885 269.892 170.75C274.224 181.236 274.006 191.011 269.617 201.404C285.283 208.322 300.44 217.588 315.399 225.913C316.49 223.562 317.66 221.44 319.064 219.26C330.898 225.255 342.427 232.138 354.069 238.519C364.864 244.436 376.499 249.9 386.473 257.109C383.826 263.126 380.596 269.218 376.733 274.541C365.252 269.269 354.317 262.144 343.232 256.026C333.03 250.395 321.924 245.399 312.187 239.041C311.058 238.303 310.778 238.009 310.202 236.834C310.498 235.32 310.655 234.014 310.603 232.47C309.88 230.728 308.275 230.125 306.712 229.255C293.617 221.69 280.43 213.021 266.729 206.643C262.054 212.709 256.215 217.42 249.027 220.146C239.556 223.738 228.113 223.749 218.857 219.502C216.414 224.423 213.607 229.151 211.264 234.13C209.07 238.794 207.337 243.672 205.175 248.355C201.576 256.15 197.454 263.762 193.255 271.249C190.052 269.128 186.691 267.279 183.347 265.394C188.255 252.081 198.009 240.746 205.503 228.894C208.031 224.895 210.008 220.383 212.102 216.139C211.295 215.629 210.498 215.098 209.754 214.499C201.874 208.15 196.727 198.274 195.855 188.228Q195.78 187.298 195.751 186.365Q195.722 185.433 195.739 184.5Q195.756 183.567 195.819 182.636Q195.882 181.705 195.991 180.779Q196.1 179.852 196.255 178.932Q196.41 178.012 196.61 177.101Q196.81 176.189 197.055 175.289Q197.3 174.389 197.589 173.502Q197.878 172.615 198.21 171.743Q198.543 170.871 198.918 170.017Q199.294 169.163 199.711 168.328Q200.128 167.494 200.586 166.681Q201.043 165.868 201.541 165.079Q202.038 164.289 202.574 163.525Q203.11 162.762 203.683 162.025Q204.256 161.289 204.865 160.582C212.546 151.652 222.4 148.091 233.86 147.216Z"/>
	<path fill="#0c1439" d="M230.733 153.639Q231.451 153.555 232.173 153.505Q232.894 153.454 233.617 153.437Q234.34 153.419 235.063 153.435Q235.786 153.45 236.508 153.499Q237.23 153.548 237.948 153.63Q238.667 153.712 239.381 153.826Q240.095 153.941 240.803 154.089Q241.511 154.236 242.212 154.416Q242.912 154.595 243.604 154.807Q244.295 155.018 244.976 155.261Q245.658 155.505 246.327 155.779Q246.996 156.053 247.652 156.357Q248.308 156.662 248.949 156.996Q249.591 157.33 250.216 157.693Q250.842 158.057 251.45 158.448Q252.058 158.84 252.647 159.259C259.861 164.494 265.03 171.997 266.379 180.888C267.64 189.2 265.532 197.282 260.528 204.003C255.43 210.849 248.05 215.188 239.623 216.432C230.68 217.672 222.21 215.523 214.798 210.37C208.069 205.69 203.887 198.848 202.482 190.803C200.994 182.275 203.072 174.213 208.051 167.187C213.642 159.298 221.325 155.24 230.733 153.639Z"/>
</svg>
