<?xml version="1.0" encoding="utf-8" ?>
<svg xmlns="http://www.w3.org/2000/svg" xmlns:xlink="http://www.w3.org/1999/xlink" width="802" height="602">
	<path fill="#D2E3FC" transform="scale(1.17578 1.17578)" d="M121.611 399.397C120.032 400.643 116.515 400.677 114.53 400.649C90.98 400.325 96.2863 373.452 96.2808 356.823L96.279 217.492C96.2743 201.997 95.9231 186.409 96.3154 170.923C96.7581 153.44 105.506 148.796 121.611 149.219C121.68 152.208 122.662 154.104 124.273 156.539C127.077 158.399 128.972 159.106 132.343 159.196C132.56 159.519 132.709 159.787 132.705 160.189L132.343 275.114C121.53 286.295 116.037 289.383 115.926 308.257L115.919 358.772C115.917 371.931 113.04 388.212 121.611 399.397Z"/>
	<path fill="#223451" transform="scale(1.17578 1.17578)" d="M277.076 142.137L277.06 102.106C277.063 77.322 275.203 66.5312 306.218 66.5274L511.664 66.5369C530.44 66.537 549.266 66.2373 568.036 66.465C586.167 66.6849 585.246 81.5494 585.244 95.39L585.215 183.46C585.214 192.986 585.418 202.549 585.235 212.07C584.899 229.563 570.175 228.563 556.821 228.557L532.433 228.536C533.504 231.063 532.402 234.582 532.383 237.28C532.319 246.567 534.1 260.255 525.504 266.829C537.813 269.257 555.707 275.153 562.604 285.562C569.231 295.563 568.682 305.563 568.686 317.034L568.672 370.26C568.653 396.232 565.388 406.827 538.506 407.117C538.968 408.187 539.28 420.884 538.506 422.4C548.308 422.337 570.575 419.801 562.802 436.737L562.804 436.693C554.862 442.345 534.25 439.743 524.017 439.741L142.052 439.748C134.715 439.742 127.993 440.876 121.611 436.737C115.002 419.008 135.853 421.043 146.812 422.4L146.812 407.117C136.811 408.76 128.485 407.006 121.611 399.397C113.04 388.212 115.917 371.931 115.919 358.772L115.926 308.257C116.037 289.383 121.53 286.295 132.343 275.114L132.705 160.189C132.709 159.787 132.56 159.519 132.343 159.196C128.972 159.106 127.077 158.399 124.273 156.539C122.662 154.104 121.68 152.208 121.611 149.219C122.853 146.404 124.059 143.953 127.165 142.826C131.307 141.323 169.161 142.139 176.035 142.139L277.076 142.137Z"/>
	<path fill="white" transform="scale(1.17578 1.17578)" d="M164.257 407.117L199.683 407.117L199.683 422.4L164.257 422.4L164.257 407.117Z"/>
	<path fill="white" transform="scale(1.17578 1.17578)" d="M266.875 375.882C271.824 379.476 291.911 377.171 298.699 377.189L344.027 377.189L373.616 377.352C375.679 377.379 384.768 376.184 385.564 378.464C384.458 382.353 383.271 386.197 381.987 390.031C368.888 389.602 355.627 390.023 342.515 390.024L263.069 390.031C264.009 385.256 265.675 380.601 266.875 375.882Z"/>
	<path fill="white" transform="scale(1.17578 1.17578)" d="M402.471 229.747L438.417 229.747C438.375 243.467 441.242 255.274 448.871 266.829C429.931 270.027 413.645 275.855 407.55 295.061L404.106 295.061C402.861 294.759 401.732 294.912 400.503 294.405C398.847 288.229 400.244 238.449 400.402 230.229L402.471 229.747Z"/>
	<path fill="white" transform="scale(1.17578 1.17578)" d="M405.605 370.403C407.601 374.175 401.993 388.757 410.566 398.266C420.942 409.775 434.259 407.097 448.306 407.102L497.347 407.145C505.126 407.141 513.164 406.611 520.913 407.094L521.233 407.117C522.315 409.99 522.49 419.723 521.233 422.4L515.567 422.4L398.993 422.4C398.957 401.143 397.788 390.913 405.605 370.403Z"/>
	<path fill="#7092C2" transform="scale(1.17578 1.17578)" d="M216.229 407.117L381.987 407.117L381.987 422.4L216.229 422.4C216.146 417.311 216.272 412.209 216.229 407.117Z"/>
	<path fill="white" transform="scale(1.17578 1.17578)" d="M483.035 199.881C498.648 199.114 515.174 206.654 515.576 224.139C515.994 242.295 515.04 266.452 490.121 266.829L489.712 266.866C474.23 268.241 458.074 258.06 456.89 241.683C455.376 220.745 458.067 201.597 483.035 199.881Z"/>
	<path fill="white" transform="scale(1.17578 1.17578)" d="M192.696 199.881C201.164 197 213.819 201.922 219.905 207.631C235.675 222.422 229.299 266.894 201.409 266.829C191.572 267.801 182.156 265.318 174.582 258.76C163.923 249.53 163.048 218.372 172.29 208.061C177.787 201.927 184.791 200.331 192.696 199.881Z"/>
	<path fill="white" transform="scale(1.17578 1.17578)" d="M422.503 384.988L422.516 328.62C422.507 317.629 419.307 300.357 427.901 291.728C431.294 288.321 456.185 281.857 462.803 279.094C477.406 284.41 493.37 286.459 507.955 279.632L509.091 279.094C517.267 282.576 540.312 288.424 545.202 291.82C553.356 297.483 551.138 312.913 551.142 321.434L551.148 371.774C551.147 377.768 553.032 392.594 542.159 390.142C537.514 389.094 537.655 386.732 535.2 384.988C535.906 382.56 535.213 374.015 535.209 370.985C535.201 364.657 536.488 326.316 534.293 323.245C536.449 319.931 536.252 306.417 535.004 302.859C533.457 298.447 513.925 294.793 509.932 294.394C505.724 293.974 501.766 296.412 497.649 296.904C492.028 297.575 486.017 297.383 480.358 297.262C465.353 296.94 472.549 290.949 453.269 296.492C450.823 297.196 439.345 298.969 438.394 301.467C437.301 304.338 437.326 318.679 438.417 321.601C436.86 327.195 437.692 338.975 437.693 345.213L437.703 384.988C432.959 391.326 427.39 391.928 422.503 384.988Z"/>
	<path fill="#D2E3FC" transform="scale(1.17578 1.17578)" d="M438.417 321.601C437.326 318.679 437.301 304.338 438.394 301.467C439.345 298.969 450.823 297.196 453.269 296.492C472.549 290.949 465.353 296.94 480.358 297.262C486.017 297.383 492.028 297.575 497.649 296.904C501.766 296.412 505.724 293.974 509.932 294.394C513.925 294.793 533.457 298.447 535.004 302.859C536.252 306.417 536.449 319.931 534.293 323.245C534.668 315.554 519.523 314.758 517.362 323.264C516.238 327.69 517.007 336.112 517.01 341.022L517.057 379.606C517.073 382.306 517.8 387.746 517.029 390.031C514.913 389.635 512.211 389.994 510.01 390.005L467.604 390.028C463.103 390.02 458.501 389.664 454.019 390.031C456.568 380.4 455.483 339.931 455.154 327.802C454.906 318.657 451.655 316.633 442.812 317.311C440.808 318.479 439.697 319.726 438.417 321.601Z"/>
	<path fill="#D2E3FC" transform="scale(1.17578 1.17578)" d="M284.242 312.518L404.106 312.518C398.416 334.558 392.017 356.625 385.564 378.464C384.768 376.184 375.679 377.379 373.616 377.352L344.027 377.189L298.699 377.189C291.911 377.171 271.824 379.476 266.875 375.882L284.242 312.518Z"/>
	<path fill="#223451" transform="scale(1.17578 1.17578)" d="M298.699 360.355L344.027 360.355L344.027 377.189L298.699 377.189C298.623 371.579 298.679 365.966 298.699 360.355Z"/>
	<path fill="#223451" transform="scale(1.17578 1.17578)" d="M308.934 327.96L362.388 327.96C362.382 330.5 363.03 344.034 362.388 345.266L329.136 345.265C322.413 345.273 315.651 345.506 308.934 345.266L308.934 327.96Z"/>
	<path fill="#D2E3FC" transform="scale(1.17578 1.17578)" d="M174.139 279.094C190.888 284.789 201.81 286.138 218.662 279.094C228.983 283.316 255.084 287.865 259.01 296.841C267.689 316.681 252.645 369.171 245.483 387.135L245.497 346.199C245.497 339.55 246.165 332.041 245.179 325.498C243.837 316.592 229.836 315.997 228.433 325.334C227.428 332.021 228.118 339.67 228.119 346.438L228.141 390.031C225.527 390.12 222.9 390.05 220.285 390.031L164.257 390.031C166.318 384.563 165.927 379.946 165.931 374.172L165.947 335.035C165.946 331.854 166.241 328.308 165.756 325.178C164.442 316.684 150.674 315.763 149.451 324.66C147.282 340.439 149.979 367.611 149.384 384.988C143.826 391.508 138.371 391.24 132.96 384.988C132.747 379.162 132.943 373.262 132.946 367.427L132.93 316.416C132.874 306.738 132.45 299.118 139.208 291.343C142.688 287.339 151.768 287.024 156.528 285.481C162.468 283.557 168.113 280.755 174.139 279.094Z"/>
	<defs>
		<linearGradient id="gradient_0" gradientUnits="userSpaceOnUse" x1="128.91287" y1="249.5636" x2="395.40756" y2="205.79709">
			<stop offset="0" stop-color="#B8D0F1"/>
			<stop offset="1" stop-color="#F2F6FA"/>
		</linearGradient>
	</defs>
	<path fill="url(#gradient_0)" transform="scale(1.17578 1.17578)" d="M132.343 159.196L228.795 159.19C244.87 159.189 261.01 158.866 277.076 159.196L277.053 198.525C277.054 227.275 275.687 229.788 308.408 229.772L333.376 229.747L333.328 248.069C333.313 259.232 332.406 268.278 346.317 266.829C359.753 253.778 376.904 243.549 390.66 229.747L402.471 229.747L400.402 230.229C400.244 238.449 398.847 288.229 400.503 294.405C401.732 294.912 402.861 294.759 404.106 295.061C389.9 295.372 375.625 295.061 361.41 295.06L276.08 295.061C272.571 275.341 251.584 271.604 235.201 266.829C246.533 249.458 247.832 222.93 238.76 204.738C226.985 181.126 191.571 176.983 170.096 188.009C148.462 199.118 145.419 233.87 151.52 254.26C152.84 258.669 155.203 262.761 157.322 266.829C149.384 268.504 139.256 270.947 132.343 275.114L132.705 160.189C132.709 159.787 132.56 159.519 132.343 159.196Z"/>
	<defs>
		<linearGradient id="gradient_1" gradientUnits="userSpaceOnUse" x1="413.59766" y1="248.80933" x2="444.98315" y2="63.948074">
			<stop offset="0" stop-color="#DDEAF8"/>
			<stop offset="1" stop-color="white"/>
		</linearGradient>
	</defs>
	<path fill="url(#gradient_1)" transform="scale(1.17578 1.17578)" d="M294.361 83.8918L567.812 83.8918C568.313 85.1224 568.312 91.3054 567.812 92.5366C568.069 93.1751 568.103 102.051 567.812 102.74C568.461 104.76 567.817 117.265 567.815 120.425L567.811 184.03C567.812 187.198 568.574 210.347 567.812 212.077L531.182 212.077C531.382 210.948 530.638 209.612 530.137 208.624C511.803 172.465 453.376 173.25 441.251 212.077L406.32 212.064C387.057 212.06 388.712 208.934 373.61 221.676C366.325 227.822 359.105 234.295 351.541 240.076C351.649 214.154 356.22 212.037 328.517 212.049L294.361 212.077L294.361 83.8918Z"/>
	<path fill="#223451" transform="scale(1.17578 1.17578)" d="M422.503 144.73C434.504 144.422 457.042 139.769 455.185 156.539C453.508 159.283 451.827 161.122 448.871 162.471C437.903 162.62 422.926 165.746 415.632 156.539C415.513 150.526 416.758 147.365 422.503 144.73Z"/>
	<path fill="#223451" transform="scale(1.17578 1.17578)" d="M419.987 112.702C423.916 111.411 447.622 111.125 451.148 112.898C458.072 116.38 456.672 127.003 449.359 128.868C443.631 130.329 424.042 130.44 418.867 127.905L418.879 127.839C418.531 127.363 418.225 126.885 417.922 126.38C414.505 121.065 414.712 116.778 419.987 112.702Z"/>
	<path fill="#223451" transform="scale(1.17578 1.17578)" d="M339.756 113.902C343.713 113.567 348.46 116.394 349.151 120.529C350.401 127.997 336.56 137.34 332.393 143.035L332.12 143.415C337.939 148.49 343.574 153.617 348.926 159.196C349.088 161.673 348.999 164.134 348.926 166.612C345.995 170.185 343.032 172.048 338.224 171.099C334.408 169.651 308.919 147.67 312.149 140.461C314.223 135.832 333.213 116.618 339.756 113.902Z"/>
	<path fill="#223451" transform="scale(1.17578 1.17578)" d="M364.943 113.902C377.769 112.517 384.419 133.639 395.103 137.965C396.666 141.039 397.541 144.713 395.375 147.712C391.716 152.777 377.772 165.227 372.14 169.685C367.13 173.204 363.2 170.759 359.526 166.612C358.211 155.546 367.291 150.721 375.293 143.415C370.145 137.643 364.716 132.119 359.526 126.38C358.757 120.791 359.326 116.504 364.943 113.902Z"/>
	<path fill="#223451" transform="scale(1.17578 1.17578)" d="M478.225 111.945C481.748 111.665 485.487 111.931 489.029 111.94L530.599 111.947C535.688 111.928 544.55 110.623 548.882 113.971C554.786 118.534 551.726 128.688 544.528 129.694C541.625 129.992 538.561 129.724 535.632 129.715L495.165 129.702C487.178 129.694 478.831 130.824 471.808 126.38C468.689 119.49 470.097 113.052 478.225 111.945Z"/>
	<path fill="#223451" transform="scale(1.17578 1.17578)" d="M476.605 144.73L519.711 144.715C525.591 144.715 560.07 141.088 551.132 156.539C551.095 159.214 546.742 161.881 544.528 162.471C540.507 162.728 536.317 162.489 532.275 162.488L488.848 162.481C479.752 162.491 476.011 164.274 469.893 156.539C469.611 150.681 470.817 147.079 476.605 144.73Z"/>
	<path fill="#D2E3FC" transform="scale(1.17578 1.17578)" d="M308.934 92.5366C317.539 93.1424 327.642 92.5359 336.44 92.5308L567.812 92.5366C568.069 93.1751 568.103 102.051 567.812 102.74C567.412 97.9112 563.868 99.6087 560.072 99.6287L448.221 99.5661C443.082 99.5584 425.994 98.7516 421.754 100.13C417.725 101.44 415.286 111.215 419.987 112.702C414.712 116.778 414.505 121.065 417.922 126.38C418.225 126.885 418.531 127.363 418.879 127.839L418.867 127.905C418.327 130.513 418.82 133.66 418.867 136.332C414.434 127.856 394.481 105.858 387.423 103.141C380.29 100.395 334.997 101.253 325.499 102.182C313.843 103.322 312.225 117.537 308.934 126.38C309.24 121.515 309.009 116.717 308.96 111.854L308.934 92.5366Z"/>
</svg>
