<?xml version="1.0" encoding="utf-8" ?>
<svg xmlns="http://www.w3.org/2000/svg" xmlns:xlink="http://www.w3.org/1999/xlink" width="1024" height="1024">
	<path fill="transparent" d="M0 0L1024 0L1024 1024L0 1024L0 0Z"/>
	<path fill="#FDFDFB" d="M675.517 224.36C677.082 224.247 678.395 224.681 679.852 225.179C680.266 226.086 680.466 226.117 680.221 227.154C679.095 231.924 652.322 247.732 646.805 250.956C644.977 251.085 644.27 250.68 642.934 249.559C642.573 248.75 642.167 248.293 642.34 247.382C643.09 243.432 670.454 227.459 675.517 224.36Z"/>
	<path fill="#FDFDFB" d="M890.916 98.9381C892.273 99.0619 892.505 99.0867 893.599 99.8798C894.152 101.128 894.622 102.148 894.217 103.559C893.934 104.543 893.072 105.425 892.256 106.002C889.445 107.989 885.565 109.581 882.483 111.187Q871.496 116.977 860.371 122.498C859.523 122.253 858.273 121.753 857.668 121.084C856.736 120.053 856.747 119.561 856.703 118.262C858.873 113.11 884.606 101.643 890.916 98.9381Z"/>
	<path fill="#FDFDFB" d="M838.262 44.8471C839.331 44.8055 840.561 44.8289 841.51 45.4078C842.43 45.9695 842.911 46.8866 842.916 47.951C842.932 51.2469 824.467 79.0524 821.248 82.3878C820.056 82.1067 818.06 81.7122 817.172 80.7774C816.714 80.2952 816.254 79.6976 816.321 79.0005C816.634 75.7748 835.453 47.5076 838.262 44.8471Z"/>
	<path fill="#FDFDFB" d="M871.469 172.064C876.939 171.814 909.634 171.118 912.441 172.759C913.38 173.309 914.026 174.184 914.07 175.29C914.133 176.886 913.269 177.796 912.298 178.889C906.67 179.23 872.537 179.938 869.991 177.682C869.446 177.199 869.286 176.386 869.326 175.678C869.418 174.068 870.399 173.124 871.469 172.064Z"/>
	<path fill="#FDFDFB" d="M622.472 172.135C629.806 171.972 637.139 172.171 644.474 172.104C648.918 172.063 653.616 171.458 658.02 172.018C659.705 172.232 660.837 172.596 662.162 173.653C662.715 174.851 662.915 175.374 662.553 176.741C662.215 178.02 661.449 178.557 660.377 179.194C653.414 179.601 624.436 180.998 619.805 177.576C619.475 176.996 618.962 176.52 619.146 175.83C619.567 174.244 621.22 173.068 622.472 172.135Z"/>
	<path fill="#FDFDFB" d="M693.893 45.2927C694.729 45.3401 695.977 45.3337 696.756 45.6975C699.761 47.1022 716.491 74.7097 717.83 78.8617C717.706 80.5785 717.041 81.2716 715.973 82.5099C715.06 82.5333 713.822 82.6485 712.948 82.2999C710.163 81.1891 693.288 53.7855 692.313 49.8701C691.853 48.021 692.93 46.7522 693.893 45.2927Z"/>
	<path fill="#FDFDFB" d="M764.405 23.7339C765.991 23.8069 767.416 23.9077 768.513 25.2495C769.125 25.9985 769.355 26.6842 769.482 27.6292C770.228 33.1597 769.988 59.0927 769.258 64.4833C769.018 66.2614 768.548 67.2609 767.112 68.412C765.865 68.2159 764.556 68.0699 763.555 67.2449C762.371 66.2695 762.384 63.6769 762.307 62.2679C762.002 56.7204 761.434 30.577 762.656 26.4691C763.017 25.259 763.581 24.6521 764.405 23.7339Z"/>
	<path fill="#FDFDFB" d="M640.541 96.8921C641.914 97.0027 643.118 97.1577 644.381 97.7548C649.197 100.031 653.739 103.506 658.314 106.289C664.232 109.89 670.694 113.112 676.263 117.202C677.672 118.238 678.254 118.711 678.511 120.461C678.011 121.981 677.275 122.73 676.181 123.828C673.357 123.365 670.893 121.841 668.427 120.461C663.553 117.733 640.841 105.525 638.55 101.736C638.299 101.319 638.286 100.799 638.154 100.331C638.526 98.6928 639.375 97.9962 640.541 96.8921Z"/>
	<path fill="#FDFDFB" d="M851.404 222.224C853.203 222.495 854.375 222.89 855.962 223.814C861.97 227.311 882.782 240.923 887.022 245.292C887.823 246.117 887.857 246.609 888.155 247.728C887.956 249.336 887.075 250.177 886.064 251.353C880.919 250.372 858.475 234.845 852.992 230.83C851.351 229.628 849.346 228.278 849.335 226.013C849.327 224.434 850.44 223.341 851.404 222.224Z"/>
	<path fill="#FDFDFB" d="M985.16 39.1873C972.693 38.8542 960.156 39.0298 947.683 39.0876C941.115 39.118 930.513 40.2738 924.432 38.5282C923.49 37.697 922.918 36.8977 922.853 35.5784C922.812 34.7671 922.985 34.1328 923.606 33.6188C924.994 32.4684 926.845 32.1796 928.591 32.0058C938.3 31.0393 949.063 31.927 958.851 31.8951C968.032 31.8652 979.898 30.8505 988.764 31.9745C990.157 32.1511 991.16 32.3625 991.886 33.6845C992.323 34.4802 992.454 35.4878 992.5 36.3805C992.948 45.2203 992.516 54.3087 992.523 63.1767L992.581 118.598L992.822 285.875L992.405 798.614L992.305 933.102L992.347 968.622C992.356 976.033 993.019 984.046 991.626 991.323C991.486 992.053 991.258 992.349 990.539 992.686C987.996 993.877 833.902 993.398 817.157 993.35L161.443 993.271C146.044 993.216 37.7157 994.215 32.9353 992.447C32.2265 992.185 31.8934 991.521 31.6562 990.832C30.5316 987.567 31.3492 951.492 31.3482 945.152L31.143 820.536L31.376 314.296C31.3704 288.651 30.3548 36.5726 31.9409 33.0717C32.1587 32.5909 32.6395 32.3848 33.1183 32.2233C35.4018 31.4531 95.8226 31.5007 103.518 31.7783C105.112 31.8359 106.824 32.0872 108.298 32.7265C109.724 33.345 110.151 34.0655 110.665 35.4794C110.417 36.335 110.413 36.7526 109.756 37.4138C108.988 38.1862 108.288 38.6535 107.215 38.8254C100.952 39.8282 93.6079 39.1783 87.2528 39.2109Q62.8515 39.304 38.4507 39.1283L38.3935 986.056C45.979 986.116 54.074 986.717 61.5892 985.773C67.6945 985.005 73.8416 983.17 79.8087 981.68L107.891 974.688C111.917 973.711 122.566 972.086 125.529 970.487C125.072 970.104 124.617 969.718 124.197 969.294C120.617 965.685 121.875 952.412 121.809 947.205C123.242 946.905 125.821 946.71 126.824 945.733C126.579 945.365 126.026 944.571 125.867 944.181C123.972 939.523 185.326 855.17 192.81 842.468Q191.497 822.468 190.854 802.436C190.185 783.933 189.317 764.415 192.24 746.094C199.131 702.897 227.702 663.621 261.936 637.624C272.12 629.89 283.561 624.27 293.877 616.831C291.481 613.476 288.385 610.523 285.624 607.453C279.588 600.742 274.905 593.566 275.595 584.061C276.146 576.483 279.675 569.106 285.528 564.221C292.862 558.1 300.858 558.994 309.34 556.455C314.3 554.97 319.333 550.03 324.785 550.759Q325.117 550.802 325.443 550.881Q325.769 550.959 326.084 551.073Q326.399 551.187 326.7 551.335Q327.001 551.482 327.284 551.662Q327.567 551.841 327.829 552.05Q328.09 552.26 328.328 552.496Q328.565 552.733 328.775 552.994Q328.985 553.255 329.166 553.537C332.274 558.321 330.401 566.232 329.09 571.383C333.574 578.472 338.667 583.908 344.528 589.779C344.228 590.668 343.953 591.56 343.672 592.454C342.4 596.516 348.27 606.582 348.227 612.42C361.95 606.739 375.06 599.291 388.305 592.592C396.451 588.472 406.681 585.016 413.623 579.117C418.74 574.769 419.002 566.103 424.256 562.279C429.127 558.734 440.045 551.795 446.345 553.32C447.727 553.655 448.596 554.202 449.197 555.522C451.213 559.952 449.14 566.78 447.637 571.163C446.446 574.634 445.12 578.126 441.377 579.306C440.712 579.516 439.231 579.895 438.708 580.28C437.162 581.416 436.31 584.441 434.972 585.943C433.724 587.344 431.919 588.604 430.427 589.748C423.846 594.798 416.862 599.4 410.045 604.132C390.423 617.753 369.902 631.327 348.431 641.843C349.208 644.012 350.109 646.033 350.03 648.374C348.189 652.167 324.724 659.904 319.444 662.295C323.693 670.105 328.52 677.574 332.862 685.327C336.01 690.947 338.619 697.237 342.363 702.459C349.337 712.185 357.842 721.109 365.459 730.358C374.082 740.827 381.87 751.841 389.491 763.049C398.332 766.538 407.587 769.262 413.295 777.454C415.02 779.93 417.127 783.758 416.513 786.872C415.258 788.14 414.142 788.249 412.452 788.753L412.522 789.3C413.983 790.422 415.257 791.331 416.222 792.923C416.35 794.161 416.601 795.033 415.814 796.13C414.739 797.627 412.261 798.666 410.453 798.625C406.404 798.533 403.046 793.754 400.502 791.007C397.667 788.135 394.847 785.547 394.906 781.148C394.909 780.922 394.926 780.696 394.936 780.47L395.487 780.152C400.773 784.464 405.48 789.444 410.88 793.606C410.757 793.506 410.599 793.438 410.511 793.306C410.332 793.038 410.267 792.706 410.099 792.431C408.38 789.618 404.756 788.436 404.858 784.683C405.847 783.623 409.577 783.125 409.632 782.419C405.053 775.163 396.084 771.864 388.3 769.029L387.651 769.281C385.874 769.959 384.354 770.431 382.456 770.566L381.268 771.481C381.114 774.061 383.3 776.122 384.931 777.963C389.482 783.097 394.428 787.493 399.95 791.553L401.339 793.189C401.593 794.504 401.618 794.675 401.132 795.914C400.193 796.102 400.084 796.23 399.119 795.894C392.334 793.531 382.904 784.94 379.039 778.959C377.819 777.072 377.368 774.807 376.341 772.791C376.004 772.676 375.387 772.459 375.077 772.398C370.501 771.497 366.541 765.695 363.386 762.315C363.006 790.713 361.362 819.198 359.926 847.56C367.233 846.14 383.732 841.737 390.395 844.967C392.771 846.118 394.036 848.409 395.348 850.571C396.655 852.725 397.327 854.372 399.877 855.119C402.211 854.279 404.483 851.653 406.18 849.857C417.776 837.591 429.044 823.159 439.977 810.187Q462.982 783.355 485.674 756.257C484.785 755.621 483.457 754.816 482.994 753.794C481.262 749.976 485.717 735.517 486.858 730.855L492.167 729.685Q492.502 728.294 492.817 726.899C492.972 726.243 493.237 725.409 493.23 724.746C493.214 723.135 492.063 722.36 491.046 721.301C492.865 710.374 496.775 699.784 500.061 689.228C505.169 672.815 510.011 656.254 514.779 639.736C517.574 630.052 520.917 620.187 522.708 610.272C523.283 607.088 523.059 603.957 522.766 600.759C521.823 590.448 514.205 538.821 510.769 531.161C507.593 524.079 500.325 518.855 495.914 512.442C490.683 504.838 489.854 497.337 491.537 488.429L487.152 485.98C493.933 468.582 502.283 451.467 509.735 434.329L524.355 400.208C530.655 385.532 536.536 369.39 547.016 357.112C553.288 349.764 562.434 346.347 569.691 340.018C561.757 334.568 556.241 324.137 553.973 314.919C552.816 310.214 552.39 304.74 555.137 300.488C557.175 297.335 560.754 295.712 563.561 293.355C565.775 291.497 567.159 288.724 569.104 286.585C573.587 281.655 583.059 278.664 589.423 277.449C594.098 276.557 598.811 276.178 602.898 278.98C606.877 277.446 611.217 276.103 615.467 277.341C617.993 278.078 620.064 279.883 621.293 282.193Q621.596 282.758 621.841 283.351Q622.085 283.944 622.268 284.558Q622.451 285.173 622.57 285.803Q622.689 286.433 622.744 287.072Q622.799 287.711 622.789 288.352Q622.779 288.993 622.703 289.63Q622.628 290.267 622.488 290.893Q622.349 291.519 622.146 292.127C620.318 297.522 614.706 298.839 609.998 301.006C612.117 305.19 614.415 307.073 618.156 309.754C618.323 311.642 618.435 313.673 619.058 315.472C620.875 320.722 626.522 327.17 625.349 332.928C624.457 337.304 620.564 339.178 617.084 341.283C626.431 340.925 637.32 339.934 646.367 337.713C654.962 335.603 663.429 331.484 671.704 328.328C680.69 324.901 689.752 321.672 698.719 318.194C710.667 313.561 722.377 308.734 734.632 304.925C730.548 298.462 728.566 290.264 727.807 282.732C729.363 281.626 731.047 280.65 732.659 279.626C731.362 277.662 729.654 275.964 728.074 274.225C728.479 271.511 728.903 268.807 729.561 266.141C730.935 260.567 733.381 257.093 738.268 254.1L719.076 224.395C710.316 210.846 700.095 196.876 696.035 181.069C691.214 162.296 694.48 142.961 704.437 126.448C714.03 110.54 728.687 99.1579 746.884 94.8378Q748.649 94.4282 750.432 94.1056Q752.216 93.7831 754.012 93.5483Q755.809 93.3136 757.616 93.1672Q759.422 93.0208 761.233 92.9632Q763.044 92.9055 764.856 92.9368Q766.668 92.968 768.476 93.088Q770.284 93.208 772.084 93.4165Q773.885 93.6251 775.672 93.9216Q777.46 94.2181 779.231 94.6019Q781.002 94.9857 782.752 95.4559Q784.502 95.9261 786.227 96.4815Q787.952 97.0369 789.648 97.6762Q791.343 98.3155 793.005 99.0372Q794.668 99.7589 796.293 100.561Q797.917 101.363 799.501 102.244Q801.085 103.125 802.623 104.083Q804.109 104.982 805.548 105.954Q806.987 106.926 808.376 107.968Q809.765 109.011 811.1 110.12Q812.436 111.23 813.715 112.405Q814.993 113.58 816.212 114.817Q817.431 116.054 818.587 117.35Q819.743 118.646 820.833 119.998Q821.923 121.349 822.944 122.754Q823.966 124.158 824.917 125.611Q825.867 127.064 826.745 128.563Q827.622 130.062 828.424 131.602Q829.225 133.142 829.95 134.721Q830.674 136.299 831.319 137.911Q831.964 139.523 832.528 141.166Q833.092 142.808 833.574 144.476Q834.056 146.145 834.454 147.835Q835.019 150.413 835.393 153.025Q835.768 155.638 835.95 158.271Q836.132 160.904 836.12 163.543Q836.109 166.182 835.904 168.813C834.492 189.271 824.97 202.417 814.678 219.251Q803.876 237.137 792.73 254.811Q793.776 255.573 794.775 256.397C798.283 259.318 800.427 264.41 800.799 268.896C801.187 273.572 799.995 275.828 797.179 279.283C798.553 280.071 801.069 281.188 801.38 282.944C802.199 287.564 796.628 303.332 793.903 307.177C790.187 309.522 785.132 309.283 780.839 309.583C778.164 317.088 779.951 316.981 780.244 324.361C780.426 328.938 777.804 332.148 774.865 335.328C772.855 337.505 770.814 339.621 768.125 340.961C757.762 346.124 746.493 347.711 736.72 351.994C723.446 357.811 710.618 364.766 697.591 371.101C688.06 375.737 678.263 379.903 668.526 384.085C661.808 386.97 654.92 390.369 647.902 392.434C640.134 394.718 628.854 394.142 620.606 394.494C617.751 421.071 609.666 445.561 598.58 469.791C614.466 473.952 630.647 477.054 646.506 481.376C652.039 482.883 657.738 484.992 661.194 489.876C665.179 495.508 666.605 504.641 668.505 511.238L684.084 564.241C686.586 572.561 688.55 582.918 692.898 590.343C693.008 590.532 693.125 590.717 693.238 590.903C690.672 591.659 687.126 592.224 685.48 594.46C685.572 595.845 685.656 596.092 686.414 597.255C690.458 599.242 698.597 596.134 703.27 595.829C710.709 595.344 715.521 597.629 720.93 602.427C728.464 594.759 734.943 585.143 741.55 576.645L775.418 533.452C779.933 527.683 784.218 520.675 789.409 515.536C791.049 513.913 793.832 512.999 795.963 512.177C805.115 508.641 814.592 505.82 823.853 502.565Q860.871 489.445 898.107 476.958C927.259 467.091 956.108 456.27 985.502 447.141L985.16 39.1873Z"/>
	<path fill="#020210" d="M744.746 316.315C745.397 314.391 745.839 313.209 747.807 312.272C751.469 310.531 756.586 310.989 760.575 310.932C757.209 312.052 753.286 313.012 750.206 314.748C748.971 315.444 748.08 316.601 746.898 317.281L746.932 315.923L747.946 315.002L747.264 313.755C746.599 314.629 746.066 315.582 745.5 316.522L744.746 316.315Z"/>
	<path fill="#020210" d="M769.93 314.137C769.612 315.305 769.315 317.046 768.554 317.998C765.605 321.688 757.195 321.463 752.918 321.491L752.917 321.157C756.527 318.284 764.684 318.436 769.93 314.137Z"/>
	<path fill="#191C34" d="M737.754 298.726C741.695 299.127 745.82 298.985 749.787 299.075L745.771 301.798L740.037 305.726C739.172 303.43 738.485 301.067 737.754 298.726Z"/>
	<path fill="transparent" d="M499.122 723.436C502.811 723.809 507.215 723.853 510.655 725.23L510.82 725.73L508.89 726.578L498.311 729.468Q498.747 726.456 499.122 723.436Z"/>
	<path fill="#191C34" d="M575.635 341.862C577.23 342.302 578.737 342.961 580.265 343.589C581.127 344.931 582.305 346.402 582.584 347.981C581.202 348.813 579.8 348.583 578.204 348.632C575.515 348.737 572.81 348.518 570.124 348.383C571.776 346.07 573.752 343.988 575.635 341.862Z"/>
	<path fill="#191C34" d="M603.65 303.454L604.155 303.588C605.889 305.28 607.034 307.819 608.239 309.916C604.351 311.915 600.326 313.363 596.114 314.498C595.517 314.534 594.927 314.404 594.337 314.321C592.908 312.995 592.34 310.963 591.627 309.189C595.417 306.865 599.578 305.216 603.65 303.454Z"/>
	<path fill="#020210" d="M602.996 394.585C604.072 394.591 604.989 394.645 606.038 394.891C606.086 395.02 606.148 395.143 606.181 395.276C606.778 397.648 605.522 401.878 605.041 404.273C601.79 420.462 597.272 436.801 589.094 451.274L588.337 452.161C588.947 447.311 592.59 441.218 594.315 436.524C596.631 430.221 598.42 423.758 600.05 417.248C601.397 411.869 601.798 397.501 602.996 394.585Z"/>
	<path fill="#191C34" d="M587.968 334.607C594.593 336.921 600.612 342.892 603.801 348.985Q596.542 349.011 589.283 348.899C588.046 344.224 587.231 339.42 587.968 334.607Z"/>
	<path fill="#191C34" d="M734.735 286.247C748.22 286.374 761.725 286.15 775.212 286.099C781.644 286.074 788.423 285.644 794.811 286.285C795.275 288.022 794.463 289.93 793.974 291.617C790.068 292.455 785.343 292.045 781.339 292.037C771.377 292.016 743.878 290.808 735.933 292.595C735.342 290.509 734.555 288.437 734.735 286.247Z"/>
	<path fill="#191C34" d="M738.842 261.444C747.713 261.455 784.705 260.434 790.121 262.072C792.118 262.676 793.097 263.462 794.08 265.29C794.162 266.428 794.229 266.713 793.715 267.773L792.125 267.81Q763.574 267.501 735.024 267.857C736.138 265.579 737.431 263.539 738.842 261.444Z"/>
	<path fill="#191C34" d="M768.275 273.75L795.406 273.595C794.89 275.647 794.259 277.675 793.667 279.707C783.046 280.285 772.282 279.936 761.643 279.937C757.946 279.946 740.418 280.732 737.959 280.056C736.66 279.699 735.996 278.909 735.478 277.699C734.989 276.555 735.083 275.916 735.534 274.811C736.538 274.13 737.36 273.833 738.556 273.741C741.935 273.48 745.482 273.956 748.89 273.963C755.349 273.975 761.816 273.832 768.275 273.75Z"/>
	<path fill="#191C34" d="M313.449 612.541C313.42 615.659 313.115 619.188 315.081 621.834C316.913 624.301 319.134 625.344 322.116 625.666C322.329 625.689 322.543 625.703 322.756 625.721C322.114 626.615 319.617 627.566 318.555 628.193C313.052 631.443 308.422 636.078 303.703 640.343L300.673 637.508C296.24 633.757 291.973 631.113 286.733 628.605C293.468 625.065 297.185 621.631 301.892 615.71C305.972 615.072 309.687 614.287 313.449 612.541Z"/>
	<path fill="#191C34" d="M530.582 727.701C531.821 727.661 532.521 727.592 533.709 728.058C533.655 728.211 533.617 728.371 533.547 728.517C532.074 731.557 526.412 735.689 523.401 737.403C519.133 739.833 514.14 741.459 509.61 743.424C503.371 746.13 497.25 749.32 490.797 751.479C489.301 751.674 489.1 751.903 487.87 751.076C486.604 747.198 489.094 741.136 490.138 737.275C503.287 733.961 517.096 728.887 530.582 727.701Z"/>
	<path fill="#191C34" d="M744.746 316.315L745.5 316.522C746.066 315.582 746.599 314.629 747.264 313.755L747.946 315.002L746.932 315.923L746.898 317.281C746.538 318.906 745.858 321.104 746.239 322.774C746.627 324.473 747.715 325.643 749.234 326.421C755.878 329.825 767.538 324.924 774.013 322.982L774.516 323.698C774.531 324.649 774.645 325.961 774.183 326.819C773.37 328.33 771.528 329.76 770.205 330.846C760.325 338.95 748.058 341.775 736.112 345.61C734.288 341.794 731.691 337.538 730.816 333.412C731.281 332.944 731.62 332.727 732.242 332.498C738.45 330.215 741.302 321.679 744.746 316.315Z"/>
	<path fill="#191C34" d="M378.697 850.163C380.897 849.789 384.206 849.445 386.255 850.435C389.079 851.799 389.796 854.587 390.757 857.315C385.866 859.117 380.64 860.302 375.626 861.741Q363.276 865.307 350.993 869.099C347.578 869.87 344.276 870.473 340.788 870.789L339.181 858.363C351.943 854.772 365.618 852.238 378.697 850.163Z"/>
	<path fill="#191C34" d="M609.64 312.971L610.341 313.078C614.334 317.261 618.486 326.081 620.149 331.679C615.017 333.916 609.286 336.389 603.631 336.675C598.858 336.917 594.959 335.5 591.493 332.234C589.198 329.214 586.397 327.01 582.807 325.768C582.121 323.661 581.232 321.688 580.322 319.672C583.714 317.948 586.519 316.166 589.216 313.487C590.274 315.082 591.31 316.89 593.11 317.728C597.643 319.839 605.662 314.95 609.64 312.971Z"/>
	<path fill="#191C34" d="M338.153 625.954C338.185 625.962 338.223 625.959 338.251 625.979C339.587 626.944 342.83 642.729 343.769 645.674C337.777 648.144 322.065 655.531 316.925 656.357C315.934 656.516 316.03 656.325 315.276 655.769L307.547 645.054C321.864 631.972 320.734 633.741 338.153 625.954Z"/>
	<path fill="#191C34" d="M703.248 603.198C704.51 602.981 706.009 602.921 707.298 602.945C710.313 603.003 712.51 605.235 714.492 607.224C709.294 609.059 703.824 610.352 698.539 611.952Q681.295 617.281 663.95 622.27L655.524 624.501C655.055 618.897 655.242 613.209 655.247 607.588C662.264 607.017 669.239 606.062 676.25 605.431C685.248 604.622 694.256 604.141 703.248 603.198Z"/>
	<path fill="#191C34" d="M127.932 950.183C133.432 950.18 175.648 949.91 178.109 951.78C179.07 952.511 179.951 953.9 180.054 955.145C180.152 956.315 179.803 958.021 178.889 958.887C177.515 960.189 175.794 960.003 174.011 960.196C163.975 960.97 137.174 969.556 128.754 964.689C126.829 962.298 127.874 953.373 127.932 950.183Z"/>
	<path fill="#191C34" d="M298.079 695.888C305.51 702.896 312.007 712.622 317.82 721.036C309.261 725.241 300.412 729.015 291.73 732.971C287.142 735.243 282.366 736.869 277.521 738.482C284.957 724.693 291.533 710.128 298.079 695.888Z"/>
	<path fill="#191C34" d="M593.181 282.154C594.155 282.051 595.329 281.844 596.298 281.958C599.214 282.301 601.882 288.169 604.011 290.342C604.169 290.503 604.329 290.66 604.488 290.819C598.034 295.804 590.596 299.309 584.23 304.332C582.663 302.761 580.618 300.282 578.364 299.866C577.597 299.724 577.437 300.109 576.874 300.546C576.071 302.712 576.629 304.995 576.908 307.235Q575.564 308.177 574.27 309.185C571.171 311.566 568.158 314.488 567.777 318.618C567.561 320.961 568.388 323.266 569.904 325.047C571.655 327.103 574.057 329.133 576.831 329.211C576.964 329.215 578.082 329.198 578.257 329.258C578.541 329.354 578.778 329.555 579.039 329.704C579.066 332.448 579.424 335.229 579.659 337.964C575.97 336.263 571.637 334.56 568.608 331.796C563.204 326.868 558.75 316.21 558.377 308.948C557.913 299.905 565.357 301.26 569.785 296.147C569.959 294.897 570.182 293.729 570.499 292.504C576.172 285.975 584.956 283.495 593.181 282.154Z"/>
	<path fill="#191C34" d="M734.841 312.571C735.383 312.533 735.724 312.689 736.233 312.857C736.177 316.791 729.991 323.967 727.604 327.142C721.018 329.672 713.796 331.225 706.996 333.123C692.913 337.053 678.864 340.89 664.696 344.503C658.384 346.113 651.777 348.642 645.333 349.464C635.824 350.677 624.583 349.182 614.875 348.965C613.958 348.919 613.03 348.782 612.116 348.688L611.924 348.154C615.438 347.072 619.79 347.07 623.474 346.701C633.1 345.738 642.972 345.08 652.271 342.262C661.337 339.515 670.061 335.733 678.902 332.354C688.224 328.792 697.673 325.57 707.005 322.032C716.183 318.553 725.243 314.753 734.841 312.571Z"/>
	<path fill="#191C34" d="M322.34 573.291C325.64 575.819 335.98 589.077 337.251 592.919C334.894 600.522 339.421 597.667 340.437 601.487C339.855 602.542 339.485 603.433 339.187 604.601C339.948 606.923 341.707 607.87 343.385 609.588C343.434 610.671 343.353 611.097 342.8 612.084C340.803 615.646 334.912 617.89 331.085 618.746C328.442 619.337 325.217 619.525 322.861 617.936C319.638 615.762 319.382 607.91 318.627 604.239C317.712 602.182 316.651 600.313 315.028 598.722C313.363 597.089 310.798 595.586 308.378 595.725C306.997 595.805 306.47 596.196 305.519 597.138C305.547 600.951 310.389 601.957 312.215 605.013C312.79 605.976 312.757 606.18 312.514 607.202C311.984 607.579 311.915 607.668 311.228 607.934C309.61 608.561 307.253 608.373 305.68 607.701C303.478 606.76 301.929 604.764 301.055 602.587C299.925 599.775 299.408 595.539 300.835 592.745C301.879 590.7 306.926 589.515 308.967 588.717C316.473 585.782 319.304 580.259 322.34 573.291Z"/>
	<path fill="#191C34" d="M323.095 680.766C328.874 688.013 331.697 697.369 336.497 705.245C340.978 712.598 347.848 718.982 353.501 725.492C362.408 736.048 375.578 751.378 382.568 763.035C380.997 764.731 379.522 766.618 377.449 767.698C374.383 766.549 366.229 757.495 363.084 754.765C362.728 743.691 360.832 734.387 352.948 726.054C351.138 724.267 349.313 722.287 347.203 720.853C340.091 716.017 332.588 717.339 324.738 718.941C318.078 712.157 312.228 704.071 306.291 696.626Q314.867 688.88 323.095 680.766Z"/>
	<path fill="#191C34" d="M439.104 560.928L439.703 561.158C439.268 562.084 439.504 561.863 438.807 562.44C437.016 563.92 435.012 565.238 433.711 567.213C431.339 570.814 432.269 574.635 432.985 578.575C426.247 587.194 414.397 593.494 405.346 599.586C386.376 612.354 367.546 624.772 347.486 635.809L345.072 621.431C356.686 616.419 367.915 610.011 379.231 604.322C389.844 598.986 410.005 590.222 418.517 583.435C421.959 580.69 423.32 577.521 424.934 573.59C427.918 566.325 432.189 563.82 439.104 560.928Z"/>
	<path fill="#3c5de9" d="M740.164 165.019L794.851 165.187C791.551 172.672 787.623 179.848 784.665 187.492C778.709 202.882 776.28 219.572 774.191 235.864C773.307 242.349 772.792 248.87 772.229 255.389L760.584 255.402C758.496 222.53 755.437 194.815 740.164 165.019Z"/>
	<path fill="#191C34" d="M281.342 631.359C285.025 634.471 289.568 636.578 293.293 639.725C304.241 648.976 312.48 662.945 319.788 675.142Q310.569 683.208 302.075 692.033C296.951 686.453 291.45 680.703 286.882 674.666C284.085 670.969 281.747 666.595 278.749 663.114C277.885 662.11 277.805 662.185 276.539 662.132C275.163 662.834 274.906 663.002 274.051 664.278C274.205 670.555 287.144 684.725 291.561 689.772C283.987 696.929 274.895 702.391 267.385 709.532C267.412 710.489 267.222 710.4 267.783 711.02C269.366 712.773 272.672 712.76 274.89 712.999C279.606 710.478 282.94 705.92 287.531 703.077C284.365 710.573 280.809 717.924 277.389 725.308C274.629 731.173 271.758 737.004 268.173 742.416C246.702 752.536 219.791 757.176 196.364 759.648Q197.193 753.529 198.293 747.453C207.902 696.789 239.768 659.727 281.342 631.359Z"/>
	<path fill="#191C34" d="M572.888 528.897C590.965 529.062 609.101 529.21 627.161 530.024C630.815 549.51 635.503 568.76 640.186 588.018C641.687 594.188 642.854 600.45 644.429 606.594C645.758 607.856 646.668 607.335 648.214 608.102C649.519 613.83 648.911 620.794 649.009 626.71C643.367 628.511 636.707 629.301 631.539 632.237C626.235 635.251 620.922 641.624 616.47 645.927C600.896 660.98 585.984 676.689 570.498 691.831C560.449 701.791 549.869 711.246 540.446 721.817C535.867 721.08 531.257 720.48 526.666 719.82C531.29 708.887 536.366 698.168 541.117 687.293C545.724 676.747 550.068 666.104 554.758 655.59C560.057 643.711 574.655 614.288 576.207 602.862C577.238 595.27 576.161 586.623 575.796 578.94C575.002 562.253 573.869 545.575 572.888 528.897Z"/>
	<path fill="#3c5de9" d="M759.464 99.2023C772.798 98.5185 785.216 101.56 796.95 107.952Q798.329 108.712 799.67 109.538Q801.01 110.364 802.308 111.255Q803.607 112.146 804.86 113.099Q806.114 114.052 807.319 115.065Q808.524 116.079 809.678 117.15Q810.832 118.221 811.933 119.347Q813.033 120.473 814.077 121.652Q815.121 122.831 816.106 124.059Q817.092 125.288 818.015 126.563Q818.939 127.838 819.8 129.156Q820.66 130.475 821.455 131.834Q822.25 133.194 822.978 134.59Q823.705 135.987 824.363 137.417Q825.022 138.847 825.609 140.308Q826.197 141.769 826.712 143.257Q827.228 144.745 827.67 146.256C831.8 160.793 830.401 177.749 823.879 191.393C820.151 199.191 815.122 206.518 810.666 213.93C802.48 227.548 793.713 240.967 786.047 254.871L775.801 255.176C776.844 248.86 777.286 242.381 778.069 236.021C779.748 222.396 782.008 208.112 786.084 194.979C789.209 184.913 795.629 176.03 798.4 165.985C798.83 164.424 799.121 163.418 798.302 161.982C793.29 159.85 784.833 161.024 779.401 161.085C779.168 157.973 780.146 148.604 778.469 146.245C778.11 145.738 777.465 145.843 776.899 145.766C772.854 148.336 777.301 156.838 774.551 160.584C774.128 161.161 772.813 160.994 772.125 161.033L762.515 161.035Q762.598 156.872 762.584 152.709C762.557 150.06 762.417 146.608 760.454 144.68C760.224 144.88 759.946 145.036 759.764 145.28C757.36 148.508 758.212 157.035 758.239 161.031C753.16 160.985 739.744 159.822 735.757 161.759C735.597 162.719 735.689 163.412 735.999 164.317C737.099 167.528 739.012 170.622 740.45 173.705Q744.542 182.274 747.329 191.352C753.487 211.696 755.547 234.37 756.924 255.485L746.636 255.441C737.725 241.167 728.44 227.126 719.471 212.887C714.6 205.154 709.112 197.358 705.446 188.973Q704.46 186.685 703.651 184.328Q702.842 181.971 702.215 179.56Q701.588 177.148 701.146 174.696Q700.704 172.244 700.45 169.765Q700.301 168.127 700.234 166.483Q700.167 164.839 700.182 163.194Q700.196 161.549 700.293 159.907Q700.389 158.265 700.567 156.63Q700.745 154.994 701.005 153.37Q701.264 151.745 701.604 150.136Q701.943 148.526 702.363 146.935Q702.782 145.345 703.28 143.777Q703.778 142.209 704.353 140.668Q704.929 139.127 705.58 137.616Q706.231 136.106 706.957 134.629Q707.683 133.153 708.481 131.714Q709.279 130.276 710.148 128.879Q711.017 127.482 711.954 126.13Q712.891 124.778 713.895 123.475Q714.898 122.171 715.965 120.919C726.755 108.068 742.906 100.742 759.464 99.2023Z"/>
	<path fill="#FDFDFB" d="M779.406 111.022C788.067 113.037 799.101 119.962 804.576 127.086C809.955 134.086 818.164 151.288 816.512 160.083C816.211 161.685 815.536 161.904 814.2 162.711C809.989 158.076 812.342 139.108 797.834 126.525C794.364 123.515 790.228 120.686 786.158 118.551C783.2 117 779.947 115.748 777.24 113.801C777.59 112.394 778.355 111.99 779.406 111.022Z"/>
	<path fill="#191C34" d="M723.407 335.076C723.886 335.072 724.261 335.238 724.712 335.386C727.208 339.487 728.852 343.7 730.377 348.24Q700.818 363.017 670.572 376.33C662.677 379.886 653.37 385.32 644.868 386.801C631.833 389.073 617.085 387.953 603.854 387.94C596.941 387.934 589.576 388.528 582.741 387.722C579.955 387.393 577.204 386.813 574.679 385.548C568.662 382.533 567.125 375.569 561.849 372.326C560.957 371.778 560.786 371.861 559.834 372.1C559.33 372.799 559.215 373.338 559.186 374.181C559.031 378.761 562.559 383.2 565.673 386.309C574.508 395.129 585.292 394.603 596.789 394.67C595.194 436.544 570.578 471.353 550.685 506.622C549.466 508.741 548.083 510.752 546.725 512.783C540.312 509.803 534.142 505.707 528.102 502.025C517.317 495.451 506.53 488.704 495.34 482.839Q510.052 450.032 524.138 416.952C530.764 401.285 536.746 384.858 545.324 370.146C548.808 364.171 552.684 359.014 557.973 354.545C566.113 354.156 574.423 354.454 582.573 354.52L620.74 354.928C628.377 355.07 636.351 356.02 643.939 355.417C651.324 354.831 658.916 352.238 666.123 350.478Q694.923 343.365 723.407 335.076Z"/>
	<path fill="#FDFDFB" d="M558.675 439.313C560.671 440.631 562.155 442.433 563.754 444.189C552.238 455.307 538.67 464.84 526.358 475.104L532.132 479.991C538.95 473.875 546.162 468.105 552.811 461.823C556.96 457.903 563.516 449.782 567.713 447.025C568.406 446.57 568.912 446.215 569.716 446.496C571.265 447.038 572.358 448.334 573.089 449.752C572.748 451.238 572.004 451.736 570.967 452.828C560.612 463.022 543.912 480.213 531.748 487.478C527.15 483.327 522.3 479.127 518.984 473.839C523.715 467.709 532.081 462.566 538.212 457.767C545.543 452.028 552.366 446.189 558.675 439.313Z"/>
	<path fill="#191C34" d="M577.882 472.223Q599.553 476.562 621.021 481.817C630.108 483.978 639.423 485.992 648.366 488.69C651.675 489.688 654.866 491.739 656.604 494.824C659.656 500.242 660.846 508.6 662.525 514.634Q668.908 537.251 675.806 559.716C678.242 567.891 680.356 578.571 684.408 585.931C684.486 586.073 684.57 586.213 684.651 586.354C673.428 591.358 661.407 595.07 649.917 599.526C646.871 585.023 642.977 570.522 639.434 556.121C637.315 547.511 635.673 538.408 632.954 529.997C632.252 527.825 631.459 525.912 629.955 524.182C623.15 521.966 613.805 523.01 606.623 522.822Q586.292 522.104 565.949 521.996C566.308 540.547 568.06 559.248 569.028 577.795C569.451 585.891 571.015 595.777 569.204 603.708C567.967 609.128 565.414 614.577 563.319 619.72Q556.331 636.688 548.692 653.373C538.036 674.785 530.048 697.539 519.515 719.006L498.689 716.998C504.548 694.654 511.633 672.45 518.375 650.353C521.911 638.764 525.857 626.995 528.483 615.165C529.325 611.372 529.808 607.713 529.585 603.825C528.976 593.224 520.404 535.143 516.938 527.941C513.405 520.598 504.956 514.912 500.405 507.66C497.086 502.372 496.271 497.392 497.661 491.383C508.334 498.196 519.472 504.35 530.357 510.818C536.475 514.453 542.448 518.778 548.861 521.824C554.366 514.853 559.652 504.064 563.643 496.023C568.012 495.269 572.995 495.004 577.127 493.443C578.798 492.812 579.816 492.215 580.609 490.56C580.654 489.175 580.809 488.444 579.868 487.295C577.922 484.917 573.697 484.423 570.849 483.933L577.882 472.223Z"/>
	<path fill="#0c1439" d="M324.791 769.5C327.059 776.221 327.722 788.465 328.718 796Q332.468 824.697 336.525 853.353Q335.003 854.824 333.445 856.258C333.88 861.203 334.223 871.881 337.26 875.593C337.388 875.75 337.526 875.898 337.659 876.05C335.404 879.576 321.855 891.081 317.575 895.031L297.771 913.193C293.906 916.721 289.946 920.918 285.517 923.725C279.581 927.486 256.404 933.302 248.496 935.644L187.529 953.936C186.763 952.089 186.028 950.064 184.771 948.489C182.367 945.476 179.15 945.105 175.592 944.602C166.967 944.368 158.304 944.539 149.675 944.548C156.964 936.37 165.37 929.085 173.224 921.454Q189.583 905.318 205.757 888.997C217.229 877.542 231.9 865.89 238.298 850.692C243.994 837.161 244.863 821.422 247.25 807.047C257.407 803.704 267.278 798.661 276.861 793.957C292.97 786.049 308.823 777.682 324.791 769.5Z"/>
	<path fill="#0c1439" d="M984.658 455.564C984.685 455.575 984.718 455.576 984.739 455.596C984.957 455.802 985.245 455.964 985.369 456.237C985.855 457.3 985.41 480.983 985.411 484.264L985.337 986.116L396.066 986.429L209.771 986.422Q172.668 986.22 135.565 986.427C121.304 986.478 106.917 986.182 92.6776 986.989C92.385 986.967 92.0929 986.936 91.7996 986.922C91.5563 986.911 91.3125 986.918 91.0689 986.915C91.2335 986.715 91.3542 986.468 91.5628 986.314C91.9315 986.041 138.546 975.164 143.023 974.22C147.795 973.214 152.662 972.706 157.424 971.658C161.781 970.7 166.034 969.285 170.415 968.425C174.682 967.589 179.075 967.614 183.303 966.523C189.191 965.002 187.097 962.216 190.6 960.794C198.632 957.534 207.584 955.463 215.919 953.007Q240.725 945.791 265.376 938.064C272.782 935.819 283.32 933.768 289.889 930.019C295.077 927.059 299.642 921.399 303.999 917.302C312.675 909.142 321.67 901.298 330.399 893.187C335.614 888.341 340.789 882.474 346.531 878.319C350.262 875.618 355.772 874.652 360.154 873.45C368.72 871.101 402.212 863.569 407.389 859.642C413.219 855.22 417.77 847.596 422.635 842.049Q445.654 815.402 468.357 788.486C475.809 779.702 483.027 770.107 491.184 762.007C500.779 752.476 520.587 749.913 530.113 741.688C539.758 733.361 548.903 723.201 557.999 714.203L605.936 667.222C615.584 657.69 624.827 647.753 634.818 638.575C639.155 637.904 643.589 636.307 647.824 635.086L675.819 626.723C692.04 621.955 708.895 618.305 724.809 612.601C724.886 612.429 724.96 612.256 725.04 612.087C725.174 611.804 725.316 611.525 725.452 611.243C725.647 610.836 725.836 610.426 726.048 610.027C728.629 605.171 792.278 522.928 795.926 520.636C801.743 516.982 809.972 515.213 816.509 512.991L854.667 500.044C898.024 485.285 941.046 469.575 984.658 455.564Z"/>
</svg>
