<?xml version="1.0" encoding="utf-8" ?>
<svg xmlns="http://www.w3.org/2000/svg" xmlns:xlink="http://www.w3.org/1999/xlink" width="1024" height="1024">
	<path fill="transparent" d="M0 0L1024 0L1024 1024L0 1024L0 0Z"/>
	<path fill="#FCFCFB" d="M794.952 386.611C795.207 386.676 795.464 386.733 795.717 386.805C797.123 387.208 798.014 388.253 798.681 389.511C799.62 391.283 799.278 393.331 798.705 395.132C797.857 395.129 797.009 395.164 796.207 394.833C795.146 394.396 794.311 393.361 794.003 392.266C793.44 390.265 794.094 388.393 794.952 386.611Z"/>
	<path fill="#FCFCFB" d="M820.69 455.257C824.105 457.349 826.605 464.661 827.647 468.475C828.365 471.102 828.323 472.312 826.954 474.687C826.335 474.495 825.543 474.313 825.014 473.926C822.028 471.736 818.935 462.233 818.812 458.743C818.752 457.048 819.642 456.419 820.69 455.257Z"/>
	<path fill="#FCFCFB" d="M379.899 862.126C380.072 862.156 380.246 862.177 380.417 862.215C384.317 863.098 395.333 867.304 397.297 870.538C397.23 871.98 396.997 872.222 396.183 873.441C390.95 872.419 382.358 869.098 378.178 865.912C378.274 864.429 379.146 863.378 379.899 862.126Z"/>
	<path fill="#FCFCFB" d="M438.173 882.381C443.118 883.42 453.978 883.193 457.372 886.843C457.751 888.274 457.389 888.964 456.897 890.3C451.518 889.842 441.659 889.14 437.539 885.601C437.189 884.072 437.538 883.772 438.173 882.381Z"/>
	<path fill="#FCFCFB" d="M801.753 402.185C802.342 402.517 802.344 402.482 802.927 403.018C805.631 405.501 809.436 415.101 809.344 418.881C809.311 420.227 808.518 420.681 807.649 421.587C807.087 421.451 806.39 421.307 805.907 420.974C803.052 419.007 799.839 409.002 799.832 405.505C799.828 403.857 800.699 403.278 801.753 402.185Z"/>
	<path fill="#FCFCFB" d="M810.278 429.356C811.31 429.351 812.111 429.432 813.106 429.707C813.828 430.48 814.287 431.189 814.763 432.133C816.536 435.65 820.102 443.144 818.864 447.002C817.903 447.068 816.972 447.021 816.011 446.971C814.248 445.777 813.147 443.682 812.199 441.805C810.337 438.119 808.922 433.354 810.278 429.356Z"/>
	<path fill="#FCFCFB" d="M558.822 177.327C559.478 177.351 560.102 177.374 560.753 177.475C565.352 178.188 573.665 179.158 576.449 183.04C576.681 184.704 576.324 185.217 575.696 186.741C570.38 185.369 562.403 184.294 557.832 181.406C557.596 179.877 558.246 178.702 558.822 177.327Z"/>
	<path fill="#FCFCFB" d="M351.436 848.64C356.959 850.048 364.724 854.11 369.22 857.676C369.834 859.156 369.263 860.605 368.913 862.095C364.879 860.503 353.437 856.084 351.343 852.778C350.396 851.284 351.043 850.218 351.436 848.64Z"/>
	<path fill="#FCFCFB" d="M300.351 813.29C305.111 815.992 314.011 822.221 317.245 826.55C317.219 828.15 316.48 828.955 315.672 830.315C311.568 828.333 301.847 820.678 298.933 817.111C298.859 815.541 299.616 814.658 300.351 813.29Z"/>
	<path fill="#FCFCFB" d="M407.22 872.735C413.047 874.037 422.298 875.89 427.056 879.421C427.67 880.654 427.111 882.068 426.832 883.348C420.893 882.246 411.934 880.433 406.881 877.193C406.312 875.631 406.834 874.279 407.22 872.735Z"/>
	<path fill="#FCFCFB" d="M471.926 166.213C476.349 166.051 482.914 164.982 487.018 166.312C488.304 166.729 488.625 167.171 489.235 168.329C489.129 169.607 489.235 170.268 488.506 171.371L486.625 171.618C482.168 171.752 475.037 172.671 470.973 170.935C469.684 170.385 469.537 170.021 468.943 168.85L469.498 167.722L470.28 168.726L469.685 167.518C470.415 166.861 471.038 166.609 471.926 166.213Z"/>
	<path fill="#FCFCFB" d="M325.11 832.663C329.119 833.459 341.161 841.035 343.768 844.235C343.706 845.938 343.13 846.243 342.062 847.524C336.24 845.118 328.449 840.514 323.839 836.301C323.7 834.974 324.523 833.809 325.11 832.663Z"/>
	<path fill="#FCFCFB" d="M499.992 167.491C504.16 167.297 508.686 167.652 512.84 168.121C515.252 168.394 517.996 168.784 519.59 170.779C519.778 172.39 519.438 172.792 518.759 174.227C518.072 174.256 517.402 174.283 516.714 174.254C512.541 174.079 502.183 174.078 499.472 171.046C499.202 169.49 499.492 168.959 499.992 167.491Z"/>
	<path fill="#FCFCFB" d="M615.261 195.752C617.168 196.001 618.843 196.876 620.584 197.651C624.127 199.226 630.838 201.496 632.286 205.266C631.987 206.71 631.84 206.842 630.8 207.905C629.861 207.74 628.923 207.539 628.025 207.217C623.749 205.684 615.163 202.923 613.215 198.73C613.484 197.111 614.094 196.858 615.261 195.752Z"/>
	<path fill="#FCFCFB" d="M586.415 184.898C591.949 185.799 600.248 188.021 604.418 191.839C604.813 193.256 604.031 194.44 603.531 195.798C598.686 195.171 588.398 192.394 585.459 188.597C585.27 186.945 585.725 186.382 586.415 184.898Z"/>
	<path fill="#FCFCFB" d="M529.37 170.865C533.627 171.179 538.048 171.541 542.257 172.272C544.453 172.653 547.017 173.398 548.347 175.298C548.662 176.809 548.073 177.867 547.503 179.226C542.68 178.37 531.829 178.04 528.598 174.433C528.298 172.761 528.677 172.374 529.37 170.865Z"/>
	<path fill="#FCFCFB" d="M640.97 208.235C645.279 210.237 656.104 214.44 657.912 218.789C658.518 220.244 657.615 221.52 657.067 222.848C651.961 221.303 642.364 216.651 639.808 211.933C639.757 210.14 640.108 209.758 640.97 208.235Z"/>
	<path fill="#FCFCFB" d="M274.396 792.721C274.878 792.713 275.027 792.696 275.544 792.76C278.639 793.142 290.628 804.74 292.572 807.514C292.661 808.914 292.011 809.621 291.359 810.827L290.317 810.828C286.063 808.202 276.701 800.704 274.283 796.59C273.415 795.112 273.952 794.231 274.396 792.721Z"/>
	<path fill="#FCFCFB" d="M247.643 765.737C248.462 765.79 249.172 765.821 249.971 766.076C252.654 766.932 267.204 782.935 268.421 785.85C268.846 786.868 268.483 787.027 268.07 787.986L265.779 788.294C261.228 786.024 249.284 773.253 247.314 768.623C246.767 767.338 247.153 766.98 247.643 765.737Z"/>
	<path fill="#FCFCFB" d="M207.256 281.317C207.549 281.485 208.027 281.736 208.254 281.976C208.96 282.722 209.041 283.742 208.883 284.712C208.204 288.87 187.444 308.223 182.989 311.27C181.97 310.095 181.499 309.721 181.176 308.17C182.825 303.497 202.633 284.237 207.256 281.317Z"/>
	<path fill="#FCFCFB" d="M722.935 115.647C753.066 89.9988 789.641 78.5251 828.961 81.7251C867.103 84.8293 902.292 104.767 926.724 133.782C952.056 163.863 963.75 205.657 960.391 244.52C959.868 250.561 959.129 257.289 957.294 263.099C956.535 260.07 959.19 247.862 959.581 243.616C959.894 240.216 959.678 236.607 960.202 233.268C960.622 230.591 960.906 224.964 959.383 222.605C958.649 223.56 958.638 224.654 958.538 225.818C958.284 228.762 958.579 231.799 958.543 234.762C958.437 243.535 957.888 253.489 955.27 261.897L954.72 261.135Q956.036 254.569 956.921 247.932Q957.139 246.134 957.313 244.33Q957.487 242.527 957.617 240.72Q957.748 238.913 957.834 237.104Q957.92 235.294 957.962 233.483Q958.004 231.672 958.002 229.86Q958 228.049 957.954 226.238Q957.908 224.427 957.818 222.617Q957.728 220.808 957.594 219.001Q957.46 217.195 957.282 215.392Q957.104 213.589 956.882 211.791Q956.66 209.993 956.394 208.201Q956.129 206.409 955.82 204.624Q955.51 202.839 955.158 201.062Q954.806 199.285 954.41 197.517Q954.014 195.749 953.576 193.992Q953.137 192.234 952.656 190.487Q952.175 188.741 951.651 187.006Q951.128 185.272 950.562 183.551Q949.996 181.83 949.389 180.123Q948.782 178.417 948.133 176.725Q947.484 175.034 946.795 173.358Q946.105 171.683 945.375 170.025Q944.645 168.367 943.874 166.728Q943.104 165.088 942.294 163.468Q941.484 161.847 940.634 160.247Q939.785 158.647 938.897 157.068Q938.009 155.489 937.083 153.932Q936.157 152.375 935.193 150.841Q934.229 149.307 933.229 147.797Q932.228 146.287 931.191 144.801Q930.153 143.316 929.08 141.857Q928.007 140.397 926.899 138.964Q925.811 137.582 924.69 136.228Q923.568 134.873 922.414 133.547Q921.26 132.22 920.073 130.922Q918.886 129.624 917.668 128.356Q916.45 127.088 915.201 125.85Q913.953 124.612 912.674 123.405Q911.395 122.198 910.087 121.022Q908.779 119.847 907.442 118.704Q906.105 117.561 904.741 116.452Q903.377 115.342 901.986 114.266Q900.595 113.19 899.178 112.149Q897.761 111.108 896.319 110.102Q894.877 109.095 893.41 108.125Q891.944 107.154 890.454 106.22Q888.964 105.286 887.452 104.388Q885.939 103.491 884.406 102.631Q882.872 101.771 881.317 100.949Q879.763 100.127 878.189 99.3428Q876.614 98.5591 875.021 97.8143Q873.428 97.0695 871.818 96.364Q870.207 95.6585 868.579 94.9928Q866.951 94.327 865.308 93.7015Q863.665 93.0759 862.006 92.4908Q860.348 91.9058 858.676 91.3616Q857.003 90.8174 855.318 90.3145Q853.633 89.8115 851.936 89.3501Q850.24 88.8886 848.532 88.469Q846.824 88.0493 845.107 87.6717Q843.389 87.2941 841.663 86.9588Q839.937 86.6235 838.203 86.3306Q836.469 86.0378 834.728 85.7876Q832.987 85.5374 831.241 85.33C805.602 82.3654 776.275 86.9577 753.242 98.9664C742.717 104.454 733.285 111.447 724.023 118.808L723.099 118.76L722.497 119.374L721.453 118.736L721.371 120.23L721.311 120.007C721.913 118.899 722.412 117.881 722.707 116.645C722.787 116.313 722.859 115.98 722.935 115.647Z"/>
	<path fill="#B6FDE4" d="M722.935 115.647C722.859 115.98 722.787 116.313 722.707 116.645C722.412 117.881 721.913 118.899 721.311 120.007L721.371 120.23L721.453 118.736L722.497 119.374L723.099 118.76L724.023 118.808C719.087 123.693 713.68 128.429 709.201 133.724Q708.154 134.983 707.135 136.264Q706.115 137.545 705.123 138.848Q704.132 140.151 703.168 141.475Q702.205 142.799 701.27 144.143Q700.335 145.488 699.43 146.852Q698.524 148.216 697.648 149.599Q696.772 150.982 695.926 152.384Q695.08 153.786 694.264 155.206Q693.448 156.625 692.663 158.062Q691.878 159.499 691.124 160.953Q690.37 162.406 689.647 163.875Q688.925 165.345 688.234 166.829Q687.543 168.314 686.885 169.813Q686.226 171.312 685.6 172.825Q684.973 174.337 684.38 175.863Q683.786 177.389 683.225 178.928Q682.665 180.466 682.137 182.016Q681.61 183.566 681.116 185.127Q680.622 186.688 680.162 188.26Q679.701 189.831 679.275 191.412Q678.849 192.993 678.456 194.583Q678.064 196.172 677.706 197.77Q677.348 199.368 677.025 200.973Q676.701 202.578 676.412 204.19Q676.123 205.801 675.869 207.419Q675.615 209.036 675.395 210.659Q675.176 212.281 674.992 213.908Q674.807 215.535 674.658 217.166Q674.508 218.796 674.394 220.43Q674.28 222.063 674.201 223.699Q674.122 225.334 674.078 226.971Q674.034 228.608 674.025 230.245C673.789 267.401 689.809 306.009 716.039 332.288C742.116 358.413 777.024 374.997 814.291 374.984Q816.061 374.967 817.831 374.907Q819.6 374.846 821.368 374.742Q823.135 374.638 824.899 374.49Q826.664 374.343 828.424 374.152Q830.184 373.961 831.939 373.726Q833.694 373.492 835.443 373.215Q837.191 372.937 838.932 372.617Q840.674 372.296 842.406 371.933Q844.139 371.57 845.863 371.164Q847.586 370.758 849.299 370.31Q851.012 369.862 852.713 369.372Q854.414 368.882 856.103 368.35Q857.792 367.818 859.467 367.245Q861.142 366.672 862.802 366.057Q864.463 365.443 866.108 364.788Q867.752 364.133 869.381 363.437Q871.009 362.742 872.619 362.006Q874.23 361.271 875.822 360.496Q877.414 359.722 878.986 358.908Q880.559 358.094 882.111 357.242Q883.662 356.39 885.193 355.5Q886.723 354.609 888.232 353.682Q889.74 352.754 891.224 351.79Q892.709 350.826 894.17 349.825Q895.63 348.824 897.066 347.788Q898.501 346.751 899.911 345.68Q901.32 344.608 902.703 343.503Q904.085 342.397 905.44 341.257Q906.795 340.118 908.122 338.945Q909.449 337.773 910.746 336.568Q912.043 335.363 913.31 334.127Q914.578 332.89 915.814 331.623Q917.614 329.818 919.349 327.95Q921.085 326.083 922.754 324.156Q924.424 322.229 926.025 320.246Q927.626 318.262 929.157 316.223Q930.687 314.185 932.146 312.094Q933.605 310.003 934.989 307.863Q936.374 305.722 937.683 303.535Q938.992 301.347 940.224 299.115Q941.456 296.883 942.609 294.61Q943.763 292.336 944.836 290.024Q945.909 287.711 946.9 285.363Q947.892 283.014 948.801 280.632Q949.71 278.251 950.535 275.839Q951.361 273.426 952.101 270.987Q952.842 268.548 953.497 266.084Q954.152 263.62 954.72 261.135L955.27 261.897C957.888 253.489 958.437 243.535 958.543 234.762C958.579 231.799 958.284 228.762 958.538 225.818C958.638 224.654 958.649 223.56 959.383 222.605C960.906 224.964 960.622 230.591 960.202 233.268C959.678 236.607 959.894 240.216 959.581 243.616C959.19 247.862 956.535 260.07 957.294 263.099C957.257 263.403 957.233 263.709 957.183 264.011C956.246 269.67 953.939 275.618 951.919 280.991Q950.998 283.478 949.988 285.931Q948.978 288.383 947.881 290.798Q946.784 293.213 945.601 295.587Q944.418 297.961 943.151 300.291Q941.884 302.621 940.534 304.904Q939.184 307.187 937.754 309.421Q936.323 311.654 934.813 313.835Q933.303 316.015 931.716 318.141Q930.13 320.266 928.468 322.333Q926.806 324.4 925.071 326.406Q923.336 328.412 921.53 330.355Q919.724 332.298 917.85 334.175Q915.976 336.051 914.036 337.86Q912.096 339.668 910.092 341.406Q908.088 343.144 906.024 344.809Q903.959 346.474 901.836 348.064C872.061 370.748 833.639 382.277 796.295 377.069C758.091 371.741 724.379 350.664 701.29 319.996C678.377 289.561 666.477 248.648 672.005 210.723C676.085 182.728 686.689 157.238 704.127 134.938C709.746 127.751 715.578 121.12 722.935 115.647Z"/>
	<path fill="#1C2243" d="M724.023 118.808C733.285 111.447 742.717 104.454 753.242 98.9664C776.275 86.9577 805.602 82.3654 831.241 85.33Q832.987 85.5374 834.728 85.7876Q836.469 86.0378 838.203 86.3306Q839.937 86.6235 841.663 86.9588Q843.389 87.2942 845.107 87.6718Q846.824 88.0493 848.532 88.469Q850.24 88.8886 851.936 89.3501Q853.633 89.8115 855.318 90.3145Q857.003 90.8174 858.676 91.3616Q860.348 91.9058 862.006 92.4908Q863.665 93.0759 865.308 93.7015Q866.952 94.327 868.579 94.9928Q870.207 95.6585 871.818 96.364Q873.428 97.0695 875.021 97.8143Q876.614 98.5591 878.189 99.3428Q879.763 100.127 881.317 100.949Q882.872 101.771 884.406 102.631Q885.939 103.491 887.452 104.388Q888.964 105.286 890.454 106.22Q891.944 107.154 893.41 108.125Q894.877 109.095 896.319 110.102Q897.761 111.108 899.178 112.149Q900.595 113.19 901.986 114.266Q903.377 115.342 904.741 116.452Q906.105 117.561 907.442 118.704Q908.779 119.847 910.087 121.022Q911.395 122.198 912.674 123.405Q913.953 124.612 915.201 125.85Q916.45 127.088 917.668 128.356Q918.886 129.624 920.073 130.922Q921.26 132.22 922.414 133.547Q923.568 134.873 924.69 136.228Q925.811 137.582 926.899 138.964Q928.007 140.397 929.08 141.857Q930.153 143.316 931.191 144.801Q932.228 146.287 933.229 147.797Q934.229 149.307 935.193 150.841Q936.157 152.375 937.083 153.932Q938.009 155.489 938.897 157.068Q939.785 158.647 940.635 160.247Q941.484 161.847 942.294 163.468Q943.104 165.088 943.874 166.728Q944.645 168.367 945.375 170.025Q946.105 171.683 946.795 173.358Q947.484 175.034 948.133 176.725Q948.782 178.417 949.389 180.123Q949.996 181.83 950.562 183.551Q951.128 185.272 951.651 187.006Q952.175 188.741 952.656 190.487Q953.137 192.234 953.576 193.992Q954.014 195.749 954.41 197.517Q954.806 199.285 955.158 201.062Q955.51 202.839 955.82 204.624Q956.129 206.409 956.394 208.201Q956.66 209.993 956.882 211.791Q957.104 213.589 957.282 215.392Q957.46 217.195 957.594 219.001Q957.728 220.808 957.818 222.617Q957.908 224.427 957.954 226.238Q958 228.049 958.002 229.86Q958.004 231.672 957.962 233.483Q957.92 235.294 957.834 237.104Q957.748 238.913 957.617 240.72Q957.487 242.527 957.313 244.33Q957.139 246.134 956.921 247.932Q956.036 254.569 954.72 261.135Q954.152 263.62 953.497 266.084Q952.842 268.548 952.101 270.987Q951.361 273.426 950.535 275.839Q949.71 278.251 948.801 280.632Q947.892 283.014 946.9 285.363Q945.909 287.711 944.836 290.024Q943.763 292.336 942.609 294.61Q941.456 296.883 940.224 299.115Q938.992 301.347 937.683 303.535Q936.374 305.722 934.989 307.863Q933.605 310.003 932.146 312.094Q930.687 314.185 929.157 316.223Q927.626 318.262 926.025 320.246Q924.424 322.229 922.754 324.156Q921.085 326.083 919.349 327.95Q917.614 329.818 915.814 331.623Q914.578 332.89 913.31 334.127Q912.043 335.363 910.746 336.568Q909.449 337.773 908.122 338.945Q906.795 340.118 905.44 341.257Q904.085 342.397 902.703 343.503Q901.32 344.609 899.911 345.68Q898.501 346.751 897.066 347.788Q895.63 348.824 894.17 349.825Q892.709 350.826 891.224 351.79Q889.74 352.754 888.232 353.682Q886.723 354.609 885.193 355.5Q883.662 356.39 882.111 357.242Q880.559 358.094 878.986 358.908Q877.414 359.722 875.822 360.496Q874.23 361.271 872.619 362.006Q871.009 362.742 869.381 363.437Q867.752 364.133 866.108 364.788Q864.463 365.443 862.802 366.057Q861.142 366.672 859.467 367.245Q857.792 367.818 856.103 368.35Q854.414 368.882 852.713 369.372Q851.012 369.862 849.299 370.31Q847.586 370.758 845.863 371.164Q844.139 371.57 842.407 371.933Q840.674 372.296 838.932 372.617Q837.191 372.937 835.443 373.215Q833.694 373.492 831.939 373.726Q830.184 373.961 828.424 374.152Q826.664 374.343 824.899 374.49Q823.135 374.638 821.368 374.742Q819.6 374.846 817.831 374.907Q816.061 374.967 814.291 374.984C777.024 374.997 742.116 358.413 716.039 332.288C689.809 306.009 673.789 267.401 674.025 230.245Q674.034 228.608 674.078 226.971Q674.122 225.334 674.201 223.699Q674.28 222.063 674.394 220.43Q674.508 218.796 674.658 217.166Q674.807 215.535 674.992 213.908Q675.176 212.281 675.395 210.659Q675.615 209.036 675.869 207.419Q676.123 205.801 676.412 204.19Q676.701 202.578 677.025 200.973Q677.348 199.368 677.706 197.77Q678.064 196.172 678.456 194.583Q678.849 192.993 679.275 191.412Q679.701 189.831 680.162 188.26Q680.622 186.688 681.116 185.127Q681.61 183.566 682.137 182.016Q682.665 180.466 683.225 178.928Q683.786 177.389 684.38 175.863Q684.973 174.337 685.6 172.825Q686.226 171.312 686.885 169.813Q687.543 168.314 688.234 166.829Q688.925 165.345 689.647 163.875Q690.37 162.406 691.124 160.953Q691.878 159.499 692.663 158.062Q693.448 156.625 694.264 155.206Q695.08 153.786 695.926 152.384Q696.772 150.982 697.648 149.599Q698.524 148.216 699.43 146.852Q700.335 145.488 701.27 144.143Q702.205 142.799 703.168 141.475Q704.132 140.151 705.123 138.848Q706.115 137.545 707.135 136.264Q708.154 134.983 709.201 133.724C713.68 128.429 719.087 123.693 724.023 118.808Z"/>
	<path fill="#B6FDE4" d="M807.164 94.204C839.841 90.8913 873.648 103.888 898.852 124.212C925.823 145.961 944.22 180.657 947.886 214.964C951.604 249.758 941.798 286.111 919.618 313.403Q918.543 314.748 917.435 316.065Q916.328 317.383 915.187 318.673Q914.047 319.962 912.875 321.223Q911.703 322.484 910.5 323.715Q909.297 324.946 908.063 326.147Q906.83 327.348 905.567 328.518Q904.304 329.688 903.013 330.826Q901.721 331.964 900.401 333.069Q899.082 334.175 897.735 335.247Q896.388 336.32 895.015 337.358Q893.642 338.396 892.244 339.4Q890.846 340.404 889.423 341.373Q888 342.342 886.553 343.275Q885.106 344.208 883.637 345.105Q882.168 346.001 880.676 346.861Q879.185 347.721 877.673 348.544Q876.161 349.366 874.628 350.151Q873.096 350.935 871.545 351.681Q869.993 352.428 868.424 353.135Q866.854 353.842 865.268 354.51Q863.681 355.178 862.079 355.807Q860.476 356.435 858.858 357.023Q857.24 357.611 855.608 358.159Q853.976 358.707 852.331 359.214Q850.686 359.721 849.029 360.186Q847.371 360.652 845.703 361.076Q844.035 361.501 842.356 361.884Q840.678 362.266 838.991 362.607Q837.303 362.948 835.608 363.246Q833.913 363.545 832.21 363.802Q830.508 364.058 828.8 364.272Q827.092 364.486 825.379 364.657C825.29 364.667 825.2 364.679 825.111 364.688C792.2 367.86 760.255 357.709 734.701 336.845Q733.375 335.772 732.077 334.667Q730.778 333.562 729.508 332.424Q728.237 331.287 726.995 330.119Q725.753 328.951 724.54 327.752Q723.327 326.553 722.144 325.325Q720.961 324.096 719.809 322.839Q718.657 321.582 717.537 320.296Q716.416 319.011 715.328 317.698Q714.24 316.385 713.185 315.046Q712.129 313.706 711.107 312.341Q710.085 310.976 709.098 309.586Q708.11 308.196 707.157 306.782Q706.204 305.368 705.286 303.931Q704.369 302.493 703.487 301.034Q702.605 299.574 701.76 298.093Q700.914 296.612 700.106 295.111Q699.298 293.609 698.527 292.088Q697.756 290.567 697.023 289.027Q696.29 287.488 695.595 285.93Q694.9 284.373 694.245 282.799Q693.589 281.225 692.972 279.635Q692.355 278.045 691.778 276.44Q691.201 274.836 690.664 273.217Q690.127 271.599 689.63 269.968Q689.134 268.336 688.677 266.693Q688.221 265.05 687.806 263.396Q687.39 261.742 687.016 260.079Q686.642 258.415 686.309 256.743Q685.976 255.07 685.684 253.39Q685.393 251.71 685.143 250.023Q684.893 248.336 684.686 246.644Q684.478 244.951 684.312 243.254C680.805 208.197 691.795 170.521 714.207 143.276C730.006 124.071 752.76 106.994 776.797 99.617C786.725 96.5704 796.867 95.1871 807.164 94.204Z"/>
	<path fill="#1C2243" d="M812.19 96.7315C815.139 96.1582 819.091 95.9328 821.901 97.1927C850.388 99.657 870.629 106.304 893.673 124.073Q894.973 125.072 896.249 126.103Q897.524 127.134 898.774 128.195Q900.024 129.257 901.247 130.349Q902.471 131.441 903.667 132.563Q904.864 133.685 906.032 134.836Q907.2 135.986 908.34 137.165Q909.48 138.344 910.591 139.551Q911.701 140.758 912.782 141.991Q913.863 143.225 914.913 144.484Q915.963 145.744 916.982 147.029Q918.001 148.314 918.988 149.624Q919.975 150.933 920.93 152.267Q921.884 153.6 922.806 154.957Q923.728 156.313 924.616 157.692Q925.504 159.07 926.358 160.47Q927.212 161.87 928.032 163.291Q928.851 164.712 929.636 166.152Q930.42 167.592 931.169 169.051Q931.918 170.51 932.631 171.987Q933.344 173.464 934.02 174.958Q934.696 176.452 935.336 177.962Q935.976 179.472 936.578 180.997Q937.18 182.522 937.745 184.062Q938.31 185.602 938.837 187.155Q939.364 188.708 939.852 190.273Q940.341 191.839 940.791 193.416Q941.241 194.993 941.653 196.58Q942.064 198.168 942.436 199.765Q942.808 201.362 943.141 202.968Q943.474 204.574 943.768 206.187Q944.061 207.801 944.315 209.421Q944.569 211.041 944.783 212.667C949.002 246.65 939.344 283.52 918.123 310.538Q917.102 311.836 916.05 313.109Q914.998 314.382 913.914 315.629Q912.831 316.875 911.718 318.095Q910.604 319.315 909.462 320.507Q908.319 321.699 907.147 322.863Q905.975 324.026 904.775 325.161Q903.575 326.296 902.348 327.401Q901.12 328.505 899.866 329.58Q898.612 330.654 897.332 331.698Q896.052 332.741 894.746 333.753Q893.441 334.765 892.111 335.744Q890.781 336.724 889.428 337.67Q888.075 338.617 886.699 339.53Q885.323 340.443 883.925 341.322Q882.526 342.201 881.107 343.046Q879.688 343.89 878.249 344.7Q876.809 345.509 875.35 346.283Q873.891 347.057 872.414 347.795Q870.937 348.533 869.442 349.235Q867.946 349.936 866.435 350.601Q864.923 351.266 863.395 351.893Q861.868 352.521 860.325 353.111Q858.782 353.7 857.226 354.252Q855.669 354.804 854.1 355.318Q852.53 355.831 850.948 356.306Q849.367 356.781 847.774 357.217Q846.181 357.653 844.578 358.05Q842.975 358.447 841.362 358.804Q839.75 359.162 838.129 359.479Q836.509 359.797 834.881 360.075Q833.253 360.353 831.619 360.591Q829.984 360.829 828.345 361.027Q826.861 361.212 825.373 361.36Q823.884 361.508 822.393 361.619Q820.902 361.73 819.408 361.804Q817.914 361.878 816.419 361.915Q814.924 361.952 813.428 361.951Q811.933 361.951 810.438 361.914Q808.943 361.877 807.449 361.803Q805.955 361.728 804.464 361.617Q802.973 361.506 801.484 361.357Q799.996 361.209 798.512 361.024Q797.028 360.839 795.549 360.617Q794.07 360.395 792.597 360.137Q791.124 359.878 789.658 359.583Q788.192 359.288 786.734 358.957Q785.275 358.626 783.825 358.259Q782.376 357.892 780.935 357.488Q779.495 357.085 778.065 356.647Q776.636 356.208 775.217 355.734Q773.799 355.26 772.393 354.751Q770.986 354.242 769.593 353.698Q768.2 353.155 766.821 352.577Q765.441 351.998 764.077 351.386Q762.712 350.774 761.363 350.128Q760.015 349.483 758.682 348.804Q757.349 348.125 756.034 347.413Q754.719 346.701 753.422 345.957Q752.125 345.212 750.846 344.436Q749.568 343.66 748.309 342.852Q747.051 342.045 745.812 341.206Q744.574 340.367 743.357 339.498Q742.14 338.629 740.945 337.73Q739.75 336.831 738.577 335.903C711.337 314.384 691.863 282.278 687.838 247.565C683.666 211.587 692.715 174.729 715.406 146.104C731.111 126.292 755.232 108.811 779.855 101.993C790.449 99.0587 801.314 98.016 812.19 96.7315Z"/>
	<path fill="#FCFCFB" d="M793.255 316.347C793.96 316.379 794.812 316.365 795.51 316.541C796.872 316.886 797.375 317.575 798.14 318.67C798.388 320.367 798.064 321.284 797.424 322.855C796.762 322.921 795.655 323.116 795.003 322.902C793.867 322.529 793.039 321.916 792.666 320.746C792.19 319.251 792.764 317.749 793.255 316.347Z"/>
	<path fill="#FCFCFB" d="M866.411 111.144L867.658 111.856C868.202 115.112 861.214 129.793 859.27 133.288C858.339 132.588 857.765 132.132 857.223 131.09C859.481 124.299 863.275 117.595 866.411 111.144Z"/>
	<path fill="#FCFCFB" d="M813.759 336.623C814.724 336.768 815.017 336.845 815.888 337.371C817.516 341.71 816.76 354.986 816.158 359.877C815.534 359.69 814.923 359.423 814.315 359.189C812.227 354.732 813.445 341.887 813.759 336.623Z"/>
	<path fill="#FCFCFB" d="M931.688 178.362C931.848 178.41 932.022 178.424 932.168 178.506C933.081 179.015 933.04 179.413 933.131 180.34C930.231 183.857 919.162 188.35 914.689 190.394L914.049 190.355L913.207 189.393C915.298 185.713 927.562 180.433 931.688 178.362Z"/>
	<path fill="#FCFCFB" d="M717.833 269.469C718.568 270.385 718.699 270.473 718.785 271.629C715.839 275.539 705.177 279.287 700.334 281.389C699.695 280.631 699.365 280.22 699.198 279.232C703.266 275.79 712.813 271.983 717.833 269.469Z"/>
	<path fill="#FCFCFB" d="M698.424 180.74C702.445 181.511 716.051 186.868 718.704 189.738L718.601 191.087C718.451 191.136 718.305 191.2 718.151 191.235C714.451 192.074 703.164 186.183 700.046 183.975C698.618 182.963 698.646 182.448 698.424 180.74Z"/>
	<path fill="#FCFCFB" d="M914.318 267.65C918.302 268.649 929.053 273.372 931.71 276.303C932.738 277.436 932.361 278.012 932.147 279.416C926.112 276.713 919.568 274.249 913.879 270.902C913.369 269.636 913.913 268.909 914.318 267.65Z"/>
	<path fill="#FCFCFB" d="M858.405 326.144L859.52 326.445C860.87 327.568 861.573 329.616 862.281 331.209C864.034 335.152 868.985 345.03 867.428 349.096C864.194 346.647 861.314 338.035 859.717 334.034C858.641 331.335 857.2 328.942 858.405 326.144Z"/>
	<path fill="#FCFCFB" d="M723.706 138.868C726.938 140.096 739.253 151.897 741.687 155.131C742.609 156.357 742.375 156.643 742.165 158.095C738.795 157.759 735.224 153.331 732.938 151.027C730.409 148.479 723.693 142.582 723.706 138.868Z"/>
	<path fill="#FCFCFB" d="M765.99 109.66C766.655 109.811 766.998 109.982 767.58 110.312C769.324 114.224 778.038 129.012 777.523 132.067L775.741 132.287C774.031 130.95 772.801 128.2 771.803 126.282C769.813 122.453 764.657 113.892 765.99 109.66Z"/>
	<defs>
		<linearGradient id="gradient_0" gradientUnits="userSpaceOnUse" x1="762.7608" y1="346.59894" x2="775.69531" y2="331.3638">
			<stop offset="0" stop-color="#D1FFEB"/>
			<stop offset="1" stop-color="#FFFFF6"/>
		</linearGradient>
	</defs>
	<path fill="url(#gradient_0)" d="M772.405 328.37C773.687 328.665 774.078 328.465 774.892 329.56C772.85 336.888 768.796 344.027 766.078 351.202C765.245 350.716 764.596 350.142 763.883 349.495C763.371 346.238 770.558 331.979 772.405 328.37Z"/>
	<path fill="#FCFCFB" d="M889.762 301.621C892.5 302.276 895.087 305.538 897.019 307.49C899.681 310.181 906.409 315.972 906.389 319.638C906.234 319.635 906.078 319.639 905.923 319.629C902.669 319.418 892.042 308.113 890.103 305.189C889.14 303.736 889.478 303.202 889.762 301.621Z"/>
	<path fill="#FCFCFB" d="M742.662 301.745L743.515 301.908C744.434 302.791 744.436 302.688 744.467 303.952C741.907 308.924 733.23 315.017 728.823 318.813L728.183 319.032L727.232 318.539L726.941 317.598C729.427 312.548 738.293 305.79 742.662 301.745Z"/>
	<path fill="#FCFCFB" d="M838.2 231.923C839.35 232.486 839.979 233.005 840.835 233.955C837.725 242.497 834.985 249.289 826.145 253.481C820.751 256.039 814.382 256.743 808.694 254.726Q805.773 253.714 803.232 251.955L805.4 250.542C807.476 251.603 809.452 252.48 811.767 252.877Q812.315 252.97 812.867 253.036Q813.419 253.102 813.974 253.14Q814.529 253.178 815.084 253.188Q815.64 253.198 816.196 253.181Q816.752 253.163 817.306 253.118Q817.86 253.073 818.411 253Q818.962 252.927 819.509 252.826Q820.056 252.726 820.597 252.598Q821.138 252.47 821.672 252.316Q822.206 252.161 822.732 251.98Q823.257 251.799 823.773 251.592Q824.289 251.385 824.794 251.152Q825.299 250.92 825.792 250.662Q826.284 250.404 826.763 250.122Q827.242 249.84 827.707 249.535Q828.171 249.229 828.62 248.901C834.443 244.666 837.028 238.81 838.2 231.923Z"/>
	<path fill="#FCFCFB" d="M808.387 208.116L809.532 210.14C803.384 213.286 798.327 217.566 796.072 224.336C794.097 230.264 794.921 236.899 797.906 242.349Q798.575 243.583 799.39 244.726Q800.204 245.869 801.151 246.904Q802.099 247.94 803.165 248.853Q804.231 249.766 805.4 250.542L803.232 251.955Q802.065 251.182 800.995 250.279Q799.925 249.377 798.965 248.357Q798.006 247.338 797.171 246.214Q796.336 245.091 795.635 243.879C792.299 238.009 791.476 230.543 793.484 224.096C795.901 216.338 801.463 211.719 808.387 208.116Z"/>
	<path fill="#FCFCFB" d="M836.49 298.252C838.139 298.609 839.201 298.821 840.343 300.12C840.749 301.332 840.682 301.983 840.402 303.189C839.939 305.185 839.709 305.974 840.734 307.819C842.41 308.848 845.873 308.298 847.953 308.556C849.042 309.314 849.111 309.245 849.418 310.518C849.203 311.218 849.204 311.866 848.559 312.297C846.568 313.631 842.706 312.488 840.475 312.111C840.474 315.527 840.396 318.908 840.189 322.317C839.84 322.403 839.535 322.491 839.166 322.509C837.803 322.576 837.553 322.511 836.564 321.679C835.419 318.831 835.992 315.284 836.074 312.247L834 312.344C833.365 312.373 832.731 312.412 832.096 312.43C829.86 312.49 828.261 312.292 826.604 310.695L826.725 309.873C829.467 307.512 832.793 307.953 836.189 307.918L836.49 298.252Z"/>
	<path fill="#63F4D1" d="M916.912 226.648C925.633 226.294 934.438 226.417 943.166 226.572C943.199 228.726 943.518 231.102 942.727 233.139L941.625 233.523C936.515 233.523 919.241 234.694 915.783 232.73C915.076 231.623 914.756 230.553 915.024 229.236C915.33 227.734 915.753 227.57 916.912 226.648Z"/>
	<path fill="#B6FDE4" d="M688.458 227.555C696.716 227.342 705.154 227.128 713.407 227.435C715.638 227.518 717.611 227.42 719.207 229.139C719.602 230.82 719.091 231.948 718.536 233.507C709.681 234.828 697.765 233.947 688.595 233.991C688.462 231.854 688.488 229.696 688.458 227.555Z"/>
	<path fill="#FCFCFB" d="M775.489 291.054C781.607 291.078 788.498 290.466 794.528 291.218C795.587 291.351 795.961 291.289 796.656 292.143C795.879 298.074 785.028 316.117 781.039 321.698C780.608 321.877 780.452 321.966 779.943 322.044C778.843 322.214 778.059 322.072 777.169 321.419C777.276 316.676 788.225 301.117 791.423 296.046C786.56 295.664 781.126 296.637 776.519 295.076C775.252 293.687 775.555 292.892 775.489 291.054Z"/>
	<path fill="#63F4D1" d="M812.19 96.7315C815.139 96.1582 819.091 95.9328 821.901 97.1927C819.356 104.187 824.124 122.932 819.635 128.822C818.715 129.213 817.996 129.496 816.968 129.488C815.575 129.477 814.705 129.048 813.776 128.03C810.743 124.706 812.15 102.32 812.19 96.7315Z"/>
	<path fill="#FCFCFB" d="M804.36 291.051C807.926 291.129 821.029 290.386 823.282 292.035C823.66 293.348 823.613 293.431 823.152 294.727C819.978 297.29 812.473 296.16 808.493 296.169L808.055 303.858C809.76 303.306 811.623 302.714 813.431 302.734C816.012 302.764 818.677 304.079 820.4 305.975Q820.739 306.351 821.04 306.757Q821.341 307.164 821.601 307.598Q821.861 308.032 822.077 308.49Q822.294 308.947 822.465 309.423Q822.635 309.9 822.759 310.39Q822.883 310.881 822.958 311.381Q823.033 311.882 823.059 312.387Q823.085 312.893 823.062 313.398C822.883 317.329 820.917 319.917 818.058 322.417C816.17 323.27 813.828 323.917 811.745 323.464C809.509 322.977 805.895 320.91 804.936 318.726C804.47 317.664 804.77 317.182 805.219 316.25L805.349 317.168L805.591 316.098C808.562 316.754 810.628 319.459 814.121 318.801C815.645 318.514 816.936 317.586 817.734 316.264C818.579 314.863 818.822 312.767 818.314 311.2C817.799 309.611 816.557 308.137 814.934 307.576C811.898 306.528 809.571 308.337 806.94 309.534C805.755 310.074 805.162 310.336 803.928 309.902C802.138 307.162 803.971 294.747 804.36 291.051Z"/>
	<path fill="#1C2243" d="M809.532 210.14C814.958 208.2 820.002 207.779 825.421 210.231C830.836 212.68 834.692 217.383 836.739 222.887C837.843 225.856 838.05 228.791 838.2 231.923C837.028 238.81 834.443 244.666 828.62 248.901Q828.171 249.229 827.707 249.535Q827.242 249.84 826.763 250.122Q826.284 250.404 825.792 250.662Q825.299 250.92 824.794 251.152Q824.289 251.385 823.773 251.592Q823.257 251.799 822.732 251.98Q822.206 252.161 821.672 252.316Q821.138 252.47 820.597 252.598Q820.056 252.726 819.509 252.826Q818.962 252.927 818.411 253Q817.86 253.073 817.306 253.118Q816.752 253.163 816.196 253.181Q815.64 253.198 815.084 253.188Q814.529 253.178 813.974 253.14Q813.419 253.102 812.867 253.036Q812.315 252.97 811.767 252.877C809.452 252.48 807.476 251.603 805.4 250.542Q804.231 249.766 803.165 248.853Q802.099 247.94 801.151 246.904Q800.204 245.869 799.39 244.726Q798.575 243.583 797.906 242.349C794.921 236.899 794.097 230.264 796.072 224.336C798.327 217.566 803.384 213.286 809.532 210.14Z"/>
	<path fill="#99C2FF" d="M817.05 214.62Q818.175 214.648 819.287 214.823Q820.398 214.999 821.477 215.32Q822.556 215.64 823.583 216.1Q824.61 216.561 825.567 217.152C828.882 219.239 830.965 222.632 831.699 226.443Q831.862 227.316 831.938 228.201Q832.014 229.085 832.003 229.973Q831.991 230.861 831.891 231.743Q831.792 232.626 831.606 233.494Q831.419 234.362 831.148 235.208Q830.877 236.053 830.524 236.868Q830.17 237.683 829.738 238.458Q829.306 239.234 828.799 239.963C825.641 244.53 821.78 245.984 816.599 247.024C813.509 247.074 810.792 246.582 808.128 244.931C804.409 242.626 802.175 238.847 801.38 234.594C800.558 230.197 801.413 225.837 804.021 222.179C807.258 217.636 811.684 215.514 817.05 214.62Z"/>
	<path fill="#99C2FF" d="M808.387 208.116C813.361 205.106 818.523 202.41 823.461 199.338C836.101 191.474 848.79 182.782 860.844 174.038C868.083 168.786 900.642 141.291 906.587 140.378C907.661 140.774 907.757 140.682 908.519 141.628C903.794 151.397 888.46 169.165 881.031 178.721C867.112 196.624 853.21 214.946 840.835 233.955C839.979 233.005 839.35 232.486 838.2 231.923C838.05 228.791 837.843 225.856 836.739 222.887C834.692 217.383 830.836 212.68 825.421 210.231C820.002 207.779 814.958 208.2 809.532 210.14L808.387 208.116Z"/>
	<path fill="#FCFCFB" d="M280.494 93.7512L393.543 93.5572L428.345 93.5174C434.544 93.5145 440.999 93.1595 447.167 93.7489C450.57 94.0741 454.092 94.4916 456.577 97.0481C458.75 99.2837 460.037 101.877 460.385 104.965C461.224 112.393 460.517 120.558 460.492 128.064L460.457 172.49L460.517 326.267C468.692 326.226 516.267 324.906 520.286 327.508C521.329 329.591 521.517 331.941 521.59 334.242C522.081 349.779 521.66 365.483 521.643 381.036L521.581 467.248L521.666 513.508C521.723 522.126 522.462 531.281 521.425 539.814C532.091 538.633 542.755 536.272 553.32 534.398Q575.9 530.496 598.528 526.881Q657.03 517.71 715.4 507.738C753.374 501.242 791.144 494.286 829.272 488.677C828.898 487.723 828.447 486.715 828.221 485.716C827.93 484.437 828.252 483.786 828.891 482.715L830.05 482.457C832.936 483.521 833.676 485.144 835.022 487.793L930.054 473.058L954.84 469.241C961.178 468.268 967.65 466.882 974.084 467.148C975.256 467.943 975.719 468.779 976.39 469.977C976.857 477.335 976.648 484.818 976.681 492.193L976.799 530.872L976.93 640.95L976.965 787.818L976.799 831.477C976.777 838.084 977.089 844.81 976.817 851.402C976.726 853.582 976.441 855.122 975.244 856.951C967.962 859.723 959.918 860.182 952.28 861.419Q929.819 865.211 907.277 868.483L778.449 889.391C758.78 892.957 738.874 895.492 719.136 898.699L583.502 920.707Q554.975 925.229 526.51 930.124C516.894 931.76 506.62 934.3 496.894 934.822C492.839 935.04 487.872 934.181 484.821 931.278C483.247 929.78 483.043 928.211 482.829 926.15C482.233 920.404 482.555 914.411 482.55 908.627L482.531 879.124L482.539 797.836C482.577 782.173 483.105 766.351 482.475 750.705C474.025 750.005 465.201 750.511 456.704 750.507L408.731 750.49L164.746 750.489L90.5317 750.479C78.3663 750.48 66.1241 750.78 53.9687 750.478C52.3227 750.438 49.3564 750.56 48.0433 749.564C46.6664 748.521 46.0661 746.789 45.7579 745.151C44.722 739.648 45.5837 732.717 45.5861 727.038L45.5861 684.26L45.6817 519.914L45.558 390.893L45.6142 353.502C45.5815 346.734 44.9222 339.44 45.6336 332.738C45.8528 330.672 46.2577 329.044 47.4741 327.354C49.4691 326.311 52.5805 326.311 54.8179 326.208C72.2862 325.402 90.0867 326.022 107.591 326.007L210.347 326.027L210.437 175.675L210.342 131.417C210.33 122.993 209.822 114.142 210.73 105.764C211.068 102.649 212.452 99.309 214.781 97.149C216.884 95.1986 220.353 94.4598 223.102 94.0897C229.194 93.2698 235.87 93.8939 242.035 93.8814L280.494 93.7512Z"/>
	<path fill="#1C2243" d="M463.237 489.231C464.681 489.427 465.258 489.647 466.37 490.593C466.817 491.475 466.97 492.001 467.023 493.011C467.766 507.037 467.063 521.508 467.061 535.585L467.063 621.727L467.263 681.135C467.317 690.9 468.154 701.288 467.269 710.963C467.091 712.903 466.624 713.433 465.403 714.835L463.619 714.311C463.206 713.779 463.153 713.769 462.851 713.061C461.615 710.164 462.36 576.949 462.336 562.284C462.298 539.674 461.509 516.864 462.157 494.273C462.212 492.366 462.411 490.968 463.237 489.231Z"/>
	<path fill="#1C2243" d="M352.872 444.087C358.868 444.733 387.285 452.632 390.544 456.641C391.349 457.632 391.024 459.696 390.899 460.92C390.357 466.234 385.306 487.524 383.218 492.713C382.42 494.695 381.306 496.656 379.563 497.956C378.379 498.838 376.853 499.392 375.374 498.965C372.031 497.998 369.918 494.103 368.577 491.18L371.505 476.621C359.249 486.916 344.744 494.781 331.599 503.899C288.77 533.61 244.644 561.35 201.823 591.079C195.884 594.678 184.702 604.574 177.981 604.665C176.351 604.687 174.73 604.159 173.591 602.953C172.259 601.541 171.326 599.295 171.393 597.345C171.473 595.003 172.917 593.143 174.579 591.617C177.402 589.024 181.053 587.238 184.215 585.086L211.292 566.776L314.098 497.86C326.036 489.902 338.09 482.172 349.906 474.024C355.115 470.432 360.688 466.989 365.451 462.817C362.032 461.712 358.411 461.232 354.983 460.137C352.197 459.247 348.864 457.835 347.538 455.017C346.524 452.863 347.081 450.475 347.874 448.338C348.814 445.806 350.535 445.078 352.872 444.087Z"/>
	<path fill="#1C2243" d="M151.373 406.718C151.552 406.708 151.732 406.691 151.912 406.686C170.81 406.126 184.509 414.532 197.681 427.165C201.994 424.24 215.623 412.588 220.014 413.201L220.421 414.227C219.555 419.657 209.212 433.31 205.673 438.315Q206.021 438.883 206.348 439.464C214.052 453.185 215.572 470.25 211.231 485.278C206.359 502.145 194.393 515.149 179.238 523.504C172.365 526.858 165.215 528.767 157.59 529.394C141.016 530.757 125.755 525.069 113.213 514.29C101.341 504.085 93.8756 488.483 92.7264 472.885C91.5353 456.719 97.2826 439.21 107.958 427.008C119.246 414.107 134.477 407.771 151.373 406.718Z"/>
	<path fill="#FCFCFB" d="M206.819 426.41L207.331 427.235C204.906 434.29 162.862 486.039 155.73 493.488C149.476 487.299 143.425 480.656 137.654 474.015C132.899 468.615 128.157 463.223 123.171 458.034C134.74 460.171 146.044 464.484 157.724 465.93C172.301 451.206 190.411 439.057 206.819 426.41Z"/>
	<path fill="#99C2FF" d="M150.537 411.2Q151.489 411.174 152.441 411.167C169.017 411.047 182.562 418.853 194.076 430.253C180.978 440.199 168.081 450.11 155.63 460.866C144.258 458.468 133.19 454.575 121.853 452.238C119.857 451.826 116.745 451.122 114.949 452.315C114.854 452.9 114.808 452.946 114.911 453.626C115.129 455.071 116.451 456.866 117.308 458.003C121.1 463.037 151.175 497.458 155.28 499.692C162.066 497.032 194.145 453.696 199.9 446.061C200.01 445.917 200.117 445.772 200.228 445.629C201.041 444.593 201.749 443.364 203.078 443.189C206.466 446.229 207.986 456.206 208.554 460.764C210.5 476.362 206.43 491.035 196.717 503.406C187.57 515.054 172.677 523.328 157.935 524.956C143.759 526.522 129.306 521.297 118.307 512.507Q117.238 511.652 116.213 510.746Q115.187 509.839 114.208 508.884Q113.228 507.928 112.297 506.925Q111.366 505.922 110.485 504.875Q109.604 503.828 108.776 502.738Q107.948 501.649 107.174 500.52Q106.401 499.391 105.684 498.225Q104.967 497.059 104.308 495.86Q103.649 494.66 103.05 493.43Q102.451 492.199 101.913 490.941Q101.376 489.682 100.901 488.399Q100.425 487.116 100.014 485.81Q99.6027 484.505 99.2561 483.181Q98.9095 481.857 98.6284 480.518Q98.3474 479.179 98.1326 477.827Q97.9179 476.475 97.7699 475.115C96.1102 459.822 100.68 443.093 110.475 431.157C120.515 418.923 135.021 412.682 150.537 411.2Z"/>
	<path fill="#1C2243" d="M382.818 536.612Q384.027 536.515 385.238 536.461C391.873 536.182 398.645 537.698 403.566 542.411C405.815 544.564 407.768 547.191 408.267 550.318C409.344 557.057 408.983 564.034 408.979 570.84L408.955 599.605L408.917 700.404C413.103 700.518 421.172 699.179 424.907 701.103C426.232 701.785 426.269 702.009 426.612 703.348L426.052 704.179C424.436 705.03 422.862 705.276 421.043 705.381C412.611 705.868 403.851 704.967 395.357 705.002L318.881 705.09L213.814 705.196C194.201 705.254 174.423 705.895 154.828 705.345C152.71 705.285 150.26 705.277 148.594 703.801C148.456 702.566 148.593 702.561 149.301 701.515C153.646 699.119 161.904 700.289 166.922 700.329C167.099 690.594 165.732 673.353 167.237 664.772C167.906 660.961 170.154 658.044 173.386 655.995C180.514 651.473 191.233 650.581 199.312 652.551C205.37 654.028 210.578 656.721 213.891 662.173C214.847 674.819 214.449 687.677 214.49 700.355C220.691 700.444 226.906 700.352 233.109 700.339C233.304 692.217 233.103 684.056 233.064 675.931L232.989 647.284C232.98 641.787 232.484 635.777 233.412 630.365C233.78 628.221 234.486 626.487 235.936 624.845C240.09 620.14 247.801 618.078 253.919 617.897C261.251 617.68 271.23 618.899 276.649 624.301C278.661 626.305 279.351 628.521 279.792 631.295C280.921 638.409 280.131 646.685 280.123 653.913L280.061 700.428L299.047 700.437L299.084 623.339C299.124 610.596 298.532 597.486 299.504 584.786C301.228 582.104 303.287 580.022 306.033 578.37C313.485 573.889 323.99 573.218 332.298 575.441C338.399 577.073 342.345 579.934 345.457 585.33C346.151 623.625 345.21 662.088 345.199 700.397Q354.199 700.428 363.198 700.328Q363.565 650.853 363.233 601.378C363.21 584.537 362.585 567.24 363.55 550.439C363.647 548.752 363.723 546.74 364.652 545.271C368.123 539.778 376.827 537.759 382.818 536.612Z"/>
	<path fill="#99C2FF" d="M185.673 656.6C187.352 656.464 189.047 656.436 190.731 656.417C197.846 656.339 204.163 658.7 209.271 663.687C209.686 675.815 209.082 688.199 209.055 700.353L196.75 700.397L171.765 700.412C171.864 688.494 171.191 676.336 172.067 664.459C172.252 664.173 172.433 663.884 172.623 663.601C175.704 658.996 180.541 657.612 185.673 656.6Z"/>
	<path fill="#99C2FF" d="M254.349 622.692C254.38 622.69 254.411 622.687 254.442 622.687C260.481 622.559 268.56 623.597 272.95 628.151C274.313 629.565 274.505 630.964 274.762 632.839C275.781 640.28 275.116 648.496 275.13 656.033L275.205 700.426L259.75 700.456L238.461 700.461L238.035 656.117C237.994 648.934 237.48 641.367 238.1 634.219C238.267 632.299 238.565 629.768 239.734 628.165C242.653 624.164 249.76 623.191 254.349 622.692Z"/>
	<path fill="#99C2FF" d="M323.258 579.211C329.789 579.523 334.908 580.836 339.796 585.5C341.177 599.065 340.378 613.342 340.378 626.997L340.301 700.413L321.75 700.465L304.445 700.476Q303.78 643.026 304.507 585.58C310.126 580.471 315.975 579.619 323.258 579.211Z"/>
	<path fill="#99C2FF" d="M385.523 541.692C390.536 541.872 395.922 542.492 399.722 546.143C402.055 548.386 402.787 550.832 403.177 553.953C403.887 559.647 403.503 565.708 403.496 571.444L403.472 600.846L403.519 700.19C398.242 700.411 392.91 700.305 387.625 700.337L368.493 700.327C368.47 649.914 367.838 599.444 368.295 549.039C373.387 543.47 378.222 542.251 385.523 541.692Z"/>
	<path fill="#1C2243" d="M102.77 329.746L517.968 330.086C518.309 348.879 518.004 367.735 517.972 386.533L517.941 488.995C517.975 506.069 517.704 523.213 518.226 540.277C514.37 541.237 510.52 541.829 506.58 542.316C506.078 522.75 506.286 503.118 506.312 483.545L506.742 391.582L60.0709 391.659C60.2978 411.439 60.0148 431.235 60.1191 451.019L60.4871 735.078L325.235 735.287Q405.725 735.637 486.213 735.017C486.629 714.91 485.031 553.641 486.864 550.707C487.618 549.502 490.384 548.99 491.663 548.782C493.491 548.486 494.284 548.814 495.74 549.894C496.382 551.16 496.759 552.212 496.82 553.645C496.976 557.325 496.367 561.085 496.389 564.784L496.445 611.784L496.375 838.196L496.453 905.633C496.43 912.356 497.275 924.765 496.28 930.678C495.347 931.527 495.173 931.688 493.817 931.605C491.451 931.46 487.47 929.322 486.436 927.083C485.38 924.795 486.184 899.201 486.193 894.192L486.114 802.163C486.128 785.428 486.906 768.301 486.108 751.615C486.027 749.922 486.159 748.874 485.046 747.596C483.385 746.964 481.926 746.71 480.151 746.602C476.011 746.348 471.734 746.68 467.583 746.717L444.506 746.787L363.825 746.893L147.519 746.737C114.89 746.666 82.2136 746.997 49.5917 746.6C48.9004 717.376 49.4588 688.039 49.4653 658.798L49.4755 494.181L49.3323 391.603C49.2499 371.225 48.2882 350.307 49.5856 329.975C56.1553 329.528 62.8194 329.786 69.4063 329.787L102.77 329.746Z"/>
	<path fill="#FCFCFB" d="M60.0231 341.006L507.04 341.015C507.007 355.894 508.207 371.516 506.575 386.276C487.77 386.969 468.847 386.185 450.024 386.278L310.142 386.496L162.712 386.523Q111.353 386.95 59.996 386.276Q59.8873 363.641 60.0231 341.006Z"/>
	<path fill="#1C2243" d="M77.0622 351.574C79.6915 351.291 82.2154 351.189 84.7131 352.204Q85.3941 352.475 86.0449 352.812Q86.6956 353.149 87.3096 353.549Q87.9237 353.949 88.4949 354.409Q89.0662 354.868 89.589 355.381Q90.1119 355.895 90.5811 356.458Q91.0503 357.021 91.4613 357.628Q91.8723 358.235 92.221 358.879Q92.5697 359.524 92.8526 360.2C94.1818 363.446 94.2426 367.171 92.7738 370.382C91.0243 374.205 87.9256 375.996 84.143 377.392C81.4011 377.951 78.4319 378.112 75.7211 377.305Q75.1762 377.143 74.6503 376.928Q74.1244 376.712 73.6227 376.445Q73.1211 376.178 72.6487 375.862Q72.1763 375.546 71.738 375.184Q71.2997 374.822 70.8998 374.418Q70.4999 374.014 70.1426 373.572Q69.7852 373.13 69.4739 372.655Q69.1626 372.179 68.9005 371.675C67.1316 368.276 66.9189 364.127 68.1635 360.519C69.7282 355.983 72.8572 353.536 77.0622 351.574Z"/>
	<path fill="#FCFCFB" d="M78.0707 356.537C79.3186 356.415 80.6266 356.255 81.8704 356.48C84.0719 356.879 86.2161 358.377 87.4062 360.26C88.6375 362.208 88.9419 364.481 88.3394 366.701C87.5341 369.668 85.5721 370.98 83.0128 372.405C81.6544 372.496 80.3006 372.583 78.9523 372.34C76.773 371.947 74.6887 370.846 73.4327 368.978C72.3175 367.319 72.053 365.398 72.4617 363.459C73.1668 360.113 75.3416 358.313 78.0707 356.537Z"/>
	<path fill="#1C2243" d="M109.413 351.138C112.095 351.192 114.447 351.532 116.815 352.879Q117.441 353.228 118.027 353.639Q118.614 354.051 119.155 354.52Q119.695 354.99 120.185 355.513Q120.674 356.036 121.107 356.607Q121.54 357.178 121.911 357.791Q122.283 358.403 122.589 359.051Q122.895 359.699 123.133 360.374Q123.37 361.05 123.537 361.747C124.402 365.359 123.804 369.334 121.684 372.415C119.131 376.125 116.077 377.189 111.847 377.992C108.379 377.893 105.439 377.371 102.568 375.282C99.6783 373.181 97.7499 370.089 97.269 366.535C96.7683 362.834 97.8154 358.863 100.131 355.928C102.683 352.693 105.454 351.702 109.413 351.138Z"/>
	<path fill="#FCFCFB" d="M107.377 356.525C108.973 356.346 110.652 356.139 112.236 356.498C114.727 357.061 117.019 358.86 118.254 361.082C119.249 362.874 119.576 364.989 118.965 366.964C118.131 369.663 116.222 371.191 113.825 372.477C112.437 372.666 110.961 372.911 109.562 372.743Q109.103 372.687 108.652 372.582Q108.202 372.477 107.765 372.324Q107.328 372.172 106.91 371.973Q106.492 371.774 106.098 371.532Q105.704 371.29 105.338 371.006Q104.973 370.723 104.639 370.402Q104.306 370.081 104.009 369.726Q103.712 369.372 103.455 368.987Q103.242 368.667 103.061 368.327Q102.88 367.988 102.733 367.632Q102.586 367.276 102.475 366.908Q102.363 366.539 102.289 366.162Q102.214 365.784 102.176 365.401Q102.139 365.018 102.139 364.633Q102.14 364.248 102.178 363.865Q102.216 363.482 102.291 363.105C102.92 360.022 104.805 358.144 107.377 356.525Z"/>
	<path fill="#1C2243" d="M136.367 350.7C163.797 349.827 191.483 350.561 218.94 350.597L371.76 350.757C384.705 350.769 491.945 349.856 494.974 351.035C496.763 355.532 496.855 372.22 495.451 376.968C491.302 377.428 486.891 377.11 482.707 377.081L460.097 377.015L378.626 376.94L134.742 377.177C134.298 370.603 133.662 359.586 134.634 353.268C134.846 351.895 135.307 351.522 136.367 350.7Z"/>
	<path fill="#FCFCFB" d="M144.141 355.772C157.596 355.18 171.163 355.424 184.632 355.386L263.817 355.48L490.67 355.37L490.695 372.01L485.085 371.998L139.558 372.01L139.538 355.935L144.141 355.772Z"/>
	<path fill="#1C2243" d="M236.689 97.7577C285.276 97.0288 333.928 97.864 382.523 97.9018L427.317 97.7106C434.313 97.6638 441.993 96.9403 448.894 97.8261C452.609 98.3029 454.194 100.088 456.393 102.974C457.419 111.819 456.815 121.202 456.822 130.11L456.92 177.673C456.99 227.099 457.665 276.676 456.789 326.088L433.375 326.025L214.372 326.004C215 275.787 214.442 225.493 214.384 175.269L214.342 131.49C214.34 123.558 213.974 115.451 214.552 107.551C214.739 104.997 214.785 102.513 216.711 100.603C221 96.348 230.978 97.7106 236.689 97.7577Z"/>
	<path fill="#99C2FF" d="M400.434 113.472C400.739 113.494 401.047 113.483 401.347 113.537C403.193 113.866 405.17 115.363 406.064 116.99C407.008 118.71 407.018 120.797 406.422 122.636C405.636 125.062 403.743 125.91 401.616 126.973C400.39 126.783 399.205 126.568 398.069 126.046C396.259 125.215 394.888 123.79 394.259 121.881C393.747 120.329 393.944 118.702 394.758 117.293C396.089 114.988 397.994 114.219 400.434 113.472Z"/>
	<path fill="#99C2FF" d="M373.52 113.51C374.407 113.471 375.329 113.419 376.21 113.553C378.068 113.835 379.667 115.092 380.634 116.674C381.528 118.136 381.735 119.902 381.342 121.557C380.746 124.073 379.293 125.358 377.163 126.653C376.106 126.722 375.047 126.819 373.997 126.606C372.353 126.272 370.91 125.265 369.949 123.903C368.877 122.383 368.702 120.488 369.124 118.708C369.747 116.084 371.361 114.928 373.52 113.51Z"/>
	<path fill="#99C2FF" d="M424.027 114.012C424.603 113.985 425.181 113.968 425.759 113.974C427.963 113.998 429.804 114.621 431.325 116.274C432.474 117.524 432.916 119.001 432.818 120.69C432.661 123.413 430.717 125.102 428.741 126.682C427.768 126.902 426.762 127.154 425.756 127.124C424.099 127.074 422.529 126.208 421.475 124.948C420.234 123.464 419.891 121.504 420.145 119.625C420.522 116.836 421.872 115.658 424.027 114.012Z"/>
	<path fill="#99C2FF" d="M331.846 134.939L344.394 139.085C343.094 145.784 342.023 152.678 340.059 159.213C345.722 162.371 350.762 166.078 355.874 170.037C362.123 167.309 368.229 163.635 374.183 160.297C377.17 163.854 379.712 167.436 381.871 171.557C376.053 175.169 371.918 180.693 366.127 184.361C369.078 190.688 371.189 196.342 371.662 203.349Q382.107 204.022 392.515 205.132Q392.476 212.301 392.151 219.462C385.375 219.546 378.563 220.223 371.783 220.481C371.062 226.35 368.844 232.139 366.51 237.53C371.114 242.556 375.639 247.655 380.687 252.245C378.105 255.943 375.745 259.793 373.145 263.486C366.972 259.706 361.569 255.057 355.064 251.726C351.705 256.286 346.628 259.522 342.14 262.898Q343.182 273.102 344.93 283.209Q338.668 285.039 332.512 287.201Q328.322 277.33 323.846 267.585C318.244 268.449 312.987 268.256 307.351 267.896C304.681 272.64 302.658 277.714 300.524 282.714L298.291 286.962C294.46 285.428 290.468 284.182 286.57 282.821C287.795 276.237 288.711 269.667 289.107 262.979C284.427 259.285 279.125 256.176 275.019 251.821Q267.449 257.602 260.018 263.559L250.24 251.814C254.934 247.285 260.167 243.312 264.981 238.901C261.821 233.584 260.204 227.055 258.583 221.143C252.164 220.418 245.735 219.097 239.372 217.981C239.501 214.138 239.447 210.276 239.465 206.431C245.619 205.113 251.76 203.817 258.034 203.23C259.974 197.413 262.016 191.678 264.271 185.976C259.803 180.951 254.599 176.496 249.659 171.935C252.029 168.493 254.389 165.117 257.08 161.912C262.905 165.045 268.829 168.014 274.704 171.052C278.876 166.903 283.133 163.646 288.107 160.505Q286.793 150.609 284.291 140.945C288.335 139.548 292.439 138.303 296.515 137.004C300.188 142.7 302.912 149.068 306.295 154.96C311.886 154.09 317.553 154.341 323.182 154.581Q327.584 144.791 331.846 134.939Z"/>
	<path fill="#1C2243" d="M321.949 223.01C327.668 228.968 333.389 235.302 339.82 240.507C332.179 246.256 323.191 249.621 313.545 249.343C305.368 249.106 294.624 244.811 289.016 238.84C289.221 238.825 289.426 238.786 289.632 238.793C289.876 238.802 290.115 238.865 290.358 238.888C293.528 239.179 304.845 227.152 307.78 224.568C312.667 224.938 317.389 225.11 321.949 223.01Z"/>
	<path fill="#1C2243" d="M290.641 181.14C300.052 174.552 310.835 170.517 322.485 172.498C329.721 173.728 336.002 177.5 341.318 182.436C335.314 187.91 329.391 193.558 323.209 198.827C321.037 196.682 319.153 195.17 315.957 195.188C313.217 195.203 307.086 197.233 305.16 195.566C305.011 195.437 304.878 195.291 304.737 195.153C300.146 190.408 295.05 186.023 290.641 181.14Z"/>
	<path fill="#1C2243" d="M328.308 203.498C333.148 197.105 339.986 191.82 345.437 185.841C351.929 195.849 355.935 206.277 353.297 218.3C351.751 225.348 348.305 231.404 343.333 236.595C337.49 231.204 332.993 223.972 325.824 220.15C326.172 219.392 326.513 218.635 326.871 217.883C329.131 213.141 328.886 208.541 328.308 203.498Z"/>
	<path fill="#1C2243" d="M286.623 185.055L286.283 184.716C286.325 184.553 286.352 184.385 286.408 184.226C286.95 182.707 288.092 181.342 289.509 180.595L290.641 181.14C295.05 186.023 300.146 190.408 304.737 195.153C304.826 196.423 305.061 196.952 304.222 198.006C303.554 198.846 302.301 199.464 301.34 199.929C301.91 201.383 299.16 205.935 298.866 207.986C298.157 212.922 299.758 216.694 302.689 220.571C297.126 225.879 291.681 231.093 287.165 237.359C280.366 230.735 276.211 222.112 275.928 212.558C275.647 203.044 280.104 191.946 286.623 185.055Z"/>
	<path fill="#63F4D1" d="M286.623 185.055L286.283 184.716C286.325 184.553 286.352 184.385 286.408 184.226C286.95 182.707 288.092 181.342 289.509 180.595L290.641 181.14C295.05 186.023 300.146 190.408 304.737 195.153C304.826 196.423 305.061 196.952 304.222 198.006C303.554 198.846 302.301 199.464 301.34 199.929C296.603 194.858 291.807 189.669 286.623 185.055Z"/>
	<path fill="#1C2243" d="M969.621 470.68C970.57 470.524 971.286 470.595 972.234 470.745C974.181 474.846 972.686 815.627 972.518 854.291C962.104 857.195 947.348 858.735 936.34 860.545C905.313 865.648 874.141 869.863 843.127 875.014L502.617 930.486C501.527 930.605 500.736 930.749 499.696 930.344C499.092 926.297 499.469 921.877 499.482 917.769L499.564 893.622L499.543 815.723L499.839 654.688Q499.639 601.083 500.08 547.483C520.579 542.942 541.862 540.066 562.59 536.662L655.55 521.062C700.147 513.568 744.628 505.171 789.255 497.901Q879.35 483.708 969.621 470.68Z"/>
	<path fill="#FCFCFB" d="M960.711 483.68C961.348 483.68 960.979 483.604 961.716 484.198C962.35 498.68 962.005 513.347 961.64 527.836C935.202 532.779 908.161 535.58 881.576 539.872L674.639 574.147L573.196 590.72C558.781 593.114 544.147 594.982 529.823 597.818C527.704 598.238 524.166 598.875 522.919 600.769C523.054 602.029 523.012 602.231 523.819 603.184C525.533 603.686 527.161 603.587 528.917 603.386C534.652 602.727 540.41 601.517 546.116 600.601C563.662 597.785 581.111 594.454 598.648 591.613L798.18 558.404L960.971 533.319C962.034 593.006 960.813 652.803 961.02 712.507L961.015 802.971C960.99 809.58 960.798 816.207 960.928 822.813C961.024 827.726 961.513 832.816 961.244 837.715C961.134 839.706 960.629 841.725 959.417 843.345C957.614 845.756 954.636 845.936 951.896 846.431C920.647 852.046 889.137 856.573 857.766 861.449L728.178 882.007L595.392 903.728Q554.1 910.953 512.654 917.234C511.851 901.095 512.452 884.659 512.454 868.485L512.46 777.771L511.788 556.774C546.052 549.827 580.886 545.185 615.355 539.316L760.106 513.927C786.054 509.541 812.15 505.706 838.149 501.605C878.924 495.174 920.024 490.533 960.711 483.68Z"/>
	<path fill="#1C2243" d="M582.34 680.625C582.497 680.607 582.654 680.566 582.812 680.57C584.191 680.609 584.591 680.7 585.594 681.551C585.64 682.708 585.694 683.129 584.947 684.113C584.275 684.998 582.521 685.917 581.48 686.247C579.317 686.932 576.861 686.843 574.627 687.255L544.422 692.694C543.351 692.638 542.65 692.492 541.666 692.065C540.824 690.933 540.568 690.723 540.459 689.34C541.182 688.458 541.41 688.15 542.537 687.795C546.74 686.474 551.842 686.114 556.211 685.372Q569.31 683.188 582.34 680.625Z"/>
	<path fill="#1C2243" d="M582.353 859.187C583.61 859.069 584.245 859.112 585.409 859.611C586.163 860.873 586.032 861.084 585.894 862.573C583.77 865.05 550.451 870.025 544.612 870.901C543.231 871.036 542.513 871.217 541.279 870.456C540.702 869.31 540.752 868.752 540.931 867.495C543.258 865.036 576.285 860.069 582.353 859.187Z"/>
	<path fill="#1C2243" d="M530.661 564.093C532.782 563.895 534.678 563.762 536.729 564.446C539.673 565.428 541.99 567.285 543.328 570.116C544.94 573.526 544.757 577.743 543.297 581.168C541.403 585.609 538.338 587.894 534 589.703C531.859 590.138 529.671 590.256 527.551 589.662C524.941 588.93 523.001 587.399 521.775 584.968C520.127 581.697 520.098 577.421 521.222 573.987C522.875 568.938 526.091 566.324 530.661 564.093Z"/>
	<path fill="#FCFCFB" d="M531.002 568.541C532.217 568.39 533.565 568.158 534.775 568.423C536.317 568.761 537.755 569.905 538.555 571.246C539.767 573.279 539.761 575.729 539.172 577.957C538.227 581.532 536.318 583.25 533.174 584.977C532.133 585.207 531.087 585.476 530.011 585.401C528.482 585.294 526.97 584.532 526.075 583.271C524.856 581.554 524.805 579.249 525.165 577.25C525.876 573.299 527.718 570.752 531.002 568.541Z"/>
	<path fill="#1C2243" d="M559.692 559.104C562.069 559.004 564.262 559.004 566.485 559.968C569.291 561.186 571.355 563.513 572.335 566.398C573.554 569.991 573.153 574.088 571.484 577.47C569.373 581.747 566.183 583.939 561.804 585.498C559.265 585.976 556.798 585.989 554.446 584.788C551.91 583.493 550.195 581.188 549.321 578.512C547.98 574.407 548.487 569.711 550.6 565.956C552.731 562.17 555.617 560.324 559.692 559.104Z"/>
	<path fill="#FCFCFB" d="M560.792 563.477C561.363 563.484 561.364 563.467 562.02 563.572C564.002 563.889 565.922 564.991 566.96 566.74C568.181 568.799 568.115 571.274 567.5 573.519C566.519 577.1 564.657 579.099 561.506 580.921C560.296 580.827 558.82 580.81 557.702 580.298C555.914 579.48 554.645 578.124 553.891 576.305C552.996 574.149 553.261 571.644 554.115 569.522C555.476 566.146 557.557 564.863 560.792 563.477Z"/>
	<path fill="#1C2243" d="M675.509 599.712C675.885 600.063 676.391 601.026 676.531 601.498C676.725 602.155 676.652 602.847 676.271 603.404C675.447 604.611 674.311 604.933 672.976 605.275C659.625 608.7 640.469 610.923 626.408 613.219L541.706 627.153C540.777 625.832 540.015 624.911 540.028 623.284C541.201 622.059 541.676 621.97 543.332 621.609C557.274 618.572 571.788 617.031 585.901 614.777C615.776 610.006 645.766 605.234 675.509 599.712Z"/>
	<path fill="#1C2243" d="M671.875 643.668C672.74 643.534 674.025 643.372 674.884 643.651C675.537 643.863 676.164 644.129 676.51 644.727C676.446 645.445 676.536 645.851 676.061 646.45C674.887 647.929 672.628 648.749 670.841 649.175C667.678 649.929 664.222 650.074 660.992 650.624Q646.986 653.057 632.954 655.339C603.638 660.29 574.143 665.202 544.944 670.773C544.434 670.792 544.016 670.826 543.497 670.755C542.226 670.581 541.545 670.253 540.729 669.291C540.758 668.37 540.641 668.122 541.182 667.314C542.167 665.842 544.189 665.368 545.809 664.959C555.649 662.473 566.218 661.684 576.231 659.87Q624.003 651.475 671.875 643.668Z"/>
	<path fill="#1C2243" d="M672.927 822.172C673.431 822.104 674.26 821.979 674.746 821.98C676.401 821.984 676.58 822.381 677.681 823.503C677.79 824.069 678.025 824.464 677.69 824.992C676.764 826.456 674.349 827.084 672.775 827.507C666.18 829.277 659.062 830.016 652.323 831.135C642.75 832.724 633.212 834.533 623.622 836.084L545.612 849.234C544.909 849.321 544.096 849.469 543.379 849.427C542.088 849.351 541.563 849 540.756 848.053L540.966 846.769C542.294 845.077 544.45 844.037 546.534 843.577C552.026 842.365 557.785 842.177 563.323 841.089C599.664 833.948 636.476 828.833 672.927 822.172Z"/>
	<path fill="#1C2243" d="M674.314 777.688C675.905 778.033 676.085 778.356 677.202 779.471C677.339 780.118 677.645 780.581 677.228 781.17C676.245 782.558 674.01 783.104 672.437 783.479C667.956 784.55 663.203 784.954 658.656 785.788C643.318 788.604 627.943 791.042 612.56 793.592C589.584 797.4 566.726 802.247 543.624 805.279C542.277 805.275 542.207 805.216 541.105 804.428C540.493 803.152 540.382 802.872 540.462 801.47C541.773 800.248 544.252 800.018 546.017 799.686C571.67 794.864 597.628 791.018 623.372 786.63C640.322 783.742 657.296 780.038 674.314 777.688Z"/>
	<path fill="#1C2243" d="M678.229 699.663C679.494 699.475 680.456 699.37 681.74 699.538C682.659 700.56 682.693 700.498 682.698 701.862C681.306 703.759 678.634 704.464 676.438 705C662.396 708.425 647.396 709.941 633.123 712.32Q588.825 719.72 544.618 727.648C543.922 727.666 542.96 727.714 542.271 727.503C541.032 727.124 540.399 726.359 539.772 725.304L540.269 724.108C541.612 723.038 543.044 722.619 544.71 722.247C555.715 719.786 567.131 718.764 578.238 716.778L678.229 699.663Z"/>
	<path fill="#1C2243" d="M670.598 800.682C672.412 800.364 674.637 800.153 676.382 800.746C677.128 801.844 677.117 801.855 677.015 803.181C675.825 804.762 674.226 805.293 672.374 805.751C668.31 806.757 663.984 807.033 659.849 807.708C651.352 809.096 642.877 810.67 634.391 812.129Q590.537 819.762 546.607 826.943C545.38 827.198 543.939 827.626 542.719 827.2C541.557 826.796 540.694 825.939 540.122 824.885L540.409 824.012C541.873 822.786 543.948 822.316 545.788 821.904C561.502 818.384 577.868 816.337 593.753 813.562C619.262 809.105 644.944 804.148 670.598 800.682Z"/>
	<path fill="#1C2243" d="M673.11 621.677L674.501 621.541C675.777 621.955 676.106 622.506 676.883 623.533C676.901 624.181 677.068 624.536 676.617 625.072C675.342 626.587 672.761 627.127 670.916 627.542C658.708 630.288 645.886 631.695 633.525 633.81L544.141 648.79C542.695 648.703 542.154 648.631 540.951 647.715C540.419 646.457 540.374 646.49 540.793 645.2C541.893 644.102 542.927 643.395 544.483 643.078C558.606 640.199 573.223 638.477 587.469 636.083L673.11 621.677Z"/>
	<path fill="#1C2243" d="M587.943 745.171C588.889 745.009 589.894 744.98 590.852 744.893C592.163 745.619 592.19 745.674 592.811 747.041C592.606 755.268 583.047 766.373 577.615 772.335C567.598 775.588 555.089 776.591 544.613 778.51C543.361 778.752 542.783 778.844 541.599 778.332C540.985 777.586 540.713 777.132 540.538 776.156C540.174 774.133 540.844 771.582 540.923 769.514C541.085 765.275 539.75 757.3 542.536 753.834C543.2 753.009 544.239 752.373 545.272 752.136C548.961 751.293 553.151 751.482 556.962 750.836C567.3 749.085 577.582 746.901 587.943 745.171Z"/>
	<path fill="#99C2FF" d="M583.759 750.166C584.975 749.958 586.024 749.948 587.249 749.983L587.333 750.573C584.771 756.836 579.487 764.198 574.979 769.288C566.041 771.605 556.702 772.893 547.611 774.519C546.469 774.721 545.533 774.781 544.375 774.696L544.52 757.06C557.282 753.852 570.766 752.273 583.759 750.166Z"/>
	<path fill="#1C2243" d="M680.238 729.662C680.876 729.574 681.529 729.673 682.17 729.715C683.16 730.5 683.426 730.664 683.676 731.978C684.818 737.97 677.114 750.377 673.976 755.569C666.916 757.933 658.794 758.81 651.474 760.189Q627.069 764.592 602.72 769.298C601.665 769.325 601.554 769.298 600.672 768.852C600.076 767.895 599.734 767.51 599.776 766.341C599.956 761.344 609.61 745.606 613.346 742.046C623.095 739.387 633.252 738.024 643.198 736.283L680.238 729.662Z"/>
	<path fill="#63F4D1" d="M671.292 734.944C673.518 734.51 676.698 733.37 678.664 734.631C678.835 735.95 678.508 736.903 678.124 738.14C676.944 738.096 675.612 738.128 674.458 737.888C672.915 737.566 672.129 736.152 671.292 734.944Z"/>
	<path fill="#99C2FF" d="M615.462 745.146C621.132 743.585 627.38 743.032 633.197 741.962Q652.222 738.329 671.292 734.944C672.129 736.152 672.915 737.566 674.458 737.888C675.612 738.128 676.944 738.096 678.124 738.14C676.347 743.33 674.014 748.274 670.831 752.75C664.164 754.774 656.394 755.391 649.48 756.749C634.468 759.696 618.972 763.608 603.767 765.243C607.271 758.442 611.407 751.635 615.462 745.146Z"/>
	<path fill="#1C2243" d="M946.871 495.647C948.395 495.342 949.565 495.334 950.848 496.165C953.899 501.314 952.732 516.466 951.987 522.598C946.606 523.9 940.898 524.433 935.418 525.255Q921.101 527.392 906.808 529.686Q855.914 538.271 804.897 546.088L636.86 573.707C625.642 575.453 596.453 581.556 586.73 580.407C583.278 578.24 581.334 575.246 580.512 571.25C579.677 567.194 580.297 562.424 582.759 559.011C584.58 556.488 586.71 555.514 589.642 554.778C594.595 553.534 599.844 552.992 604.899 552.208L632.52 547.906L713.153 534.695L946.871 495.647Z"/>
	<path fill="#FCFCFB" d="M945.291 500.688L946.427 500.695C948 503.733 947.02 514.425 947.013 518.252C940.839 519.821 934.295 520.597 928.004 521.626Q909.725 524.612 891.401 527.312L794.752 542.522Q715.684 556.131 636.426 568.579Q623.099 570.559 609.831 572.902C602.912 574.09 595.584 575.899 588.554 575.736C586.607 573.913 585.623 571.559 585.169 568.946Q585.099 568.56 585.068 568.169Q585.038 567.778 585.047 567.386Q585.055 566.994 585.104 566.605Q585.152 566.215 585.24 565.833Q585.327 565.451 585.453 565.079Q585.579 564.708 585.741 564.351Q585.904 563.994 586.101 563.655Q586.299 563.316 586.53 562.999C587.951 561.014 590.191 559.865 592.535 559.343C595.448 558.695 598.509 558.542 601.462 558.099C607.677 557.167 613.874 556.036 620.072 554.995L706.158 541.109C785.867 527.558 865.388 513.088 945.291 500.688Z"/>
	<path fill="#1C2243" d="M929.355 567.164C930.951 566.847 932.829 566.965 934.468 566.904C934.857 576.903 934.586 587.012 934.565 597.02L934.612 645.577L934.453 813.59C928.414 815.216 922.085 815.835 915.917 816.84Q897.743 819.947 879.503 822.646L785.098 837.648C769.938 840.07 754.713 841.868 739.64 844.847C738.037 844.972 737.646 845.092 736.169 844.342C735.093 842.96 734.705 841.808 734.567 840.05C733.981 832.538 734.631 824.501 734.624 816.925L734.487 767.487L734.512 601.249C758.918 597.437 783.253 592.752 807.575 588.431L929.355 567.164Z"/>
	<path fill="#FCFCFB" d="M928.208 656.087L929.23 656.126C929.445 656.402 929.799 656.613 929.876 656.954C930.532 659.849 929.871 664.864 929.882 667.924Q930.054 689.434 929.527 710.939C919.512 710.514 910.36 707.804 901.358 703.477L891.625 698.408C895.62 689.306 899.392 679.67 904.828 671.324C910.616 662.437 917.937 658.241 928.208 656.087Z"/>
	<path fill="#99C2FF" d="M890.177 704.145C904.385 709.266 913.484 714.837 929.312 716.261C928.191 747.342 929.274 778.798 929.549 809.903C900.275 813.539 871.092 818.911 841.961 823.588L741.616 839.338L740.348 839.312C740.041 838.814 739.914 838.679 739.765 838.031C739.335 836.168 739.767 816.481 740.189 813.851C740.492 811.963 741.238 810.173 742.123 808.488C745.25 802.537 748.813 796.8 751.984 790.864C760.961 774.065 775.055 745.718 787.84 732.424C790.219 729.95 793.567 727.875 796.857 726.9C815.125 721.487 822.673 753.287 838.068 761.194C842.995 763.725 848.047 764.504 853.381 762.778C871.382 756.953 882.237 720.505 890.177 704.145Z"/>
	<path fill="#FCFCFB" d="M927.469 572.699C928.379 572.552 928.378 572.642 929.184 572.955C930.21 575.403 929.897 642.835 929.904 651.076C927.43 651.568 924.948 652.081 922.507 652.719C898.21 659.067 889.655 690.502 881.399 711.085C876.765 722.638 871.887 734.212 865.571 744.965C862.363 750.428 858.476 756.007 851.934 757.553C830.771 762.554 825.24 732.078 810.346 723.289C806.23 720.86 801.22 719.92 796.566 721.194C779.517 725.861 763.07 760.334 754.539 775.178Q747.45 789.062 739.83 802.663C738.575 779.972 739.473 756.742 739.445 733.995L739.528 605.249Q798.522 594.536 857.714 584.979C880.972 581 904.14 576.222 927.469 572.699Z"/>
	<path fill="#1C2243" d="M838.885 596.146Q840.004 596.01 841.13 595.969Q842.256 595.928 843.382 595.982Q844.508 596.037 845.625 596.186Q846.741 596.336 847.842 596.579Q848.942 596.823 850.018 597.159Q851.094 597.495 852.137 597.921Q853.18 598.347 854.184 598.859Q855.188 599.372 856.144 599.968C864.002 604.859 869.551 613.77 871.587 622.692C874.137 633.862 871.803 646.661 865.636 656.29C859.01 666.636 850.053 672.819 838.144 675.467C831.148 675.938 824.968 675.217 818.92 671.279C811.465 666.425 806.647 658.407 804.875 649.784C802.21 636.818 805.712 623.615 813.059 612.771C819.41 603.397 827.845 598.216 838.885 596.146Z"/>
	<path fill="#99C2FF" d="M840.147 600.611C845.538 600.39 850.545 601.92 854.994 604.984C861.695 609.601 865.954 617.282 867.43 625.186C869.337 635.396 866.742 647.132 860.824 655.658C855.088 663.923 846.42 669.176 836.618 670.992C830.971 671.13 825.714 669.938 820.927 666.849C814.749 662.864 810.693 656.577 809.179 649.427C806.75 637.951 809.884 625.829 816.339 616.2C822.139 607.549 830 602.627 840.147 600.611Z"/>
	<path fill="#1C2243" d="M842.193 611.695L843.27 611.646C845.762 613.133 844.227 622.167 845.308 625.382C848.171 628.192 850.53 625.721 853.525 627.065C853.942 627.999 854.306 628.882 854.553 629.878C857.507 641.783 848.779 641.04 845.407 645.347C843.233 648.125 845.33 654.638 843.278 657.966C840.344 660.258 836.405 659.602 832.875 659.565L831.509 659.432C829.467 657.318 829.547 650.174 828.947 647.036Q824.671 646.955 820.397 646.787C819.903 641.486 820.059 636.071 820.01 630.749C822.602 630.119 826.27 629.885 828.287 628.059C831.687 624.98 830.886 617.547 831.111 613.335C834.804 612.623 838.453 612.09 842.193 611.695Z"/>
	<path fill="#FCFCFB" d="M838.99 616.59C842.206 617.277 839.686 626.247 842.727 629.161C844.831 631.178 847.697 630.599 850.376 630.493L849.891 638.265C836.042 643.606 843.576 647.573 839.907 653.375C839.019 654.78 837.616 654.843 836.142 655.251C832.588 654.134 834.948 646.893 832.031 643.644C830.075 641.465 827.272 641.845 824.609 641.809L824.346 634.267Q825.968 633.785 827.575 633.258C838.64 629.616 831.799 622.747 835.099 618.116C836.038 616.799 837.536 616.861 838.99 616.59Z"/>
</svg>
