<?xml version="1.0" encoding="utf-8" ?>
<svg xmlns="http://www.w3.org/2000/svg" xmlns:xlink="http://www.w3.org/1999/xlink" width="802" height="602">
	<path fill="#223451" transform="scale(1.17578 1.17578)" d="M543.214 67.0769C566.32 64.8711 581.532 76.471 581.821 100.314C582.105 123.733 581.815 147.189 581.815 170.612L581.841 398.209C581.839 416.128 577.447 433.251 555.665 435.76C549.996 436.413 544.135 436.159 538.433 436.153L138.698 436.134L137.393 436.14C116.116 436.21 100.276 427.375 100.229 404.245L100.22 110.307C100.225 93.6462 103.364 73.9399 124.225 71.1838C130.25 70.3878 136.427 70.5945 142.491 70.5975L543.214 67.0769Z"/>
	<path fill="#83A7D5" transform="scale(1.17578 1.17578)" d="M564.182 132.529C564.639 131.434 564.34 108.776 564.182 105.604C564.612 106.861 564.274 133.548 564.265 137.465C564.259 140.208 565.489 145.513 564.182 147.857L117.467 147.857L117.467 132.529C122.846 132.737 128.301 132.534 133.689 132.534L564.182 132.529Z"/>
	<path fill="#D2E3FC" transform="scale(1.17578 1.17578)" d="M117.467 394.64C117.938 396.945 117.716 399.366 117.467 401.691C135.213 401.694 283.008 402.513 286.642 400.714C297.376 405.855 306.199 405.523 316.664 400.714C320.717 402.523 419.67 402.121 431.597 402.153L553.064 402.543C556.752 402.583 560.508 402.823 564.182 402.5C565.836 406.167 563.108 412.366 560.508 414.934C556.305 419.086 549.85 418.217 544.423 418.232L145.315 418.253C123.778 418.246 117.486 421.023 117.467 394.64Z"/>
	<path fill="#D2E3FC" transform="scale(1.17578 1.17578)" d="M117.467 132.529C117.467 116.452 110.657 88.1009 131.814 87.4272C150.548 86.8306 169.371 87.312 188.12 87.0918L532.526 84.2194C542.34 84.1756 558.312 81.0447 563.047 91.7168C564.421 94.8136 565.389 102.47 564.182 105.604C564.34 108.776 564.639 131.434 564.182 132.529L133.689 132.534C128.301 132.534 122.846 132.737 117.467 132.529Z"/>
	<path fill="#223451" transform="scale(1.17578 1.17578)" d="M146.2 105.604C157.784 104.81 160.531 119.845 149.874 123.153C137.139 123.757 135.22 109.733 146.2 105.604Z"/>
	<path fill="#223451" transform="scale(1.17578 1.17578)" d="M181.495 105.604C193.726 105.054 196.129 118.141 186.057 123.153C173.5 124.104 170.019 110.388 181.495 105.604Z"/>
	<path fill="#223451" transform="scale(1.17578 1.17578)" d="M216.423 105.604C228.777 104.053 232.566 117.73 221.627 123.153C210.172 124.733 205.356 110.403 216.423 105.604Z"/>
	<path fill="#223451" transform="scale(1.17578 1.17578)" d="M486.979 103.531L521.709 103.521C528.992 103.506 541.555 100.476 541.805 111.701C542.02 121.361 532.264 120.25 525.741 120.243L311.666 121.849C296.709 121.834 281.49 121.229 266.576 122.155C257.408 122.723 252.219 113.807 258.501 107.696C263.338 102.99 284.394 105.062 291.11 105.01L437.87 103.833C454.236 103.731 470.614 103.307 486.979 103.531Z"/>
	<path fill="white" transform="scale(1.17578 1.17578)" d="M117.467 164.887L564.182 164.887C564.943 166.559 564.181 193.283 564.18 197.448L564.176 378.681C564.179 382.525 565.22 400.457 564.182 402.5C560.508 402.823 556.752 402.583 553.064 402.543L431.597 402.153C419.67 402.121 320.717 402.523 316.664 400.714C306.199 405.523 297.376 405.855 286.642 400.714C283.008 402.513 135.213 401.694 117.467 401.691C117.716 399.366 117.938 396.945 117.467 394.64L117.463 189.736C117.462 181.504 117.059 173.093 117.467 164.887Z"/>
	<path fill="#223451" transform="scale(1.17578 1.17578)" d="M502.964 325.998L524.367 325.948C528.208 325.942 532.384 325.626 536.182 326.191C546.715 327.758 544.984 341.807 535.202 343.2L513.557 343.243C509.496 343.244 505.06 343.586 501.051 342.951C491.326 341.412 491.779 326.947 502.964 325.998Z"/>
	<path fill="#223451" transform="scale(1.17578 1.17578)" d="M147.554 206.706C155.288 206.258 200.989 205.576 204.498 208.186C211.855 213.657 207.117 222.907 199.103 224.002L163.78 224.024C157.99 224.025 151.414 224.612 145.725 223.688C135.946 222.099 136.883 207.281 147.554 206.706Z"/>
	<path fill="#223451" transform="scale(1.17578 1.17578)" d="M467.911 290.596L512.551 290.574C520.108 290.575 528.21 289.987 535.714 290.786C546.29 291.912 545.154 306.484 535.202 307.885C531.926 308.175 528.435 307.91 525.126 307.901L481.215 307.889C474.636 307.886 463.613 309.881 461.152 301.57C459.636 296.449 463.098 292.003 467.911 290.596Z"/>
	<path fill="#223451" transform="scale(1.17578 1.17578)" d="M439.347 254.703C445.522 254.503 451.771 254.688 457.952 254.689L517.598 254.717C524.42 254.659 540.509 252.053 543.186 260.764C544.708 265.719 541.217 271.232 536.213 272.323C532.663 273.537 519.794 272.33 515.183 272.329L470.111 272.327C464.962 272.326 441.262 273.4 437.319 271.313C429.758 267.311 431.468 256.805 439.347 254.703Z"/>
	<path fill="#223451" transform="scale(1.17578 1.17578)" d="M408.721 218.86C416.752 218.56 424.898 218.852 432.944 218.852L516.876 218.889C522.633 218.888 534.94 217.129 539.819 220.657C546.167 225.248 542.446 235.38 535.202 236.355C528.061 236.823 520.583 236.375 513.412 236.364L428.102 236.347C422.055 236.349 415.694 236.845 409.697 236.446C398.228 235.683 397.874 220.609 408.721 218.86Z"/>
	<path fill="#223451" transform="scale(1.17578 1.17578)" d="M274.328 386.399L172.154 386.412C158.085 386.419 149.147 389.621 149.836 371.346C151.436 328.894 166.831 290.701 198.563 261.333C292.158 174.713 437.464 233.169 454.481 355.603C455.499 362.923 458.84 379.56 452.54 385.21C449.975 387.51 436.861 386.434 433.469 386.423L329.043 386.399C326.112 392.538 322.171 396.768 316.664 400.714C306.199 405.523 297.376 405.855 286.642 400.714C281.101 396.966 276.951 392.647 274.328 386.399Z"/>
	<path fill="white" transform="scale(1.17578 1.17578)" d="M344.275 335.927L344.431 336.262C339.248 347.391 336.849 350.996 329.043 361.153L325.419 357.009C323.899 355.12 322.073 353.45 320.351 351.744C326.788 345.206 335.852 339.504 344.275 335.927Z"/>
	<path fill="white" transform="scale(1.17578 1.17578)" d="M299.595 362.25C315.87 361.08 320.604 383.472 304.381 386.399C288.427 389.952 282.602 367.674 299.595 362.25Z"/>
	<path fill="white" transform="scale(1.17578 1.17578)" d="M167.563 369.493C166.675 299.464 229.243 238.52 298.537 237.682C365.444 236.874 421.275 281.587 435.607 347.223C437.213 354.58 437.608 362.218 439.347 369.493C434.251 369.496 428.841 369.864 423.777 369.493C419.154 368.604 421.239 367.2 420.672 361.492C418.485 339.468 406.574 310.385 390.236 294.406C386.296 290.447 382.389 286.023 377.661 283.011C367.059 268.522 329.277 254.05 311.666 255.616L293.349 255.616C273.146 258.639 242.249 267.975 227.239 283.011C222.849 286.639 218.626 290.791 214.679 294.899L215.001 295.562C212.876 300.095 209.166 303.646 206.458 307.811C197.458 321.647 187.804 342.197 186.435 359.122C186.065 363.705 188.054 368.675 183.629 369.493L167.563 369.493Z"/>
	<path fill="#D2E3FC" transform="scale(1.17578 1.17578)" d="M311.666 255.616C329.277 254.05 367.059 268.522 377.661 283.011C382.389 286.023 386.296 290.447 390.236 294.406C406.574 310.385 418.485 339.468 420.672 361.492C421.239 367.2 419.154 368.604 423.777 369.493C415.333 370.047 406.511 369.507 398.018 369.505L344.275 369.493C354.095 357.181 361.675 343.839 366.575 328.86C371.724 313.118 368.096 308.685 351.792 314.326C343.576 317.169 304.688 336.083 304.381 345.087C287.757 345.165 276.56 352.865 272.199 369.493C268.834 369.157 265.266 369.432 261.876 369.454L183.629 369.493C188.054 368.675 186.065 363.705 186.435 359.122C187.804 342.197 197.458 321.647 206.458 307.811C209.166 303.646 212.876 300.095 215.001 295.562L214.679 294.899C218.626 290.791 222.849 286.639 227.239 283.011C242.249 267.975 273.146 258.639 293.349 255.616L311.666 255.616Z"/>
	<path fill="#223451" transform="scale(1.17578 1.17578)" d="M311.666 255.616L311.666 276.243L293.349 276.243C293.337 269.455 292.883 262.368 293.349 255.616L311.666 255.616Z"/>
	<path fill="#223451" transform="scale(1.17578 1.17578)" d="M227.239 283.011C232.512 288.352 238.668 293.465 243.144 299.481C238.83 303.521 234.571 307.585 230.567 311.939L219.849 300.628C218.315 299.005 216.731 296.948 215.001 295.562L214.679 294.899C218.626 290.791 222.849 286.639 227.239 283.011Z"/>
	<path fill="#223451" transform="scale(1.17578 1.17578)" d="M377.661 283.011C382.389 286.023 386.296 290.447 390.236 294.406C387.517 298.352 376.646 308.475 372.929 311.939C368.893 307.746 364.943 303.327 360.573 299.481C366.584 294.352 371.599 288.098 377.661 283.011Z"/>
</svg>
