<?xml version="1.0" encoding="utf-8" ?>
<svg xmlns="http://www.w3.org/2000/svg" xmlns:xlink="http://www.w3.org/1999/xlink" width="1024" height="1024">
	<path fill="transparent" d="M0 0L1024 0L1024 1024L0 1024L0 0Z"/>
	<path fill="#FEFEFE" d="M906.003 435.262C906.178 435.403 906.371 435.523 906.529 435.684C908.13 437.312 907.234 450.291 907.208 453.073C910.741 451.755 919.227 447.707 922.848 448.885C920.689 452.531 911.267 454.985 907.276 456.408C907.052 462.286 908.192 469.255 906.61 474.897L905.278 474.13C903.785 469.396 904.702 462.323 904.78 457.258C900.699 458.947 893.478 462.742 889.188 461.904C893.008 457.821 899.456 456.207 904.615 454.378C904.549 449.343 903.212 439.264 906.003 435.262Z"/>
	<path fill="#ffffff" d="M116.182 497.187C116.795 497.432 117.11 497.722 117.606 498.145C118.889 503.669 118.109 510.754 118.054 516.486C122.645 515.013 128.479 511.185 133.184 511.033C133.994 511.007 133.747 511.064 134.396 511.771C132.583 515.197 121.851 518.385 118.1 519.872C118.265 525.988 118.383 532.296 117.793 538.386L116.466 538.485L115.82 537.914C114.676 532.746 115.325 526.397 115.33 521.056C111.953 522.14 102.335 526.212 99.2189 525.792L98.6765 524.808C102.218 521.287 110.309 519.329 115.024 517.556C114.97 511.556 113.705 502.653 116.182 497.187Z"/>
	<path fill="#ffffff" d="M305.917 111.071L307.315 111.699C309.065 114.751 308.089 125.598 308.21 129.511C311.342 128.63 314.243 127.253 317.261 126.062C319.289 125.262 322.227 124.39 324.306 125.274L324.328 125.687C321.551 129.491 312.78 131.484 308.38 133.005C308.513 138.549 308.733 144.349 308.052 149.856C307.235 149.93 306.955 149.857 306.196 149.619C304.144 146.264 305.175 138.004 305.386 134.07C301.771 135.49 293.73 139.453 290.189 138.118C291.941 134.77 301.364 132.249 304.927 130.976C304.841 124.525 304.201 117.336 305.917 111.071Z"/>
	<path fill="#ffffff" d="M94.2021 690.244C94.9816 690.859 95.1964 691.164 95.6873 691.99C95.6612 693.428 78.6216 724.024 76.298 728.833C71.3628 739.048 66.5215 749.556 62.6008 760.208C59.9224 767.485 58.008 775.651 54.6195 782.584C53.983 782.293 53.3457 781.889 52.7335 781.546C52.5723 781.112 52.509 781.03 52.4988 780.498C52.4398 777.411 54.6608 772.745 55.6974 769.818Q61.8186 752.671 69.3897 736.113Q76.9608 719.555 85.926 703.709C88.5321 699.191 91.0304 694.393 94.2021 690.244Z"/>
	<path fill="#ffffff" d="M136.15 651.363C136.868 651.971 137.378 652.568 137.973 653.291C137.914 653.654 137.959 654.049 137.796 654.379C136.388 657.238 133.059 660.085 131.08 662.645C128.21 666.358 125.586 670.318 122.942 674.194Q113.29 688.499 104.631 703.427Q95.9718 718.354 88.3457 733.835C78.1038 754.429 68.8018 776.941 62.4856 799.034C60.3062 806.657 58.5226 814.41 56.6436 822.113C55.6689 826.109 54.9623 830.421 53.3771 834.206C53.3199 834.342 53.2584 834.477 53.199 834.612C52.8983 834.464 52.5802 834.347 52.2968 834.168C51.3978 833.599 51.3399 832.808 51.3224 831.81C51.227 826.364 54.191 818.092 55.5203 812.745C67.4931 764.582 90.0506 717.659 117.585 676.485C123.264 667.992 129.193 658.851 136.15 651.363Z"/>
	<path fill="#ffffff" d="M922.679 530.062C924.975 529.817 927.011 529.845 929.219 530.609C932.192 531.637 934.516 533.442 935.798 536.366C938.176 541.787 936.985 548.908 934.746 554.196C931.646 561.521 926.319 566.726 918.923 569.657C916.58 569.905 914.615 569.986 912.363 569.192C909.414 568.153 907.204 566.239 905.964 563.345C903.515 557.627 904.825 550.531 907.257 544.996C910.363 537.923 915.497 532.922 922.679 530.062Z"/>
	<path fill="transparent" d="M924.976 533.566C926.229 533.739 927.288 533.916 928.429 534.489C930.84 535.7 932.787 537.597 933.505 540.247C934.938 545.541 932.833 552.116 930.057 556.634C926.827 561.89 922.863 565.11 916.892 566.579C915.319 566.311 913.766 566.065 912.379 565.228C910.002 563.793 908.337 561.625 907.764 558.895C906.66 553.641 908.747 547.376 911.572 542.98C914.815 537.934 919.139 534.804 924.976 533.566Z"/>
	<path fill="#ffffff" d="M440.806 89.5995C443.931 89.3903 446.666 89.8962 449.453 91.3862C452.616 93.0778 454.575 96.0017 455.495 99.4156C457.259 105.964 455.395 113.074 451.956 118.753C448.252 124.871 443.048 129.207 436.018 130.927C433.487 131.121 431.109 130.658 428.808 129.589C425.501 128.051 423.303 125.5 422.142 122.056C420.102 116.006 421.345 109.259 424.17 103.673C427.804 96.4871 433.199 92.0626 440.806 89.5995Z"/>
	<path fill="transparent" d="M439.663 93.5673C441.901 93.3831 443.911 93.5508 446.022 94.3625C448.657 95.3759 450.714 97.0608 451.828 99.7007C453.666 104.056 452.905 109.39 451.145 113.638C448.527 119.96 444.104 124.531 437.813 127.222C435.61 127.511 433.773 127.555 431.634 126.865C429.014 126.021 427.004 124.603 425.778 122.088C423.627 117.678 424.106 111.871 425.866 107.422C428.485 100.804 433.165 96.2353 439.663 93.5673Z"/>
	<path fill="#ffffff" d="M967.27 153.305C967.42 153.416 967.58 153.514 967.72 153.639C969.473 155.201 978.631 200.117 978.934 204.206C979.033 205.54 978.825 206.338 978.033 207.378L977.227 207.267C974.477 204.283 969.418 170.944 967.509 164.179L967.306 163.472C966.664 179.69 964.632 196.101 962.142 212.129Q961.267 217.68 960.252 223.208Q959.237 228.735 958.081 234.235Q956.926 239.734 955.632 245.203Q954.338 250.672 952.905 256.106Q951.472 261.54 949.902 266.936Q948.332 272.332 946.625 277.686Q944.919 283.041 943.077 288.35Q941.235 293.66 939.259 298.921Q937.283 304.182 935.174 309.391Q933.066 314.6 930.826 319.754Q928.585 324.908 926.215 330.003Q923.845 335.099 921.346 340.132Q918.847 345.166 916.221 350.135Q913.596 355.103 910.845 360.004Q908.094 364.904 905.219 369.733Q902.345 374.562 899.349 379.317C896.108 384.358 887.923 397.859 883.452 400.931C882.559 401.545 882.46 401.684 881.359 401.504C881.02 398.472 883.22 396.386 884.964 394.178C921.965 344.458 946.126 283.44 957.135 222.603C960.603 203.442 962.28 183.848 964.672 164.525C961.796 172.246 948.269 208.814 944.068 212.72L943.313 212.405C943.387 210.518 943.724 208.822 944.312 207.028C946.497 200.362 949.716 193.733 952.3 187.19C956.265 177.148 959.737 166.564 964.632 156.957C965.339 155.569 966.16 154.406 967.27 153.305Z"/>
	<path fill="#ffffff" d="M147.579 461.936C146.835 461.79 146.019 461.539 145.332 461.205C134.21 455.799 121.033 426.246 117.419 413.997C100.815 357.715 116.868 282.465 144.33 231.921C159.976 203.124 185.559 171.447 218.029 161.994C232.096 157.898 246.934 158.935 259.879 166.077C281.028 177.744 291.801 201.675 298.284 223.783L295.489 224.982C293.171 219.31 291.645 213.342 289.321 207.665C282.317 190.555 270.45 173.943 252.888 166.59C239.293 160.897 224.605 162.442 211.257 168.007C173.646 183.687 149.143 224.669 134.444 260.969C114.958 309.09 104.301 377.4 125.145 426.624C130.388 439.005 137.71 450.516 147.562 459.739L147.579 461.936Z"/>
	<path fill="transparent" d="M147.562 459.739C137.71 450.516 130.388 439.005 125.145 426.624C104.301 377.4 114.958 309.09 134.444 260.969C149.143 224.669 173.646 183.687 211.257 168.007C224.605 162.442 239.293 160.897 252.888 166.59C270.45 173.943 282.317 190.555 289.321 207.665C291.645 213.342 293.171 219.31 295.489 224.982C289.318 226.144 281.482 230.164 275.478 232.462Q252.828 240.914 230.264 249.594C214.643 255.546 198.864 261.068 183.226 266.978C176.532 269.508 169.52 271.735 163.077 274.851C158.586 277.023 154.479 279.574 151.574 283.742C149.109 287.277 147.461 291.142 147.012 295.445C146.377 301.53 147.242 307.896 147.411 314.001C147.66 322.972 147.553 331.976 147.588 340.95L147.415 426.255C147.377 437.401 147.745 448.604 147.562 459.739Z"/>
	<path fill="#FEFEFE" d="M298.284 223.783C305.72 222.221 315.962 217.238 323.41 214.412C337.414 209.1 351.574 204.219 365.57 198.874L490.472 152.408L702.402 74.6939C746.607 58.8401 792.545 44.2686 835.849 26.2186C840.266 28.3766 848.209 31.029 851.553 34.2583C854.351 34.7894 856.729 35.5193 858.447 37.9491C860.322 40.5998 860.779 43.8793 860.91 47.0489C861.345 57.5768 860.958 68.2866 860.962 78.8293L861.097 138.169L861.498 327.444L861.994 539.534C862.072 577.548 862.755 615.742 861.82 653.745C887.79 665.464 914.266 676.053 940.409 687.396C951.583 692.244 963.236 696.793 973.978 702.521L974.014 712.082C954.284 720.505 934.175 727.984 914.131 735.62L836.769 765.349L532.19 883.515L358.169 950.214L299.057 972.84C289.243 976.527 279.199 980.915 269.09 983.641C260.171 986.047 251.276 984.799 242.806 981.343C233.502 977.546 224.486 972.964 215.287 968.91L142.8 937.267L84.6398 912.625C75.2665 908.571 65.5233 904.791 56.4922 900.012C54.2998 898.852 51.8929 897.143 50.8927 894.778C50.3954 893.601 50.4886 892.323 51.0153 891.171C52.167 888.651 54.9843 887.032 57.3482 885.842C62.56 883.22 68.1774 881.656 73.6051 879.584C81.3903 876.613 89.1197 873.519 96.943 870.617C111.902 865.069 127.869 858.33 142.983 853.605C143.99 853.29 145.027 853.055 146.056 852.824C146.803 854.176 146.577 856.232 146.607 857.789C148.237 850.911 147.449 829.202 147.495 820.748L147.918 746.491L148.373 603.75C148.092 556.479 146.934 509.211 147.579 461.936L147.562 459.739C147.745 448.604 147.377 437.401 147.415 426.255L147.588 340.95C147.553 331.976 147.66 322.972 147.411 314.001C147.242 307.896 146.377 301.53 147.012 295.445C147.461 291.142 149.109 287.277 151.574 283.742C154.479 279.574 158.586 277.023 163.077 274.851C169.52 271.735 176.532 269.508 183.226 266.978C198.864 261.068 214.643 255.546 230.264 249.594Q252.827 240.913 275.478 232.462C281.482 230.164 289.318 226.144 295.489 224.982L298.284 223.783Z"/>
	<path fill="#020617" d="M298.284 223.783C305.72 222.221 315.962 217.238 323.41 214.412C337.414 209.1 351.574 204.219 365.57 198.874L490.472 152.408L702.402 74.6939C746.607 58.8401 792.545 44.2686 835.849 26.2186C840.266 28.3766 848.209 31.029 851.553 34.2583C841.138 36.8953 830.904 41.4007 820.814 45.1307L765.088 65.5455Q660.801 102.734 557.005 141.279L302.122 235.786L206.197 270.765L179.019 280.84C174.806 282.4 170.376 283.727 166.264 285.521C163.647 286.663 161.318 288.849 159.838 291.276C158.184 293.986 157.016 297.19 156.817 300.37C156.323 308.306 156.636 316.469 156.616 324.425L156.606 370.593L156.851 516.805L156.583 786.425L156.684 920.225C157.878 921.723 159.13 923.198 160.269 924.737C155.641 922.432 149.128 919.72 147.351 914.389C145.539 908.955 146.189 865.322 146.607 857.789C148.237 850.911 147.449 829.202 147.495 820.748L147.918 746.491L148.373 603.75C148.092 556.479 146.934 509.211 147.579 461.936L147.562 459.739C147.745 448.604 147.377 437.401 147.415 426.255L147.588 340.95C147.553 331.976 147.66 322.972 147.411 314.001C147.242 307.896 146.377 301.53 147.012 295.445C147.461 291.142 149.109 287.277 151.574 283.742C154.479 279.574 158.586 277.023 163.077 274.851C169.52 271.735 176.532 269.508 183.226 266.978C198.864 261.068 214.643 255.546 230.264 249.594Q252.827 240.913 275.478 232.462C281.482 230.164 289.318 226.144 295.489 224.982L298.284 223.783Z"/>
	<path fill="#020617" d="M850.063 38.0312C851.039 37.949 851.935 37.8299 852.88 38.1849C855.163 39.0418 856.318 41.6459 857.448 43.6332C858.05 74.2194 857.514 104.937 857.559 135.537L857.833 315.619L857.992 660.464Q826.186 673.23 794.039 685.113Q807.954 691.929 822.324 697.726C829.337 700.623 836.512 703.308 843.231 706.851L843.252 707.062C837.692 704.833 831.846 701.715 826.069 700.237C825.912 700.197 825.755 700.161 825.597 700.124C809.058 704.963 793.135 712.733 776.854 718.5C782.112 721.155 816.612 735.827 820.156 735.783C820.307 735.782 820.457 735.769 820.607 735.762L818.404 736.686C804.394 730.403 790.007 725.004 775.931 718.859C760.014 724.389 744.087 730.544 728.52 737.001C734.633 740.218 741.216 742.875 747.518 745.721C754.829 749.024 762.319 752.818 769.95 755.26C771.936 754.543 773.902 753.898 775.944 753.36C774.426 754.717 771.767 755.41 769.87 756.164C764.292 754.284 758.872 751.637 753.486 749.247L718.474 733.468C711.188 730.18 703.848 726.568 696.249 724.062C686.076 726.834 676.175 731.224 666.322 734.966C655.962 738.902 645.128 742.46 635.144 747.259L707.819 777.369C685.532 788.241 661.402 795.872 638.417 805.205Q546.72 841.741 454.334 876.5L374.488 906.4C362.249 911.053 349.775 915.342 337.746 920.501L311.978 930.511C307.223 932.349 301.96 933.95 297.525 936.459C283.56 931.099 269.58 924.59 256.15 917.989C271.521 911.557 287.409 906.366 302.791 899.914C293.197 894.84 283.1 890.71 273.7 885.269L204.284 911.848C192.955 916.246 181.735 921.431 170.137 925.059C168.007 925.725 165.418 926.593 163.182 925.926C161.78 925.507 161.076 924.801 160.563 923.443C159.771 921.35 159.655 918.71 159.609 916.473C159.18 896.053 159.888 875.474 159.918 855.034L159.926 728.43L159.988 307.568C160.025 303.846 159.787 299.275 161.315 295.801C162.601 292.879 164.314 290.246 167.27 288.848C176.066 284.688 185.796 281.776 194.938 278.424Q219.777 269.092 244.736 260.088L383.848 208.791Q616.388 121.858 850.063 38.0312Z"/>
	<path fill="#FEFEFE" d="M743.023 705.493C746.423 704.939 768.93 716.423 774.318 718.468C759.209 724.94 743.468 730.335 728.107 736.236C725.892 736.973 701.733 725.275 697.545 723.542C712.029 716.672 727.943 710.951 743.023 705.493Z"/>
	<path fill="#FEFEFE" d="M792.48 685.523C796.7 686.923 800.806 689.154 804.857 690.995Q814.946 695.66 825.334 699.613C809.244 704.417 793.562 711.619 777.838 717.583C772.197 719.307 751.568 707.59 745.281 704.714C760.905 698.042 776.829 692.122 792.48 685.523Z"/>
	<path fill="#FEFEFE" d="M324.795 865.956C326.764 865.947 350.802 879.188 354.491 881.068C338.269 887.936 321.264 893.052 305.23 900.458C295.218 895.022 285.043 890.031 274.742 885.164C291.473 878.872 308.007 872.105 324.795 865.956Z"/>
	<path fill="#FEFEFE" d="M585.608 765.012C594.058 770.936 607.708 776.814 617.177 781.558C601.408 787.869 585.726 794.178 569.767 800.002C567.962 799.496 565.75 797.863 564.055 796.98Q551.22 790.324 538.636 783.205L585.608 765.012Z"/>
	<path fill="#FEFEFE" d="M632.717 747.494C634.907 747.156 664.353 760.671 668.538 762.569C652.595 767.145 637.241 774.521 621.611 780.159C620.413 780.518 619.351 780.874 618.085 780.642C612.95 779.699 592.691 768.117 586.491 765.047C601.454 758.453 617.323 753.059 632.717 747.494Z"/>
	<path fill="#FEFEFE" d="M537.591 783.414C537.66 783.441 537.735 783.454 537.797 783.494C547.714 789.834 558.585 794.972 569.012 800.451C552.89 806.281 537.243 813.423 520.901 818.672C509.931 813.888 499.27 808.349 488.403 803.325C504.541 796.036 521.642 791.094 537.591 783.414Z"/>
	<path fill="#FEFEFE" d="M378.215 845.607C383.312 849.569 401.748 857.699 408.523 860.82Q382.712 871.13 356.597 880.645C352.176 880.173 331.735 868.376 326.177 865.719C332.233 862.788 338.743 860.613 345.02 858.186Q361.54 851.693 378.215 845.607Z"/>
	<path fill="#FEFEFE" d="M429.49 825.48C431.585 826.146 434.194 827.905 436.248 828.876C444.518 832.787 453.358 836.401 461.155 841.184Q436.207 850.896 411.048 860.046C404.734 860.091 386.293 848.219 379.043 845.398C395.472 838.041 412.651 831.847 429.49 825.48Z"/>
	<path fill="#FEFEFE" d="M303.096 900.952C306.349 900.77 336.858 915.737 340.751 918.368C326.192 923.835 311.869 929.914 297.233 935.176C285.24 931.184 270.293 923.666 258.697 918.054C273.25 911.846 288.313 906.608 303.096 900.952Z"/>
	<path fill="#FEFEFE" d="M354.621 881.921C359.581 882.006 385.245 895.813 391.561 898.935C375.185 904.598 359.064 911.408 342.8 917.446L341.342 917.682C330.377 910.912 317.553 907.326 306.675 900.559C322.2 893.548 338.619 887.785 354.621 881.921Z"/>
	<path fill="#FEFEFE" d="M485.035 804.008C488.858 803.523 514.672 816.745 519.737 819.138Q492.565 829.951 465.112 840.03C464.18 840.334 463.286 840.609 462.3 840.334C458.905 839.387 455.29 837.1 452.076 835.523L430.859 825.189C448.799 817.932 466.775 810.409 485.035 804.008Z"/>
	<path fill="#FEFEFE" d="M669.088 763.056C676.18 764.301 697.937 774.157 705.799 777.54C683.513 787.123 660.688 795.301 638.205 804.376Q516.71 852.917 393.9 898.026C391.146 898.534 362.601 883.777 357.333 881.382L543.251 811.444L630.299 777.783C643.229 772.824 655.935 767.427 669.088 763.056Z"/>
	<path fill="#FEFEFE" d="M832.262 76.4473L832.903 76.5173C833.102 76.7476 833.365 76.9356 833.502 77.208C833.984 78.1696 833.502 118.398 833.493 123.112L187.699 360.468C186.893 360.365 187.317 360.52 186.532 359.781C186.091 344.439 186.342 329.012 186.269 313.658C198.787 309.416 211.02 304.268 223.395 299.618Q257.633 287.137 291.664 274.102L434.317 221.272L832.262 76.4473Z"/>
	<path fill="#3C5DE9" d="M238.378 306.045C239.44 306 240.521 305.942 241.578 306.091C243.395 306.346 245.288 307.559 246.243 309.143C247.593 311.379 247.517 314.036 246.839 316.49C245.618 320.905 242.828 323.628 238.932 325.783C237.601 325.94 236.467 325.96 235.15 325.652C233.29 325.218 231.657 324.15 230.751 322.436C229.615 320.287 229.807 317.505 230.479 315.246C231.735 311.021 234.54 308.055 238.378 306.045Z"/>
	<path fill="#3C5DE9" d="M261.197 297.527C262.184 297.425 263.136 297.311 264.125 297.457C266.041 297.742 267.901 298.599 268.996 300.255C270.369 302.333 270.226 305.196 269.656 307.514C268.491 312.245 265.595 315.402 261.506 317.845C260.633 317.994 259.939 318.045 259.048 317.943C257.159 317.726 255.347 316.822 254.227 315.282C252.879 313.429 252.98 310.421 253.382 308.288C254.311 303.357 257.132 300.203 261.197 297.527Z"/>
	<path fill="#3C5DE9" d="M215.063 313.455C216.477 313.322 217.827 313.233 219.205 313.659Q219.557 313.768 219.896 313.912Q220.235 314.056 220.558 314.234Q220.881 314.411 221.184 314.619Q221.488 314.828 221.769 315.066Q222.05 315.304 222.306 315.569Q222.561 315.834 222.789 316.124Q223.017 316.413 223.215 316.723Q223.413 317.034 223.579 317.363C224.909 320.054 224.569 323.548 223.523 326.267C222.014 330.188 219.93 331.776 216.205 333.497C215.499 333.486 214.788 333.465 214.086 333.383C211.997 333.138 209.741 332.069 208.497 330.324C207.254 328.58 207.115 326.299 207.472 324.25C208.294 319.534 211.189 316.044 215.063 313.455Z"/>
	<path fill="#FEFEFE" d="M832.371 126.528L833.049 126.636C833.499 127.469 833.516 127.235 833.533 128.02C833.747 137.899 833.449 147.825 833.577 157.715Q834.378 260.373 833.627 363.032L833.448 645.606C810.936 655.241 787.832 663.791 764.965 672.554L669.569 709.363L429.717 802.867L278.716 860.417Q233.528 877.037 188.656 894.495C188.002 894.377 188.363 894.5 187.627 893.994C186.778 875.979 187.491 857.693 187.459 839.641L187.306 726.25L186.522 363.823C199.707 359.411 212.726 354.291 225.82 349.601L306.507 320.55L460.976 263.512L832.371 126.528Z"/>
	<path fill="#3C5DE9" d="M348.735 547.758L350.212 547.092L351.439 549.288L350.319 549.483L348.735 547.758Z"/>
	<path fill="#3C5DE9" d="M448.9 476.038L449.944 475.433L450.51 477.776L448.733 478.244L448.9 476.038Z"/>
	<path fill="#1B2040" d="M721.435 437.558L722.166 437.366C722.973 437.875 723.518 438.252 724.189 438.946L722.446 439.706L721.435 437.558Z"/>
	<path fill="#1B2040" d="M452.564 533.897L454.148 535.584L451.845 536.236L451.489 534.24L452.564 533.897Z"/>
	<path fill="#3C5DE9" d="M355.823 510.192L356.89 509.52L357.686 511.654L354.476 512.742C355.478 511.716 355.553 511.597 355.823 510.192Z"/>
	<path fill="#1B2040" d="M768.042 420.467L769.638 419.748L772.243 421.036L769.86 422.06C769.322 421.483 768.643 420.982 768.042 420.467Z"/>
	<path fill="#3C5DE9" d="M718.356 195.52L718.148 197.774L716.596 198.291L715.331 196.708L718.356 195.52Z"/>
	<path fill="#3C5DE9" d="M718.886 438.555L721.435 437.558L722.446 439.706L720.622 440.163L718.886 438.555Z"/>
	<path fill="#3C5DE9" d="M776.707 174.581L779.101 173.567L780.062 175.608L777.828 176.29L776.707 174.581Z"/>
	<path fill="#3C5DE9" d="M571.488 494.198L572.941 493.811L574.385 495.381L571.762 496.42L571.488 494.198Z"/>
	<path fill="#1B2040" d="M525.803 485.84L526.79 488.116C525.909 488.463 524.954 488.762 524.13 489.226L523.647 486.981L525.803 485.84Z"/>
	<path fill="#1B2040" d="M602.284 398.14C602.935 398.847 603.372 399.164 604.262 399.526C603.216 399.8 602.188 400.063 601.166 400.421L600.042 398.593C600.799 398.347 601.499 398.252 602.284 398.14Z"/>
	<path fill="#1B2040" d="M746.326 403.09L747.874 402.649L749.253 404.386L746.885 405.244C746.993 404.258 746.72 403.977 746.326 403.09Z"/>
	<path fill="#1B2040" d="M763.335 422.014L765.899 421.007L766.765 423.143L763.506 424.266L763.335 422.014Z"/>
	<path fill="#1B2040" d="M532.893 483.46L534.947 482.706L536.891 484.27L534.041 485.447L532.893 483.46Z"/>
	<path fill="#1B2040" d="M779.62 391.124L782.387 390.134L783.871 391.911L780.844 392.907L779.62 391.124Z"/>
	<path fill="#321D47" d="M766.926 420.916L768.042 420.467C768.643 420.982 769.322 421.483 769.86 422.06L768.946 422.341L766.765 423.143L765.899 421.007L766.926 420.916Z"/>
	<path fill="#321D47" d="M526.473 511.323L529.576 510.079L531.163 511.708L528.121 512.857L526.473 511.323Z"/>
	<path fill="#321D47" d="M521.536 487.951L523.647 486.981L524.13 489.226L523.069 489.624L521.611 490.042L520.855 488.144L521.536 487.951Z"/>
	<path fill="#3B4354" d="M782.137 172.532L783.657 174.206L780.062 175.608L779.101 173.567C780.116 173.326 781.148 172.876 782.137 172.532Z"/>
	<path fill="#321D47" d="M783.675 389.397L785.151 388.848C785.803 389.494 786.554 390.132 787.129 390.843L784.816 391.785L783.871 391.911L782.387 390.134L783.675 389.397Z"/>
	<path fill="#1B2040" d="M606.502 396.181L608.439 397.846C607.022 398.367 605.609 398.842 604.262 399.526C604.393 398.579 604.433 397.611 604.507 396.657L604.972 396.412L606.502 396.181Z"/>
	<path fill="#1B2040" d="M553.822 475.487L556.465 474.477L557.986 476.307L554.555 477.633L553.822 475.487Z"/>
	<path fill="#3C5DE9" d="M429.041 305.014L430.134 306.942L426.141 308.366L424.516 306.701L429.041 305.014Z"/>
	<path fill="#1B2040" d="M778.779 416.193L780.018 418.01L776.074 419.574L774.789 417.773L778.779 416.193Z"/>
	<path fill="#4E1D48" d="M725.156 411.036L729.083 409.586L730.737 411.241L726.71 412.725L725.156 411.036Z"/>
	<path fill="#1B2040" d="M674.156 390.727L676.242 392.017C674.745 392.54 673.031 392.979 671.689 393.81L670.586 391.634L674.156 390.727Z"/>
	<path fill="#1B2040" d="M434.318 516.099L438.707 514.569L439.891 516.269L436.938 517.365C436.126 516.872 435.179 516.506 434.318 516.099Z"/>
	<path fill="#1B2040" d="M441.842 537.673L445.769 536.322L446.855 538.145L442.825 539.655L441.842 537.673Z"/>
	<path fill="#1B2040" d="M541.394 505.668L546.436 503.626L547.012 505.653L542.803 507.302L541.394 505.668Z"/>
	<path fill="#1B2040" d="M748.02 427.795L752.279 426.1C753.191 426.492 754.112 426.838 754.953 427.371L749.547 429.524L748.02 427.795Z"/>
	<path fill="#1B2040" d="M676.944 456.3C675.339 456.947 673.899 457.723 672.127 457.475L671.744 456.907C672.674 455.469 674.157 455.078 675.673 454.456L676.944 456.3Z"/>
	<path fill="#3C5DE9" d="M241.527 611.85L245.306 610.377L246.597 612.278L243.387 613.38L241.943 613.973L240.779 612.084L241.527 611.85Z"/>
	<path fill="#3C5DE9" d="M241.527 611.85L243.387 613.38L241.943 613.973L240.779 612.084L241.527 611.85Z"/>
	<path fill="#321D47" d="M774.789 417.773L776.074 419.574L772.243 421.036L769.638 419.748L774.789 417.773Z"/>
	<path fill="#1B2040" d="M572.941 493.811C574.536 493.119 576.186 492.629 577.844 492.109L579.972 493.253L574.385 495.381L572.941 493.811Z"/>
	<path fill="#321D47" d="M729.083 409.586L734.851 407.593C735.21 408.191 735.48 408.665 735.981 409.156C734.245 409.899 732.517 410.606 730.737 411.241L729.083 409.586Z"/>
	<path fill="#3C5DE9" d="M445.769 536.322L451.489 534.24L451.845 536.236L446.855 538.145L445.769 536.322Z"/>
	<path fill="#321D47" d="M783.473 414.537L783.998 414.322L785.266 416.037L784.377 416.129C782.936 416.807 781.509 417.449 780.018 418.01L778.779 416.193L783.473 414.537Z"/>
	<path fill="#3C5DE9" d="M783.373 171.927C784.808 171.773 786.266 171.034 787.614 170.502L789.126 172.292L785.051 173.754L783.657 174.206L782.137 172.532L783.373 171.927Z"/>
	<path fill="#3C5DE9" d="M782.137 172.532L783.373 171.927L785.051 173.754L783.657 174.206L782.137 172.532Z"/>
	<path fill="#3C5DE9" d="M234.691 556.435C233.049 557.155 231.205 558.21 229.415 557.847L229.546 556.931C230.971 555.26 232.918 554.856 234.935 554.187L234.691 556.435Z"/>
	<path fill="#3C5DE9" d="M435.603 540.096L441.842 537.673L442.825 539.655L438.298 541.302L436.098 542.056L435.239 540.302L435.603 540.096Z"/>
	<path fill="#1B2040" d="M435.239 540.302L435.603 540.096L438.298 541.302L436.098 542.056L435.239 540.302Z"/>
	<path fill="#3C5DE9" d="M595.456 242.697L598.161 241.461L598.738 243.752L596.76 244.247L591.243 246.428L590.524 244.412L595.456 242.697Z"/>
	<path fill="#3C5DE9" d="M291.309 830.551L292.011 830.339C292.519 830.933 292.725 831.198 292.996 831.954C290.988 832.918 288.98 833.783 286.9 834.579L285.914 832.535L291.309 830.551Z"/>
	<path fill="#1B2040" d="M783.998 414.322C786.027 413.247 788.331 412.534 790.48 411.715L792.004 413.552C789.757 414.354 787.457 415.093 785.266 416.037L783.998 414.322Z"/>
	<path fill="#4E1D48" d="M525.803 485.84C528.088 485.72 530.751 484.292 532.893 483.46L534.041 485.447C531.663 486.318 529.092 487.081 526.79 488.116L525.803 485.84Z"/>
	<path fill="#3C5DE9" d="M443.885 512.613L445.556 511.845L448.011 513.378L445.141 514.434L442.393 515.547L439.891 516.269L438.707 514.569L440.435 513.495C441.603 513.401 442.763 512.946 443.885 512.613Z"/>
	<path fill="#1B2040" d="M248.805 548.986C251.145 548.078 253.521 547.305 255.905 546.521C256.197 547.087 256.521 547.869 256.894 548.377L249.529 551.067L248.805 548.986Z"/>
	<path fill="#3C5DE9" d="M470.446 289.786C472.479 288.976 474.547 287.917 476.759 287.844C477.357 288.732 477.27 288.322 477.323 288.968C476.122 289.139 476.188 289.169 475.406 290.112L471.394 291.354L468.951 292.456L467.942 291.815L467.908 290.591L470.446 289.786Z"/>
	<path fill="#1B2040" d="M373.056 503.975C375.837 502.523 379.102 501.553 382.046 500.435L383.667 502.211C382.354 502.647 380.969 503.219 379.629 503.535L378.021 504.101L376.48 504.724C375.113 503.871 374.59 503.863 373.056 503.975Z"/>
	<path fill="#3C5DE9" d="M378.021 504.101L377.932 502.744L378.655 502.582L379.629 503.535L378.021 504.101Z"/>
	<path fill="#3C5DE9" d="M373.056 503.975C374.59 503.863 375.113 503.871 376.48 504.724L373.49 505.983C371.932 506.534 370.259 507.01 368.809 507.796L367.113 508.173L365.714 506.593L368.418 505.41C369.657 505.151 371.026 504.532 372.235 504.118L373.056 503.975Z"/>
	<path fill="#3C5DE9" d="M449.944 475.433C452.946 474.914 456.041 473.431 458.889 472.335L459.677 474.16C456.68 475.303 453.337 476.291 450.51 477.776L449.944 475.433Z"/>
	<path fill="#321D47" d="M756.975 399.099L757.876 401.103L752.498 403.164L749.253 404.386L747.874 402.649L752.5 400.769L756.975 399.099Z"/>
	<path fill="#3C5DE9" d="M581.536 247.877C584.475 246.613 587.533 245.552 590.524 244.412L591.243 246.428C588.759 247.338 585.373 248.175 583.184 249.574L581.536 247.877Z"/>
	<path fill="#1B2040" d="M356.89 509.52C359.84 508.932 362.864 507.594 365.714 506.593L367.113 508.173C364.001 509.317 360.714 510.324 357.686 511.654L356.89 509.52Z"/>
	<path fill="#1B2040" d="M445.556 511.845C449.005 510.835 452.431 509.376 455.813 508.142L456.597 510.081L448.011 513.378L445.556 511.845Z"/>
	<path fill="#3C5DE9" d="M758.918 423.864C760.306 423.143 761.883 422.608 763.335 422.014L763.506 424.266C762.339 424.698 761.013 425.05 759.963 425.713L757.883 426.242L754.953 427.371C754.112 426.838 753.191 426.492 752.279 426.1L757.431 424.205L758.918 423.864Z"/>
	<path fill="#3C5DE9" d="M610.834 394.505L616.37 392.523L617.854 394.492L612.783 396.303L608.439 397.846L606.502 396.181L610.834 394.505Z"/>
	<path fill="#1B2040" d="M766.457 395.7L767.934 397.484C764.58 398.674 761.19 399.807 757.876 401.103L756.975 399.099L766.457 395.7Z"/>
	<path fill="#3C5DE9" d="M581.403 490.654C583.806 489.63 586.02 488.487 588.68 488.485L589.21 488.969C587.762 490.894 584.848 491.557 582.672 492.309L579.972 493.253L577.844 492.109C579.002 491.573 580.219 491.132 581.403 490.654Z"/>
	<path fill="#1B2040" d="M516.131 489.857L520.855 488.144L521.611 490.042L516.239 492.309C514.801 492.984 513.643 493.718 512.005 493.39L511.783 492.617C512.914 490.913 514.269 490.554 516.131 489.857Z"/>
	<path fill="#3C5DE9" d="M415.116 310.126L424.516 306.701L426.141 308.366L415.284 312.233L415.116 310.126Z"/>
	<path fill="#3C5DE9" d="M601.726 240.333L609.43 237.6L609.589 239.68L604.682 241.399C602.744 242.139 600.554 242.768 598.738 243.752L598.161 241.461C599.366 241.23 600.562 240.727 601.726 240.333Z"/>
	<path fill="#321D47" d="M795.515 409.805C797.533 408.972 799.149 408.146 801.387 408.397L801.822 408.942C800.848 410.21 799.915 410.449 798.507 411.02C798.161 411.16 797.818 411.31 797.473 411.454L794.868 412.359L792.004 413.552L790.48 411.715L793.477 410.626L795.515 409.805Z"/>
	<path fill="#1B2040" d="M559.438 498.657L571.488 494.198L571.762 496.42Q566.545 498.286 561.375 500.276L559.438 498.657Z"/>
	<path fill="#3C5DE9" d="M350.212 547.092C353.456 546.125 356.664 544.815 359.853 543.669L361.882 545.39C358.441 546.584 354.661 547.606 351.439 549.288L350.212 547.092Z"/>
	<path fill="#4E1D48" d="M537.774 507.173L541.394 505.668L542.803 507.302L539.638 508.524C536.814 509.572 533.944 510.556 531.163 511.708L529.576 510.079C532.29 509.049 534.984 507.981 537.774 507.173Z"/>
	<path fill="#1B2040" d="M708.267 442.27C711.84 441.119 715.361 439.844 718.886 438.555L720.622 440.163L712.056 443.356L709.293 444.36L708.267 442.27Z"/>
	<path fill="#3C5DE9" d="M708.267 442.27L712.056 443.356L709.293 444.36L708.267 442.27Z"/>
	<path fill="#3C5DE9" d="M628.581 416.061L630.051 417.809L617.473 422.493L617.736 420.179L628.581 416.061Z"/>
	<path fill="#3C5DE9" d="M277.972 573.61C281.846 572.352 285.653 570.863 289.471 569.445L290.59 571.484L279.882 575.332L277.972 573.61Z"/>
	<path fill="#321D47" d="M735.564 407.295C738.922 405.59 742.796 404.434 746.326 403.09C746.72 403.977 746.993 404.258 746.885 405.244C744.635 406.082 742.347 407.087 740.018 407.664L739.467 407.881L736.733 408.957L735.981 409.156C735.48 408.665 735.21 408.191 734.851 407.593L735.564 407.295Z"/>
	<path fill="#1B2040" d="M734.851 407.593L735.564 407.295C735.977 407.839 736.413 408.351 736.733 408.957L735.981 409.156C735.48 408.665 735.21 408.191 734.851 407.593Z"/>
	<path fill="#3C5DE9" d="M235.387 614.061L240.779 612.084L241.943 613.973C239.991 614.668 237.907 615.266 236.024 616.119C233.929 617.029 232.057 618.147 229.723 617.661L229.64 616.897C231.25 615.251 233.26 614.776 235.387 614.061Z"/>
	<path fill="#3C5DE9" d="M761.905 180.025C766.875 178.376 771.793 176.4 776.707 174.581L777.828 176.29C774.062 177.693 770.227 179.381 766.356 180.441L761.905 180.025Z"/>
	<path fill="#3C5DE9" d="M634.965 413.765C636.967 412.9 638.791 411.894 641.021 412.01L641.609 412.508C640.574 414.202 638.204 414.785 636.416 415.41L633.949 416.392C632.919 416.776 631.751 417.091 630.824 417.677L630.051 417.809L628.581 416.061L629.719 415.339C630.77 415.257 631.47 414.911 632.452 414.524L634.965 413.765Z"/>
	<path fill="#321D47" d="M775.566 392.548L779.62 391.124L780.844 392.907L776.555 394.294Q772.221 395.825 767.934 397.484L766.457 395.7C769.38 394.437 772.541 393.549 775.566 392.548Z"/>
	<path fill="#3C5DE9" d="M475.576 432.217Q476.121 435.66 476.526 439.123C476.903 437.106 476.809 434.825 477.438 432.918Q477.524 436.853 477.527 440.789L467.907 444.438L466.158 442.635C469.22 441.319 472.353 440.176 475.47 439L475.576 432.217Z"/>
	<path fill="#1B2040" d="M340.06 516.037L355.823 510.192C355.553 511.597 355.478 511.716 354.476 512.742L342.119 517.385L340.06 516.037Z"/>
	<path fill="#321D47" d="M551.5 501.691L559.438 498.657L561.375 500.276C558.717 501.282 556.033 502.246 553.394 503.3L547.012 505.653L546.436 503.626L551.5 501.691Z"/>
	<path fill="#3C5DE9" d="M537.618 450.202C542.189 447.921 547.528 446.311 552.329 444.458L553.07 446.364L537.125 452.277L537.618 450.202Z"/>
	<path fill="#3C5DE9" d="M359.853 543.669Q366.453 541.251 373.135 539.07C374.203 540.106 374.526 540.006 376.026 540.218Q369.007 542.948 361.882 545.39L359.853 543.669Z"/>
	<path fill="#3C5DE9" d="M234.935 554.187Q241.809 551.424 248.805 548.986L249.529 551.067Q242.093 553.705 234.691 556.435L234.935 554.187Z"/>
	<path fill="#3C5DE9" d="M257.94 605.636L258.589 605.335C259.632 605.841 259.861 605.919 260.538 606.914L259.817 607.08C255.511 609.036 251.022 610.612 246.597 612.278L245.306 610.377C249.552 609.027 253.73 607.138 257.94 605.636Z"/>
	<path fill="#3C5DE9" d="M257.94 605.636L258.589 605.335C259.632 605.841 259.861 605.919 260.538 606.914L259.817 607.08L258.481 606.762L257.94 605.636Z"/>
	<path fill="#1B2040" d="M289.471 569.445C294.017 567.728 298.716 565.571 303.459 564.519C303.796 565.086 304.039 565.514 304.518 565.976C300.103 568.209 295.223 569.751 290.59 571.484L289.471 569.445Z"/>
	<path fill="#3C5DE9" d="M458.889 472.335C463.699 470.453 469.844 467.039 474.96 466.732L475.25 467.357C471.819 470.852 464.264 472.346 459.677 474.16L458.889 472.335Z"/>
	<path fill="#1B2040" d="M526.473 511.323L528.121 512.857L523.718 514.545L520.564 515.857L517.443 516.945C515.696 517.808 514.615 518.298 512.687 517.993L512.387 517.26C513.224 515.984 514.595 515.711 515.964 515.226L518.975 514.016L524.387 512.092L526.473 511.323Z"/>
	<path fill="#4E1D48" d="M788.374 388.058C792.471 386.464 797.163 384.014 801.51 383.371L802.062 383.857C800.416 387.056 792.668 388.706 789.204 390.002L787.129 390.843C786.554 390.132 785.803 389.494 785.151 388.848C786.35 388.893 787.259 388.456 788.374 388.058Z"/>
	<path fill="#3C5DE9" d="M505.559 731.337C505.772 733.328 505.918 735.343 506.299 737.309C507.114 736.326 506.954 734.622 507.072 733.349C507.395 736.934 506.547 744.76 507.914 747.48L511.035 747.798L509.515 749.369C508.447 750.108 506.714 750.57 505.48 751.05L505.559 731.337Z"/>
	<path fill="#1B2040" d="M702.583 444.509C704.515 443.874 706.388 443.045 708.267 442.27L709.293 444.36L704.23 446.266L695.862 449.293L693.51 450.177L692.924 448.052L694.002 447.657Q698.32 446.159 702.583 444.509Z"/>
	<path fill="#3C5DE9" d="M679.084 453.069Q685.965 450.452 692.924 448.052L693.51 450.177C689.593 451.602 684.005 452.914 680.568 455.141L679.445 455.37L677.521 455.858L676.944 456.3L675.673 454.456L679.084 453.069Z"/>
	<path fill="#0E1325" d="M209.568 497.73C209.843 499.415 209.956 501.406 210.557 502.993Q210.454 501.537 210.371 500.079C211.512 504.355 210.693 509.056 210.874 513.442L210.791 529.682C210.499 529.986 210.65 529.785 210.425 530.415L210.234 530.964C210.128 530.122 209.729 529.209 209.472 528.393C208.588 518.438 209.414 507.754 209.568 497.73Z"/>
	<path fill="#321D47" d="M539.497 480.951C544.17 478.907 549.037 477.251 553.822 475.487L554.555 477.633C550.079 479.285 545.561 480.867 541.139 482.66L536.891 484.27L534.947 482.706L539.497 480.951Z"/>
	<path fill="#3C5DE9" d="M448.9 476.038L448.733 478.244Q439 481.919 429.201 485.416L426.962 484.175Q437.966 480.2 448.9 476.038Z"/>
	<path fill="#3C5DE9" d="M470.592 502.483C472.329 501.949 474.514 500.975 476.335 501.156L476.433 501.87C475.542 502.682 474.975 503.038 473.818 503.383L473.549 503.482L472.135 504.659L470.431 504.846L461.2 508.333L458.138 509.625L456.597 510.081L455.813 508.142L456.385 507.983C457.512 507.403 458.684 507.036 459.884 506.642C462.419 505.536 465.049 504.591 467.629 503.589L470.592 502.483Z"/>
	<path fill="#3C5DE9" d="M719.861 413.127L725.156 411.036L726.71 412.725L722.104 414.474L719.662 415.305C715.067 416.97 709.542 418.406 705.285 420.701L703.117 419.169C707.844 417.423 712.56 415.64 717.355 414.085L719.861 413.127Z"/>
	<path fill="#3C5DE9" d="M452.564 533.897C457.019 532.123 470.921 525.741 474.949 526.483C473.043 530.19 458.25 532.941 454.148 535.584L452.564 533.897Z"/>
	<path fill="#3C5DE9" d="M526.261 268.763C526.016 269.586 525.904 270.021 525.936 270.897L520.751 273.061L516.977 274.451C513.355 275.791 508.045 277.03 504.924 279.191L503.447 278.934L503.635 277.812C506.871 275.202 512.933 273.735 516.847 272.248L518.543 271.588L526.261 268.763Z"/>
	<path fill="#1B2040" d="M516.418 460.003C515.997 460.196 515.204 460.575 514.779 460.693C513.763 460.976 513.543 460.92 512.717 460.328C513.982 457.959 534.066 451.368 537.618 450.202L537.125 452.277Q527.829 455.715 518.585 459.292L516.418 460.003Z"/>
	<path fill="#3C5DE9" d="M516.418 460.003L516.308 458.829L516.929 458.494L518.585 459.292L516.418 460.003Z"/>
	<path fill="#3C5DE9" d="M591.033 430.091Q604.467 425.357 617.736 420.179L617.473 422.493C609.091 425.544 600.635 428.467 592.345 431.755L591.033 430.091Z"/>
	<path fill="#321D47" d="M729.389 434.53Q738.679 431.091 748.02 427.795L749.547 429.524L747.874 429.967L747.447 430.092C742.222 432.718 736.416 434.045 731.067 436.373C728.852 437.187 726.264 437.863 724.189 438.946C723.518 438.252 722.973 437.875 722.166 437.366C724.509 436.302 726.988 435.456 729.389 434.53Z"/>
	<path fill="#3C5DE9" d="M747.447 430.092L746.769 429.195L747.433 429.178L747.874 429.967L747.447 430.092Z"/>
	<path fill="#3C5DE9" d="M700.783 420.093L703.117 419.169L705.285 420.701L702.832 421.28C699.536 422.906 695.939 424.025 692.477 425.264L688.269 426.698L683.23 428.419C679.493 429.993 675.841 431.728 671.736 431.981L671.863 431.411C673.98 429.563 676.484 428.786 679.08 427.851L683.947 426.007L692.577 423.021C695.288 421.946 698.012 420.999 700.783 420.093Z"/>
	<path fill="#3B4354" d="M693.905 204.644C700.993 201.875 708.191 199.342 715.331 196.708L716.596 198.291L695.135 206.269Q687.01 209.039 678.982 212.079L677.725 210.327L693.905 204.644Z"/>
	<path fill="#3C5DE9" d="M446.401 298.693C453.553 295.946 460.768 293.372 467.908 290.591L467.942 291.815L468.951 292.456C461.777 294.83 454.745 297.583 447.705 300.325C444.848 301.386 441.845 302.329 439.064 303.563C436.089 304.641 433.006 305.621 430.134 306.942L429.041 305.014C432.136 304.201 435.3 302.719 438.312 301.589L446.401 298.693Z"/>
	<path fill="#3C5DE9" d="M579.64 434.259C583.479 433.161 587.284 431.489 591.033 430.091L592.345 431.755Q586.061 434.029 579.805 436.382L572.325 439.287L558.519 444.386L555.737 445.441L553.07 446.364L552.329 444.458L553.767 444.099L557.674 442.431C561.716 440.919 565.746 439.329 569.877 438.075C572.962 436.563 576.422 435.484 579.64 434.259Z"/>
	<path fill="#1B2040" d="M557.12 728.647L558.097 729.373L557.87 730.181C541.967 736.68 525.78 743.882 509.515 749.369L511.035 747.798L507.914 747.48C514.379 745.969 520.791 742.948 526.952 740.493Q541.985 734.441 557.12 728.647Z"/>
	<path fill="#3C5DE9" d="M418.588 487.279L426.962 484.175L429.201 485.416C426.16 486.569 423.099 487.892 420 488.865L418.678 489.191L416.181 490.502C406.825 492.968 393.041 498.522 383.667 502.211L382.046 500.435C392.594 495.994 403.689 492.521 414.474 488.657L417.895 487.612L418.588 487.279Z"/>
	<path fill="#3C5DE9" d="M344.707 548.759C346.025 548.764 347.469 548.137 348.735 547.758L350.319 549.483C348.947 549.967 347.217 550.386 346.024 551.193L344.726 551.5L342.493 552.236L338.769 553.639L331.218 556.434C327.561 557.757 323.847 559 320.24 560.45L317.491 561.478C313.396 562.966 308.77 565.224 304.518 565.976C304.039 565.514 303.796 565.086 303.459 564.519C307.069 562.349 311.743 561.132 315.726 559.738L318.959 558.627Q324.363 556.461 329.898 554.658C332.514 553.574 335.18 552.59 337.819 551.56L341.097 550.436L342.592 549.559L344.707 548.759Z"/>
	<path fill="#3C5DE9" d="M725.728 372.241L732.058 369.85L733.481 371.448L725.772 374.232Q700.921 382.886 676.242 392.017L674.156 390.727C678.371 388.354 684.254 387.107 688.858 385.46L725.728 372.241Z"/>
	<path fill="#3C5DE9" d="M813.494 623.335C813.981 622.728 814.432 622.261 814.6 621.474C815.613 616.709 814.742 594.037 814.73 587.853L814.726 500.08C814.701 496.073 813.608 473.192 814.855 470.617L815.021 629.905C813.174 630.771 811.342 631.681 809.425 632.387C801.142 635.956 792.628 639.023 784.193 642.214L784.314 640.196C792.292 636.436 801.14 633.742 809.326 630.347Q810.944 629.614 812.537 628.827C813.728 627.381 813.45 625.129 813.494 623.335Z"/>
	<path fill="#3C5DE9" d="M267.298 577.465C270.886 576.313 274.427 574.897 277.972 573.61L279.882 575.332L268.479 579.553C264.534 580.973 260.226 582.178 256.448 583.961C249.349 586.437 242.325 589.296 235.163 591.57C233.515 592.094 231.443 592.997 229.889 592.199C230.992 589.996 251.471 583.219 254.594 582.091Q260.965 579.83 267.298 577.465Z"/>
	<path fill="#3C5DE9" d="M429.056 518.065L434.318 516.099C435.179 516.506 436.126 516.872 436.938 517.365C434.92 518.128 432.817 519.108 430.709 519.558L429.281 520.181Q413.101 526.515 396.747 532.387C392.37 534.027 387.812 535.5 383.545 537.396L380.951 538.393L376.026 540.218C374.526 540.006 374.203 540.106 373.135 539.07C375.148 538.07 377.319 537.348 379.421 536.556L381.443 535.704C385.53 534.135 389.65 532.259 393.886 531.165C403.485 526.412 414.734 523.308 424.849 519.667L429.056 518.065Z"/>
	<path fill="#3C5DE9" d="M668.424 295.659C668.55 294.285 668.488 291.933 669.132 290.774L668.789 291.937L669.174 290.846C669.707 297.595 668.374 305.276 669.906 311.788Q670.097 334.957 670.021 358.127C670.027 365.764 670.675 373.893 670.081 381.458Q670.425 386.541 670.586 391.634L671.689 393.81C670.592 393.978 669.955 394.111 668.918 393.663C668.056 392.398 668.468 390.618 668.565 389.158C667.767 373.563 668.27 357.647 668.267 342.025C668.264 326.619 667.755 311.032 668.424 295.659Z"/>
	<path fill="#3C5DE9" d="M673.015 212.093L677.725 210.327L678.982 212.079L675.229 213.462L672.953 214.259L670.416 215.164C668.847 219.713 669.874 238.404 669.885 244.606C669.925 266.976 670.367 289.425 669.906 311.788C668.374 305.276 669.707 297.595 669.174 290.846L668.789 291.937L669.132 290.774C668.488 291.933 668.55 294.285 668.424 295.659C667.298 286.327 668.173 271.886 668.167 262.148C668.159 246.622 667.372 230.727 668.254 215.264C668.29 214.627 668.465 214.251 668.83 213.738L673.015 212.093Z"/>
	<path fill="#3C5DE9" d="M337.144 517.229L340.06 516.037L342.119 517.385L334.484 520.095C330.557 521.462 326.582 522.752 322.698 524.233C315.876 526.641 308.943 529.784 301.995 531.662L301.41 531.847L298.862 533.052C296.93 533.728 294.878 534.311 293.011 535.139Q286.989 537.331 280.91 539.359L273.516 542.21L270.146 543.476L256.894 548.377C256.521 547.869 256.197 547.087 255.905 546.521C260.159 544.633 264.76 543.241 269.145 541.665L272.955 540.149L278.027 538.244L292.402 533.036L297.959 531.063L321.23 522.659C326.506 520.761 331.762 518.81 337.144 517.229Z"/>
	<path fill="#3C5DE9" d="M623.554 449.982C630.277 447.031 637.806 443.616 645.163 442.94C638.858 446.84 631.819 448.375 625.207 451.512L622.863 452.262L620.064 453.392L617.442 454.353C616.353 454.809 615.137 455.208 614.108 455.775L612.475 456.183L603.957 459.366L601.419 460.219C598.516 461.29 595.565 462.299 592.703 463.471L587.036 465.533L579.48 468.301C578.32 468.756 577.034 469.131 575.999 469.824L574.544 469.946L573.934 470.141C569.889 472.026 565.572 473.416 561.378 474.937L557.986 476.307L556.465 474.477L560.072 473.152C564.352 471.524 568.633 469.731 573.054 468.529L574.476 467.369C575.677 467.361 576.746 466.924 577.885 466.571L585.891 463.529L591.394 461.501L600.899 458.15L601.969 457.642L611.984 454.065L613.383 453.577L616.454 452.582L617.071 452.352C618.811 451.553 620.653 450.917 622.438 450.222L623.554 449.982Z"/>
	<path fill="#1B2040" d="M210.791 529.682C210.815 532.202 210.806 534.489 211.581 536.923L211.413 597.586C211.383 606.444 212.552 627.513 210.317 634.888L209.682 634.082L209.905 635.3L210.287 634.78L209.649 634.329C208.314 620.984 209.324 603.02 209.347 589.32C209.382 569.091 208.684 548.594 209.472 528.393C209.729 529.209 210.128 530.122 210.234 530.964L210.425 530.415C210.65 529.785 210.499 529.986 210.791 529.682Z"/>
	<path fill="#020205" d="M505.399 584.283L507.021 585.659L507.053 685.648L507.079 717.589C507.087 722.784 507.392 728.173 507.072 733.349C506.954 734.622 507.114 736.326 506.299 737.309C505.918 735.343 505.772 733.328 505.559 731.337C504.737 715.508 505.523 699.179 505.512 683.31L505.399 584.283Z"/>
	<path fill="#1B2040" d="M810.464 464.687C812.064 464.116 812.831 463.606 814.516 463.971C815.463 465.874 814.925 468.484 814.855 470.617C813.608 473.192 814.701 496.073 814.726 500.08L814.73 587.853C814.742 594.037 815.613 616.709 814.6 621.474C814.432 622.261 813.981 622.728 813.494 623.335C812.431 604.938 813.265 586.018 813.273 567.561L813.101 466.117C811.735 465.778 811.495 465.646 810.464 464.687Z"/>
	<path fill="#1B2040" d="M644.014 224.728L645.237 224.538C647.124 226.765 646.035 235.793 645.952 238.785C646.609 262.509 646.162 286.391 646.138 310.132C646.119 330.133 646.629 350.313 645.934 370.294C642.699 360.638 645.582 346.295 644.418 335.746C643.955 331.758 644.31 327.336 644.311 323.295L644.33 297.82L644.325 260.2C644.321 252.951 644.059 245.585 644.467 238.351C644.244 235.387 645.136 229.83 643.796 227.36L640.924 226.119L644.014 224.728Z"/>
	<path fill="#1B2040" d="M209.59 479.8C208.7 457.487 209.507 433.739 209.505 411.306C209.505 406.768 208.732 388.196 209.621 385.024C209.846 384.222 210.265 384.265 210.954 383.93L211.999 385.014C210.747 390.986 211.582 398.5 211.609 404.641C211.687 421.712 212.572 439.23 211.49 456.235C212.272 475.081 211.817 494.456 211.383 513.322L210.874 513.442C210.693 509.056 211.512 504.355 210.371 500.079Q210.454 501.537 210.557 502.993C209.956 501.406 209.843 499.415 209.568 497.73C209.018 491.921 209.448 485.643 209.59 479.8Z"/>
	<path fill="#3C5DE9" d="M682.124 679.567L689.667 676.605L690.963 678.243C688.729 679.141 686.464 680.209 684.149 680.864C671.593 686.029 658.763 690.546 646.12 695.498L557.87 730.181L558.097 729.373L557.12 728.647C560.754 726.798 564.932 725.489 568.737 723.991L589.911 715.552C620.541 703.292 651.539 691.917 682.124 679.567Z"/>
	<path fill="#020205" d="M503.447 278.934L504.924 279.191C505.443 307.128 504.986 335.136 504.995 363.081L505.092 392.171C505.119 396.984 505.492 402.014 505.088 406.791C505.652 415.746 505.728 425.091 505.325 434.062C507.688 434.677 513.588 431.653 515.937 430.75L517.043 432.203L506.971 436.441C505.745 436.811 504.921 437.377 503.716 436.843C502.556 428.109 503.466 418.353 503.572 409.49C502.807 395.715 503.455 381.538 503.436 367.726L503.447 278.934Z"/>
	<path fill="#3C5DE9" d="M505.088 406.791C505.652 415.746 505.728 425.091 505.325 434.062C507.688 434.677 513.588 431.653 515.937 430.75L517.043 432.203L506.971 436.441C505.745 436.811 504.921 437.377 503.716 436.843C502.556 428.109 503.466 418.353 503.572 409.49C504.564 416.448 503.442 423.691 504.404 430.681C505.736 423.118 504.422 415.082 505.033 407.415L505.088 406.791Z"/>
	<path fill="#3C5DE9" d="M664.835 519.203C680.686 512.602 697.175 507.084 713.247 501.019L810.464 464.687C811.495 465.646 811.735 465.778 813.101 466.117C792.28 472.43 771.951 481.12 751.54 488.682C723.335 499.132 694.661 509 666.778 520.263L664.835 519.203Z"/>
	<path fill="#3C5DE9" d="M411.089 311.659L415.116 310.126L415.284 312.233L411.828 313.534L409.433 314.386L331.788 342.819C319.144 347.357 305.387 351.004 293.172 356.542L272.541 364.31L258.822 369.121L256.731 367.776Q264.062 365.132 271.453 362.658Q281.387 358.833 291.439 355.332C304.278 349.938 317.907 345.78 331.027 341.091Q369.941 327.248 408.531 312.525L411.089 311.659Z"/>
	<path fill="#3C5DE9" d="M426.735 543.193C429.551 542.134 432.354 541.159 435.239 540.302L436.098 542.056L428.374 544.909L419.223 548.354L416.106 549.401L412.185 550.967L405.128 553.538L398.193 556.037C396.893 556.556 395.409 557.016 394.176 557.662L392.151 558.272L385.2 560.935L375.955 564.457L367.037 567.809C361.043 570.002 355.009 572.127 349.068 574.458C346.508 575.375 343.069 576.209 340.816 577.653L339.534 577.903L333.208 580.345L326.193 582.975L322.284 584.395C301.693 591.651 281.364 600.472 260.538 606.914C259.861 605.919 259.632 605.841 258.589 605.335C268.936 601.124 279.617 597.511 290.106 593.66C300.286 589.922 310.482 585.826 320.846 582.636L324.984 581.03Q328.416 579.811 331.874 578.667L338.054 576.075L339.368 575.679C342.156 574.587 344.924 573.433 347.821 572.656C353.567 569.914 359.966 567.947 365.946 565.721Q370.228 564.241 374.487 562.697C377.578 561.414 380.734 560.256 383.855 559.045L390.434 556.596L393.463 555.471L397.53 553.997L403.851 551.628L410.955 548.968L413.485 547.955C414.96 547.561 416.406 547.091 417.859 546.625C420.775 545.397 423.78 544.328 426.735 543.193Z"/>
	<path fill="#3C5DE9" d="M809.885 162.645C811.463 162.079 812.872 161.431 814.582 161.62C816.091 163.994 815.35 175.742 815.146 179.025C815.53 194.977 815.234 210.97 815.314 226.928Q815.694 284.365 815.396 341.803C808.275 346.47 790.175 351.504 781.409 354.527Q757.354 362.729 733.481 371.448L732.058 369.85Q773.022 356.052 813.572 341.082L813.697 318.394C813.66 302.257 814.338 166.595 812.955 164.092L811.474 164.041C805.012 166.911 798.088 169.049 791.419 171.41L789.126 172.292L787.614 170.502L790.029 169.793C796.432 167.048 803.305 164.951 809.885 162.645Z"/>
	<path fill="#FEFEFE" d="M617.858 234.501C625.575 231.843 633.104 228.46 640.924 226.119L643.796 227.36C645.136 229.83 644.244 235.387 644.467 238.351C644.059 245.585 644.321 252.951 644.325 260.2L644.33 297.82L644.311 323.295C644.31 327.336 643.955 331.758 644.418 335.746C645.582 346.295 642.699 360.638 645.934 370.294Q646.129 376.875 646.006 383.458C638.016 387.567 629.303 389.878 621.029 393.272L617.854 394.492L616.37 392.523L610.834 394.505L606.502 396.181L604.972 396.412L604.507 396.657C604.433 397.611 604.393 398.579 604.262 399.526C603.372 399.164 602.935 398.847 602.284 398.14C601.499 398.252 600.799 398.347 600.042 398.593L601.166 400.421L588.307 405.166C581.717 407.667 574.855 409.917 568.422 412.776C567.674 413.077 566.843 413.338 566.138 413.722L564.539 414.154L556.193 417.423L553.394 418.397L548.367 420.376L540.207 423.54L539.735 423.677L535.826 425.305L527.548 428.247L517.043 432.203L515.937 430.75C513.588 431.653 507.688 434.677 505.325 434.062C505.728 425.091 505.652 415.746 505.088 406.791C505.492 402.014 505.119 396.984 505.092 392.171L504.995 363.081C504.986 335.136 505.443 307.128 504.924 279.191C508.045 277.03 513.355 275.791 516.977 274.451L520.751 273.061L525.936 270.897C525.904 270.021 526.016 269.586 526.261 268.763C534.969 264.991 544.235 261.929 553.142 258.653C558.326 256.456 563.665 254.596 568.946 252.645L580.469 248.212L581.536 247.877L583.184 249.574C585.373 248.175 588.759 247.338 591.243 246.428L596.76 244.247L598.738 243.752C600.554 242.768 602.744 242.139 604.682 241.399L609.589 239.68L609.43 237.6L617.858 234.501Z"/>
	<path fill="#3C5DE9" d="M581.536 247.877L583.184 249.574L580.85 250.238L580.469 248.212L581.536 247.877Z"/>
	<path fill="#3C5DE9" d="M602.284 398.14L602.785 395.116C603.397 396.206 603.342 396.239 604.507 396.657C604.433 397.611 604.393 398.579 604.262 399.526C603.372 399.164 602.935 398.847 602.284 398.14Z"/>
	<path fill="#1B2040" d="M565.279 411.665L568.572 410.468L568.422 412.776C567.674 413.077 566.843 413.338 566.138 413.722L564.539 414.154L563.894 412.08L565.279 411.665Z"/>
	<path fill="#3C5DE9" d="M563.894 412.08L565.279 411.665L566.138 413.722L564.539 414.154L563.894 412.08Z"/>
	<path fill="#0E1325" d="M602.863 388.976L605.055 388.569C605.037 391.164 605.128 393.825 604.972 396.412L604.507 396.657C603.342 396.239 603.397 396.206 602.785 395.116L602.863 388.976Z"/>
	<path fill="#3B4354" d="M609.43 237.6L617.858 234.501L618.438 236.372C615.513 237.461 612.44 238.426 609.589 239.68L609.43 237.6Z"/>
	<path fill="#1B2040" d="M515.937 430.75L526.643 426.394L527.548 428.247L517.043 432.203L515.937 430.75Z"/>
	<path fill="#1B2040" d="M553.769 415.796C557.175 414.662 560.53 413.334 563.894 412.08L564.539 414.154L556.193 417.423C555.394 416.712 554.698 416.308 553.769 415.796Z"/>
	<path fill="#0E1325" d="M602.759 301.539L604.938 302.139L605.013 310.187L604.175 308.163C603.386 308.955 603.576 311.261 603.577 312.401C603.58 316.387 604.091 320.926 603.098 324.795C602.863 317.049 603.022 309.292 602.759 301.539Z"/>
	<path fill="#3C5DE9" d="M568.946 252.645L580.469 248.212L580.85 250.238L569.991 254.405L568.946 252.645Z"/>
	<path fill="#1B2040" d="M588.307 405.166C587.972 404.761 587.747 404.517 587.473 404.038C586.22 401.845 586.721 399.886 587.493 397.656C587.543 399.156 587.301 401.555 588.052 402.797C592.102 401.516 596.072 400.101 600.042 398.593L601.166 400.421L588.307 405.166Z"/>
	<path fill="#3B4354" d="M553.142 258.653C558.326 256.456 563.665 254.596 568.946 252.645L569.991 254.405L568.197 254.953C567.392 255.223 566.409 255.692 565.584 255.808Q559.809 258.251 553.878 260.285L554.146 259.384L553.142 258.653Z"/>
	<path fill="#3C5DE9" d="M565.584 255.808C565.373 254.818 565.285 255.256 565.723 254.475L568.197 254.953C567.392 255.223 566.409 255.692 565.584 255.808Z"/>
	<path fill="#3C5DE9" d="M617.858 234.501C625.575 231.843 633.104 228.46 640.924 226.119L643.796 227.36C635.302 229.234 626.581 233.303 618.438 236.372L617.858 234.501Z"/>
	<path fill="#3C5DE9" d="M553.142 258.653L554.146 259.384L553.878 260.285L525.936 270.897C525.904 270.021 526.016 269.586 526.261 268.763C534.969 264.991 544.235 261.929 553.142 258.653Z"/>
	<path fill="#3C5DE9" d="M643.985 382.045C644.038 366.691 643.491 351.055 644.418 335.746C645.582 346.295 642.699 360.638 645.934 370.294Q646.129 376.875 646.006 383.458C638.016 387.567 629.303 389.878 621.029 393.272L621.531 390.174C629.083 388.845 636.868 384.932 643.985 382.045Z"/>
	<path fill="#3C5DE9" d="M549.03 369.707C550.379 369.193 551.62 368.515 553.084 368.867C554.584 379.098 553.444 393.595 553.399 404.188C553.384 407.809 552.948 412.304 553.769 415.796C554.698 416.308 555.394 416.712 556.193 417.423L553.394 418.397L552.134 417.791C551.858 416.898 551.627 416.012 551.418 415.102C550.618 409.881 551.086 403.963 551.106 398.671C551.135 390.934 550.971 383.132 551.409 375.406C551.302 373.98 551.437 372.446 551.468 371.011C550.653 370.375 549.977 370.116 549.03 369.707Z"/>
	<path fill="#0E1325" d="M551.678 390.214C551.702 390.056 551.727 389.897 551.748 389.738C552.387 384.91 551.813 379.977 552.206 375.121C552.226 380.198 551.194 390.331 552.912 394.765Q553.106 404.721 552.329 414.648C551.45 406.474 551.553 398.424 551.678 390.214Z"/>
	<path fill="#020205" d="M549.03 369.707C550.379 369.193 551.62 368.515 553.084 368.867C552.46 377.403 552.851 386.2 552.912 394.765C551.194 390.331 552.226 380.198 552.206 375.121C551.813 379.977 552.387 384.91 551.748 389.738C551.727 389.897 551.702 390.056 551.678 390.214C551.681 385.283 551.793 380.326 551.409 375.406C551.302 373.98 551.437 372.446 551.468 371.011C550.653 370.375 549.977 370.116 549.03 369.707Z"/>
	<path fill="#3C5DE9" d="M534.213 423.405C534.109 417.351 533.158 377.808 534.879 375.283L536.062 376.907C536.464 381.669 536.554 387.001 536.164 391.759C536.285 397.9 535.511 417.308 536.645 421.859L537.103 422.091L539.152 421.753L540.207 423.54L539.735 423.677L535.826 425.305L527.548 428.247L526.643 426.394L534.213 423.405Z"/>
	<path fill="#1B2040" d="M536.164 391.759C536.285 397.9 535.511 417.308 536.645 421.859L537.103 422.091L539.152 421.753L540.207 423.54L539.735 423.677L535.826 425.305C537.131 419.411 535.765 399.614 536.164 391.759Z"/>
	<path fill="#3C5DE9" d="M539.152 421.753L540.207 423.54L539.735 423.677L537.103 422.091L539.152 421.753Z"/>
	<path fill="#020205" d="M603.098 324.795C604.091 320.926 603.58 316.387 603.577 312.401C603.576 311.261 603.386 308.955 604.175 308.163L605.013 310.187L605.055 388.569L602.863 388.976C603.159 367.587 602.705 346.184 603.098 324.795Z"/>
	<path fill="#3C5DE9" d="M619.918 294.541L621.142 294.9C621.935 297.073 622.065 377.021 621.46 383.216C621.501 385.527 621.621 387.865 621.531 390.174L621.029 393.272L617.854 394.492L616.37 392.523L618.195 391.844C620.766 389.397 619.088 374.187 619.374 369.906L619.421 369.278C618.479 362.745 619.268 354.925 619.281 348.291C619.312 331.179 619.721 313.984 619.237 296.884C619.258 295.874 619.5 295.44 619.918 294.541Z"/>
	<path fill="#1B2040" d="M616.37 392.523L618.195 391.844C620.766 389.397 619.088 374.187 619.374 369.906L619.421 369.278C619.821 373.434 621.282 389.109 619.413 392.256C619.281 392.478 619.16 392.706 619.033 392.931C620.086 392.326 620.319 392.169 620.643 390.886C621.263 388.425 620.711 385.74 621.46 383.216C621.501 385.527 621.621 387.865 621.531 390.174L621.029 393.272L617.854 394.492L616.37 392.523Z"/>
	<path fill="#3C5DE9" d="M534.879 375.283C539.416 373.091 544.315 371.483 549.03 369.707C549.977 370.116 550.653 370.375 551.468 371.011C551.437 372.446 551.302 373.98 551.409 375.406C550.971 383.132 551.135 390.934 551.106 398.671C551.086 403.963 550.618 409.881 551.418 415.102C551.627 416.012 551.858 416.898 552.134 417.791L553.394 418.397L548.367 420.376L540.207 423.54L539.152 421.753L537.103 422.091L536.645 421.859C535.511 417.308 536.285 397.9 536.164 391.759C536.554 387.001 536.464 381.669 536.062 376.907L534.879 375.283Z"/>
	<path fill="#3C5DE9" d="M551.418 415.102C551.627 416.012 551.858 416.898 552.134 417.791L553.394 418.397L548.367 420.376L540.207 423.54L539.152 421.753C541.575 420.45 544.494 419.53 547.06 418.494C547.817 418.249 548.622 418.018 549.339 417.674C550.735 417.005 550.926 416.528 551.418 415.102Z"/>
	<path fill="#3C5DE9" d="M534.879 375.283C539.416 373.091 544.315 371.483 549.03 369.707C549.977 370.116 550.653 370.375 551.468 371.011C546.513 372.836 540.631 374.345 536.062 376.907L534.879 375.283Z"/>
	<path fill="#3C5DE9" d="M610.496 297.712C613.489 296.379 616.641 294.914 619.918 294.541C619.5 295.44 619.258 295.874 619.237 296.884C619.721 313.984 619.312 331.179 619.281 348.291C619.268 354.925 618.479 362.745 619.421 369.278L619.374 369.906C619.088 374.187 620.766 389.397 618.195 391.844L616.37 392.523L610.834 394.505L606.502 396.181L604.972 396.412C605.128 393.825 605.037 391.164 605.055 388.569L605.013 310.187L604.938 302.139L602.759 301.539C604.263 299.81 606.028 299.345 608.115 298.625L610.496 297.712Z"/>
	<path fill="#3C5DE9" d="M608.115 298.625L610.496 297.712L611.752 299.447L608.876 300.347L608.115 298.625Z"/>
	<path fill="#1B2040" d="M602.759 301.539C604.263 299.81 606.028 299.345 608.115 298.625L608.876 300.347L604.938 302.139L602.759 301.539Z"/>
	<path fill="#1B2040" d="M610.496 297.712C613.489 296.379 616.641 294.914 619.918 294.541C619.5 295.44 619.258 295.874 619.237 296.884C616.687 297.64 614.232 298.485 611.752 299.447L610.496 297.712Z"/>
	<path fill="#3C5DE9" d="M581.648 316.562C583.602 315.842 585.527 315.146 587.548 314.626C587.819 333.414 587.653 352.224 587.651 371.014C587.65 379.391 588.512 389.572 587.493 397.656C586.721 399.886 586.22 401.845 587.473 404.038C587.747 404.517 587.972 404.761 588.307 405.166C581.717 407.667 574.855 409.917 568.422 412.776L568.572 410.468L568.653 410.195C569.355 387.85 568.481 365.243 568.376 342.872C568.354 338.187 567.447 326.167 568.549 322.048C568.865 320.866 570.534 320.488 571.53 320.027L575.894 318.611L581.648 316.562Z"/>
	<path fill="#1B2040" d="M571.53 320.027L575.894 318.611L577.478 320.352L572.418 321.864L572.369 320.737L571.53 320.027Z"/>
	<path fill="#3C5DE9" d="M581.648 316.562C583.602 315.842 585.527 315.146 587.548 314.626C587.819 333.414 587.653 352.224 587.651 371.014C587.65 379.391 588.512 389.572 587.493 397.656C586.721 399.886 586.22 401.845 587.473 404.038C587.747 404.517 587.972 404.761 588.307 405.166C581.717 407.667 574.855 409.917 568.422 412.776L568.572 410.468L568.653 410.195C569.355 387.85 568.481 365.243 568.376 342.872C568.354 338.187 567.447 326.167 568.549 322.048C568.865 320.866 570.534 320.488 571.53 320.027L572.369 320.737L572.418 321.864L571.079 322.518C569.225 328.043 571.134 355.496 570.491 363.886C570.636 378.985 571.167 394.307 570.515 409.382Q577.971 406.545 585.483 403.859C585.415 394.617 586.198 320.565 584.985 318.236L583.514 318.05C581.517 318.878 579.534 319.677 577.478 320.352L575.894 318.611L581.648 316.562Z"/>
	<path fill="#020205" d="M570.491 363.886C570.636 378.985 571.167 394.307 570.515 409.382L569.199 409.176C569.269 403.382 568.227 367.761 569.388 365.422C569.668 364.857 570.123 364.398 570.491 363.886Z"/>
	<path fill="#FEFEFE" d="M811.474 164.041L812.955 164.092C814.338 166.595 813.66 302.257 813.697 318.394L813.572 341.082Q773.022 356.052 732.058 369.85L725.728 372.241L688.858 385.46C684.254 387.107 678.371 388.354 674.156 390.727L670.586 391.634Q670.425 386.541 670.081 381.458C670.675 373.893 670.027 365.764 670.021 358.127Q670.097 334.957 669.906 311.788C670.367 289.425 669.925 266.976 669.885 244.606C669.874 238.404 668.847 219.713 670.416 215.164L672.953 214.259L675.229 213.462L678.982 212.079Q687.01 209.039 695.135 206.269L716.596 198.291L718.148 197.774L718.356 195.52C720.973 194.372 723.85 193.547 726.553 192.595C730.183 190.833 734.27 189.636 738.068 188.254L743.071 186.572C747.245 185.248 751.36 183.642 755.483 182.163L757.297 181.304C758.761 181.297 760.498 180.495 761.905 180.025L766.356 180.441C770.227 179.381 774.062 177.693 777.828 176.29L780.062 175.608L783.657 174.206L785.051 173.754L789.126 172.292L791.419 171.41C798.088 169.049 805.012 166.911 811.474 164.041Z"/>
	<path fill="#3B4354" d="M738.068 188.254L743.071 186.572L744.732 188.237C742.903 188.794 740.61 189.184 739.26 190.601C738.666 191.91 738.736 192.976 738.776 194.371C737.518 192.79 739.028 190.272 738.068 188.254Z"/>
	<path fill="#3C5DE9" d="M757.297 181.304C758.761 181.297 760.498 180.495 761.905 180.025L766.356 180.441C763.507 181.5 760.323 182.408 757.632 183.791L755.845 184.226L744.732 188.237L743.071 186.572C747.245 185.248 751.36 183.642 755.483 182.163L757.297 181.304Z"/>
	<path fill="#0E1325" d="M779.794 267.052C785.425 264.528 791.332 262.478 797.02 260.039L796.265 268.144L794.552 268.26C794.576 266.638 794.927 265.541 793.922 264.229C790.116 263.641 785.363 266.704 781.774 268.054C781.314 271.137 780.889 274.229 780.286 277.288L778.661 276.714C779.232 273.523 779.474 270.276 779.794 267.052Z"/>
	<path fill="#3C5DE9" d="M726.553 192.595C730.183 190.833 734.27 189.636 738.068 188.254C739.028 190.272 737.518 192.79 738.776 194.371L738.852 199.615L738.122 198.56C736.486 201.183 738.15 206.437 737.387 209.566C736.642 203.53 737.038 197.017 737.025 190.924C733.407 192.001 729.892 193.351 726.358 194.675C723.636 195.69 720.803 196.605 718.148 197.774L718.356 195.52C720.973 194.372 723.85 193.547 726.553 192.595Z"/>
	<path fill="#1B2040" d="M737.387 209.566C738.15 206.437 736.486 201.183 738.122 198.56L738.852 199.615Q738.967 215.481 738.691 231.345C724.467 238.39 713.787 251.195 708.651 266.233C707.003 271.061 706.959 276.709 705.234 281.357L703.799 280.482C704.587 275.474 705.452 270.563 707.046 265.738C711.901 251.04 723.146 237.026 737.003 229.996C737.072 224.134 737.014 218.266 737.012 212.403Q736.31 212.704 735.614 213.019C713.754 222.818 701.156 243.372 692.887 264.986L691.683 263.344C691.724 263.174 691.758 263.003 691.805 262.835C696.015 247.744 708.397 229.807 720.595 220.093C725.787 215.959 731.628 212.822 737.387 209.566Z"/>
	<path fill="#3C5DE9" d="M691.683 263.344L692.887 264.986C686.52 284.218 685.025 304.953 694.338 323.591C698.987 332.893 706.25 340.165 716.244 343.465C727.535 347.192 738.61 344.539 748.948 339.274C770.629 328.229 783.875 307.193 791.125 284.55C792.851 279.159 794.031 273.896 794.552 268.26L796.265 268.144C795.533 274.853 794.131 281.243 791.971 287.644C784.49 309.809 770.286 330.763 748.839 341.215C738.068 346.464 726.323 348.889 714.743 344.831C704.348 341.19 696.883 333.144 692.239 323.354C683.367 304.655 684.796 282.389 691.683 263.344Z"/>
	<path fill="#3C5DE9" d="M756.281 198.669C757.127 198.606 757.998 198.642 758.844 198.671C768.216 198.988 776.773 203.84 783.029 210.6C792.905 221.271 796.634 235.832 796.156 250.09C793.037 251.607 789.817 252.728 786.547 253.87L779.649 256.786C779.231 248.336 776.687 239.84 770.58 233.726C764.206 227.345 756.773 225.381 747.984 225.441L747.951 200.332C750.736 199.539 753.415 199.052 756.281 198.669Z"/>
	<path fill="#FEFEFE" d="M692.887 264.986C701.156 243.372 713.754 222.818 735.614 213.019Q736.31 212.704 737.012 212.403C737.014 218.266 737.072 224.134 737.003 229.996C723.146 237.026 711.901 251.04 707.046 265.738C705.452 270.563 704.587 275.474 703.799 280.482L705.234 281.357C704.36 292.974 705.425 305.085 713.313 314.344C716.803 318.441 721.025 320.789 725.986 322.741C734.225 324.61 742.021 323.233 749.318 319.031C764.5 310.289 774.29 293.203 778.661 276.714L780.286 277.288C780.889 274.229 781.314 271.137 781.774 268.054C785.363 266.704 790.116 263.641 793.922 264.229C794.927 265.541 794.576 266.638 794.552 268.26C794.031 273.896 792.851 279.159 791.125 284.55C783.875 307.193 770.629 328.229 748.948 339.274C738.61 344.539 727.535 347.192 716.244 343.465C706.25 340.165 698.987 332.893 694.338 323.591C685.025 304.953 686.52 284.218 692.887 264.986Z"/>
	<path fill="#3C5DE9" d="M703.799 280.482L705.234 281.357C704.36 292.974 705.425 305.085 713.313 314.344C716.803 318.441 721.025 320.789 725.986 322.741L726.406 324.783C720.633 323.252 715.737 320.259 711.892 315.634C703.608 305.669 702.556 292.86 703.799 280.482Z"/>
	<path fill="#1B2040" d="M778.661 276.714L780.286 277.288C775.329 294.81 766.03 311.453 749.649 320.651C742.59 324.615 734.425 326.737 726.406 324.783L725.986 322.741C734.225 324.61 742.021 323.233 749.318 319.031C764.5 310.289 774.29 293.203 778.661 276.714Z"/>
	<path fill="#FEFEFE" d="M475.406 290.112C476.188 289.169 476.122 289.139 477.323 288.968L477.467 374.417C477.483 388.956 477.762 403.551 477.479 418.086C477.512 423.022 477.653 427.986 477.438 432.918C476.809 434.825 476.903 437.106 476.526 439.123Q476.121 435.66 475.576 432.217L475.47 439C472.353 440.176 469.22 441.319 466.158 442.635L467.907 444.438Q371.698 480.361 274.871 514.588L238.803 527.348C233.888 529.1 227.76 532.145 222.626 532.856C220.412 533.694 218.204 534.595 215.968 535.372C214.513 535.896 213.058 536.465 211.581 536.923C210.806 534.489 210.815 532.202 210.791 529.682L210.874 513.442L211.383 513.322C211.817 494.456 212.272 475.081 211.49 456.235C212.572 439.23 211.687 421.712 211.609 404.641C211.582 398.5 210.747 390.986 211.999 385.014L210.954 383.93C213.756 382.476 217.148 381.615 220.15 380.596L222.915 379.461C224.188 379.328 225.771 378.588 227.006 378.168L227.672 378.082C235.072 375.333 242.621 372.945 250.041 370.229L256.731 367.776L258.822 369.121L272.541 364.31L293.172 356.542C305.387 351.004 319.144 347.357 331.788 342.819L409.433 314.386L411.828 313.534L415.284 312.233L426.141 308.366L430.134 306.942C433.006 305.621 436.089 304.641 439.064 303.563C441.845 302.329 444.848 301.386 447.705 300.325C454.745 297.583 461.777 294.83 468.951 292.456L471.394 291.354L475.406 290.112Z"/>
	<path fill="#1B2040" d="M220.18 522.106L220.642 519.5L222.407 520.137L222.132 521.934L220.18 522.106Z"/>
	<path fill="#1B2040" d="M219.584 525.379L221.257 527.155L221.463 529.249L218.84 529.344L219.584 525.379Z"/>
	<path fill="#3C5DE9" d="M219.584 525.379L220.18 522.106L222.132 521.934L221.257 527.155L219.584 525.379Z"/>
	<path fill="#3C5DE9" d="M332.434 386.039L334.197 386.313L334.381 392.387L333.543 392.023C332.831 393.76 333.144 395.856 332.94 397.703C332.375 393.883 332.496 389.901 332.434 386.039Z"/>
	<path fill="#0E1325" d="M310.169 430.903C310.586 429.393 311.017 428.185 311.811 426.832L312.477 427.209C313.077 430.778 312.734 434.401 312.562 437.998L310.667 437.786C311.068 436.905 311.637 435.776 311.78 434.825C312.013 433.272 311.019 432.084 310.169 430.903Z"/>
	<path fill="#3B4354" d="M210.954 383.93C213.756 382.476 217.148 381.615 220.15 380.596L221.389 382.256C218.368 383.391 215.244 384.742 211.999 385.014L210.954 383.93Z"/>
	<path fill="#3C5DE9" d="M332.434 386.039C332.357 384.618 332.165 383.912 332.815 382.625C335.612 383.328 338.44 387.96 340.141 390.314L339.478 392.121C337.778 390.117 336.114 388.116 334.197 386.313L332.434 386.039Z"/>
	<path fill="#1B2040" d="M306.764 448.547Q308.702 439.771 310.169 430.903C311.019 432.084 312.013 433.272 311.78 434.825C311.637 435.776 311.068 436.905 310.667 437.786L310.543 438.231C309.672 441.672 308.797 445.089 308.197 448.59L306.764 448.547Z"/>
	<path fill="#3C5DE9" d="M210.874 513.442L211.383 513.322C211.376 517.593 210.578 530.736 211.719 533.963L211.928 534.116C213.454 533.875 215.423 533.707 216.821 533.032C218.38 532.279 218.473 531.339 218.958 529.835L219.153 530.724C219.319 531.495 219.402 532.186 219.398 532.979C220.5 532.883 221.515 532.805 222.626 532.856C220.412 533.694 218.204 534.595 215.968 535.372C214.513 535.896 213.058 536.465 211.581 536.923C210.806 534.489 210.815 532.202 210.791 529.682L210.874 513.442Z"/>
	<path fill="#1B2040" d="M239.417 423.596Q247.172 431.691 254.704 439.994L253.97 441.681L240.39 427.573L239.244 433.506L237.397 433.396C237.99 430.142 238.444 426.755 239.417 423.596Z"/>
	<path fill="#3C5DE9" d="M254.704 439.994C258.188 443.831 261.639 447.708 265.168 451.504C271.59 452.269 278.177 451.994 284.539 453.059L284.104 454.618Q274.408 453.843 264.689 453.444C260.899 449.768 257.481 445.624 253.97 441.681L254.704 439.994Z"/>
	<path fill="#1B2040" d="M475.586 393.215C476.662 398.02 476.15 403.646 476.286 408.583C476.553 406.369 476.721 404.097 477.199 401.92C476.616 407.001 475.882 413.145 477.479 418.086C477.512 423.022 477.653 427.986 477.438 432.918C476.809 434.825 476.903 437.106 476.526 439.123Q476.121 435.66 475.576 432.217C474.738 419.424 475.429 406.066 475.586 393.215Z"/>
	<path fill="#020205" d="M237.397 433.396L239.244 433.506C236.555 445.893 234.89 458.497 232.258 470.89L230.686 470.113C232.635 457.842 235.39 445.674 237.397 433.396Z"/>
	<path fill="#3C5DE9" d="M250.041 370.229L256.731 367.776L258.822 369.121L249.408 372.509C242.886 374.852 236.274 377.015 229.786 379.44L227.335 380.261C226.157 380.703 224.789 381.089 223.676 381.656L221.389 382.256L220.15 380.596L222.915 379.461C224.188 379.328 225.771 378.588 227.006 378.168L227.672 378.082C235.072 375.333 242.621 372.945 250.041 370.229Z"/>
	<path fill="#0E1325" d="M230.686 470.113L232.258 470.89C229.262 487.326 224.85 503.615 222.407 520.137L220.642 519.5L230.686 470.113Z"/>
	<path fill="#3C5DE9" d="M386.931 358.857L390.452 364.245L388.1 364.012L387.385 363.601C383.962 367.421 369.325 414.221 365.829 422.899C357.841 411.883 348.728 402.074 339.478 392.121L340.141 390.314C349.043 399.465 357.754 409.023 365.591 419.101C371.654 398.837 379.279 378.569 386.931 358.857Z"/>
	<path fill="#3C5DE9" d="M475.406 290.112C476.188 289.169 476.122 289.139 477.323 288.968L477.467 374.417C477.483 388.956 477.762 403.551 477.479 418.086C475.882 413.145 476.616 407.001 477.199 401.92C476.721 404.097 476.553 406.369 476.286 408.583C476.15 403.646 476.662 398.02 475.586 393.215C475.109 381.695 475.485 370.004 475.479 358.467L475.406 290.112Z"/>
	<path fill="#FEFEFE" d="M240.39 427.573L253.97 441.681C257.481 445.624 260.899 449.768 264.689 453.444Q274.408 453.843 284.104 454.618C285.769 454.863 287.873 454.756 288.972 456.041C289.027 456.942 288.927 458.01 289.154 458.869C288.919 461.766 288.447 462.332 286.196 464.244C282.268 467.581 277.837 470.261 273.718 473.344Q263.256 463.024 252.948 452.552C248.545 455.595 244.144 458.524 239.51 461.213C236.116 470.806 223.409 526.631 221.463 529.249L221.257 527.155L222.132 521.934L222.407 520.137C224.85 503.615 229.262 487.326 232.258 470.89C234.89 458.497 236.555 445.893 239.244 433.506L240.39 427.573Z"/>
	<path fill="#3C5DE9" d="M444.768 374.976C448.222 364.618 453.789 332.842 458.811 326.233L459.671 326.025C460.679 327.26 460.78 328.805 460.886 330.347C461.576 340.374 460.878 350.89 460.883 360.978C460.896 388.617 460.258 416.496 461.445 444.102C462.937 443.632 464.633 442.886 466.158 442.635L467.907 444.438Q371.698 480.361 274.871 514.588L238.803 527.348C233.888 529.1 227.76 532.145 222.626 532.856C221.515 532.805 220.5 532.883 219.398 532.979C219.402 532.186 219.319 531.495 219.153 530.724L218.958 529.835L218.84 529.344L221.463 529.249C223.409 526.631 236.116 470.806 239.51 461.213C244.144 458.524 248.545 455.595 252.948 452.552Q263.256 463.025 273.718 473.344C277.837 470.261 282.268 467.581 286.196 464.244C288.447 462.332 288.919 461.766 289.154 458.869C288.927 458.01 289.027 456.942 288.972 456.041C287.873 454.756 285.769 454.863 284.104 454.618L284.539 453.059C287.225 453.376 289.933 453.636 292.601 454.08Q294.158 460.868 296.766 467.325C297.957 468.64 298.956 470.455 299.978 471.928C303.091 464.274 304.765 456.524 306.764 448.547L308.197 448.59C308.797 445.089 309.672 441.672 310.543 438.231L310.667 437.786L312.562 437.998C312.535 440.515 312.589 443.061 312.41 445.571L312.682 446.289C312.813 446.32 312.945 446.35 313.075 446.383L313.727 446.552C315.803 447.076 317.509 447.927 319.404 448.897C322.936 436.794 332.329 419.588 333.377 407.724C333.167 406.374 333.139 404.949 333.043 403.583L332.94 397.703C333.144 395.856 332.831 393.76 333.543 392.023L334.381 392.387L334.197 386.313C336.114 388.116 337.778 390.117 339.478 392.121C348.728 402.074 357.841 411.883 365.829 422.899C369.325 414.221 383.962 367.421 387.385 363.601L388.1 364.012L390.452 364.245C393.549 368.847 396.518 373.663 400.036 377.953C402.076 378.163 405.019 378.747 406.783 377.464C410.205 374.978 417.042 353.718 419.864 348.5C419.96 348.68 420.059 348.858 420.153 349.039C423.744 355.95 425.295 363.843 428.781 370.778C429.692 370.648 430.547 370.448 431.436 370.211C435.954 371.615 440.35 373.291 444.768 374.976Z"/>
	<path fill="#FEFEFE" d="M310.543 438.231C311.011 440.678 310.945 442.996 310.875 445.468C310.079 449.204 308.289 452.514 306.671 455.944C307.104 453.469 307.518 451.014 308.197 448.59C308.797 445.089 309.672 441.672 310.543 438.231Z"/>
	<path fill="#FEFEFE" d="M419.724 353.379C422.055 355.928 426.437 370.381 427.731 374.382C426.042 377.961 424.46 385.142 421.483 387.553L420.163 386.704Q415.093 382.182 409.953 377.739C412.374 369.366 416.22 361.338 419.724 353.379Z"/>
	<path fill="#FEFEFE" d="M365.829 422.899C369.325 414.221 383.962 367.421 387.385 363.601L388.1 364.012C391.174 368.621 394.022 373.62 397.325 378.037L390.676 378.001C385.981 398.395 383.05 419.17 377.735 439.441C373.133 434.549 369.191 429.056 364.583 424.215C359.268 430.4 354.602 437.577 348.987 443.387C345.68 437.013 343.182 430.589 340.715 423.865C339.117 419.511 337.631 413.966 335.178 410.05C334.731 410.15 334.29 410.11 333.834 410.106L333.377 407.724C333.167 406.374 333.139 404.949 333.043 403.583L332.94 397.703C333.144 395.856 332.831 393.76 333.543 392.023L334.381 392.387L334.197 386.313C336.114 388.116 337.778 390.117 339.478 392.121C348.728 402.074 357.841 411.883 365.829 422.899Z"/>
	<path fill="#3B4354" d="M334.712 403.621L335.178 410.05C334.731 410.15 334.29 410.11 333.834 410.106L333.377 407.724C333.167 406.374 333.139 404.949 333.043 403.583C333.589 404.526 333.255 404.053 334.079 404.976L334.712 403.621Z"/>
	<path fill="#020205" d="M332.94 397.703C333.144 395.856 332.831 393.76 333.543 392.023L334.381 392.387L334.712 403.621L334.079 404.976C333.255 404.053 333.589 404.526 333.043 403.583L332.94 397.703Z"/>
	<path fill="#FEFEFE" d="M666.778 520.263C694.661 509 723.335 499.132 751.54 488.682C771.951 481.12 792.28 472.43 813.101 466.117L813.273 567.561C813.265 586.018 812.431 604.938 813.494 623.335C813.45 625.129 813.728 627.381 812.537 628.827Q810.944 629.614 809.326 630.347C801.14 633.742 792.292 636.436 784.314 640.196L784.193 642.214Q763.227 650.167 742.361 658.38L730.726 662.909L727.854 664.031L725.061 664.939C714.398 669.123 703.62 673.144 693.072 677.605L690.963 678.243L689.667 676.605L682.124 679.567C651.539 691.917 620.541 703.292 589.911 715.552L568.737 723.991C564.932 725.489 560.754 726.798 557.12 728.647Q541.985 734.441 526.952 740.493C520.791 742.948 514.379 745.969 507.914 747.48C506.547 744.76 507.395 736.934 507.072 733.349C507.392 728.173 507.087 722.784 507.079 717.589L507.053 685.648L507.021 585.659L505.399 584.283C505.306 582.534 505.487 580.789 505.617 579.046C537.899 566.104 570.816 554.61 603.263 542.064L611.001 539.172C628.669 532.106 646.891 525.56 664.835 519.203L666.778 520.263Z"/>
	<path fill="#3C5DE9" d="M689.667 676.605L692.237 675.462L693.072 677.605L690.963 678.243L689.667 676.605Z"/>
	<path fill="#0E1325" d="M505.617 579.046L507.07 580.239L507.021 585.659L505.399 584.283C505.306 582.534 505.487 580.789 505.617 579.046Z"/>
	<path fill="#3C5DE9" d="M726.965 662.079L729.505 661.228L730.726 662.909L727.854 664.031L725.061 664.939L723.049 663.583L726.965 662.079Z"/>
	<path fill="#3C5DE9" d="M603.263 542.064L611.001 539.172L613.485 540.33L603.23 544.244L603.263 542.064Z"/>
	<path fill="#3C5DE9" d="M729.505 661.228C733.09 659.781 736.657 658.308 740.339 657.121L742.361 658.38L730.726 662.909L729.505 661.228Z"/>
	<path fill="#3B4354" d="M723.049 663.583L725.061 664.939C714.398 669.123 703.62 673.144 693.072 677.605L692.237 675.462C700.745 673.437 714.447 667.008 723.049 663.583Z"/>
	<path fill="#1B2040" d="M740.339 657.121C754.712 650.992 769.68 645.684 784.314 640.196L784.193 642.214Q763.227 650.167 742.361 658.38L740.339 657.121Z"/>
	<path fill="#3B4354" d="M611.001 539.172C628.669 532.106 646.891 525.56 664.835 519.203L666.778 520.263L613.485 540.33L611.001 539.172Z"/>
	<path fill="#3C5DE9" d="M505.617 579.046C537.899 566.104 570.816 554.61 603.263 542.064L603.23 544.244L539.101 568.26C529.876 571.759 516.011 578.05 507.07 580.239L505.617 579.046Z"/>
	<path fill="#3C5DE9" d="M786.815 597.028C786.86 597.091 786.919 597.146 786.95 597.217C787.465 598.407 787.519 598.751 787.25 599.968C785.481 601.511 682.665 641.096 670.098 645.595L669.659 645.255C669.249 644.16 669.171 644.12 669.521 643.019C673.584 640.249 692.586 633.819 698.201 631.618L786.815 597.028Z"/>
	<path fill="#3C5DE9" d="M787.008 545.029C787.81 546.078 787.555 546.731 787.545 548.005C786.316 549.645 680.332 590.027 669.761 594.029C669.419 593.082 669.295 592.332 669.242 591.326C669.686 590.788 670.054 590.483 670.699 590.205C684.549 584.238 699.106 579.45 713.176 573.966C737.793 564.37 762.273 554.303 787.008 545.029Z"/>
	<path fill="#3C5DE9" d="M786.532 571.486C787.584 571.846 787.133 571.526 787.829 572.522L787.495 573.762C784.626 576.973 684.999 614.226 670.53 620.034C670.435 619.976 670.322 619.938 670.243 619.858C669.471 619.068 669.675 618.653 669.786 617.64C670.764 616.49 671.919 615.967 673.264 615.366C682.545 611.221 692.421 608.033 701.883 604.279L786.532 571.486Z"/>
	<path fill="#3C5DE9" d="M786.086 519.433C787.011 519.93 787.138 520.138 787.712 521.031L787.382 522.027C783.51 525.391 756.639 534.509 750.233 536.97L670.72 567.56L669.69 567.326C669.21 565.973 669.224 566.024 669.76 564.69C673.73 561.98 694.239 555.127 700.372 552.77C728.975 541.78 757.682 530.922 786.086 519.433Z"/>
	<path fill="#3C5DE9" d="M635.168 560.99L635.68 561.174C636.588 563.884 636.606 658.457 636.01 671.74C626.831 676.991 613.905 680.31 603.868 684.198L542.611 708.57C542.238 708.527 541.9 708.323 541.552 708.182C540.143 704.111 541.05 687.127 541.035 681.278L541.207 596.12C554.718 592.439 568.094 586.376 581.178 581.338L635.168 560.99Z"/>
	<path fill="#FEFEFE" d="M596.488 638.771C599.701 640.365 608.983 649.542 612.156 652.516C612.579 654.101 612.095 654.581 611.46 656.057Q603.065 649.366 594.918 642.376C594.94 640.813 595.67 640.08 596.488 638.771Z"/>
	<path fill="#FEFEFE" d="M565.231 617.117C569.233 618.353 580.919 626.945 583.182 630.491C583.651 631.226 583.313 631.849 583.179 632.66C579.653 632.384 568.394 623.803 565.297 621.01C564.574 619.698 564.976 618.509 565.231 617.117Z"/>
	<path fill="#FEFEFE" d="M581.298 645.228C582.511 645.408 582.866 645.364 583.78 646.151C582.291 651.462 571.741 665.622 567.929 670.925C566.907 671.031 566.749 670.998 565.842 670.653C565.782 670.327 565.658 670.006 565.662 669.675C565.677 668.574 579.703 647.835 581.298 645.228Z"/>
	<path fill="#FEFEFE" d="M611.372 598.702C612.31 599.029 612.689 599.296 613.338 600.047C613.303 603.901 601.991 621.574 599.525 625.835L598.059 625.361L597.681 624.537C598.527 619.127 608.21 604.149 611.372 598.702Z"/>
	<path fill="#FEFEFE" d="M210.983 659.344C217.755 655.425 226.872 653.205 234.261 650.404L288.584 629.79Q353.148 606.043 417.444 581.584C436.298 574.436 455.286 567.734 473.995 560.225C475.176 559.75 475.663 559.387 476.884 559.939C477.373 567.379 477.105 574.946 477.133 582.403C477.178 594.159 477.285 605.892 477.148 617.648C477.034 627.424 477.631 637.48 477.031 647.211Q477.138 656.476 477.057 665.741L477.179 724.523C477.247 728.289 477.41 732.085 477.324 735.849L477.497 760.663C470.887 764.115 463.687 766.631 456.721 769.268L427.088 780.408L354.478 808.453C351.401 809.676 348.335 810.937 345.205 812.021Q336.768 815.229 328.384 818.574C321.198 821.386 313.419 825.259 305.992 827.179C301.709 828.843 297.417 830.694 292.996 831.954C292.725 831.198 292.519 830.933 292.011 830.339L291.309 830.551L285.914 832.535L286.9 834.579C279.217 837.508 271.467 840.332 263.895 843.536L259.058 845.355L251.659 848.252L245.761 850.598Q235.575 854.353 225.536 858.483L220.644 860.482L214.721 862.861C213.204 863.338 212.387 863.855 210.836 863.409L210.349 862.167C211.363 847.703 210.453 829.546 210.416 814.691L210.409 809.605L210.532 707.64L210.495 677.924C210.49 671.839 210.146 665.37 210.983 659.344Z"/>
	<path fill="#3C5DE9" d="M212.711 809.979C216.095 805.515 218.718 800.344 221.507 795.492L222.452 796.522C221.589 797.871 220.231 799.462 220.394 801.108C220.872 801.441 221.323 801.794 221.85 802.045L221.463 803.869C220.545 803.737 220.257 803.456 219.469 804.041C216.552 806.204 214.866 811.268 212.915 814.29L210.416 814.691L210.409 809.605L212.711 809.979Z"/>
	<path fill="#1B2040" d="M210.983 659.344L211.255 660.728L212.688 660.627L212.547 667.011C212.518 675.234 212.88 683.652 212.421 691.85C212.921 719.954 212.461 748.113 212.52 776.226C212.542 786.139 211.572 800.593 212.711 809.979L210.409 809.605L210.532 707.64L210.495 677.924C210.49 671.839 210.146 665.37 210.983 659.344Z"/>
	<path fill="#0E1325" d="M211.255 660.728L212.688 660.627L212.547 667.011L211.174 667.494L211.255 660.728Z"/>
	<path fill="#020205" d="M211.174 667.494L212.547 667.011C212.518 675.234 212.88 683.652 212.421 691.85C211.221 702.621 212.56 713.636 211.545 724.463C210.504 722.756 211.147 673.256 211.174 667.494Z"/>
	<path fill="#3C5DE9" d="M210.983 659.344C217.755 655.425 226.872 653.205 234.261 650.404L288.584 629.79Q353.148 606.043 417.444 581.584C436.298 574.436 455.286 567.734 473.995 560.225C475.176 559.75 475.663 559.387 476.884 559.939C474.893 562.911 475.906 566.265 475.416 569.624Q475.179 565.816 475.072 562.003L212.688 660.627L211.255 660.728L210.983 659.344Z"/>
	<path fill="#020205" d="M476.884 559.939C477.373 567.379 477.105 574.946 477.133 582.403C477.178 594.159 477.285 605.892 477.148 617.648C477.034 627.424 477.631 637.48 477.031 647.211L476.356 649.743C476.112 648.687 475.798 647.681 475.473 646.648C474.832 633.1 475.797 619.474 475.245 605.917C453.747 611.776 438.882 622.127 427.673 641.632C421.981 651.536 417.782 662.313 413.421 672.842C410.127 680.794 406.44 688.91 403.965 697.164C409.316 705.49 419.707 718.524 429.841 720.897C432.558 721.534 434.86 721.181 437.191 719.622C437.893 719.153 437.856 719.165 438.424 718.704L438.933 720.306C436.24 722.252 434.211 723.398 430.813 722.875C421.032 721.371 411.019 709.89 405.659 702.187Q404.295 700.205 403.005 698.174C396.796 714.296 391.278 730.863 385.906 747.282C385.235 746.981 385.069 746.682 384.625 746.113C389.509 730.586 395.639 711.665 402.022 696.71C396.648 685.901 390.333 668.496 378.004 664.141C374.139 662.775 370.265 663.341 366.658 665.164C346.023 675.588 326.084 724.263 316.407 745.418C315.173 748.115 312.608 754.546 308.896 753.245C306.992 752.578 304.689 749.561 303.298 748.125C295.507 740.081 283.778 725.916 271.193 729.712C251.481 735.657 232.3 778.736 222.452 796.522L221.507 795.492C230.808 777.897 249.069 739.166 266.907 729.881C282.147 721.949 294.237 736.997 304.012 746.611C305.68 748.25 307.971 750.98 310.292 751.522C312.299 751.991 316.171 742.23 317.054 740.272C326.297 719.782 345.551 675.034 365.816 663.985C369.703 661.866 373.857 661.096 378.133 662.484C391.03 666.67 397.325 684.005 402.837 695.148C411.25 675.588 417.751 654.467 429.342 636.473C440.484 619.175 455.328 608.998 475.397 604.622C475.524 592.958 475.138 581.285 475.416 569.624C475.906 566.265 474.893 562.911 476.884 559.939Z"/>
	<path fill="#FEFEFE" d="M475.245 605.917C475.797 619.474 474.832 633.1 475.473 646.648C475.798 647.681 476.112 648.687 476.356 649.743L477.031 647.211Q477.138 656.476 477.057 665.741C475.864 662.674 475.919 659.113 475.49 655.86L474.739 655.477C466.874 670.64 449.549 710.337 438.933 720.306L438.424 718.704C437.856 719.165 437.893 719.153 437.191 719.622C434.86 721.181 432.558 721.534 429.841 720.897C419.707 718.524 409.316 705.49 403.965 697.164C406.44 688.91 410.127 680.794 413.421 672.842C417.782 662.313 421.981 651.536 427.673 641.632C438.882 622.127 453.747 611.776 475.245 605.917Z"/>
	<path fill="#0E1325" d="M475.473 646.648C475.798 647.681 476.112 648.687 476.356 649.743L477.031 647.211Q477.138 656.476 477.057 665.741C475.864 662.674 475.919 659.113 475.49 655.86L474.739 655.477C466.874 670.64 449.549 710.337 438.933 720.306L438.424 718.704C450.049 704.277 457.253 686.462 465.572 670.036C468.536 664.184 472.943 657.444 474.932 651.238C475.39 649.808 475.411 648.133 475.473 646.648Z"/>
	<path fill="#3C5DE9" d="M474.739 655.477L475.49 655.86C475.919 659.113 475.864 662.674 477.057 665.741L477.179 724.523C477.247 728.289 477.41 732.085 477.324 735.849L477.497 760.663C470.887 764.115 463.687 766.631 456.721 769.268L427.088 780.408L354.478 808.453C351.401 809.676 348.335 810.937 345.205 812.021Q336.768 815.229 328.384 818.574C321.198 821.386 313.419 825.259 305.992 827.179C301.709 828.843 297.417 830.694 292.996 831.954C292.725 831.198 292.519 830.933 292.011 830.339L291.309 830.551L285.914 832.535L286.9 834.579C279.217 837.508 271.467 840.332 263.895 843.536L259.058 845.355L251.659 848.252L245.761 850.598Q235.575 854.353 225.536 858.483L220.644 860.482L214.721 862.861C213.204 863.338 212.387 863.855 210.836 863.409L210.349 862.167C211.363 847.703 210.453 829.546 210.416 814.691L212.915 814.29C214.866 811.268 216.552 806.204 219.469 804.041C220.257 803.456 220.545 803.737 221.463 803.869L221.85 802.045C221.323 801.794 220.872 801.441 220.394 801.108C220.231 799.462 221.589 797.871 222.452 796.522C232.3 778.736 251.481 735.657 271.193 729.712C283.778 725.916 295.507 740.081 303.298 748.125C304.689 749.561 306.992 752.578 308.896 753.245C312.608 754.546 315.173 748.115 316.407 745.418C326.084 724.263 346.023 675.588 366.658 665.164C370.265 663.341 374.139 662.775 378.004 664.141C390.333 668.496 396.648 685.901 402.022 696.71C395.639 711.665 389.509 730.586 384.625 746.113C385.069 746.682 385.235 746.981 385.906 747.282C391.278 730.863 396.796 714.296 403.005 698.174Q404.295 700.205 405.659 702.187C411.019 709.89 421.032 721.371 430.813 722.875C434.211 723.398 436.24 722.252 438.933 720.306C449.549 710.337 466.874 670.64 474.739 655.477Z"/>
	<path fill="#1B2040" d="M260.684 772.2L263.364 771.405L261.984 774.61L260.218 773.49L260.684 772.2Z"/>
	<path fill="#3C5DE9" d="M327.143 771.816L329.322 771.733L328.407 776.119C327.37 775.688 327.321 775.551 326.696 774.601L327.143 771.816Z"/>
	<path fill="#0E1325" d="M344.569 700.821L345.571 696.509C346.337 696.78 347.021 697.047 347.827 697.167L346.694 701.59L344.569 700.821Z"/>
	<path fill="#3C5DE9" d="M369.099 737.881L371.692 738.612L373.327 742.227L371.671 743.745L369.099 737.881Z"/>
	<path fill="#3C5DE9" d="M237.2 818.046L238.995 816.751L242.129 816.775L244.017 818.563C243.47 818.786 242.923 819.006 242.356 819.176C240.347 819.782 238.94 818.958 237.2 818.046Z"/>
	<path fill="#3C5DE9" d="M218.997 858.756L223.983 856.696L225.536 858.483L220.644 860.482L218.997 858.756Z"/>
	<path fill="#1B2040" d="M333.273 746.165L334.58 740.943L336.56 741.957L334.874 748.488L333.273 746.165Z"/>
	<path fill="#0E1325" d="M371.671 743.745L373.327 742.227L376.026 748.46L376.105 748.857L374.772 750.599L373.64 748.57C373.113 746.939 372.33 745.331 371.671 743.745Z"/>
	<path fill="#3C5DE9" d="M373.64 748.57L376.026 748.46L376.105 748.857L374.772 750.599L373.64 748.57Z"/>
	<path fill="#1B2040" d="M243.339 849.168C245.58 848.159 247.906 847.312 250.192 846.41L251.659 848.252L245.761 850.598L243.339 849.168Z"/>
	<path fill="#3C5DE9" d="M250.192 846.41L257.458 843.635L259.058 845.355L251.659 848.252L250.192 846.41Z"/>
	<path fill="#3C5DE9" d="M246.118 810.619L247.806 811.705C246.78 814.297 245.6 816.273 244.017 818.563L242.129 816.775C244.275 815.187 245.075 812.966 246.118 810.619Z"/>
	<path fill="#0E1325" d="M376.105 748.857C377.102 750.825 378.061 752.773 378.902 754.815L379.582 756.782C378.625 756.852 378.423 756.835 377.605 757.401L376.184 754.072L374.772 750.599L376.105 748.857Z"/>
	<path fill="#3C5DE9" d="M344.569 700.821L346.694 701.59L344.386 709.891C343.887 709.381 343.13 708.979 342.533 708.581L344.569 700.821Z"/>
	<path fill="#1B2040" d="M342.522 810.783Q347.968 808.523 353.492 806.463L354.478 808.453C351.401 809.676 348.335 810.937 345.205 812.021L342.522 810.783Z"/>
	<path fill="#1B2040" d="M316.998 801.501L319.162 801.815C317.191 805.072 315.272 808.081 312.201 810.441C309.946 811.335 309.408 811.23 307.264 810.396L305.073 808.713L306.971 807.954C308.023 808.357 309.114 808.751 310.264 808.542C313.42 807.969 315.395 803.943 316.998 801.501Z"/>
	<path fill="#3C5DE9" d="M307.264 810.396C308.511 809.522 308.741 809.307 310.238 809.206C310.961 809.593 311.564 809.918 312.201 810.441C309.946 811.335 309.408 811.23 307.264 810.396Z"/>
	<path fill="#1B2040" d="M325.118 780.432C325.539 778.468 326.147 776.534 326.696 774.601C327.321 775.551 327.37 775.688 328.407 776.119L327.21 781.029C326.117 784.697 325.156 788.496 323.661 792.02L322.032 791.042Q323.528 785.723 325.118 780.432Z"/>
	<path fill="#1B2040" d="M212.591 831.462C212.949 836.306 211.753 858.863 213.509 861.3C215.222 860.261 217.157 859.545 218.997 858.756L220.644 860.482L214.721 862.861C213.204 863.338 212.387 863.855 210.836 863.409L210.349 862.167C211.508 862.284 210.975 862.387 211.958 861.917C213.848 855.316 211.441 839.641 212.591 831.462Z"/>
	<path fill="#3C5DE9" d="M327.395 816.453C332.474 814.716 337.494 812.67 342.522 810.783L345.205 812.021Q336.768 815.229 328.384 818.574L327.395 816.453Z"/>
	<path fill="#3C5DE9" d="M384.625 746.113C385.069 746.682 385.235 746.981 385.906 747.282C384.37 753.179 381.874 758.77 380.359 764.669C379.38 762.268 378.355 759.886 377.605 757.401C378.423 756.835 378.625 756.852 379.582 756.782L380.02 757.057L380.719 756.763C382.411 753.438 383.443 749.654 384.625 746.113Z"/>
	<path fill="#3C5DE9" d="M223.983 856.696C230.316 854.068 236.769 851.131 243.339 849.168L245.761 850.598Q235.575 854.353 225.536 858.483L223.983 856.696Z"/>
	<path fill="#1B2040" d="M221.85 802.045C224.454 803.521 237.382 814.739 238.995 816.751L237.2 818.046C231.57 813.962 226.466 808.698 221.463 803.869L221.85 802.045Z"/>
	<path fill="#1B2040" d="M263.458 841.254Q274.652 836.807 285.914 832.535L286.9 834.579C279.217 837.508 271.467 840.332 263.895 843.536L259.058 845.355L257.458 843.635L263.458 841.254Z"/>
	<path fill="#1B2040" d="M260.218 773.49L261.984 774.61L259.502 780.968C255.238 791.07 252.095 801.642 247.806 811.705L246.118 810.619C250.258 800.474 253.761 790.016 257.485 779.709Q258.832 776.591 260.218 773.49Z"/>
	<path fill="#1B2040" d="M301.586 826.515C310.033 822.81 318.778 819.739 327.395 816.453L328.384 818.574C321.198 821.386 313.419 825.259 305.992 827.179C301.709 828.843 297.417 830.694 292.996 831.954C292.725 831.198 292.519 830.933 292.011 830.339C294.923 828.668 298.433 827.648 301.586 826.515Z"/>
	<path fill="#3C5DE9" d="M210.416 814.691L212.915 814.29C212.378 820.004 213.154 825.794 212.591 831.462C211.441 839.641 213.848 855.316 211.958 861.917C210.975 862.387 211.508 862.284 210.349 862.167C211.363 847.703 210.453 829.546 210.416 814.691Z"/>
	<path fill="#3C5DE9" d="M474.739 655.477L475.49 655.86C475.919 659.113 475.864 662.674 477.057 665.741L477.179 724.523C477.247 728.289 477.41 732.085 477.324 735.849C476.4 740.586 476.807 745.78 476.796 750.606L476.754 753.587L476.193 753.538L475.157 752.063L474.84 685.296C474.826 675.797 476.064 664.755 474.739 655.477Z"/>
	<path fill="#0E1325" d="M477.179 724.523C477.247 728.289 477.41 732.085 477.324 735.849C476.4 740.586 476.807 745.78 476.796 750.606C476.506 750.327 476.241 750.107 476.043 749.738C474.455 746.775 475.8 727.525 477.179 724.523Z"/>
	<defs>
		<linearGradient id="gradient_0" gradientUnits="userSpaceOnUse" x1="413.03604" y1="775.29956" x2="416.62451" y2="785.66418">
			<stop offset="0" stop-color="#121238"/>
			<stop offset="1" stop-color="#192641"/>
		</linearGradient>
	</defs>
	<path fill="url(#gradient_0)" d="M476.796 750.606C476.807 745.78 476.4 740.586 477.324 735.849L477.497 760.663C470.887 764.115 463.687 766.631 456.721 769.268L427.088 780.408L354.478 808.453L353.492 806.463C361.587 802.857 370.066 799.913 378.316 796.663Q400.679 787.686 423.195 779.1C440.567 772.579 458.143 766.415 475.188 759.072L475.157 752.063L476.193 753.538L476.754 753.587L476.796 750.606Z"/>
	<path fill="#FEFEFE" d="M222.452 796.522C232.3 778.736 251.481 735.657 271.193 729.712C283.778 725.916 295.507 740.081 303.298 748.125C304.689 749.561 306.992 752.578 308.896 753.245C312.608 754.546 315.173 748.115 316.407 745.418C326.084 724.263 346.023 675.588 366.658 665.164C370.265 663.341 374.139 662.775 378.004 664.141C390.333 668.496 396.648 685.901 402.022 696.71C395.639 711.665 389.509 730.586 384.625 746.113C383.443 749.654 382.411 753.438 380.719 756.763L380.02 757.057L379.582 756.782L378.902 754.815C378.061 752.773 377.102 750.825 376.105 748.857L376.026 748.46L373.327 742.227L371.692 738.612L369.099 737.881C363.334 725.761 357.707 713.433 351.147 701.718C350.367 700.056 349.623 697.819 348.305 696.529L347.827 697.167C347.021 697.047 346.337 696.78 345.571 696.509L344.569 700.821L342.533 708.581C343.13 708.979 343.887 709.381 344.386 709.891L343.394 713.703C342.426 717.513 341.378 721.323 340.585 725.172C340.194 726.884 339.597 728.73 339.422 730.467L338.28 734.529L336.56 741.957L334.58 740.943L333.273 746.165L334.874 748.488L333.815 753.011L333.254 754.989L332.626 758.209L331.695 761.346L331.4 763.3L330.583 766.638L329.322 771.733L327.143 771.816L326.696 774.601C326.147 776.534 325.539 778.468 325.118 780.432Q323.528 785.723 322.032 791.042L323.661 792.02L323.415 792.671C322.224 795.837 320.902 798.903 319.162 801.815L316.998 801.501C315.395 803.943 313.42 807.969 310.264 808.542C309.114 808.751 308.023 808.357 306.971 807.954L305.073 808.713L303.089 806.129C300.586 802.574 298.612 798.764 296.58 794.932Q292.099 786.768 287.487 778.678C283.805 772.751 279.836 767.047 274.55 762.452C272.008 762.515 270.394 762.903 268.201 764.196C266.404 766.525 264.849 768.866 263.364 771.405L260.684 772.2L260.218 773.49Q258.832 776.591 257.485 779.709C253.761 790.016 250.258 800.474 246.118 810.619C245.075 812.966 244.275 815.187 242.129 816.775L238.995 816.751C237.382 814.739 224.454 803.521 221.85 802.045C221.323 801.794 220.872 801.441 220.394 801.108C220.231 799.462 221.589 797.871 222.452 796.522Z"/>
	<path fill="#0E1325" d="M337.645 728.958L339.422 730.467L338.28 734.529L336.688 733.107L337.645 728.958Z"/>
	<path fill="#0E1325" d="M329.514 762.036L331.4 763.3L330.583 766.638L328.714 765.761L329.514 762.036Z"/>
	<path fill="#0E1325" d="M303.089 806.129L304.684 804.965C305.453 805.854 306.583 806.851 306.971 807.954L305.073 808.713L303.089 806.129Z"/>
	<path fill="#3C5DE9" d="M331.736 753.124L332.061 754.325L333.254 754.989L332.626 758.209L330.722 756.977L331.736 753.124Z"/>
	<path fill="#3C5DE9" d="M342.533 708.581C343.13 708.979 343.887 709.381 344.386 709.891L343.394 713.703L341.653 712.469L342.533 708.581Z"/>
	<path fill="#0E1325" d="M330.722 756.977L332.626 758.209L331.695 761.346L331.4 763.3L329.514 762.036L329.805 760.562L330.722 756.977Z"/>
	<path fill="#0E1325" d="M328.714 765.761L330.583 766.638L329.322 771.733L327.143 771.816L328.714 765.761Z"/>
	<path fill="#0E1325" d="M333.273 746.165L334.874 748.488L333.815 753.011L333.254 754.989L332.061 754.325L331.736 753.124L332.089 750.81L333.273 746.165Z"/>
	<path fill="#3C5DE9" d="M336.688 733.107L338.28 734.529L336.56 741.957L334.58 740.943L336.688 733.107Z"/>
	<path fill="#3C5DE9" d="M266.504 762.657C266.998 762.252 266.939 762.283 267.581 761.864C270.132 760.199 272.093 759.917 275.041 760.508L274.55 762.452C272.008 762.515 270.394 762.903 268.201 764.196L266.504 762.657Z"/>
	<path fill="#0E1325" d="M260.684 772.2C262.289 768.717 263.979 765.562 266.504 762.657L268.201 764.196C266.404 766.525 264.849 768.866 263.364 771.405L260.684 772.2Z"/>
	<path fill="#0E1325" d="M322.032 791.042L323.661 792.02L323.415 792.671C322.224 795.837 320.902 798.903 319.162 801.815L316.998 801.501C318.735 798.614 320.043 795.556 321.402 792.48L322.032 791.042Z"/>
	<path fill="#3C5DE9" d="M322.032 791.042L323.661 792.02L323.415 792.671L321.402 792.48L322.032 791.042Z"/>
	<path fill="#1B2040" d="M296.58 794.932C297.4 794.62 297.932 794.635 298.798 794.623C300.612 797.992 303.188 801.515 304.684 804.965L303.089 806.129C300.586 802.574 298.612 798.764 296.58 794.932Z"/>
	<path fill="#3C5DE9" d="M345.571 696.509C345.997 694.82 346.009 693.447 347.318 692.261C350.105 693.441 352.032 699.025 353.368 701.771L351.147 701.718C350.367 700.056 349.623 697.819 348.305 696.529L347.827 697.167C347.021 697.047 346.337 696.78 345.571 696.509Z"/>
	<path fill="#3C5DE9" d="M341.653 712.469L343.394 713.703C342.426 717.513 341.378 721.323 340.585 725.172C340.194 726.884 339.597 728.73 339.422 730.467L337.645 728.958L338.689 724.209Q339.972 718.289 341.653 712.469Z"/>
	<path fill="#3C5DE9" d="M287.487 778.678L288.813 776.757C292.612 782.363 295.665 788.622 298.798 794.623C297.932 794.635 297.4 794.62 296.58 794.932Q292.099 786.768 287.487 778.678Z"/>
	<path fill="#1B2040" d="M275.041 760.508C280.504 764.26 285.819 770.917 288.813 776.757L287.487 778.678C283.805 772.751 279.836 767.047 274.55 762.452L275.041 760.508Z"/>
	<path fill="#0E1325" d="M351.147 701.718L353.368 701.771C360.243 713.56 365.874 726.274 371.692 738.612L369.099 737.881C363.334 725.761 357.707 713.433 351.147 701.718Z"/>
</svg>
