<?xml version="1.0" encoding="utf-8" ?>
<svg xmlns="http://www.w3.org/2000/svg" xmlns:xlink="http://www.w3.org/1999/xlink" width="802" height="602">
	<path fill="#223451" transform="scale(1.17578 1.17578)" d="M248.323 51.1642L548.163 51.1458C556.421 51.0927 564.459 50.4905 572.308 53.6078C599.897 64.5655 595.429 95.3011 595.411 119.21L595.427 372.908C595.443 376.223 596.68 380.675 595.413 383.788C603.728 384.325 614.649 380.004 614.798 391.802C615.315 432.921 611.348 454.395 564.87 454.379L433.16 454.366L116.216 454.376C110.96 454.376 105.64 454.53 100.426 453.755C80.7431 450.827 67.1176 432.468 66.8887 413.135C66.6259 390.94 61.6192 383.623 86.5258 383.788L86.4684 105.23C86.3152 66.9811 95.0202 51.1213 135.782 51.1487L248.323 51.1642Z"/>
	<defs>
		<linearGradient id="gradient_0" gradientUnits="userSpaceOnUse" x1="313.22919" y1="499.47781" x2="365.30353" y2="332.05215">
			<stop offset="0" stop-color="#C6D2EF"/>
			<stop offset="1" stop-color="#D2E6F4"/>
		</linearGradient>
	</defs>
	<path fill="url(#gradient_0)" transform="scale(1.17578 1.17578)" d="M86.5258 402.914C93.3258 402.683 100.223 402.91 107.031 402.91L272.17 402.914C278.148 422.248 297.105 420.138 312.578 420.146L370.476 420.146C387.19 420.144 401.917 421.534 409.931 402.914L595.413 402.914C597.019 405.732 597.085 415.648 595.413 417.957C596.577 422.594 591.388 428.374 587.964 430.793C577.21 438.393 548.73 435.541 535.767 435.54L121.212 435.553C98.0358 435.593 81.0648 430.562 86.5258 402.914Z"/>
	<path fill="white" transform="scale(1.17578 1.17578)" d="M138.74 69.3228L518.63 69.3328C527.026 69.333 557.563 68.3582 563.502 70.3605C581.34 76.3733 576.806 100.622 576.787 115.902L576.785 363.653C576.786 367.117 577.664 381.342 576.784 383.788L524.404 383.788L441.15 383.803C434.577 383.802 400.459 382.24 396.64 384.501C392.557 386.918 395.216 395.75 390.865 399.756C386.867 403.438 377.4 402.047 372.422 402.051L352.313 402.054C334.182 402.049 315.906 402.521 297.788 402.052C284.533 401.709 291.27 384.839 280.951 383.963C274.358 383.403 267.503 383.774 260.876 383.777L104.948 383.788L104.942 99.7069C104.948 72.1578 112.518 69.2724 138.74 69.3228Z"/>
	<path fill="#223451" transform="scale(1.17578 1.17578)" d="M450.492 196.818C457.471 196.755 495.554 195.85 499.609 198.141C508.072 202.92 504.048 213.325 495.925 215.287L465.672 215.313C460.307 215.312 454.514 215.768 449.217 215.011C438.535 213.484 438.389 198.279 450.492 196.818Z"/>
	<path fill="#223451" transform="scale(1.17578 1.17578)" d="M495.925 259.983C480.408 260.548 464.791 259.997 449.262 259.995C442.783 259.994 430.507 260.639 424.544 259.759C414.901 258.335 414.502 243.721 424.298 242.163C428.082 241.561 432.162 241.805 435.992 241.802L482.28 241.803C487.103 241.799 491.976 241.578 496.793 241.808C506.586 246.743 505.88 258.156 495.925 259.983Z"/>
	<path fill="#223451" transform="scale(1.17578 1.17578)" d="M426.722 154.86C430.693 154.67 434.763 154.858 438.744 154.857L463.736 154.85C473.798 154.849 486.336 154.173 496.167 155.159C507.328 156.278 507.417 171.335 495.925 172.906C491.223 173.098 486.452 172.92 481.742 172.92L435.993 172.91C432.236 172.907 428.327 173.094 424.595 172.65C414.448 171.443 414.302 156.046 426.722 154.86Z"/>
	<path fill="#223451" transform="scale(1.17578 1.17578)" d="M538.031 108.61L397.013 108.582C393.378 108.562 389.618 109.1 386.009 108.764C375.184 107.755 374.413 91.6482 385.102 90.7581C394.245 89.9966 403.844 90.5677 413.049 90.5713L523.102 90.5833C558.325 90.5869 556.47 85.6445 556.444 119.715L556.449 344.086C556.453 353.254 558.694 363.378 545.958 363.639C536.033 363.842 526.066 363.602 516.137 363.598L149.965 363.627C139.103 363.643 126.277 367.047 125.86 352.042C125.682 345.631 125.873 339.164 125.885 332.749L125.881 106.936C125.88 85.9575 129.695 90.5551 146.993 90.5761L170.568 90.5595C174.881 90.5448 179.362 90.0566 183.626 90.7929C191.457 92.1452 192.798 103.016 186.335 106.958C181.805 109.721 151.236 108.621 144.483 108.61L144.483 344.802C147.311 344.822 150.191 344.946 153.012 344.802C155.883 344.388 159.157 344.75 162.081 344.759L181.657 344.802C181.355 338.708 180.698 311.243 183.297 307.928C186.187 304.242 217.134 307.357 223.837 306.279C228.011 307.665 232.25 310.274 236.326 312.042C262.659 323.462 293.605 323.61 320.527 314.17C327.152 311.847 333.148 308.246 339.642 305.693C341.969 306.43 348.778 305.704 351.569 305.7L386.671 305.693C382.396 299.828 383.757 291.721 391.177 289.87C396.799 288.468 410.464 289.442 416.993 289.348C416.993 284.347 416.863 279.351 416.993 274.349C422.207 267.049 436.699 270.168 445.3 270.168L496.793 270.156C496.825 266.976 497.267 263.44 496.901 260.317L495.925 259.983C505.88 258.156 506.586 246.743 496.793 241.808C497.345 238.064 497.48 234.749 501.59 233.322C508.953 230.766 535.571 233.85 538.031 232.463C538.663 230.698 538.03 218.229 538.032 215.265L538.026 140.402C538.027 135.926 538.92 110.463 538.031 108.61Z"/>
	<path fill="#C7DCFC" transform="scale(1.17578 1.17578)" d="M538.031 232.463C538.76 234.395 538.029 255.581 538.028 258.777L538.031 322.752C538.033 326.361 538.582 343.032 538.031 344.802C507.509 344.419 476.93 344.801 446.401 344.801L189.767 344.808C177.588 344.81 165.167 345.349 153.012 344.802C155.883 344.388 159.157 344.75 162.081 344.759L181.657 344.802C181.355 338.708 180.698 311.243 183.297 307.928C186.187 304.242 217.134 307.357 223.837 306.279C228.011 307.665 232.25 310.274 236.326 312.042C262.659 323.462 293.605 323.61 320.527 314.17C327.152 311.847 333.148 308.246 339.642 305.693C341.969 306.43 348.778 305.704 351.569 305.7L386.671 305.693C382.396 299.828 383.757 291.721 391.177 289.87C396.799 288.468 410.464 289.442 416.993 289.348C416.993 284.347 416.863 279.351 416.993 274.349C422.207 267.049 436.699 270.168 445.3 270.168L496.793 270.156C496.825 266.976 497.267 263.44 496.901 260.317L495.925 259.983C505.88 258.156 506.586 246.743 496.793 241.808C497.345 238.064 497.48 234.749 501.59 233.322C508.953 230.766 535.571 233.85 538.031 232.463Z"/>
	<path fill="#223451" transform="scale(1.17578 1.17578)" d="M416.993 289.348L486.616 289.324C489.808 289.324 493.157 289.13 496.318 289.596C506.281 291.064 506.449 306.321 496.607 307.72C491.748 308.411 486.48 308.062 481.565 308.064L415.331 308.063C407.055 308.059 393.879 309.917 386.671 305.693C382.396 299.828 383.757 291.721 391.177 289.87C396.799 288.468 410.464 289.442 416.993 289.348Z"/>
	<path fill="#223451" transform="scale(1.17578 1.17578)" d="M223.837 306.279C209.396 296.788 196.547 285.968 186.53 271.771C126.376 186.516 200.566 75.2413 302.493 93.2C361.672 103.627 406.914 163.809 396.005 223.79C388.891 262.912 370.54 284.251 339.642 305.693C333.148 308.246 327.152 311.847 320.527 314.17C293.605 323.61 262.659 323.462 236.326 312.042C232.25 310.274 228.011 307.665 223.837 306.279Z"/>
	<path fill="white" transform="scale(1.17578 1.17578)" d="M276.93 109.365C301.638 107.679 328.604 118.553 346.635 135.188C411.109 194.668 370.122 298.867 285.893 301.978C231.2 303.098 187.062 264.877 183.943 209.702C180.916 156.137 224.295 112.165 276.93 109.365Z"/>
	<path fill="#C7DCFC" transform="scale(1.17578 1.17578)" d="M269.855 129.449C271.233 116.434 286.775 115.79 288.718 129.449C321.312 131.057 357.301 163.481 358.032 196.818C370.639 200.448 368.882 213.13 358.032 215.287C356.376 248.984 323.853 278.771 291.01 282.882C289.725 297.145 273.317 296.812 272.17 282.882C234.351 278.012 210.643 252.601 204.077 215.287C188.945 211.62 190.375 195.646 204.077 196.818C202.901 184.07 212.98 164.336 221.15 154.856C232.819 141.317 251.903 130.753 269.855 129.449Z"/>
	<path fill="#223451" transform="scale(1.17578 1.17578)" d="M358.032 215.287C353.751 215.339 348.102 215.816 344.766 212.614C334.679 202.932 346.896 196.464 358.032 196.818C370.639 200.448 368.882 213.13 358.032 215.287Z"/>
	<path fill="#223451" transform="scale(1.17578 1.17578)" d="M204.077 196.818C215.334 195.155 223.909 203.095 216.587 211.396C213.333 215.085 208.59 214.918 204.077 215.287C188.945 211.62 190.375 195.646 204.077 196.818Z"/>
	<path fill="#223451" transform="scale(1.17578 1.17578)" d="M269.855 129.449C271.233 116.434 286.775 115.79 288.718 129.449C288.773 133.648 289.573 138.718 286.419 142.03C282.852 145.775 276.422 145.631 272.829 141.984C269.707 138.815 270.066 133.584 269.855 129.449Z"/>
	<path fill="#223451" transform="scale(1.17578 1.17578)" d="M272.17 282.882C272.099 278.407 271.306 273.248 274.781 269.763C278.606 265.926 284.904 266.197 288.518 270.162C291.755 273.714 291.043 278.442 291.01 282.882C289.725 297.145 273.317 296.812 272.17 282.882Z"/>
	<path fill="#223451" transform="scale(1.17578 1.17578)" d="M275.734 154.86C281.938 154.937 286.215 156.824 287.741 163.053C289.608 170.675 291.478 194.463 291.01 201.604C297.362 204.751 321.009 223.512 327.904 229.599C334.323 235.266 331.899 243.273 324.563 246.242C314.861 247.252 277.114 215.409 274.77 211.528C271.595 206.272 268.414 164.283 269.382 161.457C270.434 158.386 272.888 156.24 275.734 154.86Z"/>
</svg>
